# This file uses centimeters as units for non-parametric coordinates.

mtllib Roof.mtl
g default
v -0.554199 5.314989 7.882040
v 7.366105 5.314989 7.882040
v -0.554199 5.314989 1.000540
v 7.366105 5.314989 1.000540
v 3.405955 7.163980 7.882040
v 3.405955 7.163980 1.000540
v -0.554199 5.007662 7.882040
v -0.554199 5.007662 1.000540
v 3.405955 6.829567 1.000540
v 7.366105 5.007662 1.000540
v 7.366105 5.007662 7.882040
v 3.405955 6.829567 7.882040
v -0.260732 4.762981 7.174612
v 3.405955 4.762981 7.174612
v 3.405955 6.750057 7.174612
v -0.260732 5.063152 7.174612
v -0.260732 5.063152 1.707945
v 3.405955 6.750057 1.707945
v 3.405955 4.762981 1.707945
v -0.260732 4.762981 1.707945
v 7.072652 4.762981 1.707945
v 7.072652 4.762981 7.174612
v 7.072652 5.063152 1.707945
v 7.072652 5.063152 7.174612
vt 0.768094 0.169104
vt 0.768027 0.465992
vt 0.751725 0.465991
vt 0.751791 0.169101
vt 0.803435 0.866917
vt 0.803586 0.570027
vt 0.819888 0.570031
vt 0.819738 0.866925
vt 0.574475 0.586286
vt 0.178984 0.586286
vt 0.189865 0.574742
vt 0.563593 0.574742
vt 0.178984 0.133048
vt 0.574475 0.133048
vt 0.563593 0.144593
vt 0.189865 0.144593
vt 0.189865 0.359667
vt 0.563593 0.359667
vt 0.112561 0.998579
vt 0.112561 0.825482
vt 0.370628 0.825482
vt 0.370628 0.998579
vt 0.112561 0.652385
vt 0.370628 0.652385
vt 0.949922 0.370892
vt 0.839533 0.567631
vt 0.911503 0.370892
vt 0.720638 0.897878
vt 0.751725 0.864265
vt 0.850975 0.138143
vt 0.819888 0.171755
vt 0.621691 0.665128
vt 0.660110 0.665128
vt 0.728472 0.468392
vt 0.803586 0.370892
vt 0.803586 0.171755
vt 0.768027 0.665128
vt 0.768027 0.864265
vt 0.574475 0.359667
vt 0.178984 0.359667
vt 0.728472 0.130678
vt 0.839533 0.905353
vn -0.000001 0.000000 1.000000
vn 0.000000 0.000000 1.000000
vn 0.000000 0.000000 1.000000
vn -0.000001 0.000000 1.000000
vn -0.423058 0.906103 0.000000
vn 0.000000 1.000000 0.000000
vn 0.000000 1.000000 0.000000
vn -0.423058 0.906103 0.000000
vn 0.000000 0.000000 -1.000000
vn -0.000000 0.000000 -1.000000
vn 0.000000 0.000000 -1.000000
vn 0.000000 0.000000 -1.000000
vn 0.000000 -1.000000 0.000000
vn 0.000000 -1.000000 0.000000
vn 0.000000 -1.000000 0.000000
vn 0.000000 -1.000000 0.000000
vn 1.000000 0.000000 0.000000
vn 1.000000 0.000000 0.000000
vn 1.000000 0.000000 0.000000
vn 1.000000 0.000000 0.000000
vn -1.000000 0.000000 0.000000
vn -1.000000 0.000000 0.000000
vn -1.000000 0.000000 0.000000
vn -1.000000 0.000000 0.000000
vn 0.000001 0.000000 1.000000
vn 0.000001 0.000000 1.000000
vn 0.423059 0.906102 0.000000
vn 0.423059 0.906102 0.000000
vn -0.000000 0.000000 -1.000000
vn -0.000000 0.000000 -1.000000
vn 0.000000 -1.000000 0.000000
vn 0.000000 -1.000000 0.000000
vn -1.000000 0.000000 0.000000
vn -1.000000 0.000000 0.000000
vn -1.000000 0.000000 0.000000
vn -1.000000 0.000000 0.000000
vn 0.000001 0.000000 -1.000000
vn 0.000000 0.000000 -1.000000
vn -0.000000 0.000000 -1.000000
vn 0.000001 0.000000 -1.000000
vn -0.000001 0.000000 -1.000000
vn -0.000001 0.000000 -1.000000
vn 1.000000 0.000000 0.000000
vn 1.000000 0.000000 0.000000
vn 1.000000 0.000000 0.000000
vn 1.000000 0.000000 0.000000
vn 0.000001 0.000000 1.000000
vn 0.000001 0.000000 1.000000
vn 0.000006 0.000000 1.000000
vn 0.000006 0.000000 1.000000
vn -0.000004 0.000000 1.000000
vn -0.000004 0.000000 1.000000
vn 0.415789 -0.903770 0.101586
vn 0.415789 -0.903770 0.101586
vn 0.415789 -0.903770 0.101586
vn 0.415789 -0.903770 0.101586
vn 0.415786 -0.903771 -0.101589
vn 0.415786 -0.903771 -0.101589
vn 0.415786 -0.903771 -0.101589
vn 0.415786 -0.903771 -0.101589
vn -0.185802 -0.982587 0.000000
vn -0.185802 -0.982587 0.000000
vn -0.185802 -0.982587 0.000000
vn -0.185802 -0.982587 0.000000
vn 0.185794 -0.982589 0.000000
vn 0.185794 -0.982589 0.000000
vn 0.185794 -0.982589 0.000000
vn 0.185794 -0.982589 0.000000
vn -0.415789 -0.903770 0.101581
vn -0.415789 -0.903770 0.101581
vn -0.415789 -0.903770 0.101581
vn -0.415789 -0.903770 0.101581
vn -0.415787 -0.903771 -0.101584
vn -0.415787 -0.903771 -0.101584
vn -0.415787 -0.903771 -0.101584
vn -0.415787 -0.903771 -0.101584
s 1
g pCube4
usemtl initialShadingGroup
f 13/6/1 14/35/2 15/27/3 16/7/4
s 2
f 1/11/5 5/17/6 6/18/7 3/12/8
s 3
f 17/29/9 18/33/10 19/37/11 20/38/12
s 4
f 20/19/13 19/20/14 14/21/15 13/22/16
s off
f 22/1/17 21/2/18 23/3/19 24/4/20
f 20/5/21 13/6/22 16/7/23 17/8/24
s 1
f 24/31/25 15/27/3 14/35/2 22/36/26
s 2
f 6/18/7 5/17/6 2/16/27 4/15/28
s 3
f 19/37/11 18/33/10 23/3/29 21/2/30
s 4
f 14/21/15 19/20/14 21/23/31 22/24/32
s off
f 8/9/33 7/10/34 1/11/35 3/12/36
s 5
f 3/12/37 6/18/38 9/39/39 8/9/40
f 10/14/41 9/39/39 6/18/38 4/15/42
s off
f 11/13/43 10/14/44 4/15/45 2/16/46
s 6
f 5/17/47 12/40/48 11/13/49 2/16/50
f 7/10/51 12/40/48 5/17/47 1/11/52
s off
f 12/25/53 7/26/54 16/7/55 15/27/56
f 8/28/57 9/32/58 18/33/59 17/29/60
f 10/34/61 11/41/62 24/4/63 23/3/64
f 7/26/65 8/42/66 17/8/67 16/7/68
f 11/30/69 12/25/70 15/27/71 24/31/72
f 9/32/73 10/34/74 23/3/75 18/33/76
