# This file uses centimeters as units for non-parametric coordinates.

mtllib GalvanizdSheet.mtl
g default
v -7.299695 6.344600 -0.340701
v -7.299695 8.531404 -0.340701
v 0.751515 6.344600 -0.340701
v 0.751515 8.531404 -0.340701
vt 0.032720 0.401775
vt 0.032720 0.655613
vt 0.967280 0.401775
vt 0.967280 0.655613
vn 0.000000 0.000000 1.000000
vn 0.000000 0.000000 1.000000
vn 0.000000 0.000000 1.000000
vn 0.000000 0.000000 1.000000
s off
g GalvanizdSheet
usemtl initialShadingGroup
f 1/1/1 3/3/2 4/4/3 2/2/4
