# This file uses centimeters as units for non-parametric coordinates.

mtllib Noodle_shop2.mtl
g default
v -9.855939 6.143927 0.609018
v -10.594409 6.535929 0.609018
v -11.332879 6.143927 0.609018
v -11.460376 5.571842 0.609018
v -9.728442 5.571842 0.609018
v -9.855939 6.143927 0.791501
v -10.594409 6.535929 0.791501
v -11.332879 6.143927 0.791501
v -11.460376 5.571842 0.791501
v -9.728442 5.571842 0.791501
v -10.594409 5.571842 0.609018
v -10.594409 5.571842 0.791501
v -10.990920 6.435781 0.609018
v -10.990920 6.435781 0.791501
v -10.990920 5.571842 0.791501
v -10.990920 5.571842 0.609018
v -10.197899 6.435781 0.609018
v -10.197899 6.435781 0.791501
v -10.197899 5.571842 0.791501
v -10.197899 5.571842 0.609018
v -10.197899 6.143927 0.791501
v -10.594409 6.143927 0.791501
v -10.990920 6.143927 0.791501
vt 0.060803 0.420529
vt -0.000000 0.106420
vt 0.087025 0.087025
vt 0.147828 0.359849
vt 0.310906 0.499033
vt 0.256404 0.593528
vt 1.000000 0.106420
vt 0.939197 0.420529
vt 0.852172 0.359849
vt 0.912975 0.087025
vt 0.743596 0.593528
vt 0.689094 0.499033
vt 0.500000 0.087025
vt 0.500000 0.359849
vt 0.310906 0.359849
vt 0.310906 0.087025
vt 0.689094 0.087025
vt 0.689094 0.359849
vt 0.500000 0.546793
vt 0.500000 0.633818
vt 0.689094 0.000000
vt 0.912975 0.000000
vt 0.500000 0.000000
vt 0.310906 -0.000000
vt 0.087025 -0.000000
vt 0.500000 0.000000
vt 0.689094 0.000000
vt 0.310906 0.000000
vn 0.649182 0.760633 0.000000
vn 0.468866 0.883269 0.000000
vn 0.468866 0.883269 0.000000
vn 0.649182 0.760633 0.000000
vn -0.244883 0.969553 0.000000
vn -0.468866 0.883269 0.000000
vn -0.468866 0.883269 0.000000
vn -0.244883 0.969553 0.000000
vn -0.976054 0.217527 0.000000
vn -0.976054 0.217527 0.000000
vn -0.976054 0.217527 0.000000
vn -0.976054 0.217527 0.000000
vn 0.976054 0.217528 0.000000
vn 0.976054 0.217528 0.000000
vn 0.976054 0.217528 0.000000
vn 0.976054 0.217528 0.000000
vn 0.000000 0.000000 1.000000
vn 0.000000 0.000000 1.000000
vn 0.000000 0.000000 1.000000
vn 0.000000 0.000000 1.000000
vn 0.000000 0.000000 1.000000
vn -0.000000 0.000000 1.000000
vn 0.000000 0.000000 1.000000
vn 0.000000 0.000000 1.000000
vn 0.000000 -1.000000 0.000000
vn 0.000000 -1.000000 0.000000
vn -0.000000 -1.000000 0.000000
vn -0.000000 -1.000000 0.000000
vn -0.649182 0.760633 0.000000
vn -0.649182 0.760633 0.000000
vn -0.000000 0.000000 1.000000
vn -0.000000 0.000000 1.000000
vn 0.000000 -1.000000 0.000000
vn 0.000000 -1.000000 0.000000
vn 0.000000 -1.000000 0.000000
vn 0.000000 -1.000000 0.000000
vn 0.244883 0.969553 0.000000
vn 0.244883 0.969553 0.000000
vn 0.000000 -1.000000 0.000000
vn 0.000000 -1.000000 0.000000
vn -0.000000 0.000000 1.000000
vn 0.000000 0.000000 1.000000
vn 0.000000 0.000000 1.000000
s 1
g Noodle_shop2
usemtl initialShadingGroup
f 1/8/1 17/11/2 18/12/3 6/9/4
s 2
f 2/20/5 13/6/6 14/5/7 7/19/8
s off
f 3/1/9 4/2/10 9/3/11 8/4/12
f 5/7/13 1/8/14 6/9/15 10/10/16
s 3
f 12/13/17 22/14/18 23/15/19 15/16/20
f 6/9/21 21/18/22 19/17/23 10/10/24
s 5
f 19/17/25 20/27/26 5/22/27 10/10/28
s 2
f 14/5/7 13/6/6 3/1/29 8/4/30
s 3
f 15/16/20 23/15/19 8/4/31 9/3/32
s 5
f 9/3/33 4/25/34 16/24/35 15/16/36
s 1
f 18/12/3 17/11/2 2/20/37 7/19/38
s 3
f 12/13/17 19/17/23 21/18/22 22/14/18
s 5
f 12/13/39 11/26/40 20/21/26 19/17/25
f 15/16/36 16/28/35 11/23/40 12/13/39
s 3
f 18/12/41 21/18/22 6/9/21
f 22/14/18 21/18/22 18/12/41 7/19/42
f 23/15/19 22/14/18 7/19/42 14/5/43
f 8/4/31 23/15/19 14/5/43
