# This file uses centimeters as units for non-parametric coordinates.

mtllib Noodle_shop3.mtl
g default
v -1.563464 4.810164 0.791465
v 1.563464 4.810164 0.791465
v -1.563464 6.948219 0.791465
v 1.563464 6.948219 0.791465
v -1.563464 6.948219 0.613297
v 1.563464 6.948219 0.613297
v -1.563464 4.810164 0.613297
v 1.563464 4.810164 0.613297
vt 0.838818 0.272031
vt 0.879007 0.272031
vt 0.879007 0.754309
vt 0.838818 0.754309
vt 0.093293 0.272031
vt 0.133482 0.272031
vt 0.133482 0.754309
vt 0.093293 0.754309
vt 0.838818 0.794498
vt 0.133482 0.794497
vt 0.133482 0.231842
vt 0.838818 0.231842
vn 0.000000 0.000000 1.000000
vn 0.000000 0.000000 1.000000
vn 0.000000 0.000000 1.000000
vn 0.000000 0.000000 1.000000
vn 0.000000 1.000000 0.000000
vn 0.000000 1.000000 0.000000
vn 0.000000 1.000000 0.000000
vn 0.000000 1.000000 0.000000
vn 0.000000 -1.000000 0.000000
vn 0.000000 -1.000000 0.000000
vn 0.000000 -1.000000 0.000000
vn 0.000000 -1.000000 0.000000
vn 1.000000 0.000000 0.000000
vn 1.000000 0.000000 0.000000
vn 1.000000 0.000000 0.000000
vn 1.000000 0.000000 0.000000
vn -1.000000 0.000000 0.000000
vn -1.000000 0.000000 0.000000
vn -1.000000 0.000000 0.000000
vn -1.000000 0.000000 0.000000
s off
g Noodle_shop3
usemtl initialShadingGroup
f 1/6/1 2/1/2 4/4/3 3/7/4
f 3/7/5 4/4/6 6/9/7 5/10/8
f 7/11/9 8/12/10 2/1/11 1/6/12
f 2/1/13 8/2/14 6/3/15 4/4/16
f 7/5/17 1/6/18 3/7/19 5/8/20
