# This file uses centimeters as units for non-parametric coordinates.

mtllib TopRoof.mtl
g default
v -7.299695 3.899542 -0.340701
v 8.802726 3.899542 -0.340701
v -7.299695 6.344600 -0.340701
v 8.802726 6.344600 -0.340701
v -7.299695 4.801949 -10.328667
v 8.802726 4.801949 -10.328667
v -7.299695 3.899542 -10.328667
v 8.802726 3.899542 -10.328667
vt 0.024135 0.701789
vt 0.094212 0.254352
vt 0.134638 0.261465
vt 0.133668 0.719726
vt 0.913890 0.256087
vt 0.982072 0.703817
vt 0.872467 0.719726
vt 0.873438 0.261465
vt 0.872467 0.831908
vt 0.133668 0.831908
vt 0.134726 0.220062
vt 0.873525 0.220062
vn 0.000000 0.000000 1.000000
vn 0.000000 0.000000 1.000000
vn 0.000000 0.000000 1.000000
vn 0.000000 0.000000 1.000000
vn 0.000000 0.988282 -0.152641
vn 0.000000 0.988282 -0.152641
vn 0.000000 0.988282 -0.152641
vn 0.000000 0.988282 -0.152641
vn 0.000000 0.000000 -1.000000
vn 0.000000 0.000000 -1.000000
vn 0.000000 0.000000 -1.000000
vn 0.000000 0.000000 -1.000000
vn 1.000000 0.000000 0.000000
vn 1.000000 0.000000 0.000000
vn 1.000000 0.000000 0.000000
vn 1.000000 0.000000 0.000000
vn -1.000000 0.000000 0.000000
vn -1.000000 0.000000 0.000000
vn -1.000000 0.000000 0.000000
vn -1.000000 0.000000 0.000000
s off
g TopRoof
usemtl initialShadingGroup
f 1/9/1 2/10/2 4/4/3 3/7/4
f 3/7/5 4/4/6 6/3/7 5/8/8
f 5/8/9 6/3/10 8/11/11 7/12/12
f 2/1/13 8/2/14 6/3/15 4/4/16
f 7/5/17 1/6/18 3/7/19 5/8/20
