# This file uses centimeters as units for non-parametric coordinates.

mtllib WCV2.mtl
g default
v -7.299695 3.893187 -10.328667
v -7.299695 0.073446 -10.328667
v 8.802725 0.073445 -10.328667
v 8.802725 3.893187 -10.328667
vt 1.000000 0.431167
vt 1.000000 0.668382
vt 0.000000 0.668382
vt 0.000000 0.431167
vn -0.000000 0.000000 -1.000000
vn -0.000000 0.000000 -1.000000
vn -0.000000 0.000000 -1.000000
vn -0.000000 0.000000 -1.000000
s off
g WCV2
usemtl initialShadingGroup
f 4/1/1 3/2/2 2/3/3 1/4/4
