# This file uses centimeters as units for non-parametric coordinates.

mtllib Floor_mall_02new.mtl
g default
v -57.787092 0.000000 10.389961
v 13.787092 0.000000 10.389961
v -57.787092 1.000000 10.389961
v 13.787092 1.000000 10.389961
v -57.787092 1.000000 -40.499999
v 13.787092 1.000000 -40.499999
v -57.787092 0.000000 -40.499999
v 13.787092 0.000000 -40.499999
v -54.212908 1.000000 7.610040
v 10.212908 1.000000 7.610040
v 10.212908 1.000000 -37.720078
v -54.212908 1.000000 -37.720078
v -54.212908 2.000000 7.610040
v 10.212908 2.000000 7.610040
v 10.212908 2.000000 -37.720078
v -54.212908 2.000000 -37.720078
vt 0.885481 0.197594
vt 0.885481 0.729372
vt 0.874770 0.728628
vt 0.875292 0.197584
vt 0.114519 0.727883
vt 0.114519 0.197570
vt 0.124940 0.197580
vt 0.124940 0.728628
vt 0.837865 0.226676
vt 0.837401 0.699537
vt 0.790234 0.665884
vt 0.790632 0.260325
vt 0.162108 0.699537
vt 0.162569 0.226670
vt 0.209565 0.260325
vt 0.209565 0.665884
vt 0.125200 0.187102
vt 0.875292 0.187102
vt 0.874749 0.739108
vt 0.124660 0.739108
vn 0.000000 0.000000 1.000000
vn 0.000000 0.000000 1.000000
vn 0.000000 0.000000 1.000000
vn 0.000000 0.000000 1.000000
vn 0.000000 1.000000 0.000000
vn 0.000000 1.000000 0.000000
vn 0.000000 1.000000 0.000000
vn 0.000000 1.000000 0.000000
vn 0.000000 0.000000 -1.000000
vn 0.000000 0.000000 -1.000000
vn 0.000000 0.000000 -1.000000
vn 0.000000 0.000000 -1.000000
vn 1.000000 0.000000 0.000000
vn 1.000000 0.000000 0.000000
vn 1.000000 0.000000 0.000000
vn 1.000000 0.000000 0.000000
vn -1.000000 0.000000 0.000000
vn -1.000000 0.000000 0.000000
vn -1.000000 0.000000 0.000000
vn -1.000000 0.000000 0.000000
vn 0.000000 1.000000 0.000000
vn 0.000000 1.000000 0.000000
vn 0.000000 1.000000 0.000000
vn 0.000000 1.000000 0.000000
vn 0.000000 1.000000 0.000000
vn 0.000000 1.000000 0.000000
vn 0.000000 1.000000 0.000000
vn 0.000000 1.000000 0.000000
vn 0.000000 1.000000 -0.000000
vn 0.000000 1.000000 -0.000000
vn 0.000000 1.000000 -0.000000
vn 0.000000 1.000000 -0.000000
vn 0.000000 1.000000 0.000000
vn 0.000000 1.000000 0.000000
vn 0.000000 1.000000 0.000000
vn 0.000000 1.000000 0.000000
vn 0.000000 0.000000 1.000000
vn 0.000000 0.000000 1.000000
vn 0.000000 0.000000 1.000000
vn 0.000000 0.000000 1.000000
vn 1.000000 0.000000 0.000000
vn 1.000000 0.000000 0.000000
vn 1.000000 0.000000 0.000000
vn 1.000000 0.000000 0.000000
vn 0.000000 0.000000 -1.000000
vn 0.000000 0.000000 -1.000000
vn 0.000000 0.000000 -1.000000
vn 0.000000 0.000000 -1.000000
vn -1.000000 0.000000 0.000000
vn -1.000000 0.000000 0.000000
vn -1.000000 0.000000 0.000000
vn -1.000000 0.000000 0.000000
s off
g Floor
usemtl initialShadingGroup
f 1/17/1 2/18/2 4/4/3 3/7/4
f 13/15/5 14/12/6 15/11/7 16/16/8
f 5/8/9 6/3/10 8/19/11 7/20/12
f 2/1/13 8/2/14 6/3/15 4/4/16
f 7/5/17 1/6/18 3/7/19 5/8/20
f 3/7/21 4/4/22 10/9/23 9/14/24
f 4/4/25 6/3/26 11/10/27 10/9/28
f 6/3/29 5/8/30 12/13/31 11/10/32
f 5/8/33 3/7/34 9/14/35 12/13/36
f 9/14/37 10/9/38 14/12/39 13/15/40
f 10/9/41 11/10/42 15/11/43 14/12/44
f 11/10/45 12/13/46 16/16/47 15/11/48
f 12/13/49 9/14/50 13/15/51 16/16/52
