# This file uses centimeters as units for non-parametric coordinates.

mtllib Parking.mtl
g default
v -1.917712 0.962047 76.042705
v 2.082288 0.962047 76.042705
v -1.917712 1.819888 76.042705
v 2.082288 1.819888 76.042705
v -1.917712 1.819888 27.876891
v 2.082288 1.819888 27.876891
v -1.917712 0.962047 27.876891
v 2.082288 0.962047 27.876891
v 2.082288 0.962047 68.203807
v 2.082288 1.819888 68.203807
v -1.917712 1.819888 68.203807
v -1.917712 0.962047 68.203807
v -1.917711 0.962047 34.993829
v -1.917712 1.819888 34.993824
v 2.082288 1.819888 34.993824
v 2.082289 0.962047 34.993829
v 11.317895 0.962047 68.203807
v 11.317895 0.962047 72.303803
v 11.317895 1.819888 68.203807
v 11.317895 1.819888 72.303803
v -11.153321 1.819888 68.203807
v -11.153321 0.962047 68.203807
v -11.153321 0.962047 72.303803
v -11.153321 1.819888 72.303803
v 11.317895 1.819888 34.993824
v 11.317896 0.962047 34.993829
v 11.317895 0.962047 31.303818
v 11.317895 1.819888 31.303818
v -11.153321 0.962047 31.303818
v -11.153320 0.962047 34.993829
v -11.153321 1.819888 34.993824
v -11.153321 1.819888 31.303818
v 1.480823 1.819888 67.633254
v -1.379563 1.819888 67.633254
v 1.480823 1.819888 35.674416
v -1.379563 1.819888 35.674416
v 1.480823 1.399427 67.633254
v -1.379563 1.399427 67.633254
v 1.480823 1.399427 35.674416
v -1.379563 1.399427 35.674416
vt 0.134680 0.461249
vt 0.251416 0.461249
vt 0.238343 0.470826
vt 0.152935 0.470826
vt 0.238343 0.945452
vt 0.251416 0.959876
vt 0.134570 0.959876
vt 0.152868 0.945452
vt 0.778124 0.470826
vt 0.766654 0.461249
vt 0.876329 0.461249
vt 0.857448 0.470826
vt 0.876313 0.959876
vt 0.766654 0.959876
vt 0.778124 0.945452
vt 0.857420 0.945452
vt 0.778124 0.753214
vt 0.766654 0.759853
vt 0.251416 0.759853
vt 0.238343 0.753214
vt 0.238343 0.668476
vt 0.251416 0.661199
vt 0.766654 0.661199
vt 0.778123 0.668476
vt 0.258860 0.681937
vt 0.754732 0.681748
vt 0.743376 0.688106
vt 0.264669 0.688106
vt 0.754665 0.740212
vt 0.258860 0.740401
vt 0.264669 0.734132
vt 0.743332 0.733926
vt 0.085248 0.753214
vt 0.085290 0.668476
vt 0.910384 0.668476
vt 0.910516 0.753214
vt 0.053879 0.753214
vt 0.053887 0.668476
vt 0.946015 0.668476
vt 0.946015 0.753214
vn -0.271850 0.000000 0.962340
vn 0.271850 0.000000 0.962340
vn 0.271850 0.000000 0.962340
vn -0.271850 0.000000 0.962340
vn 0.000000 1.000000 0.000000
vn 0.000000 1.000000 0.000000
vn 0.000000 1.000000 0.000000
vn 0.000000 1.000000 0.000000
vn -0.250652 0.000000 -0.968077
vn 0.250652 0.000000 -0.968077
vn 0.250652 0.000000 -0.968077
vn -0.250652 0.000000 -0.968077
vn 1.000000 0.000000 0.000000
vn 1.000000 0.000000 0.000000
vn 1.000000 0.000000 0.000000
vn 1.000000 0.000000 0.000000
vn -1.000000 0.000000 0.000000
vn -1.000000 0.000000 0.000000
vn -1.000000 0.000000 0.000000
vn -1.000000 0.000000 0.000000
vn 1.000000 0.000000 -0.000000
vn 1.000000 0.000000 -0.000000
vn 1.000000 0.000000 -0.000000
vn 1.000000 0.000000 -0.000000
vn 0.000000 1.000000 0.000000
vn 0.000000 1.000000 0.000000
vn 0.000000 1.000000 0.000000
vn 0.000000 1.000000 0.000000
vn -1.000000 0.000000 0.000000
vn -1.000000 0.000000 0.000000
vn -1.000000 0.000000 0.000000
vn -1.000000 0.000000 0.000000
vn -1.000000 -0.000001 -0.000000
vn -1.000000 -0.000001 -0.000000
vn -1.000000 -0.000001 -0.000000
vn -1.000000 -0.000001 -0.000000
vn 0.000000 1.000000 0.000000
vn 0.000000 1.000000 0.000000
vn 0.000000 1.000000 0.000000
vn 0.000000 1.000000 0.000000
vn 1.000000 0.000001 0.000000
vn 1.000000 0.000001 0.000000
vn 1.000000 0.000001 0.000000
vn 1.000000 0.000001 0.000000
vn 0.000000 0.000000 -1.000000
vn 0.000000 0.000000 -1.000000
vn 0.000000 0.000000 -1.000000
vn 0.000000 0.000000 -1.000000
vn 0.000000 1.000000 0.000000
vn 0.000000 1.000000 0.000000
vn 0.375251 0.000000 0.926923
vn 0.375251 0.000000 0.926923
vn 0.000000 0.000000 -1.000000
vn 0.000000 0.000000 -1.000000
vn 0.000000 0.000000 -1.000000
vn 0.000000 0.000000 -1.000000
vn -0.375251 0.000000 0.926923
vn -0.375251 0.000000 0.926923
vn 0.000000 1.000000 0.000000
vn 0.000000 1.000000 0.000000
vn 0.000000 0.000006 1.000000
vn 0.000000 0.000006 1.000000
vn 0.000000 0.000006 1.000000
vn 0.000000 0.000006 1.000000
vn 0.347880 0.000000 -0.937539
vn 0.347880 0.000000 -0.937539
vn 0.000000 1.000000 0.000000
vn 0.000000 1.000000 0.000000
vn 0.000000 0.000006 1.000000
vn 0.000000 0.000006 1.000000
vn 0.000000 0.000006 1.000000
vn 0.000000 0.000006 1.000000
vn 0.000000 1.000000 0.000000
vn 0.000000 1.000000 0.000000
vn -0.347880 0.000000 -0.937539
vn -0.347880 0.000000 -0.937539
vn 0.000000 1.000000 0.000000
vn 0.000000 1.000000 0.000000
vn 0.000000 1.000000 0.000000
vn 0.000000 1.000000 0.000000
vn 0.000000 1.000000 0.000000
vn 0.000000 1.000000 0.000000
vn 0.000000 1.000000 0.000000
vn 0.000000 1.000000 0.000000
vn 0.000000 1.000000 0.000000
vn 0.000000 1.000000 0.000000
vn 0.000000 1.000000 0.000000
vn 0.000000 1.000000 0.000000
vn 0.000000 1.000000 0.000000
vn 0.000000 1.000000 0.000000
vn 0.000000 1.000000 0.000000
vn 0.000000 1.000000 0.000000
vn 0.000000 0.000000 -1.000000
vn 0.000000 0.000000 -1.000000
vn 0.000000 0.000000 -1.000000
vn 0.000000 0.000000 -1.000000
vn -1.000000 0.000000 0.000000
vn -1.000000 0.000000 0.000000
vn -1.000000 0.000000 0.000000
vn -1.000000 0.000000 0.000000
vn 0.000000 0.000000 1.000000
vn 0.000000 0.000000 1.000000
vn 0.000000 0.000000 1.000000
vn 0.000000 0.000000 1.000000
vn 1.000000 0.000000 0.000000
vn 1.000000 0.000000 0.000000
vn 1.000000 0.000000 0.000000
vn 1.000000 0.000000 0.000000
s 1
g pCube9
usemtl initialShadingGroup
f 1/37/1 2/38/2 4/34/3 3/33/4
s 2
f 3/33/5 4/34/6 10/21/7 11/20/8
s 3
f 5/36/9 6/35/10 8/39/11 7/40/12
s off
f 18/1/13 17/2/14 19/3/15 20/4/16
f 21/5/17 22/6/18 23/7/19 24/8/20
f 25/9/21 26/10/22 27/11/23 28/12/24
s 4
f 14/17/25 15/24/26 6/35/27 5/36/28
s off
f 29/13/29 30/14/30 31/15/31 32/16/32
f 14/17/33 13/18/34 12/19/35 11/20/36
f 38/31/37 37/28/38 39/27/39 40/32/40
f 10/21/41 9/22/42 16/23/43 15/24/44
f 9/22/45 10/21/46 19/3/47 17/2/48
s 2
f 10/21/7 4/34/6 20/4/49 19/3/50
s 1
f 4/34/3 2/38/2 18/1/51 20/4/52
s off
f 11/20/53 12/19/54 22/6/55 21/5/56
s 1
f 1/37/1 3/33/4 24/8/57 23/7/58
s 2
f 3/33/5 11/20/8 21/5/59 24/8/60
s off
f 15/24/61 16/23/62 26/10/63 25/9/64
s 3
f 8/39/11 6/35/10 28/12/65 27/11/66
s 4
f 6/35/27 15/24/26 25/9/67 28/12/68
s off
f 13/18/69 14/17/70 31/15/71 30/14/72
s 4
f 14/17/25 5/36/28 32/16/73 31/15/74
s 3
f 5/36/9 7/40/12 29/13/75 32/16/76
s off
f 11/20/77 10/21/78 33/25/79 34/30/80
f 10/21/81 15/24/82 35/26/83 33/25/84
f 15/24/85 14/17/86 36/29/87 35/26/88
f 14/17/89 11/20/90 34/30/91 36/29/92
f 34/30/93 33/25/94 37/28/95 38/31/96
f 33/25/97 35/26/98 39/27/99 37/28/100
f 35/26/101 36/29/102 40/32/103 39/27/104
f 36/29/105 34/30/106 38/31/107 40/32/108
