# This file uses centimeters as units for non-parametric coordinates.

mtllib Sun visor.mtl
g default
v -19.499975 14.642353 67.734344
v 21.500010 14.642353 67.734344
v -19.499975 14.742781 67.734344
v 21.500010 14.742781 67.734344
v -19.499975 14.742780 35.734348
v 21.500010 14.742780 35.734348
v -19.499975 14.642352 35.734348
v 21.500010 14.642352 35.734348
v -19.499975 17.364408 51.734348
v -19.499975 17.007849 51.734348
v 21.500010 17.007849 51.734348
v 21.500010 17.364408 51.734348
v -14.860418 1.819888 51.194790
v -15.399979 1.819888 50.971294
v -15.939539 1.819888 51.194790
v -16.163031 1.819888 51.734348
v -15.939539 1.819888 52.273907
v -15.399979 1.819888 52.497402
v -14.860418 1.819888 52.273907
v -14.636927 1.819888 51.734348
v -14.860418 17.003345 51.194790
v -15.399979 17.003345 50.971294
v -15.939539 17.003345 51.194790
v -16.163031 17.003345 51.734348
v -15.939539 17.003345 52.273907
v -14.860418 17.003345 52.273907
v -14.636927 17.003345 51.734348
v -14.860418 14.642352 51.194790
v -14.636927 14.642352 51.734348
v -14.860418 14.642352 52.273907
v -15.399979 14.642352 52.497402
v -15.939539 14.642352 52.273907
v -16.163031 14.642352 51.734348
v -15.939539 14.642352 51.194790
v -15.399979 14.642352 50.971294
v -14.860418 15.386220 59.737457
v -15.399979 15.386220 59.737492
v -14.860418 15.915479 59.737457
v -15.399979 15.915479 59.737492
v -15.939539 15.386220 59.737457
v -15.939539 15.915479 59.737457
v -15.939539 15.386220 43.731209
v -15.399979 15.386220 43.731209
v -15.939539 15.915479 43.731209
v -15.399979 15.915479 43.731209
v -14.860418 15.386220 43.731209
v -14.860418 15.915479 43.731209
v 18.349564 1.819888 51.194790
v 17.810003 1.819888 50.971294
v 17.270443 1.819888 51.194790
v 17.046951 1.819888 51.734348
v 17.270443 1.819888 52.273907
v 17.810003 1.819888 52.497402
v 18.349564 1.819888 52.273907
v 18.573055 1.819888 51.734348
v 18.349564 17.003345 51.194790
v 17.810003 17.003345 50.971294
v 17.270443 17.003345 51.194790
v 17.046951 17.003345 51.734348
v 17.270443 17.003345 52.273907
v 17.810003 17.003345 52.497402
v 18.349564 17.003345 52.273907
v 18.573055 17.003345 51.734348
v 18.349564 14.642352 51.194790
v 18.573055 14.642352 51.734348
v 18.349564 14.642352 52.273907
v 17.810003 14.642352 52.497402
v 17.270443 14.642352 52.273907
v 17.046951 14.642352 51.734348
v 17.270443 14.642352 51.194790
v 17.810003 14.642352 50.971294
v 18.349564 15.386220 59.737457
v 17.810003 15.386220 59.737492
v 18.349564 15.915479 59.737457
v 17.810003 15.915479 59.737492
v 17.270443 15.386220 59.737457
v 17.270443 15.915479 59.737457
v 17.270443 15.386220 43.731209
v 17.810003 15.386220 43.731209
v 17.270443 15.915479 43.731209
v 17.810003 15.915479 43.731209
v 18.349564 15.386220 43.731209
v 18.349564 15.915479 43.731209
vt 0.513398 0.561419
vt 0.500126 0.418464
vt 0.514371 0.418464
vt 0.514374 0.561158
vt 0.513986 0.275883
vt 0.514852 0.276016
vt 0.874550 0.418464
vt 0.892549 0.418464
vt 0.875712 0.561401
vt 0.874767 0.561158
vt 0.875040 0.276088
vt 0.874223 0.276016
vt 0.874768 0.562041
vt 0.514375 0.562041
vt 0.514852 0.275133
vt 0.874223 0.275133
vt 0.874830 0.704268
vt 0.514446 0.704268
vt 0.874876 0.846495
vt 0.514352 0.846495
vt 0.118910 0.204056
vt 0.118909 0.196146
vt 0.306862 0.196105
vt 0.306864 0.204014
vt 0.118907 0.188238
vt 0.306860 0.188196
vt 0.118905 0.180329
vt 0.306859 0.180287
vt 0.118903 0.172420
vt 0.306857 0.172378
vt 0.118902 0.164511
vt 0.306855 0.164469
vt 0.118900 0.156602
vt 0.306854 0.156560
vt 0.118937 0.438632
vt 0.118937 0.430723
vt 0.306888 0.430723
vt 0.306888 0.438632
vt 0.118937 0.422814
vt 0.306888 0.422814
vt 0.341496 0.430723
vt 0.341496 0.438632
vt 0.317735 0.055065
vt 0.317733 0.047156
vt 0.325491 0.047154
vt 0.325493 0.055063
vt 0.317737 0.062974
vt 0.325495 0.062972
vt 0.341465 0.172370
vt 0.341467 0.180279
vt 0.341468 0.188188
vt 0.317790 0.305505
vt 0.317788 0.297596
vt 0.325546 0.297594
vt 0.325548 0.305503
vt 0.317792 0.313414
vt 0.325550 0.313413
vt 0.299306 0.442696
vt 0.317792 0.548032
vt 0.309883 0.548821
vt 0.291071 0.440208
vt 0.301974 0.549608
vt 0.299306 0.418750
vt 0.291071 0.421237
vt 0.301974 0.311837
vt 0.309883 0.312625
vt 0.037187 0.636595
vt 0.037186 0.628686
vt 0.225140 0.628644
vt 0.225141 0.636553
vt 0.037184 0.620777
vt 0.225138 0.620735
vt 0.037182 0.612868
vt 0.225136 0.612826
vt 0.037180 0.604959
vt 0.225134 0.604918
vt 0.037179 0.597050
vt 0.225133 0.597008
vt 0.037177 0.589141
vt 0.225131 0.589099
vt 0.037215 0.871171
vt 0.037215 0.863262
vt 0.225166 0.863262
vt 0.225166 0.871171
vt 0.037215 0.855353
vt 0.225166 0.855353
vt 0.259773 0.863262
vt 0.259773 0.871171
vt 0.236012 0.487604
vt 0.236011 0.479695
vt 0.243769 0.479693
vt 0.243770 0.487602
vt 0.236014 0.495513
vt 0.243772 0.495511
vt 0.259742 0.604910
vt 0.259744 0.612819
vt 0.259746 0.620728
vt 0.236067 0.738044
vt 0.236066 0.730135
vt 0.243824 0.730133
vt 0.243825 0.738043
vt 0.236069 0.745953
vt 0.243827 0.745952
vt 0.217583 0.875235
vt 0.236069 0.980571
vt 0.228160 0.981360
vt 0.209348 0.872747
vt 0.220252 0.982148
vt 0.217583 0.851289
vt 0.209348 0.853777
vt 0.220251 0.744376
vt 0.228160 0.745164
vt 0.259773 0.855353
vt 0.243827 0.980571
vt 0.341496 0.422814
vt 0.325550 0.548032
vn 0.000000 0.000000 1.000000
vn 0.000000 0.000000 1.000000
vn 0.000000 0.000000 1.000000
vn 0.000000 0.000000 1.000000
vn 0.000000 0.986841 0.161696
vn 0.000000 0.986841 0.161696
vn 0.000000 1.000000 -0.000000
vn 0.000000 1.000000 -0.000000
vn 0.000000 0.000000 -1.000000
vn 0.000000 0.000000 -1.000000
vn 0.000000 0.000000 -1.000000
vn 0.000000 0.000000 -1.000000
vn 0.000000 -1.000000 0.000000
vn 0.000000 -1.000000 0.000000
vn 0.000000 -0.989247 -0.146254
vn 0.000000 -0.989247 -0.146254
vn 1.000000 0.000000 0.000000
vn 1.000000 0.000000 0.000000
vn 1.000000 0.000000 0.000000
vn 1.000000 0.000000 0.000000
vn -1.000000 0.000000 0.000000
vn -1.000000 0.000000 0.000000
vn -1.000000 0.000000 0.000000
vn -1.000000 0.000000 0.000000
vn -1.000000 0.000000 0.000000
vn -1.000000 0.000000 0.000000
vn 0.000000 -0.989247 0.146254
vn 0.000000 -0.989247 0.146254
vn 1.000000 0.000000 0.000000
vn 1.000000 0.000000 0.000000
vn 0.000000 0.986841 -0.161696
vn 0.000000 0.986841 -0.161696
vn 0.382689 0.000000 -0.923877
vn 0.382689 0.000000 -0.923877
vn 0.382689 0.000000 -0.923877
vn 0.382689 0.000000 -0.923877
vn -0.382689 0.000000 -0.923877
vn -0.382689 0.000000 -0.923877
vn -0.382689 0.000000 -0.923877
vn -0.382689 0.000000 -0.923877
vn -0.923880 0.000000 -0.382683
vn -0.923880 0.000000 -0.382683
vn -0.923880 0.000000 -0.382683
vn -0.923880 0.000000 -0.382683
vn -0.923880 0.000000 0.382683
vn -0.923880 0.000000 0.382683
vn -0.923880 0.000000 0.382683
vn -0.923880 0.000000 0.382683
vn -0.382689 0.000000 0.923877
vn -0.382689 0.000000 0.923877
vn -0.382689 0.000000 0.923877
vn -0.382689 0.000000 0.923877
vn 0.382689 0.000000 0.923877
vn 0.382689 0.000000 0.923877
vn 0.382689 0.000000 0.923877
vn 0.382689 0.000000 0.923877
vn 0.923880 0.000000 0.382683
vn 0.923880 0.000000 0.382683
vn 0.923880 0.000000 0.382683
vn 0.923880 0.000000 0.382683
vn 0.923880 0.000000 -0.382683
vn 0.923880 0.000000 -0.382683
vn 0.923880 0.000000 -0.382683
vn 0.923880 0.000000 -0.382683
vn 0.923880 0.000000 -0.382682
vn 0.923880 0.000000 -0.382682
vn 0.923880 0.000000 0.382682
vn 0.923880 0.000000 0.382682
vn 0.000060 0.000000 1.000000
vn 0.000060 0.000000 1.000000
vn 0.000060 0.000000 1.000000
vn 0.000060 0.000000 1.000000
vn -0.000060 0.000000 1.000000
vn -0.000060 0.000000 1.000000
vn -0.000060 0.000000 1.000000
vn -0.000060 0.000000 1.000000
vn -0.923880 0.000000 0.382682
vn -0.923880 0.000000 0.382682
vn -0.923880 0.000000 -0.382682
vn -0.923880 0.000000 -0.382682
vn 0.000000 0.000000 -1.000000
vn 0.000000 0.000000 -1.000000
vn 0.000000 0.000000 -1.000000
vn 0.000000 0.000000 -1.000000
vn 0.000000 0.000000 -1.000000
vn 0.000000 0.000000 -1.000000
vn 0.000000 0.000000 -1.000000
vn 0.000000 0.000000 -1.000000
vn 0.020848 -0.994704 0.100646
vn 0.020848 -0.994704 0.100646
vn 0.020848 -0.994704 0.100646
vn 0.020848 -0.994704 0.100646
vn 1.000000 0.000000 0.000000
vn 1.000000 0.000000 0.000000
vn 1.000000 0.000000 0.000000
vn 1.000000 0.000000 0.000000
vn -0.020848 -0.994704 0.100646
vn -0.020848 -0.994704 0.100646
vn -0.020848 -0.994704 0.100646
vn -0.020848 -0.994704 0.100646
vn -1.000000 0.000000 0.000000
vn -1.000000 0.000000 0.000000
vn -1.000000 0.000000 0.000000
vn -1.000000 0.000000 0.000000
vn -0.020845 -0.994704 -0.100645
vn -0.020845 -0.994704 -0.100645
vn -0.020845 -0.994704 -0.100645
vn -0.020845 -0.994704 -0.100645
vn -1.000000 0.000000 0.000000
vn -1.000000 0.000000 0.000000
vn -1.000000 0.000000 0.000000
vn -1.000000 0.000000 0.000000
vn -0.030302 0.988774 -0.146311
vn -0.030302 0.988774 -0.146311
vn -0.030302 0.988774 -0.146311
vn -0.030302 0.988774 -0.146311
vn 0.020845 -0.994704 -0.100645
vn 0.020845 -0.994704 -0.100645
vn 0.020845 -0.994704 -0.100645
vn 0.020845 -0.994704 -0.100645
vn 0.030302 0.988774 -0.146311
vn 0.030302 0.988774 -0.146311
vn 0.030302 0.988774 -0.146311
vn 0.030302 0.988774 -0.146311
vn 1.000000 0.000000 0.000000
vn 1.000000 0.000000 0.000000
vn 1.000000 0.000000 0.000000
vn 1.000000 0.000000 0.000000
vn 0.382689 0.000000 -0.923877
vn 0.382689 0.000000 -0.923877
vn 0.382689 0.000000 -0.923877
vn 0.382689 0.000000 -0.923877
vn -0.382689 0.000000 -0.923877
vn -0.382689 0.000000 -0.923877
vn -0.382689 0.000000 -0.923877
vn -0.382689 0.000000 -0.923877
vn -0.923880 0.000000 -0.382683
vn -0.923880 0.000000 -0.382683
vn -0.923880 0.000000 -0.382683
vn -0.923880 0.000000 -0.382683
vn -0.923880 0.000000 0.382683
vn -0.923880 0.000000 0.382683
vn -0.923880 0.000000 0.382683
vn -0.923880 0.000000 0.382683
vn -0.382689 0.000000 0.923877
vn -0.382689 0.000000 0.923877
vn -0.382689 0.000000 0.923877
vn -0.382689 0.000000 0.923877
vn 0.382689 0.000000 0.923877
vn 0.382689 0.000000 0.923877
vn 0.382689 0.000000 0.923877
vn 0.382689 0.000000 0.923877
vn 0.923880 0.000000 0.382683
vn 0.923880 0.000000 0.382683
vn 0.923880 0.000000 0.382683
vn 0.923880 0.000000 0.382683
vn 0.923880 0.000000 -0.382683
vn 0.923880 0.000000 -0.382683
vn 0.923880 0.000000 -0.382683
vn 0.923880 0.000000 -0.382683
vn 0.923880 0.000000 -0.382682
vn 0.923880 0.000000 -0.382682
vn 0.923880 0.000000 0.382682
vn 0.923880 0.000000 0.382682
vn 0.000060 0.000000 1.000000
vn 0.000060 0.000000 1.000000
vn 0.000060 0.000000 1.000000
vn 0.000060 0.000000 1.000000
vn -0.000060 0.000000 1.000000
vn -0.000060 0.000000 1.000000
vn -0.000060 0.000000 1.000000
vn -0.000060 0.000000 1.000000
vn -0.923880 0.000000 0.382682
vn -0.923880 0.000000 0.382682
vn -0.923880 0.000000 -0.382682
vn -0.923880 0.000000 -0.382682
vn 0.000000 0.000000 -1.000000
vn 0.000000 0.000000 -1.000000
vn 0.000000 0.000000 -1.000000
vn 0.000000 0.000000 -1.000000
vn 0.000000 0.000000 -1.000000
vn 0.000000 0.000000 -1.000000
vn 0.000000 0.000000 -1.000000
vn 0.000000 0.000000 -1.000000
vn 0.020848 -0.994704 0.100646
vn 0.020848 -0.994704 0.100646
vn 0.020848 -0.994704 0.100646
vn 0.020848 -0.994704 0.100646
vn 1.000000 0.000000 0.000000
vn 1.000000 0.000000 0.000000
vn 1.000000 0.000000 0.000000
vn 1.000000 0.000000 0.000000
vn 0.030306 0.988774 0.146311
vn 0.030306 0.988774 0.146311
vn 0.030306 0.988774 0.146311
vn 0.030306 0.988774 0.146311
vn -0.020848 -0.994704 0.100645
vn -0.020848 -0.994704 0.100645
vn -0.020848 -0.994704 0.100645
vn -0.020848 -0.994704 0.100645
vn -0.030306 0.988774 0.146311
vn -0.030306 0.988774 0.146311
vn -0.030306 0.988774 0.146311
vn -0.030306 0.988774 0.146311
vn -1.000000 0.000000 0.000000
vn -1.000000 0.000000 0.000000
vn -1.000000 0.000000 0.000000
vn -1.000000 0.000000 0.000000
vn -0.020845 -0.994704 -0.100645
vn -0.020845 -0.994704 -0.100645
vn -0.020845 -0.994704 -0.100645
vn -0.020845 -0.994704 -0.100645
vn -1.000000 0.000000 0.000000
vn -1.000000 0.000000 0.000000
vn -1.000000 0.000000 0.000000
vn -1.000000 0.000000 0.000000
vn -0.030302 0.988774 -0.146311
vn -0.030302 0.988774 -0.146311
vn -0.030302 0.988775 -0.146311
vn -0.030302 0.988775 -0.146311
vn 0.020845 -0.994704 -0.100646
vn 0.020845 -0.994704 -0.100646
vn 0.020845 -0.994704 -0.100646
vn 0.020845 -0.994704 -0.100646
vn 0.030302 0.988774 -0.146311
vn 0.030302 0.988774 -0.146311
vn 0.030302 0.988774 -0.146311
vn 0.030302 0.988774 -0.146311
vn 1.000000 0.000000 0.000000
vn 1.000000 0.000000 0.000000
vn 1.000000 0.000000 0.000000
vn 1.000000 0.000000 0.000000
s off
g pCube12
usemtl initialShadingGroup
f 1/13/1 2/14/2 4/4/3 3/10/4
s 1
f 3/10/5 4/4/6 12/3/7 9/7/8
s off
f 5/12/9 6/6/10 8/15/11 7/16/12
s 2
f 10/17/13 11/18/14 2/14/15 1/13/16
s 3
f 2/1/17 11/2/18 12/3/19 4/4/20
s 4
f 9/7/21 10/8/22 1/9/23 3/10/24
f 7/11/25 10/8/22 9/7/21 5/12/26
s 2
f 7/19/27 8/20/28 11/18/14 10/17/13
s 3
f 12/3/19 11/2/18 8/5/29 6/6/30
s 1
f 9/7/8 12/3/7 6/6/31 5/12/32
s off
f 13/21/33 14/22/34 35/23/35 28/24/36
f 14/22/37 15/25/38 34/26/39 35/23/40
s 5
f 15/25/41 16/27/42 33/28/43 34/26/44
s 6
f 16/27/45 17/29/46 32/30/47 33/28/48
s off
f 17/29/49 18/31/50 31/32/51 32/30/52
f 18/31/53 19/33/54 30/34/55 31/32/56
s 7
f 19/35/57 20/36/58 29/37/59 30/38/60
s 8
f 20/36/61 13/39/62 28/40/63 29/37/64
f 29/37/64 28/40/63 21/115/65 27/41/66
s 7
f 30/38/60 29/37/59 27/41/67 26/42/68
s off
f 37/43/69 36/44/70 38/45/71 39/46/72
f 40/47/73 37/43/74 39/46/75 41/48/76
s 6
f 33/28/48 32/30/47 25/49/77 24/50/78
s 5
f 34/26/44 33/28/43 24/50/79 23/51/80
s off
f 43/52/81 42/53/82 44/54/83 45/55/84
f 46/56/85 43/52/86 45/55/87 47/57/88
f 31/58/89 30/38/90 36/59/91 37/60/92
f 30/38/93 26/42/94 38/116/95 36/59/96
f 32/61/97 31/58/98 37/60/99 40/62/100
f 25/49/101 32/30/102 40/47/103 41/48/104
f 35/63/105 34/64/106 42/65/107 43/66/108
f 34/26/109 23/51/110 44/54/111 42/53/112
f 23//113 22//114 45//115 44//116
f 28/40/117 35/63/118 43/66/119 46/56/120
f 22//121 21//122 47//123 45//124
f 21/115/125 28/40/126 46/56/127 47/57/128
f 48/67/129 49/68/130 71/69/131 64/70/132
f 49/68/133 50/71/134 70/72/135 71/69/136
s 9
f 50/71/137 51/73/138 69/74/139 70/72/140
s 10
f 51/73/141 52/75/142 68/76/143 69/74/144
s off
f 52/75/145 53/77/146 67/78/147 68/76/148
f 53/77/149 54/79/150 66/80/151 67/78/152
s 11
f 54/81/153 55/82/154 65/83/155 66/84/156
s 12
f 55/82/157 48/85/158 64/86/159 65/83/160
f 65/83/160 64/86/159 56/113/161 63/87/162
s 11
f 66/84/156 65/83/155 63/87/163 62/88/164
s off
f 73/89/165 72/90/166 74/91/167 75/92/168
f 76/93/169 73/89/170 75/92/171 77/94/172
s 10
f 69/74/144 68/76/143 60/95/173 59/96/174
s 9
f 70/72/140 69/74/139 59/96/175 58/97/176
s off
f 79/98/177 78/99/178 80/100/179 81/101/180
f 82/102/181 79/98/182 81/101/183 83/103/184
f 67/104/185 66/84/186 72/105/187 73/106/188
f 66/84/189 62/88/190 74/114/191 72/105/192
f 62//193 61//194 75//195 74//196
f 68/107/197 67/104/198 73/106/199 76/108/200
f 61//201 60//202 77//203 75//204
f 60/95/205 68/76/206 76/93/207 77/94/208
f 71/109/209 70/110/210 78/111/211 79/112/212
f 70/72/213 58/97/214 80/100/215 78/99/216
f 58//217 57//218 81//219 80//220
f 64/86/221 71/109/222 79/112/223 82/102/224
f 57//225 56//226 83//227 81//228
f 56/113/229 64/86/230 82/102/231 83/103/232
