# This file uses centimeters as units for non-parametric coordinates.

mtllib Bowl_of_vegetables.mtl
g default
v -7.211216 0.927247 2.215686
v -7.245047 0.922887 2.193676
v -7.283979 0.922887 2.209805
v -7.300117 0.922887 2.248741
v -7.283979 0.922887 2.287678
v -7.245047 0.922887 2.303806
v -7.206115 0.922887 2.287678
v -7.197522 0.927247 2.248741
v -7.130320 1.022926 2.134014
v -7.245047 1.022926 2.086493
v -7.359774 1.022926 2.134014
v -7.407292 1.022926 2.248741
v -7.359774 1.022926 2.363467
v -7.245047 1.022926 2.410992
v -7.130320 1.022926 2.363467
v -7.082801 1.022926 2.248741
v -7.245047 0.922887 2.248741
v -7.179960 0.949340 2.184433
v -7.153320 0.949340 2.248741
v -7.169295 0.948911 2.324494
v -7.245047 0.948911 2.355870
v -7.320798 0.948911 2.324494
v -7.352174 0.948911 2.248741
v -7.320798 0.948911 2.172988
v -7.245047 0.948911 2.141612
v -7.160254 0.975949 2.164728
v -7.125460 0.975949 2.248741
v -7.146091 0.980255 2.347703
v -7.245047 0.980255 2.388694
v -7.344003 0.980255 2.347703
v -7.384999 0.980255 2.248741
v -7.344003 0.980255 2.149778
v -7.245047 0.980255 2.108788
v -7.136360 1.022926 2.140052
v -7.245047 1.022926 2.095031
v -7.353734 1.022926 2.140052
v -7.398758 1.022926 2.248741
v -7.353734 1.022926 2.357430
v -7.245047 1.022926 2.402451
v -7.136360 1.022926 2.357430
v -7.091340 1.022926 2.248741
v -7.171678 0.961311 2.176145
v -7.244278 0.961311 2.146075
v -7.316869 0.961311 2.176145
v -7.346937 0.961311 2.248741
v -7.316869 0.961311 2.321337
v -7.244278 0.961311 2.351407
v -7.171678 0.961311 2.321337
v -7.141611 0.961311 2.248741
v -7.348552 1.010008 2.348491
v -7.248919 1.010008 2.390655
v -7.225992 1.010008 2.384005
v -7.139576 1.010008 2.351808
v -7.377548 1.010008 2.276807
v -7.282125 1.054230 2.289999
v -7.202466 1.054230 2.289999
v -7.112723 1.010008 2.276807
v -7.389663 1.010008 2.244512
v -7.282125 1.054230 2.233867
v -7.202466 1.054230 2.233867
v -7.100504 1.010008 2.247266
v -7.348238 1.010008 2.149458
v -7.282125 1.010008 2.122530
v -7.247886 1.010008 2.111699
v -7.144177 1.006472 2.151016
vt 0.087477 0.206029
vt 0.127886 0.350164
vt 0.079133 0.383839
vt 0.024594 0.192692
vt 0.143683 0.216818
vt 0.169912 0.315719
vt 0.181882 0.075474
vt 0.150319 0.026135
vt 0.208176 0.127509
vt 0.316591 0.214258
vt 0.286439 0.183866
vt 0.304470 0.123322
vt 0.362935 0.187073
vt 0.273004 0.240768
vt 0.241233 0.189218
vt 0.321812 0.073754
vt 0.401512 0.165463
vt 0.322680 0.251594
vt 0.374472 0.263155
vt 0.213209 0.228889
vt 0.336568 0.026281
vt 0.457308 0.133908
vt 0.417064 0.272561
vt 0.304249 0.288496
vt 0.338636 0.338236
vt 0.223399 0.274805
vt 0.482370 0.275877
vt 0.367551 0.379368
vt 0.261921 0.297858
vt 0.253111 0.359197
vt 0.399962 0.422851
vt 0.247834 0.409959
vt 0.568734 0.042352
vt 0.571496 0.050998
vt 0.478841 0.141868
vt 0.687984 0.052013
vt 0.684454 0.059211
vt 0.596782 0.119137
vt 0.550395 0.168793
vt 0.490081 0.271121
vt 0.764145 0.135962
vt 0.756921 0.138767
vt 0.656247 0.120023
vt 0.553447 0.236686
vt 0.578963 0.346167
vt 0.580981 0.338415
vt 0.764698 0.247851
vt 0.757475 0.245171
vt 0.695695 0.163005
vt 0.599078 0.274643
vt 0.691305 0.332252
vt 0.687661 0.325413
vt 0.695643 0.222692
vt 0.656803 0.267838
vt 0.460225 0.908925
vt 0.371144 0.698429
vt 0.592443 0.760491
vt 0.613795 0.971329
vt 0.384076 0.649656
vt 0.592702 0.609710
vt 0.698574 0.760774
vt 0.683290 0.992995
vt 0.456171 0.469111
vt 0.614259 0.410451
vt 0.697918 0.609598
vt 0.936327 0.765952
vt 0.879512 0.903341
vt 0.677975 0.388615
vt 0.956772 0.694838
vt 0.878041 0.480280
vt 0.400148 0.422711
vt 0.241383 0.466571
vn 0.298364 -0.870725 -0.390918
vn 0.298364 -0.870725 -0.390918
vn 0.363162 -0.751451 -0.550849
vn 0.355351 -0.769482 -0.530682
vn -0.182096 -0.879537 -0.439608
vn -0.182096 -0.879537 -0.439608
vn -0.244935 -0.768339 -0.591322
vn -0.244935 -0.768339 -0.591322
vn -0.439616 -0.879528 -0.182125
vn -0.439616 -0.879528 -0.182125
vn -0.591326 -0.768331 -0.244951
vn -0.591329 -0.768328 -0.244952
vn -0.439622 -0.879524 0.182127
vn -0.439622 -0.879524 0.182127
vn -0.591332 -0.768326 0.244954
vn -0.591330 -0.768328 0.244953
vn -0.182098 -0.879535 0.439613
vn -0.182098 -0.879535 0.439613
vn -0.244936 -0.768340 0.591320
vn -0.244937 -0.768339 0.591321
vn 0.182098 -0.879533 0.439615
vn 0.182098 -0.879533 0.439615
vn 0.244937 -0.768334 0.591328
vn 0.244937 -0.768335 0.591327
vn 0.486472 -0.871059 0.067835
vn 0.486471 -0.871059 0.067835
vn 0.626006 -0.769450 0.126737
vn 0.645320 -0.751837 0.135288
vn 0.439602 -0.879537 -0.182112
vn 0.439602 -0.879537 -0.182112
vn 0.591316 -0.768345 -0.244931
vn 0.591321 -0.768341 -0.244933
vn 0.054558 -0.998511 0.000000
vn 0.112252 -0.993548 -0.016163
vn 0.034738 -0.999294 -0.014298
vn 0.000000 -1.000000 0.000002
vn 0.000000 -1.000000 -0.000000
vn 0.000000 -1.000000 -0.000002
vn 0.000000 -1.000000 0.000000
vn 0.038874 -0.998488 -0.038870
vn 0.091143 -0.993489 -0.068359
vn 0.697604 -0.655643 -0.288932
vn 0.697564 -0.655692 -0.288916
vn 0.762659 -0.604611 0.229775
vn 0.768255 -0.594636 0.237049
vn 0.323564 -0.533996 0.781124
vn 0.323565 -0.533993 0.781125
vn -0.323565 -0.533999 0.781121
vn -0.323564 -0.534001 0.781120
vn -0.781124 -0.533998 0.323559
vn -0.781126 -0.533995 0.323560
vn -0.781128 -0.533993 -0.323558
vn -0.781127 -0.533996 -0.323557
vn -0.323554 -0.533993 -0.781130
vn -0.323554 -0.533992 -0.781131
vn 0.376585 -0.596336 -0.708920
vn 0.377957 -0.606387 -0.699602
vn 0.707801 -0.642712 -0.293152
vn 0.707801 -0.642712 -0.293152
vn 0.786730 -0.558860 0.262166
vn 0.786730 -0.558860 0.262166
vn 0.344642 -0.434754 0.831992
vn 0.344642 -0.434754 0.831992
vn -0.344642 -0.434757 0.831991
vn -0.344642 -0.434757 0.831991
vn -0.831995 -0.434758 0.344630
vn -0.831995 -0.434758 0.344630
vn -0.831998 -0.434755 -0.344627
vn -0.831998 -0.434755 -0.344626
vn -0.344626 -0.434746 -0.832003
vn -0.344626 -0.434746 -0.832003
vn 0.371388 -0.561339 -0.739574
vn 0.371388 -0.561339 -0.739574
vn 0.000000 1.000000 -0.000000
vn 0.000000 1.000000 -0.000000
vn 0.000000 1.000000 -0.000000
vn 0.000000 1.000000 -0.000000
vn 0.000000 1.000000 0.000000
vn 0.000000 1.000000 0.000000
vn 0.000000 1.000000 0.000000
vn 0.000000 1.000000 0.000000
vn 0.000000 1.000000 0.000004
vn 0.000000 1.000000 0.000004
vn 0.000000 1.000000 0.000004
vn 0.000000 1.000000 0.000004
vn 0.000000 1.000000 -0.000003
vn 0.000000 1.000000 -0.000003
vn 0.000000 1.000000 -0.000003
vn 0.000000 1.000000 -0.000003
vn 0.000000 1.000000 0.000000
vn 0.000000 1.000000 0.000000
vn 0.000000 1.000000 0.000000
vn 0.000000 1.000000 0.000000
vn 0.000000 1.000000 0.000000
vn 0.000000 1.000000 0.000000
vn 0.000000 1.000000 0.000000
vn 0.000000 1.000000 0.000000
vn 0.000000 1.000000 -0.000000
vn 0.000000 1.000000 -0.000000
vn 0.000000 1.000000 -0.000000
vn 0.000000 1.000000 -0.000000
vn 0.000000 1.000000 0.000001
vn 0.000000 1.000000 0.000001
vn 0.000000 1.000000 0.000001
vn 0.000000 1.000000 0.000001
vn -0.304585 0.605371 0.735359
vn -0.304585 0.605371 0.735359
vn -0.304585 0.605371 0.735360
vn -0.304585 0.605371 0.735360
vn 0.303197 0.610163 0.731965
vn 0.303197 0.610163 0.731965
vn 0.303197 0.610163 0.731965
vn 0.303197 0.610163 0.731965
vn 0.729544 0.613551 0.302192
vn 0.729544 0.613551 0.302192
vn 0.729544 0.613551 0.302192
vn 0.729544 0.613551 0.302192
vn 0.729545 0.613550 -0.302193
vn 0.729545 0.613550 -0.302193
vn 0.729545 0.613550 -0.302193
vn 0.729545 0.613550 -0.302193
vn 0.303198 0.610165 -0.731963
vn 0.303198 0.610165 -0.731963
vn 0.303198 0.610165 -0.731963
vn 0.303198 0.610165 -0.731963
vn -0.304586 0.605374 -0.735357
vn -0.304586 0.605374 -0.735357
vn -0.304586 0.605374 -0.735357
vn -0.304586 0.605374 -0.735357
vn -0.737777 0.601918 -0.305580
vn -0.737777 0.601918 -0.305580
vn -0.737777 0.601918 -0.305580
vn -0.737777 0.601918 -0.305580
vn -0.737780 0.601915 0.305580
vn -0.737780 0.601915 0.305580
vn -0.737780 0.601915 0.305580
vn -0.737780 0.601915 0.305580
vn -0.298062 0.893170 0.336759
vn -0.126896 0.915248 0.382385
vn -0.202963 0.949835 0.237948
vn -0.354320 0.914852 0.193655
vn 0.144527 0.913346 0.380673
vn 0.210512 0.949370 0.233199
vn 0.308306 0.893770 0.325764
vn 0.368785 0.909783 0.190505
vn -0.190263 0.964094 -0.185262
vn -0.337017 0.931489 -0.136923
vn 0.201781 0.954271 -0.220572
vn 0.339274 0.920473 -0.193968
vn -0.151936 0.938851 -0.308990
vn -0.290185 0.922143 -0.255824
vn 0.118925 0.933644 -0.337886
vn 0.290717 0.903102 -0.316053
s 1
g Bowl_of_vegetables
usemtl initialShadingGroup
f 1/10/1 2/11/2 25/12/3 18/13/4
s 2
f 2/11/5 3/15/6 24/9/7 25/12/8
s 3
f 3/15/9 4/20/10 23/5/11 24/9/12
s 4
f 4/20/13 5/26/14 22/6/15 23/5/16
s 5
f 5/26/17 6/29/18 21/30/19 22/6/20
s 6
f 6/29/21 7/24/22 20/25/23 21/30/24
s 7
f 7/24/25 8/18/26 19/19/27 20/25/28
s 8
f 8/18/29 1/10/30 18/13/31 19/19/32
s 9
f 2/11/33 1/10/34 17/14/35
f 3/15/36 2/11/33 17/14/35
f 4/20/37 3/15/36 17/14/35
f 5/26/38 4/20/37 17/14/35
f 6/29/39 5/26/38 17/14/35
f 7/24/40 6/29/39 17/14/35
f 8/18/41 7/24/40 17/14/35
f 1/10/34 8/18/41 17/14/35
s 8
f 19/19/32 18/13/31 26/17/42 27/23/43
s 7
f 20/25/28 19/19/27 27/23/44 28/28/45
s 6
f 21/30/24 20/25/23 28/28/46 29/32/47
s 5
f 22/6/20 21/30/19 29/32/48 30/2/49
s 4
f 23/5/16 22/6/15 30/2/50 31/1/51
s 3
f 24/9/12 23/5/11 31/1/52 32/7/53
s 2
f 25/12/8 24/9/7 32/7/54 33/16/55
s 1
f 18/13/4 25/12/3 33/16/56 26/17/57
s 8
f 27/23/43 26/17/42 9/22/58 16/27/59
s 7
f 28/28/45 27/23/44 16/27/60 15/31/61
s 6
f 29/32/47 28/28/46 15/71/62 14/72/63
s 5
f 30/2/49 29/32/48 14/72/64 13/3/65
s 4
f 31/1/51 30/2/50 13/3/66 12/4/67
s 3
f 32/7/53 31/1/52 12/4/68 11/8/69
s 2
f 33/16/55 32/7/54 11/8/70 10/21/71
s 1
f 26/17/57 33/16/56 10/21/72 9/22/73
s off
f 9/22/74 10/33/75 35/34/76 34/35/77
f 10/33/78 11/36/79 36/37/80 35/34/81
f 11/36/82 12/41/83 37/42/84 36/37/85
f 12/41/86 13/47/87 38/48/88 37/42/89
f 13/47/90 14/51/91 39/52/92 38/48/93
f 14/51/94 15/45/95 40/46/96 39/52/97
f 15/45/98 16/27/99 41/40/100 40/46/101
f 16/27/102 9/22/103 34/35/104 41/40/105
f 34/35/106 35/34/107 43/38/108 42/39/109
f 35/34/110 36/37/111 44/43/112 43/38/113
f 36/37/114 37/42/115 45/49/116 44/43/117
f 37/42/118 38/48/119 46/53/120 45/49/121
f 38/48/122 39/52/123 47/54/124 46/53/125
f 39/52/126 40/46/127 48/50/128 47/54/129
f 40/46/130 41/40/131 49/44/132 48/50/133
f 41/40/134 34/35/135 42/39/136 49/44/137
s 10
f 50/55/138 51/56/139 55/57/140 54/58/141
f 51/56/139 52/59/142 56/60/143 55/57/140
f 52/59/142 53/63/144 57/64/145 56/60/143
f 54/58/141 55/57/140 59/61/146 58/62/147
f 55/57/140 56/60/143 60/65/148 59/61/146
f 56/60/143 57/64/145 61/68/149 60/65/148
f 58/62/147 59/61/146 63/66/150 62/67/151
f 59/61/146 60/65/148 64/69/152 63/66/150
f 60/65/148 61/68/149 65/70/153 64/69/152
