# This file uses centimeters as units for non-parametric coordinates.

mtllib cup.mtl
g default
v -4.677063 0.013762 5.525266
v -4.710417 0.013762 5.511450
v -4.743770 0.013762 5.525266
v -4.757586 0.013762 5.558619
v -4.743770 0.013762 5.591972
v -4.710417 0.013762 5.605788
v -4.677063 0.013762 5.591972
v -4.663248 0.013762 5.558619
v -4.680052 0.222249 5.528255
v -4.710417 0.222249 5.515677
v -4.740781 0.222249 5.528255
v -4.753358 0.222249 5.558619
v -4.740781 0.222249 5.588984
v -4.710417 0.222249 5.601561
v -4.680052 0.222249 5.588984
v -4.667475 0.222249 5.558619
v -4.710417 0.013762 5.558619
v -4.710417 0.222249 5.558619
v -4.666030 0.180333 5.514233
v -4.647645 0.180333 5.558619
v -4.666030 0.180333 5.603005
v -4.710417 0.180333 5.621391
v -4.754804 0.180333 5.603005
v -4.773189 0.180333 5.558619
v -4.754804 0.180333 5.514233
v -4.710417 0.180333 5.495847
v -4.664611 0.193317 5.512813
v -4.645639 0.193317 5.558619
v -4.664611 0.193317 5.604425
v -4.710417 0.193317 5.623397
v -4.756223 0.193317 5.604425
v -4.775195 0.193317 5.558619
v -4.756223 0.193317 5.512813
v -4.710417 0.193317 5.493841
v -4.662614 0.180333 5.510817
v -4.642815 0.180333 5.558619
v -4.661087 0.193317 5.509289
v -4.640654 0.193317 5.558619
v -4.662614 0.180333 5.606421
v -4.661087 0.193317 5.607949
v -4.710417 0.180333 5.626221
v -4.710417 0.193317 5.628382
v -4.758219 0.180333 5.606421
v -4.759747 0.193317 5.607949
v -4.778018 0.180333 5.558619
v -4.780180 0.193317 5.558619
v -4.758219 0.180333 5.510817
v -4.759747 0.193317 5.509289
v -4.710417 0.180333 5.491017
v -4.710417 0.193317 5.488856
v -4.704791 0.222249 5.552993
v -4.710417 0.222249 5.550663
v -4.716043 0.222249 5.552993
v -4.718373 0.222249 5.558619
v -4.716043 0.222249 5.564245
v -4.710417 0.222249 5.566575
v -4.704791 0.222249 5.564245
v -4.702461 0.222249 5.558619
v -4.704791 0.291600 5.552993
v -4.710417 0.291600 5.550663
v -4.716043 0.291600 5.552993
v -4.718373 0.291600 5.558619
v -4.716043 0.291600 5.564245
v -4.710417 0.291600 5.566575
v -4.704791 0.291600 5.564245
v -4.702461 0.291600 5.558619
v -4.705277 0.291600 5.553480
v -4.710417 0.291600 5.551351
v -4.715556 0.291600 5.553480
v -4.717685 0.291600 5.558619
v -4.715556 0.291600 5.563758
v -4.710417 0.291600 5.565887
v -4.705277 0.291600 5.563758
v -4.703149 0.291600 5.558619
vt 0.402223 0.410724
vt 0.331281 0.415536
vt 0.307246 0.061234
vt 0.401657 0.054830
vt 0.260337 0.420349
vt 0.212834 0.067639
vt 0.683606 0.447708
vt 0.613872 0.433803
vt 0.683320 0.085543
vt 0.776121 0.104049
vt 0.544139 0.419897
vt 0.590520 0.067038
vt 0.819158 0.871838
vt 0.893979 0.811495
vt 0.918688 0.819127
vt 0.826808 0.886327
vt 0.727129 0.899595
vt 0.719496 0.924303
vt 0.713852 0.672401
vt 0.639029 0.732744
vt 0.614321 0.725112
vt 0.706202 0.657912
vt 0.805880 0.644644
vt 0.813512 0.619936
vt 0.103003 0.759661
vt 0.103003 0.747667
vt 0.250852 0.747667
vt 0.250852 0.759661
vt 0.103003 0.735674
vt 0.250852 0.735673
vt 0.103003 0.711686
vt 0.103002 0.699693
vt 0.250852 0.699692
vt 0.250851 0.711686
vt 0.103002 0.687699
vt 0.250852 0.687699
vt 0.455792 0.457484
vt 0.460605 0.528427
vt 0.372563 0.498766
vt 0.413846 0.581995
vt 0.342902 0.586808
vt 0.289333 0.540049
vt 0.284520 0.469105
vt 0.435728 0.885854
vt 0.412352 0.819802
vt 0.503773 0.824611
vt 0.401124 0.917000
vt 0.365864 0.817356
vt 0.442529 0.756565
vt 0.498964 0.916032
vt 0.393227 0.924108
vt 0.355251 0.816798
vt 0.411384 0.721961
vt 0.496519 0.962520
vt 0.508582 0.733189
vt 0.565018 0.892655
vt 0.495960 0.973133
vt 0.404276 0.714063
vt 0.511028 0.686699
vt 0.596163 0.927260
vt 0.571819 0.763366
vt 0.595195 0.829420
vt 0.603272 0.935157
vt 0.511586 0.676088
vt 0.606422 0.732221
vt 0.641684 0.831865
vt 0.652297 0.832423
vt 0.819259 0.872029
vt 0.874454 0.805465
vt 0.866414 0.719366
vt 0.866223 0.719467
vt 0.733160 0.880070
vt 0.799849 0.664170
vt 0.666596 0.824873
vt 0.666786 0.824773
vt 0.713751 0.672210
vt 0.658555 0.738775
vt 0.271319 0.703195
vt 0.279804 0.711671
vt 0.278551 0.712191
vt 0.270801 0.704447
vt 0.279810 0.723665
vt 0.278558 0.723147
vt 0.259326 0.703201
vt 0.259845 0.704453
vt 0.271334 0.732149
vt 0.270815 0.730898
vt 0.252102 0.712204
vt 0.259341 0.732156
vt 0.259858 0.730903
vt 0.250854 0.723680
vt 0.252107 0.723160
vt 0.473182 0.415310
vt 0.496088 0.060934
vt 0.190648 0.434476
vt 0.120092 0.086440
vt 0.120960 0.448604
vt 0.027350 0.105241
vt 0.880712 0.711817
vt 0.103003 0.675705
vt 0.250852 0.675705
vt 0.103003 0.663712
vt 0.250852 0.663712
vt 0.103003 0.723680
vn 0.381254 -0.086218 -0.920441
vn 0.381254 -0.086218 -0.920441
vn 0.381254 -0.086218 -0.920441
vn 0.381254 -0.086218 -0.920441
vn -0.381254 -0.086218 -0.920441
vn -0.381254 -0.086218 -0.920441
vn -0.381254 -0.086218 -0.920441
vn -0.381254 -0.086218 -0.920441
vn -0.920439 -0.086220 -0.381258
vn -0.920439 -0.086220 -0.381258
vn -0.920439 -0.086220 -0.381258
vn -0.920439 -0.086220 -0.381258
vn -0.920439 -0.086220 0.381258
vn -0.920439 -0.086220 0.381258
vn -0.920439 -0.086220 0.381258
vn -0.920439 -0.086220 0.381258
vn -0.381261 -0.086216 0.920438
vn -0.381261 -0.086216 0.920438
vn -0.381261 -0.086216 0.920438
vn -0.381261 -0.086216 0.920438
vn 0.381261 -0.086218 0.920438
vn 0.381261 -0.086218 0.920438
vn 0.381261 -0.086218 0.920438
vn 0.381261 -0.086218 0.920438
vn 0.920439 -0.086220 0.381258
vn 0.920439 -0.086220 0.381258
vn 0.920439 -0.086220 0.381258
vn 0.920439 -0.086220 0.381258
vn 0.920439 -0.086220 -0.381258
vn 0.920439 -0.086220 -0.381258
vn 0.920439 -0.086220 -0.381258
vn 0.920439 -0.086220 -0.381258
vn 0.000000 -1.000000 0.000000
vn 0.000000 -1.000000 0.000000
vn 0.000000 -1.000000 0.000000
vn 0.000000 -1.000000 0.000000
vn 0.000000 -1.000000 0.000000
vn 0.000000 -1.000000 0.000000
vn 0.000000 -1.000000 0.000000
vn 0.000000 -1.000000 0.000000
vn 0.000000 -1.000000 0.000000
vn 0.000000 1.000000 0.000000
vn 0.000000 1.000000 0.000000
vn 0.000000 1.000000 0.000000
vn 0.000000 1.000000 0.000003
vn 0.000000 1.000000 0.000003
vn 0.000000 1.000000 0.000000
vn 0.000000 1.000000 0.000000
vn 0.000000 1.000000 -0.000003
vn 0.000000 1.000000 -0.000003
vn 0.913156 -0.151963 -0.378223
vn 0.913156 -0.151963 -0.378223
vn 0.913156 -0.151963 -0.378223
vn 0.913156 -0.151963 -0.378223
vn 0.913156 -0.151967 0.378223
vn 0.913156 -0.151967 0.378223
vn 0.913156 -0.151967 0.378223
vn 0.913156 -0.151967 0.378223
vn 0.378222 -0.151984 0.913154
vn 0.378222 -0.151984 0.913153
vn 0.378222 -0.151984 0.913153
vn 0.378222 -0.151984 0.913153
vn -0.378223 -0.151974 0.913155
vn -0.378223 -0.151974 0.913155
vn -0.378223 -0.151974 0.913155
vn -0.378223 -0.151974 0.913155
vn -0.913156 -0.151963 0.378223
vn -0.913156 -0.151963 0.378223
vn -0.913156 -0.151963 0.378223
vn -0.913156 -0.151963 0.378223
vn -0.913157 -0.151962 -0.378223
vn -0.913156 -0.151962 -0.378223
vn -0.913157 -0.151962 -0.378223
vn -0.913156 -0.151962 -0.378223
vn -0.378223 -0.151973 -0.913155
vn -0.378223 -0.151973 -0.913155
vn -0.378223 -0.151973 -0.913155
vn -0.378223 -0.151973 -0.913155
vn 0.378222 -0.151979 -0.913154
vn 0.378222 -0.151979 -0.913154
vn 0.378222 -0.151979 -0.913154
vn 0.378222 -0.151979 -0.913154
vn 0.757835 0.571981 -0.313886
vn 0.757835 0.571981 -0.313886
vn 0.757835 0.571981 -0.313886
vn 0.757835 0.571981 -0.313886
vn 0.757835 0.571981 0.313886
vn 0.757835 0.571981 0.313886
vn 0.757835 0.571981 0.313886
vn 0.757835 0.571981 0.313886
vn 0.313890 0.571972 0.757840
vn 0.313890 0.571972 0.757840
vn 0.313890 0.571972 0.757840
vn 0.313890 0.571972 0.757840
vn -0.313889 0.571976 0.757837
vn -0.313889 0.571976 0.757837
vn -0.313889 0.571976 0.757837
vn -0.313889 0.571976 0.757837
vn -0.757830 0.571987 0.313887
vn -0.757830 0.571987 0.313887
vn -0.757830 0.571987 0.313887
vn -0.757830 0.571987 0.313887
vn -0.757832 0.571984 -0.313889
vn -0.757831 0.571984 -0.313889
vn -0.757832 0.571984 -0.313889
vn -0.757831 0.571984 -0.313889
vn -0.313881 0.571973 -0.757843
vn -0.313881 0.571973 -0.757843
vn -0.313881 0.571973 -0.757843
vn -0.313881 0.571973 -0.757843
vn 0.313880 0.571977 -0.757840
vn 0.313880 0.571977 -0.757840
vn 0.313880 0.571977 -0.757840
vn 0.313880 0.571977 -0.757840
vn 0.000000 -1.000000 0.000004
vn 0.000000 -1.000000 0.000004
vn 0.000000 -1.000000 0.000004
vn 0.000000 -1.000000 0.000004
vn 0.000000 1.000000 0.000003
vn 0.000000 1.000000 0.000003
vn 0.000000 1.000000 0.000003
vn 0.000000 1.000000 0.000003
vn 0.000000 -1.000000 -0.000005
vn 0.000000 -1.000000 -0.000005
vn 0.000000 -1.000000 -0.000005
vn 0.000000 -1.000000 -0.000005
vn 0.000000 1.000000 0.000002
vn 0.000000 1.000000 0.000002
vn 0.000000 1.000000 0.000002
vn 0.000000 1.000000 0.000002
vn 0.000000 -1.000000 0.000000
vn 0.000000 -1.000000 0.000000
vn 0.000000 -1.000000 0.000000
vn 0.000000 -1.000000 0.000000
vn 0.000000 1.000000 -0.000005
vn 0.000000 1.000000 -0.000005
vn 0.000000 1.000000 -0.000005
vn 0.000000 1.000000 -0.000005
vn 0.000000 -1.000000 0.000005
vn 0.000000 -1.000000 0.000005
vn 0.000000 -1.000000 0.000005
vn 0.000000 -1.000000 0.000005
vn 0.000000 1.000000 0.000000
vn 0.000000 1.000000 0.000000
vn 0.000000 1.000000 0.000000
vn 0.000000 1.000000 0.000000
vn 0.000000 -1.000000 -0.000004
vn 0.000000 -1.000000 -0.000004
vn 0.000000 -1.000000 -0.000004
vn 0.000000 -1.000000 -0.000004
vn 0.000000 1.000000 0.000005
vn 0.000000 1.000000 0.000005
vn 0.000000 1.000000 0.000005
vn 0.000000 1.000000 0.000005
vn 0.000000 -1.000000 0.000005
vn 0.000000 -1.000000 0.000005
vn 0.000000 -1.000000 0.000005
vn 0.000000 -1.000000 0.000005
vn 0.000000 1.000000 -0.000006
vn 0.000000 1.000000 -0.000006
vn 0.000000 1.000000 -0.000006
vn 0.000000 1.000000 -0.000006
vn 0.000000 -1.000000 0.000000
vn 0.000000 -1.000000 0.000000
vn 0.000000 -1.000000 0.000000
vn 0.000000 -1.000000 0.000000
vn 0.000000 1.000000 0.000005
vn 0.000000 1.000000 0.000005
vn 0.000000 1.000000 0.000005
vn 0.000000 1.000000 0.000005
vn 0.000000 -1.000000 -0.000005
vn 0.000000 -1.000000 -0.000005
vn 0.000000 -1.000000 -0.000005
vn 0.000000 -1.000000 -0.000005
vn 0.000000 1.000000 0.000000
vn 0.000000 1.000000 0.000000
vn 0.000000 1.000000 0.000000
vn 0.000000 1.000000 0.000000
vn 0.382710 0.000000 -0.923868
vn 0.382710 0.000000 -0.923868
vn 0.382710 0.000000 -0.923868
vn 0.382710 0.000000 -0.923868
vn -0.382710 0.000000 -0.923868
vn -0.382710 0.000000 -0.923868
vn -0.382710 0.000000 -0.923868
vn -0.382710 0.000000 -0.923868
vn -0.923874 0.000000 -0.382696
vn -0.923874 0.000000 -0.382696
vn -0.923874 0.000000 -0.382696
vn -0.923874 0.000000 -0.382696
vn -0.923874 0.000000 0.382696
vn -0.923874 0.000000 0.382696
vn -0.923874 0.000000 0.382696
vn -0.923874 0.000000 0.382696
vn -0.382710 0.000000 0.923868
vn -0.382710 0.000000 0.923868
vn -0.382710 0.000000 0.923868
vn -0.382710 0.000000 0.923868
vn 0.382710 0.000000 0.923868
vn 0.382710 0.000000 0.923868
vn 0.382710 0.000000 0.923868
vn 0.382710 0.000000 0.923868
vn 0.923874 0.000000 0.382696
vn 0.923874 0.000000 0.382696
vn 0.923874 0.000000 0.382696
vn 0.923874 0.000000 0.382696
vn 0.923874 0.000000 -0.382696
vn 0.923874 0.000000 -0.382696
vn 0.923874 0.000000 -0.382696
vn 0.923874 0.000000 -0.382696
vn 0.000000 1.000000 0.000110
vn 0.000000 1.000000 0.000110
vn 0.000000 1.000000 0.000110
vn 0.000000 1.000000 0.000110
vn 0.000000 1.000000 0.000126
vn 0.000000 1.000000 0.000126
vn 0.000000 1.000000 0.000126
vn 0.000000 1.000000 0.000126
vn 0.000000 1.000000 0.000016
vn 0.000000 1.000000 0.000016
vn 0.000000 1.000000 0.000016
vn 0.000000 1.000000 0.000016
vn 0.000000 1.000000 0.000016
vn 0.000000 1.000000 0.000016
vn 0.000000 1.000000 0.000016
vn 0.000000 1.000000 0.000016
vn 0.000000 1.000000 -0.000110
vn 0.000000 1.000000 -0.000110
vn 0.000000 1.000000 -0.000110
vn 0.000000 1.000000 -0.000110
vn 0.000000 1.000000 -0.000126
vn 0.000000 1.000000 -0.000126
vn 0.000000 1.000000 -0.000126
vn 0.000000 1.000000 -0.000126
vn 0.000000 1.000000 -0.000016
vn 0.000000 1.000000 -0.000016
vn 0.000000 1.000000 -0.000016
vn 0.000000 1.000000 -0.000016
vn 0.000000 1.000000 -0.000016
vn 0.000000 1.000000 -0.000016
vn 0.000000 1.000000 -0.000016
vn 0.000000 1.000000 -0.000016
s off
g cup
usemtl initialShadingGroup
f 1/11/1 2/93/2 26/94/3 19/12/4
f 2/93/5 3/1/6 25/4/7 26/94/8
f 3/1/9 4/2/10 24/3/11 25/4/12
f 4/2/13 5/5/14 23/6/15 24/3/16
f 5/5/17 6/95/18 22/96/19 23/6/20
f 6/95/21 7/97/22 21/98/23 22/96/24
f 7/7/25 8/8/26 20/9/27 21/10/28
f 8/8/29 1/11/30 19/12/31 20/9/32
s 1
f 2/37/33 1/38/34 17/39/35
f 3/1/36 2/37/33 17/39/35
f 4/2/37 3/1/36 17/39/35
f 5/43/38 4/2/37 17/39/35
f 6/42/39 5/43/38 17/39/35
f 7/41/40 6/42/39 17/39/35
f 8/40/41 7/41/40 17/39/35
f 1/38/34 8/40/41 17/39/35
s 2
f 9/44/42 10/45/43 18/46/44
f 10/45/43 11/49/45 18/46/44
f 11/49/45 12/55/46 18/46/44
f 12/55/46 13/61/47 18/46/44
f 13/61/47 14/62/48 18/46/44
f 14/62/48 15/56/49 18/46/44
f 15/56/49 16/50/50 18/46/44
f 16/50/50 9/44/42 18/46/44
s off
f 36/13/51 35/14/52 37/15/53 38/16/54
f 39/17/55 36/13/56 38/16/57 40/18/58
f 41/75/59 39/17/60 40/18/61 42/67/62
f 43/20/63 41/75/64 42/67/65 44/21/66
f 45/19/67 43/20/68 44/21/69 46/22/70
f 47/23/71 45/19/72 46/22/73 48/24/74
f 49/71/75 47/23/76 48/24/77 50/99/78
f 35/14/79 49/71/80 50/99/81 37/15/82
f 28/54/83 27/47/84 9/44/85 16/50/86
f 29/60/87 28/54/88 16/50/89 15/56/90
f 30/66/91 29/60/92 15/56/93 14/62/94
f 31/65/95 30/66/96 14/62/97 13/61/98
f 32/59/99 31/65/100 13/61/101 12/55/102
f 33/53/103 32/59/104 12/55/105 11/49/106
f 34/48/107 33/53/108 11/49/109 10/45/110
f 27/47/111 34/48/112 10/45/113 9/44/114
f 20/68/115 19/69/116 35/14/117 36/13/118
f 27/47/119 28/54/120 38/57/121 37/51/122
f 21/72/123 20/68/124 36/13/125 39/17/126
f 28/54/127 29/60/128 40/63/129 38/57/130
f 22/74/131 21/72/132 39/17/133 41/75/134
f 29/60/135 30/66/136 42/67/137 40/63/138
f 23/77/139 22/74/140 41/75/141 43/20/142
f 30/66/143 31/65/144 44/21/145 42/67/146
f 24/76/147 23/77/148 43/20/149 45/19/150
f 31/65/151 32/59/152 46/64/153 44/21/154
f 25/73/155 24/76/156 45/19/157 47/23/158
f 32/59/159 33/53/160 48/58/161 46/64/162
f 26/70/163 25/73/164 47/23/165 49/71/166
f 33/53/167 34/48/168 50/52/169 48/58/170
f 19/69/171 26/70/172 49/71/173 35/14/174
f 34/48/175 27/47/176 37/51/177 50/52/178
f 51/35/179 52/100/180 60/101/181 59/36/182
f 52/100/183 53/102/184 61/103/185 60/101/186
f 53/25/187 54/26/188 62/27/189 61/28/190
f 54/26/191 55/29/192 63/30/193 62/27/194
f 55/29/195 56/104/196 64/91/197 63/30/198
f 56/104/199 57/31/200 65/34/201 64/91/202
f 57/31/203 58/32/204 66/33/205 65/34/206
f 58/32/207 51/35/208 59/36/209 66/33/210
f 59/78/211 60/79/212 68/80/213 67/81/214
f 60/79/215 61/82/216 69/83/217 68/80/218
f 61/82/219 62/86/220 70/87/221 69/83/222
f 62/86/223 63/89/224 71/90/225 70/87/226
f 63/89/227 64/91/228 72/92/229 71/90/230
f 64/91/231 65/34/232 73/88/233 72/92/234
f 65/34/235 66/84/236 74/85/237 73/88/238
f 66/84/239 59/78/240 67/81/241 74/85/242
