# This file uses centimeters as units for non-parametric coordinates.

mtllib mortar02.mtl
g default
v -0.623992 0.943686 1.848568
v -0.703815 0.943686 1.815508
v -0.783617 0.943686 1.848568
v -0.816685 0.943686 1.928380
v -0.783617 0.943686 2.008192
v -0.703815 0.943686 2.041251
v -0.623992 0.943686 2.008192
v -0.590943 0.943686 1.928380
v -0.583405 1.176660 1.807982
v -0.703815 1.176660 1.758111
v -0.824205 1.176660 1.807982
v -0.874084 1.176660 1.928380
v -0.824205 1.176660 2.048779
v -0.703815 1.176660 2.098650
v -0.583405 1.176660 2.048779
v -0.533555 1.176660 1.928380
v -0.703815 0.943686 1.928380
v -0.662693 0.980138 1.887263
v -0.645662 0.980138 1.928380
v -0.662693 0.980138 1.969497
v -0.703815 0.980138 1.986528
v -0.744928 0.980138 1.969497
v -0.761969 0.980138 1.928380
v -0.744928 0.980138 1.887263
v -0.703815 0.980138 1.870232
v -0.576297 1.153274 1.800867
v -0.523484 1.153274 1.928380
v -0.576295 1.153274 2.055893
v -0.703815 1.153274 2.108711
v -0.831316 1.153274 2.055893
v -0.884145 1.153274 1.928380
v -0.831316 1.153274 1.800867
v -0.703815 1.153274 1.748050
v -0.627382 1.013633 1.851945
v -0.595721 1.013633 1.928380
v -0.627381 1.013633 2.004816
v -0.703815 1.013633 2.036476
v -0.780259 1.013633 2.004816
v -0.811920 1.013633 1.928380
v -0.780259 1.013633 1.851945
v -0.703815 1.013633 1.820284
v -0.600509 1.176660 1.825083
v -0.703815 1.176660 1.782297
v -0.807109 1.176660 1.825083
v -0.849907 1.176660 1.928380
v -0.807109 1.176660 2.031677
v -0.703815 1.176660 2.074464
v -0.600509 1.176660 2.031677
v -0.557734 1.176660 1.928380
v -0.623585 1.069489 1.848159
v -0.703815 1.069489 1.814930
v -0.703815 1.069489 1.928380
v -0.784029 1.069489 1.848159
v -0.817254 1.069489 1.928380
v -0.784029 1.069489 2.008602
v -0.703815 1.069489 2.041831
v -0.623584 1.069489 2.008602
v -0.590355 1.069489 1.928380
v -0.627187 0.955991 1.851754
v -0.595455 0.955991 1.928380
v -0.627187 0.955991 2.005005
v -0.703815 0.955991 2.036745
v -0.780436 0.955991 2.005005
v -0.812180 0.955991 1.928380
v -0.780436 0.955991 1.851754
v -0.703815 0.955991 1.820015
v -0.710940 1.093816 1.905885
v -0.728414 1.079645 1.896566
v -0.745886 1.065469 1.905885
v -0.753114 1.059605 1.928380
v -0.745886 1.065469 1.950876
v -0.728414 1.079645 1.960194
v -0.710940 1.093816 1.950875
v -0.703710 1.099689 1.928380
v -0.863799 1.285188 1.904032
v -0.882702 1.269851 1.893946
v -0.901617 1.254512 1.904032
v -0.909451 1.248158 1.928380
v -0.901617 1.254512 1.952729
v -0.882702 1.269851 1.962815
v -0.863800 1.285188 1.952729
v -0.855963 1.291543 1.928380
v -0.725034 1.075476 1.928380
v -0.882702 1.269851 1.928380
v -0.851464 1.256048 1.912812
v -0.846458 1.260111 1.928380
v -0.851464 1.256048 1.943949
v -0.863554 1.246241 1.950398
v -0.875640 1.236434 1.943949
v -0.880651 1.232371 1.928380
v -0.875640 1.236434 1.912812
v -0.863554 1.246241 1.906363
v -0.852227 1.278918 1.898996
v -0.842774 1.286585 1.928380
v -0.852227 1.278918 1.957765
v -0.875046 1.260406 1.969935
v -0.897860 1.241896 1.957765
v -0.907319 1.234228 1.928380
v -0.897860 1.241896 1.898996
v -0.875046 1.260406 1.886825
v -0.727973 1.125497 1.899151
v -0.718568 1.133126 1.928380
v -0.727972 1.125498 1.957609
v -0.750664 1.107079 1.969716
v -0.773371 1.088667 1.957609
v -0.782770 1.081041 1.928380
v -0.773371 1.088667 1.899151
v -0.750664 1.107079 1.887044
v -0.719232 1.116936 1.897754
v -0.709376 1.124924 1.928380
v -0.719232 1.116936 1.959006
v -0.743016 1.097639 1.971691
v -0.766799 1.078349 1.959006
v -0.776642 1.070354 1.928380
v -0.766799 1.078349 1.897754
v -0.743016 1.097639 1.885069
vt 0.283964 0.511845
vt 0.376176 0.550020
vt 0.366038 0.558475
vt 0.285161 0.524992
vt 0.400460 0.632323
vt 0.388738 0.631372
vt 0.289640 0.730771
vt 0.217408 0.700862
vt 0.225106 0.692816
vt 0.289886 0.719640
vt 0.183948 0.629686
vt 0.195210 0.629015
vt 0.571101 0.450613
vt 0.640926 0.376993
vt 0.647750 0.392370
vt 0.586424 0.456741
vt 0.469353 0.472220
vt 0.547469 0.318896
vt 0.571741 0.548447
vt 0.586696 0.541936
vt 0.432212 0.484534
vt 0.510142 0.301317
vt 0.469237 0.526084
vt 0.432144 0.513521
vt 0.815154 0.542940
vt 0.745036 0.614632
vt 0.738404 0.599305
vt 0.799814 0.536765
vt 0.919260 0.519431
vt 0.835995 0.672846
vt 0.813781 0.443408
vt 0.798707 0.449975
vt 0.957035 0.506300
vt 0.872375 0.690605
vt 0.918610 0.464381
vt 0.956712 0.476675
vt 0.781622 0.457717
vt 0.780007 0.528919
vt 0.735168 0.511414
vt 0.733730 0.478571
vt 0.731040 0.581794
vt 0.710250 0.534502
vt 0.604100 0.533985
vt 0.606160 0.464114
vt 0.649722 0.480733
vt 0.651385 0.513101
vt 0.655031 0.410596
vt 0.674895 0.457675
vt 0.115257 0.803013
vt 0.145177 0.730771
vt 0.217409 0.803013
vt 0.145177 0.875236
vt 0.217409 0.905162
vt 0.319560 0.803013
vt 0.289640 0.875235
vt 0.709830 0.454934
vt 0.692585 0.495932
vt 0.675645 0.536652
vt 0.735863 0.390007
vt 0.728075 0.409876
vt 0.650344 0.601327
vt 0.658002 0.581572
vt 0.241711 0.626687
vt 0.257101 0.659511
vt 0.217575 0.560500
vt 0.253634 0.592575
vt 0.290795 0.673461
vt 0.288059 0.577183
vt 0.356131 0.695636
vt 0.324884 0.661117
vt 0.327098 0.593339
vt 0.340563 0.628568
vt 0.208612 0.552883
vt 0.363624 0.704067
vt 0.644469 0.616868
vt 0.669308 0.722786
vt 0.516844 0.640968
vt 0.683210 0.761172
vt 0.500493 0.677579
vt 0.725349 0.721418
vt 0.713401 0.760391
vt 0.741801 0.374515
vt 0.716407 0.268680
vt 0.869913 0.352333
vt 0.702367 0.230493
vt 0.886906 0.316071
vt 0.660464 0.270263
vt 0.672285 0.231362
vt 0.557324 0.678391
vt 0.522301 0.697668
vt 0.830038 0.314315
vt 0.875072 0.633121
vt 0.508320 0.359922
vt 0.865438 0.295607
vt 0.893389 0.669266
vt 0.489031 0.323386
vt 0.390897 0.142249
vt 0.419583 0.130009
vt 0.440672 0.165766
vt 0.394301 0.182438
vt 0.144154 0.096054
vt 0.169569 0.115192
vt 0.160141 0.138291
vt 0.116363 0.125730
vt 0.195404 0.108392
vt 0.195779 0.128894
vt 0.221227 0.115192
vt 0.231664 0.138291
vt 0.246302 0.093318
vt 0.278231 0.120852
vt 0.322120 0.097553
vt 0.340333 0.119300
vt 0.321788 0.151186
vt 0.363973 0.137819
vt 0.356185 0.176394
vt 0.376484 0.106857
vt 0.194494 0.078726
vt 0.276750 0.467838
vt 0.265456 0.480050
vt 0.256586 0.456928
vt 0.249186 0.478631
vt 0.237262 0.464496
vt 0.236417 0.446021
vt 0.247397 0.433932
vt 0.263980 0.435228
vt 0.276231 0.449236
vt 0.289982 0.396693
vt 0.310166 0.396693
vt 0.115236 0.428621
vt 0.292389 0.428621
vt 0.268108 0.396693
vt 0.268381 0.428621
vt 0.245200 0.396693
vt 0.245125 0.428621
vt 0.221651 0.396693
vt 0.221586 0.428621
vt 0.197855 0.396693
vt 0.197762 0.428621
vt 0.174098 0.396693
vt 0.173706 0.428621
vt 0.150774 0.396693
vt 0.148398 0.428621
vt 0.284960 0.445818
vt 0.284466 0.469700
vt 0.229036 0.445022
vt 0.228865 0.467784
vt 0.244447 0.484376
vt 0.267395 0.485491
vt 0.352181 0.190593
vt 0.388166 0.196354
vt 0.315477 0.166536
vt 0.275422 0.160435
vt 0.234257 0.154349
vt 0.195899 0.145506
vt 0.157549 0.154349
vt 0.116229 0.160435
vt 0.073281 0.166536
vt 0.128530 0.396693
vt 0.063991 0.151178
vt 0.324198 0.428621
vn 0.362457 0.320614 -0.875118
vn 0.362457 0.320614 -0.875118
vn 0.250866 0.755121 -0.605689
vn 0.250881 0.755087 -0.605725
vn -0.362532 0.320449 -0.875148
vn -0.362532 0.320449 -0.875147
vn -0.250896 0.755126 -0.605670
vn -0.250908 0.755099 -0.605699
vn -0.875181 0.320298 -0.362584
vn -0.875181 0.320298 -0.362584
vn -0.605732 0.755054 -0.250964
vn -0.605736 0.755050 -0.250966
vn -0.875179 0.320301 0.362585
vn -0.875179 0.320301 0.362585
vn -0.605736 0.755049 0.250967
vn -0.605731 0.755054 0.250965
vn -0.362538 0.320428 0.875153
vn -0.362538 0.320429 0.875153
vn -0.250912 0.755097 0.605700
vn -0.250899 0.755126 0.605668
vn 0.362459 0.320605 0.875121
vn 0.362459 0.320605 0.875121
vn 0.250883 0.755086 0.605725
vn 0.250868 0.755120 0.605689
vn 0.875045 0.320924 0.362358
vn 0.875045 0.320924 0.362358
vn 0.605675 0.755146 0.250824
vn 0.605670 0.755151 0.250822
vn 0.875047 0.320919 -0.362359
vn 0.875047 0.320919 -0.362359
vn 0.605669 0.755152 -0.250821
vn 0.605675 0.755146 -0.250824
vn 0.000000 -1.000000 0.000001
vn 0.000000 -1.000000 -0.000000
vn 0.000000 -1.000000 0.000000
vn 0.000000 -1.000000 0.000001
vn 0.000000 -1.000000 0.000000
vn 0.000000 -1.000000 -0.000000
vn 0.000000 -1.000000 -0.000000
vn 0.000000 -1.000000 0.000001
vn 0.000000 -1.000000 -0.000000
vn 0.000000 1.000000 0.000000
vn 0.000000 1.000000 0.000000
vn 0.000000 1.000000 0.000000
vn 0.000000 1.000000 0.000000
vn 0.000000 1.000000 0.000000
vn 0.000000 1.000000 0.000000
vn 0.000000 1.000000 0.000000
vn 0.000000 1.000000 0.000000
vn 0.000000 1.000000 0.000000
vn 0.923746 0.017682 -0.382597
vn 0.923746 0.017665 -0.382597
vn 0.806531 -0.487763 -0.334059
vn 0.806530 -0.487765 -0.334058
vn 0.923747 0.017653 0.382596
vn 0.923747 0.017675 0.382596
vn 0.806530 -0.487769 0.334052
vn 0.806532 -0.487766 0.334052
vn 0.382611 0.017720 0.923740
vn 0.382611 0.017748 0.923739
vn 0.334068 -0.487766 0.806525
vn 0.334069 -0.487762 0.806527
vn -0.382628 0.017482 0.923737
vn -0.382627 0.017556 0.923736
vn -0.334082 -0.487750 0.806529
vn -0.334083 -0.487744 0.806532
vn -0.923705 0.017504 0.382704
vn -0.923705 0.017554 0.382703
vn -0.806533 -0.487715 0.334123
vn -0.806535 -0.487712 0.334124
vn -0.923704 0.017564 -0.382704
vn -0.923705 0.017508 -0.382704
vn -0.806535 -0.487711 -0.334124
vn -0.806534 -0.487714 -0.334124
vn -0.382623 0.017564 -0.923737
vn -0.382624 0.017484 -0.923739
vn -0.334080 -0.487742 -0.806535
vn -0.334079 -0.487749 -0.806531
vn 0.382607 0.017754 -0.923741
vn 0.382607 0.017720 -0.923741
vn 0.334069 -0.487761 -0.806528
vn 0.334068 -0.487764 -0.806526
vn 0.877958 -0.311390 -0.363630
vn 0.877958 -0.311389 -0.363630
vn 0.858554 0.369429 -0.355537
vn 0.858554 0.369429 -0.355537
vn 0.877961 -0.311387 0.363624
vn 0.877961 -0.311389 0.363624
vn 0.858547 0.369455 0.355529
vn 0.858547 0.369455 0.355529
vn 0.363651 -0.311376 0.877954
vn 0.363653 -0.311361 0.877958
vn 0.355605 0.369344 0.858563
vn 0.355605 0.369344 0.858563
vn -0.363672 -0.311358 0.877951
vn -0.363672 -0.311357 0.877952
vn -0.355649 0.369347 0.858544
vn -0.355649 0.369347 0.858544
vn -0.877953 -0.311308 0.363712
vn -0.877953 -0.311307 0.363712
vn -0.858544 0.369307 0.355689
vn -0.858544 0.369307 0.355689
vn -0.877954 -0.311305 -0.363712
vn -0.877954 -0.311306 -0.363712
vn -0.858543 0.369310 -0.355688
vn -0.858543 0.369310 -0.355688
vn -0.363669 -0.311356 -0.877953
vn -0.363669 -0.311358 -0.877953
vn -0.355648 0.369345 -0.858544
vn -0.355648 0.369346 -0.858544
vn 0.363654 -0.311358 -0.877959
vn 0.363652 -0.311376 -0.877954
vn 0.355608 0.369328 -0.858568
vn 0.355608 0.369328 -0.858569
vn 0.000000 1.000000 -0.000001
vn 0.000000 1.000000 -0.000001
vn 0.000000 1.000000 -0.000001
vn 0.000000 1.000000 -0.000001
vn 0.000000 1.000000 0.000003
vn 0.000000 1.000000 0.000003
vn 0.000000 1.000000 0.000003
vn 0.000000 1.000000 0.000003
vn 0.000000 1.000000 -0.000001
vn 0.000000 1.000000 -0.000001
vn 0.000000 1.000000 -0.000001
vn 0.000000 1.000000 -0.000001
vn 0.000000 1.000000 0.000001
vn 0.000000 1.000000 0.000001
vn 0.000000 1.000000 0.000001
vn 0.000000 1.000000 0.000001
vn 0.000000 1.000000 -0.000003
vn 0.000000 1.000000 -0.000003
vn 0.000000 1.000000 -0.000003
vn 0.000000 1.000000 -0.000003
vn 0.000000 1.000000 0.000000
vn 0.000000 1.000000 0.000000
vn 0.000000 1.000000 0.000000
vn 0.000000 1.000000 0.000000
vn 0.000000 1.000000 0.000001
vn 0.000000 1.000000 0.000001
vn 0.000000 1.000000 0.000001
vn 0.000000 1.000000 0.000001
vn 0.000000 1.000000 -0.000001
vn 0.000000 1.000000 -0.000001
vn 0.000000 1.000000 -0.000001
vn 0.000000 1.000000 -0.000001
vn -0.368352 0.270810 0.889370
vn -0.368352 0.270810 0.889370
vn -0.368352 0.270810 0.889370
vn -0.368352 0.270810 0.889370
vn 0.368401 0.270817 0.889347
vn 0.368401 0.270817 0.889347
vn 0.368401 0.270817 0.889347
vn 0.368401 0.270817 0.889347
vn 0.889318 0.270907 0.368405
vn 0.889318 0.270907 0.368405
vn 0.889318 0.270907 0.368405
vn 0.889318 0.270907 0.368405
vn 0.889318 0.270907 -0.368406
vn 0.889318 0.270907 -0.368406
vn 0.889318 0.270907 -0.368406
vn 0.889318 0.270907 -0.368406
vn 0.368402 0.270816 -0.889347
vn 0.368402 0.270816 -0.889347
vn 0.368402 0.270816 -0.889347
vn 0.368402 0.270816 -0.889347
vn -0.368352 0.270809 -0.889370
vn -0.368352 0.270809 -0.889370
vn -0.368352 0.270809 -0.889370
vn -0.368352 0.270809 -0.889370
vn -0.889391 0.270760 -0.368339
vn -0.889391 0.270760 -0.368339
vn -0.889391 0.270760 -0.368339
vn -0.889391 0.270760 -0.368339
vn -0.889389 0.270762 0.368340
vn -0.889389 0.270762 0.368340
vn -0.889389 0.270762 0.368340
vn -0.889389 0.270762 0.368340
vn 0.532624 -0.104369 -0.839892
vn 0.532624 -0.104369 -0.839892
vn 0.426458 0.067338 -0.901997
vn 0.426421 0.067393 -0.902011
vn -0.007685 -0.542757 -0.839855
vn -0.007685 -0.542757 -0.839855
vn -0.153919 -0.403331 -0.902016
vn -0.153931 -0.403319 -0.902019
vn -0.389766 -0.852737 -0.347738
vn -0.389766 -0.852737 -0.347738
vn -0.564255 -0.736290 -0.373488
vn -0.564319 -0.736238 -0.373495
vn -0.389764 -0.852739 0.347738
vn -0.389764 -0.852739 0.347738
vn -0.564318 -0.736238 0.373495
vn -0.564253 -0.736292 0.373488
vn -0.007667 -0.542758 0.839854
vn -0.007667 -0.542758 0.839854
vn -0.153917 -0.403319 0.902022
vn -0.153906 -0.403331 0.902018
vn 0.532632 -0.104380 0.839885
vn 0.532633 -0.104380 0.839885
vn 0.426422 0.067381 0.902011
vn 0.426461 0.067323 0.901997
vn 0.914732 0.205556 0.347868
vn 0.914732 0.205556 0.347868
vn 0.836781 0.400254 0.373624
vn 0.836764 0.400287 0.373628
vn 0.914732 0.205556 -0.347867
vn 0.914732 0.205556 -0.347867
vn 0.836759 0.400293 -0.373630
vn 0.836776 0.400261 -0.373627
vn 0.621189 -0.765807 -0.166324
vn 0.712557 -0.691707 -0.117494
vn 0.630007 -0.776589 -0.000000
vn 0.529925 -0.839850 -0.117608
vn 0.492067 -0.870558 0.000000
vn 0.529921 -0.839853 0.117609
vn 0.621191 -0.765805 0.166327
vn 0.712554 -0.691710 0.117493
vn 0.750448 -0.660930 -0.000005
vn -0.630033 0.776569 0.000040
vn -0.629968 0.776621 0.000000
vn -0.629958 0.776629 -0.000002
vn -0.629879 0.776693 0.000011
vn -0.629886 0.776688 0.000002
vn -0.629879 0.776693 -0.000009
vn -0.629976 0.776614 0.000000
vn -0.630040 0.776563 -0.000051
vn -0.630001 0.776594 -0.000011
vn 0.726817 0.570357 -0.382662
vn 0.726805 0.570372 -0.382662
vn 0.862879 0.346473 -0.367963
vn 0.862884 0.346461 -0.367962
vn 0.726805 0.570379 0.382653
vn 0.726816 0.570364 0.382653
vn 0.862873 0.346482 0.367969
vn 0.862864 0.346501 0.367971
vn 0.306581 0.229471 0.923770
vn 0.306580 0.229472 0.923770
vn 0.458767 0.018581 0.888362
vn 0.458791 0.018544 0.888351
vn -0.287772 -0.252614 0.923782
vn -0.287752 -0.252639 0.923782
vn -0.112939 -0.444901 0.888430
vn -0.112904 -0.444936 0.888417
vn -0.708000 -0.593564 0.382646
vn -0.708016 -0.593545 0.382646
vn -0.516804 -0.772952 0.368048
vn -0.516939 -0.772853 0.368065
vn -0.708016 -0.593544 -0.382647
vn -0.708000 -0.593563 -0.382647
vn -0.516940 -0.772852 -0.368068
vn -0.516808 -0.772948 -0.368051
vn -0.287757 -0.252641 -0.923779
vn -0.287777 -0.252616 -0.923780
vn -0.112892 -0.444938 -0.888418
vn -0.112929 -0.444902 -0.888431
vn 0.306587 0.229478 -0.923766
vn 0.306588 0.229477 -0.923766
vn 0.458795 0.018540 -0.888349
vn 0.458764 0.018588 -0.888364
vn 0.331277 0.881452 -0.336598
vn 0.331277 0.881452 -0.336598
vn 0.331251 0.881460 0.336602
vn 0.331251 0.881460 0.336602
vn -0.038372 0.581594 0.812573
vn -0.038372 0.581594 0.812574
vn -0.561160 0.157462 0.812592
vn -0.561160 0.157462 0.812592
vn -0.930735 -0.142570 0.336758
vn -0.930735 -0.142570 0.336758
vn -0.930735 -0.142574 -0.336756
vn -0.930735 -0.142574 -0.336756
vn -0.561143 0.157462 -0.812604
vn -0.561143 0.157462 -0.812604
vn -0.038375 0.581587 -0.812579
vn -0.038375 0.581587 -0.812579
vn 0.648436 0.659264 -0.380660
vn 0.648436 0.659264 -0.380660
vn 0.648437 0.659269 0.380650
vn 0.648437 0.659269 0.380650
vn 0.230408 0.320173 0.918913
vn 0.230411 0.320169 0.918914
vn -0.360802 -0.159391 0.918921
vn -0.360803 -0.159391 0.918921
vn -0.778854 -0.498513 0.380619
vn -0.778854 -0.498513 0.380619
vn -0.778854 -0.498513 -0.380619
vn -0.778854 -0.498513 -0.380619
vn -0.360808 -0.159394 -0.918919
vn -0.360807 -0.159394 -0.918919
vn 0.230418 0.320177 -0.918909
vn 0.230415 0.320181 -0.918909
s 1
g mortar
usemtl initialShadingGroup
f 1/11/1 2/73/2 66/65/3 59/12/4
s 2
f 2/73/5 3/1/6 65/4/7 66/65/8
s 3
f 3/1/9 4/2/10 64/3/11 65/4/12
s 4
f 4/2/13 5/5/14 63/6/15 64/3/16
s 5
f 5/5/17 6/74/18 62/69/19 63/6/20
s 6
f 6/74/21 7/7/22 61/10/23 62/69/24
s 7
f 7/7/25 8/8/26 60/9/27 61/10/28
s 8
f 8/8/29 1/11/30 59/12/31 60/9/32
s 9
f 2/49/33 1/50/34 17/51/35
f 3/52/36 2/49/33 17/51/35
f 4/53/37 3/52/36 17/51/35
f 5/55/38 4/53/37 17/51/35
f 6/54/39 5/55/38 17/51/35
f 7/7/40 6/54/39 17/51/35
f 8/8/41 7/7/40 17/51/35
f 1/50/34 8/8/41 17/51/35
s 10
f 50/48/42 51/56/43 52/57/44
f 51/56/43 53/40/45 52/57/44
f 53/40/45 54/39/46 52/57/44
f 54/39/46 55/42/47 52/57/44
f 55/42/47 56/58/48 52/57/44
f 56/58/48 57/46/49 52/57/44
f 57/46/49 58/45/50 52/57/44
f 58/45/50 50/48/42 52/57/44
s 8
f 19/96/51 18/22/52 34/18/53 35/93/54
s 7
f 20/24/55 19/21/56 35/17/57 36/23/58
s 6
f 21/90/59 20/79/60 36/77/61 37/89/62
s 5
f 22/81/63 21/78/64 37/76/65 38/80/66
s 4
f 23/95/67 22/34/68 38/30/69 39/92/70
s 3
f 24/36/71 23/33/72 39/29/73 40/35/74
s 2
f 25/94/75 24/86/76 40/84/77 41/91/78
s 1
f 18/88/79 25/85/80 41/83/81 34/87/82
s 8
f 27/13/83 26/14/84 9/15/85 16/16/86
s 7
f 28/19/87 27/13/88 16/16/89 15/20/90
s 6
f 29/75/91 28/19/92 15/20/93 14/61/94
s 5
f 30/26/95 29/75/96 14/61/97 13/27/98
s 4
f 31/25/99 30/26/100 13/27/101 12/28/102
s 3
f 32/31/103 31/25/104 12/28/105 11/32/106
s 2
f 33/82/107 32/31/108 11/32/109 10/59/110
s 1
f 26/14/111 33/82/112 10/59/113 9/15/114
s 8
f 35/93/54 34/18/53 26/14/84 27/13/83
s 7
f 36/23/58 35/17/57 27/13/88 28/19/87
s 6
f 37/89/62 36/77/61 28/19/92 29/75/91
s 5
f 38/80/66 37/76/65 29/75/96 30/26/95
s 4
f 39/92/70 38/30/69 30/26/100 31/25/99
s 3
f 40/35/74 39/29/73 31/25/104 32/31/103
s 2
f 41/91/78 40/84/77 32/31/108 33/82/107
s 1
f 34/87/82 41/83/81 33/82/112 26/14/111
s off
f 9/15/115 10/59/116 43/60/117 42/47/118
f 10/59/119 11/32/120 44/37/121 43/60/122
f 11/32/123 12/28/124 45/38/125 44/37/126
f 12/28/127 13/27/128 46/41/129 45/38/130
f 13/27/131 14/61/132 47/62/133 46/41/134
f 14/61/135 15/20/136 48/43/137 47/62/138
f 15/20/139 16/16/140 49/44/141 48/43/142
f 16/16/143 9/15/144 42/47/145 49/44/146
f 42/47/147 43/60/148 51/56/149 50/48/150
f 43/60/151 44/37/152 53/40/153 51/56/154
f 44/37/155 45/38/156 54/39/157 53/40/158
f 45/38/159 46/41/160 55/42/161 54/39/162
f 46/41/163 47/62/164 56/58/165 55/42/166
f 47/62/167 48/43/168 57/46/169 56/58/170
f 48/43/171 49/44/172 58/45/173 57/46/174
f 49/44/175 42/47/176 50/48/177 58/45/178
s 8
f 60/9/32 59/12/31 18/63/52 19/64/51
s 7
f 61/10/28 60/9/27 19/64/56 20/67/55
s 6
f 62/69/24 61/10/23 20/67/60 21/70/59
s 5
f 63/6/20 62/69/19 21/70/64 22/72/63
s 4
f 64/3/16 63/6/15 22/72/68 23/71/67
s 3
f 65/4/12 64/3/11 23/71/72 24/68/71
s 2
f 66/65/8 65/4/7 24/68/76 25/66/75
s 1
f 59/12/4 66/65/3 25/66/80 18/63/79
s 11
f 67/97/179 68/98/180 116/99/181 109/100/182
s 12
f 68/101/183 69/102/184 115/103/185 116/104/186
s 13
f 69/102/187 70/105/188 114/106/189 115/103/190
s 14
f 70/105/191 71/107/192 113/108/193 114/106/194
s 15
f 71/107/195 72/109/196 112/110/197 113/108/198
s 16
f 72/111/199 73/112/200 111/113/201 112/110/202
s 17
f 73/112/203 74/114/204 110/115/205 111/113/206
s 18
f 74/114/207 67/97/208 109/100/209 110/115/210
s 19
f 68/98/211 67/97/212 83/116/213
f 69/102/214 68/101/211 83/117/213
f 70/105/215 69/102/214 83/117/213
f 71/107/216 70/105/215 83/117/213
f 72/109/217 71/107/216 83/117/213
f 73/112/218 72/111/217 83/116/213
f 74/114/219 73/112/218 83/116/213
f 67/97/212 74/114/219 83/116/213
s 20
f 75/118/220 76/119/221 84/120/222
f 76/119/221 77/121/223 84/120/222
f 77/121/223 78/122/224 84/120/222
f 78/122/224 79/123/225 84/120/222
f 79/123/225 80/124/226 84/120/222
f 80/124/226 81/125/227 84/120/222
f 81/125/227 82/126/228 84/120/222
f 82/126/228 75/118/220 84/120/222
s 18
f 86/127/229 85/128/230 93/160/231 94/130/232
s 17
f 87/131/233 86/127/234 94/130/235 95/132/236
s 16
f 88/133/237 87/131/238 95/132/239 96/134/240
s 15
f 89/135/241 88/133/242 96/134/243 97/136/244
s 14
f 90/137/245 89/135/246 97/136/247 98/138/248
s 13
f 91/139/249 90/137/250 98/138/251 99/140/252
s 12
f 92/141/253 91/139/254 99/140/255 100/142/256
s 11
f 85/158/257 92/141/258 100/142/259 93/129/260
s 18
f 94/143/232 93/144/231 75/118/261 82/126/262
s 17
f 95/132/236 94/143/235 82/126/263 81/125/264
s 16
f 96/134/240 95/132/239 81/125/265 80/124/266
s 15
f 97/145/244 96/134/243 80/124/267 79/123/268
s 14
f 98/146/248 97/145/247 79/123/269 78/122/270
s 13
f 99/147/252 98/146/251 78/122/271 77/121/272
s 12
f 100/148/256 99/147/255 77/121/273 76/119/274
s 11
f 93/144/260 100/148/259 76/119/275 75/118/276
s 18
f 102/149/277 101/150/278 85/128/230 86/127/229
s 17
f 103/151/279 102/149/280 86/127/234 87/131/233
s 16
f 104/152/281 103/151/282 87/131/238 88/133/237
s 15
f 105/153/283 104/152/284 88/133/242 89/135/241
s 14
f 106/154/285 105/153/286 89/135/246 90/137/245
s 13
f 107/155/287 106/154/288 90/137/250 91/139/249
s 12
f 108/156/289 107/155/290 91/139/254 92/141/253
s 11
f 101/157/291 108/156/292 92/141/258 85/158/257
s 18
f 110/115/210 109/100/209 101/150/278 102/149/277
s 17
f 111/113/206 110/115/205 102/149/280 103/151/279
s 16
f 112/110/202 111/113/201 103/151/282 104/152/281
s 15
f 113/108/198 112/110/197 104/152/284 105/153/283
s 14
f 114/106/194 113/108/193 105/153/286 106/154/285
s 13
f 115/103/190 114/106/189 106/154/288 107/155/287
s 12
f 116/104/186 115/103/185 107/155/290 108/156/289
s 11
f 109/159/182 116/104/181 108/156/292 101/157/291
