# This file uses centimeters as units for non-parametric coordinates.

mtllib Night_market.mtl
g default
v 1.176015 0.000000 1.855620
v 1.138921 0.000000 1.840255
v 1.101825 0.000000 1.855620
v 1.086461 0.000000 1.892714
v 1.101825 0.000000 1.929807
v 1.138921 0.000000 1.945173
v 1.176015 0.000000 1.929807
v 1.191380 0.000000 1.892714
v 1.176015 2.210177 1.855620
v 1.138921 2.210177 1.840255
v 1.101825 2.210177 1.855620
v 1.086461 2.210177 1.892714
v 1.101825 2.210177 1.929807
v 1.138921 2.210177 1.945173
v 1.176015 2.210177 1.929807
v 1.191380 2.210177 1.892714
v 1.176015 0.000000 -0.438005
v 1.138921 0.000000 -0.453371
v 1.101825 0.000000 -0.438005
v 1.086461 0.000000 -0.400912
v 1.101825 0.000000 -0.363819
v 1.138921 0.000000 -0.348453
v 1.176015 0.000000 -0.363819
v 1.191380 0.000000 -0.400912
v 1.176015 2.210177 -0.438005
v 1.138921 2.210177 -0.453371
v 1.101825 2.210177 -0.438005
v 1.086461 2.210177 -0.400912
v 1.101825 2.210177 -0.363819
v 1.138921 2.210177 -0.348453
v 1.176015 2.210177 -0.363819
v 1.191380 2.210177 -0.400912
v -1.083707 0.000000 1.855620
v -1.120801 0.000000 1.840255
v -1.157896 0.000000 1.855620
v -1.173260 0.000000 1.892714
v -1.157896 0.000000 1.929807
v -1.120801 0.000000 1.945173
v -1.083707 0.000000 1.929807
v -1.068341 0.000000 1.892714
v -1.083707 2.210177 1.855620
v -1.120801 2.210177 1.840255
v -1.157896 2.210177 1.855620
v -1.173260 2.210177 1.892714
v -1.157896 2.210177 1.929807
v -1.120801 2.210177 1.945173
v -1.083707 2.210177 1.929807
v -1.068341 2.210177 1.892714
v -1.255588 2.210177 2.000000
v 1.255588 2.210177 2.000000
v -1.255588 2.279748 2.000000
v 1.255588 2.279748 2.000000
v -1.255588 2.279748 -0.500000
v 1.255588 2.279748 -0.500000
v -1.255588 2.210177 -0.500000
v 1.255588 2.210177 -0.500000
v -0.013714 3.000000 0.764544
v 0.013714 3.000000 0.764544
v 0.013714 3.000000 0.735456
v -0.013714 3.000000 0.735456
v -1.083707 0.000000 -0.438005
v -1.120801 0.000000 -0.453371
v -1.157896 0.000000 -0.438005
v -1.173260 0.000000 -0.400912
v -1.157896 0.000000 -0.363819
v -1.120801 0.000000 -0.348453
v -1.083707 0.000000 -0.363819
v -1.068341 0.000000 -0.400912
v -1.083707 2.210177 -0.438005
v -1.120801 2.210177 -0.453371
v -1.157896 2.210177 -0.438005
v -1.173260 2.210177 -0.400912
v -1.157896 2.210177 -0.363819
v -1.120801 2.210177 -0.348453
v -1.083707 2.210177 -0.363819
v -1.068341 2.210177 -0.400912
vt 0.076903 0.844035
vt 0.065356 0.844034
vt 0.065356 0.155966
vt 0.076903 0.155966
vt 0.053808 0.844034
vt 0.053808 0.155966
vt 0.123096 0.844035
vt 0.111548 0.844035
vt 0.111548 0.155966
vt 0.123096 0.155966
vt 0.100000 0.844035
vt 0.100000 0.155966
vt 0.088452 0.844035
vt 0.088452 0.155966
vt 0.146192 0.844035
vt 0.134644 0.844035
vt 0.134644 0.155965
vt 0.146192 0.155965
vt 0.100000 0.844035
vt 0.088452 0.844035
vt 0.088452 0.155966
vt 0.100000 0.155966
vt 0.076903 0.844035
vt 0.076903 0.155966
vt 0.065356 0.844034
vt 0.065356 0.155966
vt 0.053808 0.844034
vt 0.053808 0.155966
vt 0.146192 0.844035
vt 0.134644 0.844035
vt 0.134644 0.155965
vt 0.146192 0.155965
vt 0.123096 0.844035
vt 0.123096 0.155966
vt 0.111548 0.844035
vt 0.111548 0.155966
vt 0.100000 0.844035
vt 0.088452 0.844035
vt 0.088452 0.155966
vt 0.100000 0.155966
vt 0.076903 0.844035
vt 0.076903 0.155966
vt 0.065356 0.844034
vt 0.065356 0.155966
vt 0.053808 0.844034
vt 0.053808 0.155966
vt 0.146192 0.844035
vt 0.134644 0.844035
vt 0.134644 0.155965
vt 0.146192 0.155965
vt 0.123096 0.844035
vt 0.123096 0.155966
vt 0.111548 0.844035
vt 0.111548 0.155966
vt 0.342003 0.475651
vt 0.342003 0.083988
vt 0.352633 0.083789
vt 0.352633 0.475651
vt 0.548033 0.281510
vt 0.548033 0.277835
vt 0.551967 0.277835
vt 0.551967 0.281510
vt 0.748259 0.475651
vt 0.748259 0.083789
vt 0.757997 0.083988
vt 0.757997 0.475651
vt 0.748259 0.486327
vt 0.748259 0.875218
vt 0.352633 0.875217
vt 0.352633 0.486327
vt 0.352633 0.072606
vt 0.748259 0.072606
vt 0.100000 0.844035
vt 0.088452 0.844035
vt 0.088452 0.155966
vt 0.100000 0.155966
vt 0.076903 0.844035
vt 0.076903 0.155966
vt 0.065356 0.844034
vt 0.065356 0.155966
vt 0.053808 0.844034
vt 0.053808 0.155966
vt 0.146192 0.844035
vt 0.134644 0.844035
vt 0.134644 0.155965
vt 0.146192 0.155965
vt 0.123096 0.844035
vt 0.123096 0.155966
vt 0.111548 0.844035
vt 0.111548 0.155966
vn 0.382695 0.000000 -0.923875
vn 0.382695 0.000000 -0.923875
vn 0.382695 0.000000 -0.923875
vn 0.382695 0.000000 -0.923875
vn -0.382687 0.000000 -0.923878
vn -0.382687 0.000000 -0.923878
vn -0.382687 0.000000 -0.923878
vn -0.382687 0.000000 -0.923878
vn -0.923881 0.000000 -0.382679
vn -0.923881 0.000000 -0.382679
vn -0.923881 0.000000 -0.382679
vn -0.923881 0.000000 -0.382679
vn -0.923881 0.000000 0.382681
vn -0.923881 0.000000 0.382681
vn -0.923881 0.000000 0.382681
vn -0.923881 0.000000 0.382681
vn -0.382691 0.000000 0.923876
vn -0.382691 0.000000 0.923876
vn -0.382691 0.000000 0.923876
vn -0.382691 0.000000 0.923876
vn 0.382700 0.000000 0.923873
vn 0.382700 0.000000 0.923873
vn 0.382700 0.000000 0.923873
vn 0.382700 0.000000 0.923873
vn 0.923874 0.000000 0.382696
vn 0.923874 0.000000 0.382696
vn 0.923874 0.000000 0.382696
vn 0.923874 0.000000 0.382696
vn 0.923875 0.000000 -0.382694
vn 0.923875 0.000000 -0.382694
vn 0.923875 0.000000 -0.382694
vn 0.923875 0.000000 -0.382694
vn 0.382699 0.000000 -0.923873
vn 0.382699 0.000000 -0.923873
vn 0.382699 0.000000 -0.923873
vn 0.382699 0.000000 -0.923873
vn -0.382691 0.000000 -0.923877
vn -0.382691 0.000000 -0.923877
vn -0.382691 0.000000 -0.923877
vn -0.382691 0.000000 -0.923877
vn -0.923881 0.000000 -0.382680
vn -0.923881 0.000000 -0.382680
vn -0.923881 0.000000 -0.382680
vn -0.923881 0.000000 -0.382680
vn -0.923881 0.000000 0.382680
vn -0.923881 0.000000 0.382680
vn -0.923881 0.000000 0.382680
vn -0.923881 0.000000 0.382680
vn -0.382691 0.000000 0.923876
vn -0.382691 0.000000 0.923876
vn -0.382691 0.000000 0.923876
vn -0.382691 0.000000 0.923876
vn 0.382700 0.000000 0.923873
vn 0.382700 0.000000 0.923873
vn 0.382700 0.000000 0.923873
vn 0.382700 0.000000 0.923873
vn 0.923875 0.000000 0.382696
vn 0.923875 0.000000 0.382696
vn 0.923875 0.000000 0.382696
vn 0.923875 0.000000 0.382696
vn 0.923875 0.000000 -0.382696
vn 0.923875 0.000000 -0.382696
vn 0.923875 0.000000 -0.382696
vn 0.923875 0.000000 -0.382696
vn 0.382696 0.000000 -0.923874
vn 0.382696 0.000000 -0.923874
vn 0.382696 0.000000 -0.923874
vn 0.382696 0.000000 -0.923874
vn -0.382686 0.000000 -0.923879
vn -0.382686 0.000000 -0.923879
vn -0.382686 0.000000 -0.923879
vn -0.382686 0.000000 -0.923879
vn -0.923881 0.000000 -0.382679
vn -0.923881 0.000000 -0.382679
vn -0.923881 0.000000 -0.382679
vn -0.923881 0.000000 -0.382679
vn -0.923881 0.000000 0.382681
vn -0.923881 0.000000 0.382681
vn -0.923881 0.000000 0.382681
vn -0.923881 0.000000 0.382681
vn -0.382690 0.000000 0.923877
vn -0.382690 0.000000 0.923877
vn -0.382690 0.000000 0.923877
vn -0.382690 0.000000 0.923877
vn 0.382701 0.000000 0.923872
vn 0.382701 0.000000 0.923872
vn 0.382701 0.000000 0.923872
vn 0.382701 0.000000 0.923872
vn 0.923874 0.000000 0.382696
vn 0.923874 0.000000 0.382696
vn 0.923874 0.000000 0.382696
vn 0.923874 0.000000 0.382696
vn 0.923875 0.000000 -0.382694
vn 0.923875 0.000000 -0.382694
vn 0.923875 0.000000 -0.382694
vn 0.923875 0.000000 -0.382694
vn 0.000000 0.000000 1.000000
vn 0.000000 0.000000 1.000000
vn 0.000000 0.000000 1.000000
vn 0.000000 0.000000 1.000000
vn 0.000000 1.000000 0.000000
vn 0.000000 1.000000 0.000000
vn 0.000000 1.000000 0.000000
vn 0.000000 1.000000 0.000000
vn 0.000000 0.000000 -1.000000
vn 0.000000 0.000000 -1.000000
vn 0.000000 0.000000 -1.000000
vn 0.000000 0.000000 -1.000000
vn 0.000000 -1.000000 0.000000
vn 0.000000 -1.000000 0.000000
vn 0.000000 -1.000000 0.000000
vn 0.000000 -1.000000 0.000000
vn 1.000000 0.000000 0.000000
vn 1.000000 0.000000 0.000000
vn 1.000000 0.000000 0.000000
vn 1.000000 0.000000 0.000000
vn -1.000000 0.000000 0.000000
vn -1.000000 0.000000 0.000000
vn -1.000000 0.000000 0.000000
vn -1.000000 0.000000 0.000000
vn 0.000000 0.863910 0.503646
vn 0.000000 0.863910 0.503646
vn 0.000000 0.863910 0.503646
vn 0.000000 0.863910 0.503646
vn 0.501700 0.865042 0.000000
vn 0.501700 0.865042 0.000000
vn 0.501700 0.865042 0.000000
vn 0.501700 0.865042 0.000000
vn 0.000000 0.863910 -0.503646
vn 0.000000 0.863910 -0.503646
vn 0.000000 0.863910 -0.503646
vn 0.000000 0.863910 -0.503646
vn -0.501700 0.865042 0.000000
vn -0.501700 0.865042 0.000000
vn -0.501700 0.865042 0.000000
vn -0.501700 0.865042 0.000000
vn 0.382700 0.000000 -0.923873
vn 0.382700 0.000000 -0.923873
vn 0.382700 0.000000 -0.923873
vn 0.382700 0.000000 -0.923873
vn -0.382690 0.000000 -0.923877
vn -0.382690 0.000000 -0.923877
vn -0.382690 0.000000 -0.923877
vn -0.382690 0.000000 -0.923877
vn -0.923881 0.000000 -0.382680
vn -0.923881 0.000000 -0.382680
vn -0.923881 0.000000 -0.382680
vn -0.923881 0.000000 -0.382680
vn -0.923881 0.000000 0.382680
vn -0.923881 0.000000 0.382680
vn -0.923881 0.000000 0.382680
vn -0.923881 0.000000 0.382680
vn -0.382690 0.000000 0.923877
vn -0.382690 0.000000 0.923877
vn -0.382690 0.000000 0.923877
vn -0.382690 0.000000 0.923877
vn 0.382701 0.000000 0.923872
vn 0.382701 0.000000 0.923872
vn 0.382701 0.000000 0.923872
vn 0.382701 0.000000 0.923872
vn 0.923875 0.000000 0.382696
vn 0.923875 0.000000 0.382696
vn 0.923875 0.000000 0.382696
vn 0.923875 0.000000 0.382696
vn 0.923875 0.000000 -0.382696
vn 0.923875 0.000000 -0.382696
vn 0.923875 0.000000 -0.382696
vn 0.923875 0.000000 -0.382696
s off
g Night_market
usemtl initialShadingGroup
f 1/11/1 2/13/2 10/14/3 9/12/4
f 2/13/5 3/1/6 11/4/7 10/14/8
f 3/1/9 4/2/10 12/3/11 11/4/12
f 4/2/13 5/5/14 13/6/15 12/3/16
f 5/15/17 6/16/18 14/17/19 13/18/20
f 6/16/21 7/7/22 15/10/23 14/17/24
f 7/7/25 8/8/26 16/9/27 15/10/28
f 8/8/29 1/11/30 9/12/31 16/9/32
f 17/19/33 18/20/34 26/21/35 25/22/36
f 18/20/37 19/23/38 27/24/39 26/21/40
f 19/23/41 20/25/42 28/26/43 27/24/44
f 20/25/45 21/27/46 29/28/47 28/26/48
f 21/29/49 22/30/50 30/31/51 29/32/52
f 22/30/53 23/33/54 31/34/55 30/31/56
f 23/33/57 24/35/58 32/36/59 31/34/60
f 24/35/61 17/19/62 25/22/63 32/36/64
f 33/37/65 34/38/66 42/39/67 41/40/68
f 34/38/69 35/41/70 43/42/71 42/39/72
f 35/41/73 36/43/74 44/44/75 43/42/76
f 36/43/77 37/45/78 45/46/79 44/44/80
f 37/47/81 38/48/82 46/49/83 45/50/84
f 38/48/85 39/51/86 47/52/87 46/49/88
f 39/51/89 40/53/90 48/54/91 47/52/92
f 40/53/93 33/37/94 41/40/95 48/54/96
f 49/55/97 50/56/98 52/57/99 51/58/100
f 57/59/101 58/60/102 59/61/103 60/62/104
f 53/63/105 54/64/106 56/65/107 55/66/108
f 55/67/109 56/68/110 50/69/111 49/70/112
f 50/71/113 56/72/114 54/64/115 52/57/116
f 55/67/117 49/70/118 51/58/119 53/63/120
f 51/58/121 52/57/122 58/60/123 57/59/124
f 52/57/125 54/64/126 59/61/127 58/60/128
f 54/64/129 53/63/130 60/62/131 59/61/132
f 53/63/133 51/58/134 57/59/135 60/62/136
f 61/73/137 62/74/138 70/75/139 69/76/140
f 62/74/141 63/77/142 71/78/143 70/75/144
f 63/77/145 64/79/146 72/80/147 71/78/148
f 64/79/149 65/81/150 73/82/151 72/80/152
f 65/83/153 66/84/154 74/85/155 73/86/156
f 66/84/157 67/87/158 75/88/159 74/85/160
f 67/87/161 68/89/162 76/90/163 75/88/164
f 68/89/165 61/73/166 69/76/167 76/90/168
