# This file uses centimeters as units for non-parametric coordinates.

mtllib F2_Wall.mtl
g default
v 1.707197 3.211388 5.614676
v 1.707197 5.408724 5.614676
v 1.972455 3.211388 5.614676
v 1.972455 5.408724 5.614676
v 1.707197 3.211388 6.540826
v 1.972455 3.211388 6.540826
v 1.972455 5.408724 6.540826
v 1.707197 5.408724 6.540826
vt 0.741337 0.265410
vt 0.741337 0.766094
vt 0.530231 0.766094
vt 0.530231 0.265258
vt 0.258663 0.766094
vt 0.258663 0.265061
vt 0.469769 0.265214
vt 0.469769 0.766094
vt 0.741337 0.204947
vt 0.530231 0.204795
vt 0.741337 0.826731
vt 0.530231 0.826579
vn 0.000000 0.000000 1.000000
vn 0.000000 0.000000 1.000000
vn 0.000000 0.000000 1.000000
vn 0.000000 0.000000 1.000000
vn 0.000000 -1.000000 0.000000
vn 0.000000 -1.000000 0.000000
vn 0.000000 -1.000000 0.000000
vn 0.000000 -1.000000 0.000000
vn 1.000000 0.000000 0.000000
vn 1.000000 0.000000 0.000000
vn 1.000000 0.000000 0.000000
vn 1.000000 0.000000 0.000000
vn 0.000000 1.000000 0.000000
vn 0.000000 1.000000 0.000000
vn 0.000000 1.000000 0.000000
vn 0.000000 1.000000 0.000000
vn -1.000000 0.000000 0.000000
vn -1.000000 0.000000 0.000000
vn -1.000000 0.000000 0.000000
vn -1.000000 0.000000 0.000000
s off
g wall_F2
usemtl initialShadingGroup
f 5/7/1 6/4/2 7/3/3 8/8/4
f 1/9/5 3/1/6 6/4/7 5/10/8
f 3/1/9 4/2/10 7/3/11 6/4/12
f 4/2/13 2/11/14 8/12/15 7/3/16
f 2/5/17 1/6/18 5/7/19 8/8/20
