# This file uses centimeters as units for non-parametric coordinates.

mtllib TS_circle.mtl
g default
v 0.181880 8.898287 -10.047319
v 0.181880 9.433252 -9.311000
v 0.181880 9.433252 -8.400861
v 0.181880 8.898287 -7.664543
v 0.181880 8.032692 -7.383293
v 0.181880 7.167098 -7.664544
v 0.181880 6.632133 -8.400862
v 0.181880 6.632133 -9.311000
v 0.181880 7.167098 -10.047319
v 0.181880 8.032693 -10.328569
v 0.337339 8.898287 -10.047319
v 0.337339 9.433252 -9.311000
v 0.337339 9.433252 -8.400861
v 0.337339 8.898287 -7.664543
v 0.337339 8.032692 -7.383293
v 0.337339 7.167098 -7.664544
v 0.337339 6.632133 -8.400862
v 0.337339 6.632133 -9.311000
v 0.337339 7.167098 -10.047319
v 0.337339 8.032693 -10.328569
v 0.337339 8.032693 -8.400862
v 0.337339 8.032693 -9.311000
v 0.181880 8.032692 -8.400862
v 0.181880 8.032692 -9.311002
vt 0.492493 0.787332
vt 0.456720 0.677233
vt 0.476494 0.670808
vt 0.512267 0.780907
vt 0.492494 0.533493
vt 0.512267 0.560709
vt 0.586149 0.876168
vt 0.605923 0.848952
vt 0.586149 0.465448
vt 0.605923 0.492664
vt 0.835117 0.554284
vt 0.870891 0.664383
vt 0.851117 0.670808
vt 0.815344 0.560709
vt 0.835117 0.808123
vt 0.815344 0.780907
vt 0.741461 0.465448
vt 0.721688 0.492664
vt 0.741462 0.876168
vt 0.721688 0.848952
vt 0.289539 0.337252
vt 0.474468 0.337252
vt 0.403832 0.434476
vt 0.289539 0.471612
vt 0.289539 0.217077
vt 0.474468 0.217078
vt 0.104609 0.337252
vt 0.175246 0.434476
vt 0.403832 0.119854
vt 0.289539 0.082718
vt 0.104609 0.217078
vt 0.175246 0.119854
vt 0.605923 0.670808
vt 0.721688 0.670808
vt 0.721688 0.868726
vt 0.605923 0.868725
vt 0.605923 0.472890
vt 0.721688 0.472890
vt 0.870891 0.677233
vt 0.835117 0.533493
vt 0.492494 0.554284
vt 0.456720 0.664383
vt 0.492494 0.808122
vt 0.835118 0.787332
vn -0.000000 0.809018 -0.587784
vn -0.000000 0.809018 -0.587784
vn -0.000000 0.809018 -0.587784
vn -0.000000 0.809018 -0.587784
vn -0.000000 1.000000 -0.000001
vn -0.000000 1.000000 -0.000001
vn -0.000000 1.000000 -0.000001
vn -0.000000 1.000000 -0.000001
vn -0.000000 0.809017 0.587785
vn -0.000000 0.809017 0.587785
vn -0.000000 0.809017 0.587785
vn -0.000000 0.809017 0.587785
vn -0.000000 0.309018 0.951056
vn -0.000000 0.309018 0.951056
vn -0.000000 0.309018 0.951056
vn -0.000000 0.309018 0.951056
vn 0.000000 -0.309019 0.951056
vn 0.000000 -0.309019 0.951056
vn 0.000000 -0.309019 0.951056
vn 0.000000 -0.309019 0.951056
vn 0.000000 -0.809018 0.587784
vn 0.000000 -0.809018 0.587784
vn 0.000000 -0.809018 0.587784
vn 0.000000 -0.809018 0.587784
vn 0.000000 -1.000000 0.000000
vn 0.000000 -1.000000 0.000000
vn 0.000000 -1.000000 0.000000
vn 0.000000 -1.000000 0.000000
vn 0.000000 -0.809018 -0.587784
vn 0.000000 -0.809018 -0.587784
vn 0.000000 -0.809018 -0.587784
vn 0.000000 -0.809018 -0.587784
vn 0.000000 -0.309019 -0.951056
vn 0.000000 -0.309019 -0.951056
vn 0.000000 -0.309019 -0.951056
vn 0.000000 -0.309019 -0.951056
vn -0.000000 0.309019 -0.951056
vn -0.000000 0.309019 -0.951056
vn -0.000000 0.309019 -0.951056
vn -0.000000 0.309019 -0.951056
vn -1.000000 -0.000000 0.000000
vn -1.000000 -0.000000 0.000000
vn -1.000000 -0.000000 0.000000
vn -1.000000 -0.000000 -0.000000
vn 1.000000 -0.000000 0.000000
vn 1.000000 -0.000000 0.000000
vn 1.000000 -0.000000 0.000000
vn 1.000000 0.000000 0.000000
vn 1.000000 0.000000 0.000000
vn 1.000000 0.000000 0.000000
vn 1.000000 0.000000 0.000000
vn 1.000000 0.000000 0.000000
vn 1.000000 -0.000000 0.000000
vn 1.000000 -0.000000 0.000000
vn 1.000000 0.000000 0.000000
vn 1.000000 0.000000 0.000000
vn -1.000000 0.000000 -0.000000
vn -1.000000 0.000000 -0.000000
vn -1.000000 0.000000 -0.000000
vn -1.000000 -0.000000 0.000000
vn -1.000000 -0.000000 0.000000
vn -1.000000 -0.000000 0.000000
vn -1.000000 -0.000000 0.000000
vn -1.000000 -0.000000 0.000000
s off
g pCylinder2
usemtl initialShadingGroup
f 1/15/1 2/19/2 12/20/3 11/16/4
f 2/35/5 3/36/6 13/8/7 12/20/8
f 3/7/9 4/43/10 14/4/11 13/8/12
f 4/1/13 5/2/14 15/3/15 14/4/16
f 5/42/17 6/41/18 16/6/19 15/3/20
f 6/5/21 7/9/22 17/10/23 16/6/24
f 7/37/25 8/38/26 18/18/27 17/10/28
f 8/17/29 9/40/30 19/14/31 18/18/32
f 9/11/33 10/12/34 20/13/35 19/14/36
f 10/39/37 1/44/38 11/16/39 20/13/40
s 1
f 23/21/41 7/22/42 6/23/43 5/24/44
s 2
f 15/3/45 21/33/46 13/8/47 14/4/48
f 21/33/46 22/34/49 12/20/50 13/8/47
f 20/13/51 11/16/52 12/20/50 22/34/49
f 17/10/53 21/33/46 15/3/45 16/6/54
f 18/18/55 22/34/49 21/33/46 17/10/53
f 20/13/51 22/34/49 18/18/55 19/14/56
s 1
f 3/27/57 23/21/41 5/24/44 4/28/58
f 2/31/59 24/25/60 23/21/41 3/27/57
f 24/25/60 8/26/61 7/22/42 23/21/41
f 10/30/62 24/25/60 2/31/59 1/32/63
f 9/29/64 8/26/61 24/25/60 10/30/62
