# This file uses centimeters as units for non-parametric coordinates.

mtllib TS_Square.mtl
g default
v 0.164548 5.548164 4.072618
v 0.337444 5.548164 4.072618
v 0.164548 7.643924 6.162309
v 0.337444 7.643924 6.162309
v 0.164548 9.733683 4.066574
v 0.337444 9.733683 4.066574
v 0.164548 7.637920 1.976883
v 0.337444 7.637920 1.976883
vt 0.424206 0.471829
vt 0.672645 0.719559
vt 0.424923 0.968002
vt 0.176484 0.720271
vt 0.687251 0.705182
vt 0.670280 0.046758
vt 0.162012 0.734784
vt 0.439473 0.982503
vt 0.687157 0.734034
vt 0.421841 0.294488
vt 0.409693 0.457358
vt 0.443469 0.452868
vt 0.410449 0.982517
vt 0.668021 0.544880
vt 0.161970 0.705799
vt 0.918278 0.297553
vn 0.000003 -0.706081 0.708131
vn 0.000003 -0.706081 0.708131
vn 0.000003 -0.706081 0.708131
vn 0.000003 -0.706081 0.708131
vn -0.000002 0.708116 0.706097
vn -0.000002 0.708116 0.706097
vn -0.000002 0.708116 0.706097
vn -0.000002 0.708116 0.706097
vn 0.000000 0.706080 -0.708132
vn 0.000000 0.706080 -0.708132
vn 0.000000 0.706080 -0.708132
vn 0.000000 0.706080 -0.708132
vn 0.000001 -0.708116 -0.706096
vn 0.000001 -0.708116 -0.706096
vn 0.000001 -0.708116 -0.706096
vn 0.000001 -0.708116 -0.706096
vn 1.000000 -0.000000 0.000000
vn 1.000000 -0.000000 0.000000
vn 1.000000 -0.000000 0.000000
vn 1.000000 -0.000000 0.000000
vn -1.000000 -0.000000 0.000000
vn -1.000000 -0.000000 0.000000
vn -1.000000 -0.000000 0.000000
vn -1.000000 -0.000000 0.000000
s off
g pCube3
usemtl initialShadingGroup
f 1/11/1 2/1/2 4/4/3 3/15/4
f 3/7/5 4/4/6 6/3/7 5/13/8
f 5/8/9 6/3/10 8/2/11 7/9/12
f 7/5/13 8/2/14 2/1/15 1/12/16
f 2/1/17 8/2/18 6/3/19 4/4/20
f 7/10/21 1/6/22 3/16/23 5/14/24
