# This file uses centimeters as units for non-parametric coordinates.

mtllib TS_triangle.mtl
g default
v 0.164548 6.065321 -2.353056
v 0.337444 6.065322 -2.353056
v 0.164548 9.638330 -4.448791
v 0.337444 9.638330 -4.448791
v 0.164548 6.059318 -6.538481
v 0.337444 6.059318 -6.538481
vt 0.546822 0.142113
vt 0.318515 0.533134
vt 0.089548 0.142769
vt 0.491324 0.558900
vt 0.938548 0.559542
vt 0.714613 0.941327
vt 0.089521 0.123880
vt 0.546795 0.123224
vt 0.057344 0.161659
vt 0.350867 0.552023
vt 0.579174 0.161003
vt 0.286311 0.552023
vn 0.000003 -0.999999 0.001434
vn 0.000003 -0.999999 0.001434
vn 0.000003 -0.999999 0.001434
vn 0.000003 -0.999999 0.001434
vn -0.000001 0.505937 0.862570
vn -0.000001 0.505937 0.862570
vn -0.000001 0.505937 0.862570
vn -0.000001 0.505937 0.862570
vn 0.000000 0.504219 -0.863576
vn 0.000000 0.504219 -0.863576
vn 0.000000 0.504219 -0.863576
vn 0.000000 0.504219 -0.863576
vn 1.000000 0.000000 0.000000
vn 1.000000 0.000000 0.000000
vn 1.000000 0.000000 0.000000
vn -1.000000 -0.000000 0.000000
vn -1.000000 -0.000000 0.000000
vn -1.000000 -0.000000 0.000000
s off
g pCube4
usemtl initialShadingGroup
f 2/3/1 1/7/2 5/8/3 6/1/4
f 1/9/5 2/3/6 4/2/7 3/12/8
f 3/10/9 4/2/10 6/1/11 5/11/12
f 2/3/13 6/1/14 4/2/15
f 5/4/16 1/5/17 3/6/18
