# This file uses centimeters as units for non-parametric coordinates.

mtllib Tall_ff.mtl
g default
v -12.273152 61.872192 -0.584650
v 12.405583 61.872192 -0.584650
v -12.273152 61.872192 -25.116970
v 12.259168 61.872192 -25.116970
vt 0.249895 0.748614
vt 0.249895 0.251386
vt 0.744175 0.254336
vt 0.744175 0.748614
vn 0.000000 1.000000 0.000000
vn 0.000000 1.000000 0.000000
vn 0.000000 1.000000 0.000000
vn 0.000000 1.000000 0.000000
s off
g floor
usemtl initialShadingGroup
f 1/1/1 2/2/2 4/3/3 3/4/4
