# This file uses centimeters as units for non-parametric coordinates.

mtllib gate02.mtl
g default
v -6.378523 0.366627 10.712498
v -0.979702 0.366627 10.712498
v -6.378523 4.820121 10.712498
v -0.979702 4.820121 10.712498
vt 0.099062 0.064635
vt 0.898010 0.064635
vt 0.898010 0.935365
vt 0.099062 0.935365
vn 0.000000 0.000000 1.000000
vn 0.000000 0.000000 1.000000
vn 0.000000 0.000000 1.000000
vn 0.000000 0.000000 1.000000
s off
g polySurface39
usemtl aiStandardSurface1SG
f 1/1/1 2/2/2 4/3/3 3/4/4
