# This file uses centimeters as units for non-parametric coordinates.

mtllib Chinese lantern01.mtl
g default
v 0.515759 1.322439 -0.374721
v 0.197002 1.322439 -0.606311
v -0.197002 1.322439 -0.606311
v -0.515759 1.322439 -0.374721
v -0.637513 1.322439 0.000000
v -0.515759 1.322439 0.374721
v -0.197002 1.322439 0.606311
v 0.197002 1.322439 0.606311
v 0.515759 1.322439 0.374721
v 0.637513 1.322439 0.000000
v 0.515759 4.018721 -0.374721
v 0.197002 4.018721 -0.606310
v -0.197002 4.018721 -0.606310
v -0.515759 4.018721 -0.374721
v -0.637513 4.018721 0.000000
v -0.515759 4.018721 0.374721
v -0.197002 4.018721 0.606310
v 0.197002 4.018721 0.606310
v 0.515759 4.018721 0.374721
v 0.637513 4.018721 0.000000
v 1.129686 3.408959 -0.820765
v 1.396369 3.408959 -0.000000
v 1.129686 3.408959 0.820764
v 0.431502 3.408959 1.328025
v -0.431502 3.408959 1.328025
v -1.129686 3.408959 0.820765
v -1.396369 3.408959 -0.000000
v -1.129686 3.408959 -0.820765
v -0.431502 3.408959 -1.328025
v 0.431502 3.408959 -1.328025
v 1.129686 1.924181 -0.820765
v 1.396369 1.924181 -0.000000
v 1.129686 1.924181 0.820764
v 0.431502 1.924181 1.328025
v -0.431502 1.924181 1.328025
v -1.129686 1.924181 0.820765
v -1.396369 1.924181 -0.000000
v -1.129686 1.924181 -0.820765
v -0.431502 1.924181 -1.328025
v 0.431502 1.924181 -1.328025
v 0.462914 4.018721 -0.336326
v 0.176817 4.018721 -0.544188
v -0.176818 4.018721 -0.544188
v -0.462914 4.018721 -0.336326
v -0.572193 4.018721 0.000000
v -0.462914 4.018721 0.336327
v -0.176817 4.018721 0.544188
v 0.176817 4.018721 0.544188
v 0.462914 4.018721 0.336327
v 0.572193 4.018721 0.000000
v 1.310992 2.695653 -0.952491
v 1.620474 2.695653 0.000000
v 1.310992 2.695653 0.952490
v 0.500754 2.695653 1.541162
v -0.500754 2.695653 1.541162
v -1.310992 2.695653 0.952491
v -1.620475 2.695653 0.000000
v -1.310992 2.695653 -0.952491
v -0.500755 2.695653 -1.541162
v 0.500754 2.695653 -1.541162
v 0.515759 1.118382 -0.374721
v 0.197002 1.118382 -0.606311
v 0.462914 1.118383 -0.336327
v 0.176817 1.118383 -0.544188
v -0.197002 1.118382 -0.606311
v -0.176818 1.118382 -0.544188
v -0.515759 1.118382 -0.374721
v -0.462914 1.118382 -0.336327
v -0.637513 1.118382 0.000000
v -0.572193 1.118382 0.000000
v -0.515759 1.118382 0.374721
v -0.462914 1.118382 0.336327
v -0.197002 1.118382 0.606311
v -0.176817 1.118382 0.544188
v 0.197002 1.118382 0.606311
v 0.176818 1.118382 0.544188
v 0.515759 1.118382 0.374721
v 0.462914 1.118382 0.336327
v 0.637513 1.118382 0.000000
v 0.572193 1.118382 0.000000
v 0.515759 4.177242 -0.374721
v 0.197002 4.177242 -0.606310
v 0.176817 4.177242 -0.544188
v 0.462914 4.177242 -0.336326
v -0.197002 4.177242 -0.606310
v -0.176818 4.177242 -0.544188
v -0.515759 4.177242 -0.374721
v -0.462914 4.177242 -0.336326
v -0.637513 4.177242 0.000000
v -0.572193 4.177242 0.000000
v -0.515759 4.177242 0.374721
v -0.462914 4.177242 0.336327
v -0.197002 4.177242 0.606310
v -0.176817 4.177242 0.544188
v 0.197002 4.177242 0.606310
v 0.176817 4.177242 0.544188
v 0.515759 4.177242 0.374721
v 0.462914 4.177242 0.336327
v 0.637513 4.177242 0.000000
v 0.572193 4.177242 0.000000
v 0.462914 0.732798 -0.336327
v 0.176817 0.732798 -0.544188
v -0.176818 0.732797 -0.544188
v -0.462914 0.732797 -0.336327
v -0.572193 0.732797 0.000000
v -0.462914 0.732797 0.336327
v -0.176817 0.732797 0.544188
v 0.176818 0.732797 0.544188
v 0.462914 0.732797 0.336327
v 0.572193 0.732797 0.000000
vt 0.594683 0.412615
vt 0.594290 0.471091
vt 0.543815 0.471099
vt 0.543905 0.412293
vt 0.681969 0.414254
vt 0.681381 0.471099
vt 0.594438 0.529537
vt 0.543731 0.529879
vt 0.496839 0.471116
vt 0.496638 0.412550
vt 0.595834 0.353360
vt 0.543987 0.352447
vt 0.711286 0.414360
vt 0.710836 0.471110
vt 0.683637 0.357921
vt 0.496559 0.529666
vt 0.409054 0.471170
vt 0.408614 0.414139
vt 0.495725 0.353184
vt 0.598677 0.291976
vt 0.544093 0.289610
vt 0.712425 0.358216
vt 0.681625 0.527922
vt 0.710935 0.527850
vt 0.386068 0.471166
vt 0.385798 0.414192
vt 0.407051 0.357694
vt 0.493255 0.291552
vt 0.687207 0.303060
vt 0.715183 0.304030
vt 0.408663 0.528238
vt 0.385777 0.528191
vt 0.384807 0.357969
vt 0.403152 0.302693
vt 0.380368 0.305039
vt 0.605133 0.715628
vt 0.625874 0.791716
vt 0.543527 0.813360
vt 0.543550 0.722076
vt 0.692887 0.689704
vt 0.706241 0.731203
vt 0.606004 0.225715
vt 0.544288 0.219156
vt 0.466006 0.792925
vt 0.486287 0.716387
vt 0.597961 0.649769
vt 0.543624 0.652121
vt 0.717703 0.688744
vt 0.725996 0.731991
vt 0.686073 0.638830
vt 0.486793 0.224588
vt 0.384569 0.206913
vt 0.397524 0.691069
vt 0.493124 0.650232
vt 0.595353 0.588667
vt 0.543678 0.589606
vt 0.713495 0.638291
vt 0.693921 0.251521
vt 0.718769 0.251971
vt 0.369644 0.205982
vt 0.378200 0.690434
vt 0.404218 0.639837
vt 0.495617 0.588933
vt 0.682913 0.584161
vt 0.711653 0.583937
vt 0.397190 0.248664
vt 0.377469 0.247199
vt 0.382750 0.639512
vt 0.407333 0.584788
vt 0.384831 0.584650
vt 0.294804 0.187129
vt 0.264099 0.205135
vt 0.248964 0.190300
vt 0.295305 0.169503
vt 0.244071 0.249942
vt 0.220297 0.243935
vt 0.325554 0.207348
vt 0.341633 0.192552
vt 0.345241 0.253965
vt 0.367394 0.248931
vt 0.296160 0.365103
vt 0.327238 0.344716
vt 0.343339 0.359488
vt 0.296654 0.382748
vt 0.347161 0.298248
vt 0.369711 0.303317
vt 0.264981 0.346887
vt 0.249825 0.361712
vt 0.244341 0.302160
vt 0.220568 0.308172
vt 0.137162 0.528376
vt 0.137162 0.576578
vt 0.084439 0.576478
vt 0.084439 0.528471
vt 0.137162 0.624460
vt 0.084439 0.624532
vt 0.137162 0.480429
vt 0.084439 0.480360
vt 0.137162 0.431992
vt 0.084439 0.432031
vt 0.137162 0.286491
vt 0.137162 0.335178
vt 0.084439 0.335189
vt 0.084439 0.286482
vt 0.137162 0.383593
vt 0.084439 0.383574
vt 0.137162 0.237763
vt 0.084439 0.237771
vt 0.137162 0.189158
vt 0.084439 0.189156
vt 0.900271 0.303125
vt 0.864655 0.351810
vt 0.858756 0.343771
vt 0.890894 0.300090
vt 0.807118 0.370795
vt 0.807038 0.360846
vt 0.900138 0.244426
vt 0.890968 0.247529
vt 0.749395 0.352758
vt 0.755243 0.344696
vt 0.864794 0.198143
vt 0.859274 0.206160
vt 0.724148 0.301276
vt 0.808026 0.181158
vt 0.808292 0.191112
vt 0.727537 0.254669
vt 0.751070 0.201371
vt 0.757268 0.209424
vt 0.242783 0.369830
vt 0.209438 0.311251
vt 0.209149 0.240854
vt 0.296845 0.392838
vt 0.241942 0.182177
vt 0.350948 0.367634
vt 0.295484 0.159421
vt 0.349257 0.184404
vt 0.707174 0.209896
vt 0.626861 0.149458
vt 0.467094 0.147809
vt 0.137162 0.672488
vt 0.084439 0.672472
vt 0.544599 0.127678
vt 0.383947 0.732745
vt 0.368507 0.733328
vt 0.726816 0.208924
vn 0.553735 -0.729056 -0.402312
vn 0.211508 -0.729056 -0.650954
vn 0.267543 -0.500411 -0.823413
vn 0.700437 -0.500411 -0.508897
vn -0.211508 -0.729056 -0.650954
vn -0.267543 -0.500411 -0.823413
vn -0.553735 -0.729056 -0.402312
vn -0.700437 -0.500411 -0.508897
vn -0.684454 -0.729056 0.000000
vn -0.865788 -0.500411 0.000000
vn -0.553735 -0.729056 0.402312
vn -0.700437 -0.500411 0.508897
vn -0.211507 -0.729056 0.650955
vn -0.267543 -0.500411 0.823413
vn 0.211508 -0.729056 0.650955
vn 0.267543 -0.500411 0.823413
vn 0.553735 -0.729056 0.402312
vn 0.700437 -0.500411 0.508897
vn 0.684454 -0.729056 0.000000
vn 0.865788 -0.500411 0.000000
vn 0.854746 0.519047 -0.000000
vn 0.691504 0.519047 -0.502407
vn 0.546755 0.737061 -0.397241
vn 0.675827 0.737060 -0.000000
vn 0.691504 0.519047 0.502407
vn 0.546755 0.737061 0.397241
vn 0.264131 0.519047 0.812912
vn 0.208842 0.737060 0.642750
vn -0.264131 0.519047 0.812912
vn -0.208841 0.737060 0.642750
vn -0.691504 0.519047 0.502407
vn -0.546755 0.737061 0.397241
vn -0.854746 0.519047 0.000000
vn -0.675827 0.737061 0.000000
vn -0.691504 0.519047 -0.502407
vn -0.546755 0.737061 -0.397241
vn -0.264131 0.519047 -0.812912
vn -0.208842 0.737060 -0.642749
vn 0.264131 0.519047 -0.812912
vn 0.208842 0.737061 -0.642749
vn 0.809017 -0.000657 -0.587785
vn 1.000000 -0.000657 -0.000000
vn 0.809017 -0.000657 0.587785
vn 0.309017 -0.000657 0.951056
vn -0.309016 -0.000657 0.951056
vn -0.809017 -0.000657 0.587785
vn -1.000000 -0.000657 0.000000
vn -0.809017 -0.000657 -0.587785
vn -0.309017 -0.000657 -0.951056
vn 0.309016 -0.000657 -0.951056
vn 0.300281 -0.236097 -0.924170
vn 0.786146 -0.236098 -0.571168
vn 0.790961 -0.210093 -0.574667
vn 0.302121 -0.210092 -0.929830
vn -0.300281 -0.236096 -0.924170
vn -0.302121 -0.210091 -0.929830
vn -0.786146 -0.236097 -0.571168
vn -0.790961 -0.210092 -0.574666
vn -0.971729 -0.236097 0.000000
vn -0.977682 -0.210093 0.000000
vn -0.786146 -0.236096 0.571168
vn -0.790961 -0.210092 0.574666
vn -0.300280 -0.236096 0.924170
vn -0.302120 -0.210091 0.929831
vn 0.300281 -0.236095 0.924170
vn 0.302120 -0.210091 0.929831
vn 0.786146 -0.236096 0.571168
vn 0.790961 -0.210092 0.574667
vn 0.971729 -0.236098 0.000000
vn 0.977682 -0.210092 -0.000000
vn 0.772134 0.298499 -0.560988
vn 0.294929 0.298498 -0.907698
vn -0.273864 0.463228 0.842864
vn -0.716982 0.463229 0.520918
vn -0.294929 0.298498 -0.907698
vn 0.273863 0.463228 0.842864
vn -0.772134 0.298499 -0.560988
vn 0.716982 0.463230 0.520917
vn -0.954410 0.298500 0.000000
vn 0.886238 0.463230 -0.000000
vn -0.772134 0.298499 0.560988
vn 0.716982 0.463230 -0.520918
vn -0.294928 0.298497 0.907699
vn 0.273863 0.463227 -0.842864
vn 0.294928 0.298497 0.907699
vn -0.273863 0.463227 -0.842864
vn 0.772134 0.298498 0.560988
vn -0.716982 0.463229 -0.520918
vn 0.954410 0.298500 0.000000
vn -0.886238 0.463230 0.000000
vn -0.309017 0.000000 0.951056
vn -0.809017 0.000000 0.587785
vn 0.309017 0.000000 0.951056
vn 0.809017 0.000000 0.587785
vn 1.000000 0.000000 -0.000000
vn 0.809017 0.000000 -0.587785
vn 0.309016 0.000000 -0.951057
vn -0.309017 0.000000 -0.951057
vn -0.809017 0.000000 -0.587785
vn -1.000000 0.000000 -0.000000
vn 0.809017 -0.000000 -0.587785
vn 0.309017 -0.000000 -0.951056
vn -0.309018 -0.000000 -0.951056
vn -0.809017 -0.000000 -0.587785
vn -1.000000 -0.000000 0.000000
vn -0.809017 -0.000000 0.587785
vn -0.309016 0.000000 0.951057
vn 0.309016 0.000000 0.951057
vn 0.809017 -0.000000 0.587785
vn 1.000000 -0.000000 -0.000000
s 1
g Chinese_lantern
usemtl initialShadingGroup
f 1/6/1 2/23/2 40/7/3 31/2/4
f 2/23/2 3/64/5 39/55/6 40/7/3
f 3/64/5 4/50/7 38/46/8 39/55/6
f 4/50/7 5/40/9 37/36/10 38/46/8
f 5/40/9 6/41/11 36/37/12 37/36/10
f 6/137/11 7/58/13 35/42/14 36/138/12
f 7/58/13 8/29/15 34/20/16 35/42/14
f 8/29/15 9/15/17 33/11/18 34/20/16
f 9/15/17 10/5/19 32/1/20 33/11/18
f 10/5/19 1/6/1 31/2/4 32/1/20
f 22/10/21 21/9/22 11/17/23 20/18/24
f 23/19/25 22/10/21 20/18/24 19/27/26
f 24/28/27 23/19/25 19/27/26 18/34/28
f 25/51/29 24/28/27 18/34/28 17/66/30
f 26/139/31 25/51/29 17/66/30 16/52/32
f 27/45/33 26/44/31 16/143/32 15/53/34
f 28/54/35 27/45/33 15/53/34 14/62/36
f 29/63/37 28/54/35 14/62/36 13/69/38
f 30/16/39 29/63/37 13/69/38 12/31/40
f 21/9/22 30/16/39 12/31/40 11/17/23
f 32/1/20 31/2/4 51/3/41 52/4/42
f 33/11/18 32/1/20 52/4/42 53/12/43
f 34/20/16 33/11/18 53/12/43 54/21/44
f 35/42/14 34/20/16 54/21/44 55/43/45
f 36/138/12 35/42/14 55/43/45 56/142/46
f 37/36/10 36/37/12 56/38/46 57/39/47
f 38/46/8 37/36/10 57/39/47 58/47/48
f 39/55/6 38/46/8 58/47/48 59/56/49
f 40/7/3 39/55/6 59/56/49 60/8/50
f 31/2/4 40/7/3 60/8/50 51/3/41
f 62/111/51 61/112/52 63/113/53 64/114/54
f 65/117/55 62/111/51 64/114/54 66/118/56
f 67/121/57 65/117/55 66/118/56 68/122/58
f 69/124/59 67/121/57 68/122/58 70/125/60
f 71/127/61 69/124/59 70/125/60 72/128/62
f 73/59/63 71/127/61 72/128/62 74/126/64
f 75/30/65 73/59/63 74/126/64 76/123/66
f 77/119/67 75/30/65 76/123/66 78/120/68
f 79/115/69 77/119/67 78/120/68 80/116/70
f 61/112/52 79/115/69 80/116/70 63/113/53
f 81/129/71 82/130/72 83/90/73 84/88/74
f 82/130/72 85/131/75 86/76/76 83/90/73
f 85/131/75 87/133/77 88/73/78 86/76/76
f 87/133/77 89/135/79 90/74/80 88/73/78
f 89/135/79 91/136/81 92/78/82 90/74/80
f 91/136/81 93/67/83 94/80/84 92/78/82
f 93/67/83 95/35/85 96/86/86 94/80/84
f 95/35/85 97/134/87 98/83/88 96/86/86
f 97/134/87 99/132/89 100/84/90 98/83/88
f 99/132/89 81/129/71 84/88/74 100/84/90
f 52/4/42 51/3/41 21/9/22 22/10/21
f 53/12/43 52/4/42 22/10/21 23/19/25
f 54/21/44 53/12/43 23/19/25 24/28/27
f 55/43/45 54/21/44 24/28/27 25/51/29
f 56/142/46 55/43/45 25/51/29 26/139/31
f 57/39/47 56/38/46 26/44/31 27/45/33
f 58/47/48 57/39/47 27/45/33 28/54/35
f 59/56/49 58/47/48 28/54/35 29/63/37
f 60/8/50 59/56/49 29/63/37 30/16/39
f 51/3/41 60/8/50 30/16/39 21/9/22
f 2/23/2 1/6/1 61/14/52 62/24/51
f 3/64/5 2/23/2 62/24/51 65/65/55
f 4/50/7 3/64/5 65/65/55 67/57/57
f 5/40/9 4/50/7 67/57/57 69/48/59
f 6/41/11 5/40/9 69/48/59 71/49/61
f 7/58/13 6/137/11 71/145/61 73/59/63
f 8/29/15 7/58/13 73/59/63 75/30/65
f 9/15/17 8/29/15 75/30/65 77/22/67
f 10/5/19 9/15/17 77/22/67 79/13/69
f 1/6/1 10/5/19 79/13/69 61/14/52
f 11/17/23 12/31/40 82/32/72 81/25/71
f 42/89/91 41/87/92 84/88/74 83/90/73
f 12/31/40 13/69/38 85/70/75 82/32/72
f 43/75/93 42/89/91 83/90/73 86/76/76
f 13/69/38 14/62/36 87/68/77 85/70/75
f 44/72/94 43/75/93 86/76/76 88/73/78
f 14/62/36 15/53/34 89/61/79 87/68/77
f 45/71/95 44/72/94 88/73/78 90/74/80
f 15/53/34 16/143/32 91/144/81 89/61/79
f 46/77/96 45/71/95 90/74/80 92/78/82
f 16/52/32 17/66/30 93/67/83 91/60/81
f 47/79/97 46/77/96 92/78/82 94/80/84
f 17/66/30 18/34/28 95/35/85 93/67/83
f 48/85/98 47/79/97 94/80/84 96/86/86
f 18/34/28 19/27/26 97/33/87 95/35/85
f 49/82/99 48/85/98 96/86/86 98/83/88
f 19/27/26 20/18/24 99/26/89 97/33/87
f 50/81/100 49/82/99 98/83/88 100/84/90
f 20/18/24 11/17/23 81/25/71 99/26/89
f 41/87/92 50/81/100 100/84/90 84/88/74
f 64/109/54 63/107/53 101/108/101 102/110/102
f 66/95/56 64/140/54 102/141/102 103/96/103
f 68/92/58 66/95/56 103/96/103 104/93/104
f 70/91/60 68/92/58 104/93/104 105/94/105
f 72/97/62 70/91/60 105/94/105 106/98/106
f 74/99/64 72/97/62 106/98/106 107/100/107
f 76/105/66 74/99/64 107/100/107 108/106/108
f 78/102/68 76/105/66 108/106/108 109/103/109
f 80/101/70 78/102/68 109/103/109 110/104/110
f 63/107/53 80/101/70 110/104/110 101/108/101
