# This file uses centimeters as units for non-parametric coordinates.

mtllib Bar03.mtl
g default
v 1.546594 4.600000 -1.123667
v 0.590748 4.600000 -1.818137
v -0.590748 4.600000 -1.818137
v -1.546595 4.600000 -1.123667
v -1.911702 4.600000 -0.000000
v -1.546595 4.600000 1.123667
v -0.590748 4.600000 1.818137
v 0.590748 4.600000 1.818137
v 1.546594 4.600000 1.123667
v 1.911702 4.600000 -0.000000
v 0.639084 6.000000 -0.464322
v 0.244108 6.000000 -0.751290
v -0.244109 6.000000 -0.751290
v -0.639084 6.000000 -0.464322
v -0.789951 6.000000 -0.000000
v -0.639084 6.000000 0.464322
v -0.244108 6.000000 0.751289
v 0.244108 6.000000 0.751289
v 0.639084 6.000000 0.464322
v 0.789950 6.000000 -0.000000
v -0.244109 6.000000 -0.464322
v 0.244108 6.000000 -0.464322
v -0.244109 6.000000 -0.000000
v 0.244108 6.000000 -0.000000
v -0.244108 6.000000 0.464322
v 0.244108 6.000000 0.464322
v 3.796078 4.600000 -2.758013
v 4.692208 4.600000 0.000000
v 3.796077 4.600000 2.758013
v 1.449973 4.600000 4.462557
v -1.449973 4.600000 4.462557
v -3.796078 4.600000 2.758013
v -4.692209 4.600000 0.000000
v -3.796078 4.600000 -2.758011
v -1.449974 4.600000 -4.462557
v 1.449973 4.600000 -4.462557
v 1.546594 0.000000 -1.123667
v 0.590748 0.000000 -1.818137
v -0.590748 0.000000 -1.818137
v -1.546595 0.000000 -1.123667
v -1.911702 0.000000 -0.000000
v -1.546595 0.000000 1.123667
v -0.590748 0.000000 1.818137
v 0.590748 0.000000 1.818137
v 1.546594 0.000000 1.123667
v 1.911702 0.000000 -0.000000
vt 0.969263 0.552984
vt 0.969263 0.614423
vt 0.730059 0.614423
vt 0.730059 0.552984
vt 0.969263 0.675862
vt 0.730059 0.675862
vt 0.969263 0.491545
vt 0.730059 0.491545
vt 0.969263 0.430107
vt 0.730059 0.430107
vt 0.969263 0.245791
vt 0.969263 0.307229
vt 0.730059 0.307229
vt 0.730059 0.245791
vt 0.969263 0.368668
vt 0.730059 0.368668
vt 0.969263 0.184352
vt 0.730059 0.184352
vt 0.969263 0.122913
vt 0.730059 0.122913
vt 0.529077 0.835590
vt 0.573297 0.803461
vt 0.677364 0.879067
vt 0.568828 0.957924
vt 0.590187 0.751494
vt 0.718821 0.751477
vt 0.474418 0.835614
vt 0.434668 0.957931
vt 0.573297 0.699527
vt 0.677363 0.623904
vt 0.430197 0.803496
vt 0.326131 0.879103
vt 0.529076 0.667376
vt 0.568826 0.545040
vt 0.413306 0.751494
vt 0.284672 0.751493
vt 0.474417 0.667345
vt 0.434666 0.544951
vt 0.430197 0.699469
vt 0.326129 0.623767
vt 0.247756 0.397754
vt 0.229484 0.397743
vt 0.247756 0.385595
vt 0.222504 0.417424
vt 0.247756 0.417422
vt 0.083432 0.289959
vt 0.191970 0.211177
vt 0.270343 0.397745
vt 0.270343 0.385585
vt 0.041975 0.417425
vt 0.270343 0.417416
vt 0.247756 0.437087
vt 0.229484 0.437091
vt 0.326129 0.211174
vt 0.288615 0.397750
vt 0.083432 0.544868
vt 0.270343 0.437090
vt 0.295595 0.417418
vt 0.247756 0.449243
vt 0.434667 0.289938
vt 0.191970 0.623634
vt 0.270343 0.449241
vt 0.288615 0.437083
vt 0.476124 0.417389
vt 0.969263 0.061475
vt 0.730059 0.061475
vn 0.504688 -0.781561 -0.366677
vn 0.192774 -0.781563 -0.593294
vn 0.283828 0.395454 -0.873532
vn 0.743071 0.395454 -0.539872
vn -0.192774 -0.781563 -0.593294
vn -0.283828 0.395455 -0.873532
vn -0.504688 -0.781561 -0.366677
vn -0.743071 0.395454 -0.539872
vn -0.623825 -0.781564 0.000000
vn -0.918486 0.395454 0.000000
vn -0.504688 -0.781561 0.366677
vn -0.743071 0.395454 0.539872
vn -0.192774 -0.781563 0.593294
vn -0.283828 0.395455 0.873532
vn 0.192774 -0.781563 0.593294
vn 0.283828 0.395454 0.873532
vn 0.504688 -0.781561 0.366677
vn 0.743071 0.395454 0.539872
vn 0.623825 -0.781564 0.000000
vn 0.918486 0.395454 -0.000000
vn 0.000000 1.000000 -0.000000
vn 0.268656 0.943253 -0.195189
vn 0.103285 0.942489 -0.317879
vn -0.268656 0.943253 -0.195189
vn 0.000000 1.000000 -0.000000
vn -0.103285 0.942489 -0.317879
vn -0.330825 0.943692 -0.000000
vn 0.000000 1.000000 0.000000
vn 0.000000 1.000000 0.000000
vn 0.330825 0.943692 -0.000000
vn -0.268655 0.943253 0.195189
vn 0.000000 1.000000 -0.000000
vn 0.000000 1.000000 -0.000000
vn 0.268656 0.943253 0.195189
vn -0.103285 0.942489 0.317879
vn 0.103285 0.942489 0.317879
vn 0.809017 0.000000 -0.587785
vn 0.309019 0.000000 -0.951056
vn -0.309019 0.000000 -0.951056
vn -0.809017 0.000000 -0.587785
vn -1.000000 0.000000 0.000000
vn -0.809017 0.000000 0.587786
vn -0.309019 0.000000 0.951056
vn 0.309019 0.000000 0.951056
vn 0.809017 0.000000 0.587785
vn 1.000000 0.000000 0.000000
s 1
g Bar02
usemtl aiStandardSurface1SG
f 1/21/1 2/22/2 36/23/3 27/24/4
f 2/22/2 3/25/5 35/26/6 36/23/3
f 3/25/5 4/29/7 34/30/8 35/26/6
f 4/29/7 5/33/9 33/34/10 34/30/8
f 5/33/9 6/37/11 32/38/12 33/34/10
f 6/37/11 7/39/13 31/40/14 32/38/12
f 7/39/13 8/35/15 30/36/16 31/40/14
f 8/35/15 9/31/17 29/32/18 30/36/16
f 9/31/17 10/27/19 28/28/20 29/32/18
f 10/27/19 1/21/1 27/24/4 28/28/20
f 22/41/21 11/42/22 12/43/23
f 14/55/24 21/48/25 13/49/26
f 21/48/25 22/41/21 12/43/23 13/49/26
f 15/58/27 23/51/28 21/48/25 14/55/24
f 23/51/28 24/45/29 22/41/21 21/48/25
f 20/44/30 11/42/22 22/41/21 24/45/29
f 16/63/31 25/57/32 23/51/28 15/58/27
f 25/57/32 26/52/33 24/45/29 23/51/28
f 20/44/30 24/45/29 26/52/33 19/53/34
f 17/62/35 25/57/32 16/63/31
f 18/59/36 26/52/33 25/57/32 17/62/35
f 19/53/34 26/52/33 18/59/36
f 28/50/20 27/46/4 11/42/22 20/44/30
f 29/56/18 28/50/20 20/44/30 19/53/34
f 30/61/16 29/56/18 19/53/34 18/59/36
f 31/40/14 30/61/16 18/59/36 17/62/35
f 32/38/12 31/40/14 17/62/35 16/63/31
f 33/64/10 32/38/12 16/63/31 15/58/27
f 34/60/8 33/64/10 15/58/27 14/55/24
f 35/54/6 34/60/8 14/55/24 13/49/26
f 36/47/3 35/54/6 13/49/26 12/43/23
f 27/46/4 36/47/3 12/43/23 11/42/22
f 2/19/2 1/17/1 37/18/37 38/20/38
f 3/65/5 2/19/2 38/20/38 39/66/39
f 4/2/7 3/5/5 39/6/39 40/3/40
f 5/1/9 4/2/7 40/3/40 41/4/41
f 6/7/11 5/1/9 41/4/41 42/8/42
f 7/9/13 6/7/11 42/8/42 43/10/43
f 8/15/15 7/9/13 43/10/43 44/16/44
f 9/12/17 8/15/15 44/16/44 45/13/45
f 10/11/19 9/12/17 45/13/45 46/14/46
f 1/17/1 10/11/19 46/14/46 37/18/37
g default
v 3.236068 0.000000 -2.351142
v 1.236068 0.000000 -3.804227
v -1.236069 0.000000 -3.804226
v -3.236069 0.000000 -2.351141
v -4.000000 0.000000 0.000000
v -3.236068 0.000000 2.351141
v -1.236068 0.000000 3.804226
v 1.236068 0.000000 3.804226
v 3.236068 0.000000 2.351141
v 4.000000 0.000000 0.000000
v 3.236068 2.000000 -2.351142
v 1.236068 2.000000 -3.804227
v -1.236069 2.000000 -3.804226
v -3.236069 2.000000 -2.351141
v -4.000000 2.000000 0.000000
v -3.236068 2.000000 2.351141
v -1.236068 2.000000 3.804226
v 1.236068 2.000000 3.804226
v 3.236068 2.000000 2.351141
v 4.000000 2.000000 0.000000
v 2.273995 2.000000 -1.652154
v 0.868589 2.000000 -2.673242
v -0.868589 2.000000 -2.673241
v -2.273996 2.000000 -1.652154
v -2.810812 2.000000 0.000000
v -2.273996 2.000000 1.652154
v -0.868589 2.000000 2.673241
v 0.868589 2.000000 2.673241
v 2.273995 2.000000 1.652153
v 2.810812 2.000000 -0.000000
vt 0.207006 0.585313
vt 0.207006 0.414687
vt 0.345045 0.414687
vt 0.345045 0.585313
vt 0.207006 0.244062
vt 0.345045 0.244062
vt 0.207006 0.755938
vt 0.345045 0.755938
vt 0.207006 0.073437
vt 0.345045 0.073437
vt 0.036563 0.585313
vt 0.036563 0.414687
vt 0.174602 0.414687
vt 0.174602 0.585313
vt 0.036563 0.244062
vt 0.174602 0.244062
vt 0.036563 0.755938
vt 0.174602 0.755938
vt 0.036563 0.073437
vt 0.174602 0.073437
vt 0.834694 0.126163
vt 0.934985 0.264201
vt 0.856925 0.289565
vt 0.786450 0.192564
vt 0.934985 0.434827
vt 0.856925 0.409464
vt 0.672420 0.073437
vt 0.672420 0.155514
vt 0.834694 0.572866
vt 0.786450 0.506464
vt 0.510145 0.126163
vt 0.558389 0.192564
vt 0.672420 0.625592
vt 0.672420 0.543515
vt 0.409854 0.264201
vt 0.487914 0.289565
vt 0.510145 0.572866
vt 0.558389 0.506464
vt 0.409854 0.434827
vt 0.487914 0.409464
vt 0.207006 0.926563
vt 0.345045 0.926563
vt 0.036563 0.926563
vt 0.174602 0.926563
vn 0.809017 0.000000 -0.587785
vn 0.309017 0.000000 -0.951057
vn 0.286422 0.375356 -0.881516
vn 0.749862 0.375356 -0.544807
vn -0.309017 0.000000 -0.951056
vn -0.286422 0.375356 -0.881516
vn -0.809017 0.000000 -0.587785
vn -0.749862 0.375356 -0.544807
vn -1.000000 0.000000 0.000000
vn -0.926881 0.375356 0.000000
vn -0.809017 0.000000 0.587785
vn -0.749862 0.375356 0.544807
vn -0.309017 0.000000 0.951057
vn -0.286422 0.375356 0.881516
vn 0.309017 0.000000 0.951056
vn 0.286422 0.375356 0.881516
vn 0.809017 0.000000 0.587785
vn 0.749862 0.375356 0.544807
vn 1.000000 0.000000 0.000000
vn 0.926881 0.375356 0.000000
vn 0.000000 1.000000 0.000000
vn 0.000000 1.000000 0.000000
vn 0.000000 1.000000 0.000000
vn 0.000000 1.000000 -0.000000
vn 0.000000 1.000000 0.000000
vn 0.000000 1.000000 -0.000000
vn 0.000000 1.000000 -0.000000
vn 0.000000 1.000000 0.000000
vn 0.000000 1.000000 0.000000
vn 0.000000 1.000000 0.000000
s 1
g Bar01
usemtl aiStandardSurface2SG
f 47/81/47 48/85/48 58/86/49 57/82/50
f 48/107/48 49/73/51 59/74/52 58/108/49
f 49/73/51 50/67/53 60/70/54 59/74/52
f 50/67/53 51/68/55 61/69/56 60/70/54
f 51/68/55 52/71/57 62/72/58 61/69/56
f 52/71/57 53/75/59 63/76/60 62/72/58
f 53/109/59 54/83/61 64/84/62 63/110/60
f 54/83/61 55/77/63 65/80/64 64/84/62
f 55/77/63 56/78/65 66/79/66 65/80/64
f 56/78/65 47/81/47 57/82/50 66/79/66
f 57/87/50 58/88/49 68/89/67 67/90/68
f 58/88/49 59/91/52 69/92/69 68/89/67
f 59/91/52 60/95/54 70/96/70 69/92/69
f 60/95/54 61/99/56 71/100/71 70/96/70
f 61/99/56 62/103/58 72/104/72 71/100/71
f 62/103/58 63/105/60 73/106/73 72/104/72
f 63/105/60 64/101/62 74/102/74 73/106/73
f 64/101/62 65/97/64 75/98/75 74/102/74
f 65/97/64 66/93/66 76/94/76 75/98/75
f 66/93/66 57/87/50 67/90/68 76/94/76
