# This file uses centimeters as units for non-parametric coordinates.

mtllib Beach table.mtl
g default
v -2.000000 2.724625 2.000000
v 2.000000 2.724625 2.000000
v -2.000000 3.018256 2.000000
v 2.000000 3.018256 2.000000
v -2.000000 3.018256 -2.000000
v 2.000000 3.018256 -2.000000
v -2.000000 2.724625 -2.000000
v 2.000000 2.724625 -2.000000
v -1.600000 2.724625 2.000000
v -1.600000 3.018256 2.000000
v -1.600000 3.018256 -2.000000
v -1.600000 2.724625 -2.000000
v 1.640000 2.724625 2.000000
v 1.640000 3.018256 2.000000
v 1.640000 3.018256 -2.000000
v 1.640000 2.724625 -2.000000
v -2.000000 3.018256 -1.600000
v -2.000000 2.724625 -1.600000
v -1.600000 2.724625 -1.600000
v 1.640000 2.724625 -1.600000
v 2.000000 2.724625 -1.600000
v 2.000000 3.018256 -1.600000
v 1.640000 3.018256 -1.600000
v -1.600000 3.018256 -1.600000
v -2.000000 3.018256 1.640000
v -2.000000 2.724625 1.640000
v -1.600000 2.724625 1.640000
v 1.640000 2.724625 1.640000
v 2.000000 2.724625 1.640000
v 2.000000 3.018256 1.640000
v 1.640000 3.018256 1.640000
v -1.600000 3.018256 1.640000
v -2.000000 0.000000 1.640000
v -1.600000 0.000000 1.640000
v -1.600000 0.000000 2.000000
v -2.000000 0.000000 2.000000
v 1.640000 0.000000 1.640000
v 1.640000 0.000000 2.000000
v 2.000000 0.000000 1.640000
v 2.000000 0.000000 2.000000
v -2.000000 0.000000 -2.000000
v -1.600000 0.000000 -2.000000
v -1.600000 0.000000 -1.600000
v -2.000000 0.000000 -1.600000
v 1.640000 0.000000 -1.600000
v 2.000000 0.000000 -1.600000
v 1.640000 0.000000 -2.000000
v 2.000000 0.000000 -2.000000
vt 0.328052 0.693441
vt 0.328052 0.670451
vt 0.346803 0.670451
vt 0.346803 0.693441
vt 0.154058 0.693441
vt 0.154058 0.670451
vt 0.328052 0.463546
vt 0.346803 0.463546
vt 0.328052 0.438002
vt 0.346803 0.438002
vt 0.154058 0.463546
vt 0.154058 0.438002
vt 0.346803 0.149356
vt 0.328052 0.149356
vt 0.328052 0.126366
vt 0.346803 0.126366
vt 0.346803 0.356261
vt 0.328052 0.356261
vt 0.154058 0.149356
vt 0.154058 0.126366
vt 0.328052 0.381805
vt 0.346803 0.381805
vt 0.154058 0.381805
vt 0.154058 0.356261
vt 0.328052 0.808388
vt 0.328052 0.831378
vt 0.154058 0.831378
vt 0.154058 0.808388
vt 0.328052 0.624472
vt 0.328052 0.647462
vt 0.154058 0.647462
vt 0.154058 0.624472
vt 0.328052 0.305173
vt 0.328052 0.330717
vt 0.154058 0.330717
vt 0.154058 0.305174
vt 0.328052 0.486535
vt 0.328052 0.512079
vt 0.154058 0.512079
vt 0.154058 0.486535
vt 0.602242 0.693441
vt 0.576698 0.693441
vt 0.576698 0.670451
vt 0.602242 0.670451
vt 0.369793 0.670451
vt 0.369793 0.693441
vt 0.576698 0.463546
vt 0.602242 0.463546
vt 0.369793 0.463546
vt 0.346803 0.693441
vt 0.576698 0.438002
vt 0.602242 0.438002
vt 0.369793 0.438002
vt 0.346803 0.438002
vt 0.131069 0.856922
vt 0.131069 0.831378
vt 0.154058 0.856922
vt 0.629166 0.395610
vt 0.629166 0.371378
vt 0.847254 0.371378
vt 0.847254 0.395610
vt 0.629166 0.153291
vt 0.847254 0.153291
vt 0.602242 0.153291
vt 0.602242 0.371378
vt 0.629166 0.126366
vt 0.847254 0.126366
vt 0.871486 0.371378
vt 0.871486 0.153291
vt 0.131069 0.693441
vt 0.131069 0.670451
vt 0.128514 0.381805
vt 0.128514 0.356261
vt 0.128514 0.535068
vt 0.128514 0.512079
vt 0.154058 0.535068
vt 0.328052 0.856922
vt 0.346803 0.831378
vt 0.346803 0.856922
vt 0.346803 0.624472
vt 0.328052 0.601483
vt 0.346803 0.601483
vt 0.154058 0.601483
vt 0.346803 0.279630
vt 0.346803 0.305173
vt 0.328052 0.279630
vt 0.346803 0.512079
vt 0.154058 0.279630
vt 0.346803 0.535068
vt 0.328052 0.535068
vt 0.328052 0.782844
vt 0.154058 0.782844
vn 0.000000 0.000000 1.000000
vn 0.000000 0.000000 1.000000
vn 0.000000 0.000000 1.000000
vn 0.000000 0.000000 1.000000
vn 0.000000 1.000000 0.000000
vn 0.000000 1.000000 0.000000
vn 0.000000 1.000000 0.000000
vn 0.000000 1.000000 0.000000
vn 0.000000 0.000000 -1.000000
vn 0.000000 0.000000 -1.000000
vn 0.000000 0.000000 -1.000000
vn 0.000000 0.000000 -1.000000
vn 0.000000 -1.000000 0.000000
vn 0.000000 -1.000000 0.000000
vn 0.000000 -1.000000 0.000000
vn 0.000000 -1.000000 0.000000
vn 1.000000 0.000000 0.000000
vn 1.000000 0.000000 0.000000
vn 1.000000 0.000000 0.000000
vn 1.000000 0.000000 0.000000
vn -1.000000 0.000000 0.000000
vn -1.000000 0.000000 0.000000
vn -1.000000 0.000000 0.000000
vn -1.000000 0.000000 0.000000
vn 0.000000 0.000000 1.000000
vn 0.000000 0.000000 1.000000
vn 0.000000 1.000000 -0.000000
vn 0.000000 1.000000 0.000000
vn 0.000000 0.000000 -1.000000
vn 0.000000 0.000000 -1.000000
vn 0.000000 -1.000000 0.000000
vn 0.000000 -1.000000 0.000000
vn 0.000000 -1.000000 0.000000
vn 0.000000 -1.000000 0.000000
vn 0.000000 0.000000 1.000000
vn 0.000000 0.000000 1.000000
vn 0.000000 1.000000 0.000000
vn 0.000000 1.000000 0.000000
vn 0.000000 0.000000 -1.000000
vn 0.000000 0.000000 -1.000000
vn 0.000000 -1.000000 0.000000
vn 0.000000 -1.000000 0.000000
vn 0.000000 -1.000000 0.000000
vn 0.000000 -1.000000 0.000000
vn -1.000000 0.000000 0.000000
vn -1.000000 0.000000 0.000000
vn -1.000000 0.000000 0.000000
vn -1.000000 0.000000 0.000000
vn 0.000000 -1.000000 0.000000
vn 0.000000 -1.000000 0.000000
vn 0.000000 -1.000000 0.000000
vn 0.000000 -1.000000 0.000000
vn 0.000000 -1.000000 0.000000
vn 0.000000 -1.000000 0.000000
vn 0.000000 -1.000000 0.000000
vn 0.000000 -1.000000 0.000000
vn 0.000000 -1.000000 0.000000
vn 0.000000 -1.000000 0.000000
vn 0.000000 -1.000000 0.000000
vn 0.000000 -1.000000 0.000000
vn 1.000000 0.000000 0.000000
vn 1.000000 0.000000 0.000000
vn 1.000000 0.000000 0.000000
vn 1.000000 0.000000 0.000000
vn 0.000000 1.000000 0.000000
vn 0.000000 1.000000 -0.000000
vn 0.000000 1.000000 0.000000
vn 0.000000 1.000000 0.000000
vn 0.000000 1.000000 0.000000
vn 0.000000 1.000000 -0.000000
vn 0.000000 1.000000 0.000000
vn 0.000000 1.000000 0.000000
vn 0.000000 -1.000000 0.000000
vn 0.000000 -1.000000 0.000000
vn 0.000000 -1.000000 0.000000
vn 0.000000 -1.000000 0.000000
vn 0.000000 0.000000 -1.000000
vn 0.000000 0.000000 -1.000000
vn 0.000000 0.000000 -1.000000
vn 0.000000 0.000000 -1.000000
vn 1.000000 0.000000 0.000000
vn 1.000000 0.000000 0.000000
vn 1.000000 0.000000 0.000000
vn 1.000000 0.000000 0.000000
vn 0.000000 0.000000 1.000000
vn 0.000000 0.000000 1.000000
vn -1.000000 0.000000 0.000000
vn -1.000000 0.000000 0.000000
vn -1.000000 0.000000 0.000000
vn -1.000000 0.000000 0.000000
vn -1.000000 0.000000 0.000000
vn -1.000000 0.000000 0.000000
vn 0.000000 0.000000 -1.000000
vn 0.000000 0.000000 -1.000000
vn 0.000000 0.000000 -1.000000
vn 0.000000 0.000000 -1.000000
vn 1.000000 0.000000 0.000000
vn 1.000000 0.000000 0.000000
vn 0.000000 0.000000 1.000000
vn 0.000000 0.000000 1.000000
vn 0.000000 0.000000 -1.000000
vn 0.000000 0.000000 -1.000000
vn 1.000000 0.000000 -0.000000
vn 1.000000 0.000000 -0.000000
vn 1.000000 0.000000 -0.000000
vn 1.000000 0.000000 -0.000000
vn 0.000000 0.000000 1.000000
vn 0.000000 0.000000 1.000000
vn 0.000000 0.000000 1.000000
vn 0.000000 0.000000 1.000000
vn -1.000000 0.000000 0.000000
vn -1.000000 0.000000 0.000000
vn 0.000000 0.000000 1.000000
vn 0.000000 0.000000 1.000000
vn 0.000000 0.000000 1.000000
vn 0.000000 0.000000 1.000000
vn -1.000000 0.000000 0.000000
vn -1.000000 0.000000 0.000000
vn -1.000000 0.000000 0.000000
vn -1.000000 0.000000 0.000000
vn 0.000000 0.000000 -1.000000
vn 0.000000 0.000000 -1.000000
vn 1.000000 0.000000 0.000000
vn 1.000000 0.000000 0.000000
s 1
g Beach_table
usemtl initialShadingGroup
f 1/77/1 9/26/2 10/78/3 3/79/4
s 2
f 3/41/5 10/42/6 32/43/7 25/44/8
s 3
f 5/84/9 11/85/10 12/33/11 7/86/12
s off
f 33/55/13 34/56/14 35/27/15 36/57/16
s 4
f 2/1/17 29/2/18 30/3/19 4/4/20
s 5
f 25/13/21 26/14/22 1/15/23 3/16/24
s 1
f 10/78/3 9/26/2 13/29/25 14/80/26
s 2
f 31/45/27 32/43/7 10/42/6 14/46/28
s 3
f 12/33/11 11/85/10 15/87/29 16/38/30
s 6
f 9/58/31 27/59/32 28/60/33 13/61/34
s 1
f 14/80/26 13/29/25 2/81/35 4/82/36
s 2
f 30/3/37 31/45/27 14/46/28 4/50/38
s 3
f 16/38/30 15/87/29 6/89/39 8/90/40
s off
f 38/70/41 37/71/42 39/6/43 40/5/44
s 5
f 7/21/45 18/18/46 17/17/47 5/22/48
s off
f 41/23/49 42/72/50 43/73/51 44/24/52
s 6
f 20/63/53 19/62/54 12/66/55 16/67/56
s off
f 46/74/57 45/75/58 47/39/59 48/76/60
s 4
f 22/8/61 21/7/62 8/9/63 6/10/64
s 2
f 15/53/65 23/49/66 22/8/67 6/54/68
f 11/51/69 24/47/70 23/49/66 15/53/65
f 17/48/71 24/47/70 11/51/69 5/52/72
s 5
f 17/17/47 18/18/46 26/14/22 25/13/21
s 6
f 18/64/73 19/62/54 27/59/32 26/65/74
f 28/60/33 27/59/32 19/62/54 20/63/53
f 29/68/75 28/60/33 20/63/53 21/69/76
s 4
f 30/3/19 29/2/18 21/7/62 22/8/61
s 2
f 22/8/67 23/49/66 31/45/27 30/3/37
f 23/49/66 24/47/70 32/43/7 31/45/27
f 25/44/8 32/43/7 24/47/70 17/48/71
s off
f 26/91/77 27/25/78 34/28/79 33/92/80
f 27/25/81 9/26/82 35/27/83 34/28/84
s 1
f 9/26/2 1/77/1 36/57/85 35/27/86
s 5
f 1/15/23 26/14/22 33/19/87 36/20/88
s off
f 13/29/89 28/30/90 37/31/91 38/32/92
f 28/30/93 29/2/94 39/6/95 37/31/96
s 4
f 29/2/18 2/1/17 40/5/97 39/6/98
s 1
f 2/81/35 13/29/25 38/32/99 40/83/100
s 3
f 7/86/12 12/33/11 42/36/101 41/88/102
s off
f 12/33/103 19/34/104 43/35/105 42/36/106
f 19/34/107 18/18/108 44/24/109 43/35/110
s 5
f 18/18/46 7/21/45 41/23/111 44/24/112
s off
f 21/7/113 20/37/114 45/40/115 46/11/116
f 20/37/117 16/38/118 47/39/119 45/40/120
s 3
f 16/38/30 8/90/40 48/76/121 47/39/122
s 4
f 8/9/63 21/7/62 46/11/123 48/12/124
