# This file uses centimeters as units for non-parametric coordinates.

mtllib Beach chair03_new.mtl
g default
v 0.239188 -0.010092 -0.173780
v 0.091362 -0.010092 -0.281182
v -0.091362 -0.010092 -0.281182
v -0.239188 -0.010092 -0.173780
v -0.295651 -0.010092 -0.000000
v -0.239188 -0.010092 0.173780
v -0.091362 -0.010092 0.281182
v 0.091362 -0.010092 0.281182
v 0.239188 -0.010092 0.173780
v 0.295651 -0.010092 -0.000000
v 0.367725 1.239865 -0.267169
v 0.140459 1.239865 -0.432287
v -0.140459 1.239865 -0.432287
v -0.367726 1.239865 -0.267168
v -0.454534 1.239865 0.000000
v -0.367726 1.239865 0.267169
v -0.140459 1.239865 0.432287
v 0.140459 1.239865 0.432287
v 0.367725 1.239865 0.267169
v 0.454534 1.239865 -0.000000
v 0.062982 1.140127 -0.045758
v 0.077851 1.140127 -0.000000
v 0.062982 1.140127 0.045758
v 0.024057 1.140127 0.074040
v -0.024058 1.140127 0.074040
v -0.062982 1.140127 0.045758
v -0.077851 1.140127 -0.000000
v -0.062982 1.140127 -0.045758
v -0.024058 1.140127 -0.074041
v 0.024057 1.140127 -0.074041
v 0.062982 0.155182 -0.045758
v 0.077851 0.155182 -0.000000
v 0.062982 0.155182 0.045758
v 0.024057 0.155182 0.074040
v -0.024058 0.155182 0.074040
v -0.062982 0.155182 0.045758
v -0.077851 0.155182 -0.000000
v -0.062982 0.155182 -0.045758
v -0.024058 0.155182 -0.074041
v 0.024057 0.155182 -0.074041
v 0.239188 0.010092 -0.173780
v 0.295651 0.010092 -0.000000
v 0.239188 0.010092 0.173780
v 0.091362 0.010092 0.281182
v -0.091362 0.010092 0.281182
v -0.239188 0.010092 0.173780
v -0.295651 0.010092 -0.000000
v -0.239188 0.010092 -0.173780
v -0.091362 0.010092 -0.281182
v 0.091362 0.010092 -0.281182
v 0.367725 1.140127 -0.267169
v 0.454534 1.140127 -0.000000
v 0.367725 1.140127 0.267169
v 0.140459 1.140127 0.432287
v -0.140459 1.140127 0.432287
v -0.367726 1.140127 0.267169
v -0.454534 1.140127 0.000000
v -0.367726 1.140127 -0.267168
v -0.140459 1.140127 -0.432288
v 0.140459 1.140127 -0.432287
v -0.140459 1.239865 -0.267168
v 0.140459 1.239865 -0.267168
v -0.140459 1.239865 0.000000
v 0.140459 1.239865 -0.000000
v -0.140459 1.239865 0.267169
v 0.140459 1.239865 0.267169
vt 0.883669 0.315506
vt 0.805194 0.301731
vt 0.806653 0.293591
vt 0.880037 0.308314
vt 0.749454 0.241603
vt 0.759956 0.236412
vt 0.856503 0.212976
vt 0.559005 0.077957
vt 0.945089 0.278192
vt 0.979262 0.214539
vt 0.990551 0.218333
vt 0.951752 0.282433
vt 0.579344 0.494323
vt 0.559005 0.494323
vt 0.599684 0.077957
vt 0.599684 0.494323
vt 0.538666 0.494323
vt 0.518327 0.494323
vt 0.518327 0.077957
vt 0.538666 0.077957
vt 0.781757 0.100282
vt 0.854442 0.071240
vt 0.857560 0.078379
vt 0.793191 0.104433
vt 0.926941 0.086716
vt 0.925173 0.094192
vt 0.865518 0.167936
vt 0.640363 0.077957
vt 0.748907 0.162655
vt 0.755657 0.166272
vt 0.977124 0.140809
vt 0.971413 0.145892
vt 0.880016 0.171313
vt 0.660702 0.494323
vt 0.640363 0.494323
vt 0.681041 0.494323
vt 0.620023 0.077957
vt 0.620023 0.494323
vt 0.701380 0.077957
vt 0.701380 0.494323
vt 0.255085 0.113392
vt 0.398885 0.158935
vt 0.385089 0.196279
vt 0.272149 0.159583
vt 0.489429 0.267900
vt 0.454890 0.292351
vt 0.122290 0.170142
vt 0.159209 0.196279
vt 0.054871 0.267900
vt 0.089409 0.292351
vt 0.289215 0.590063
vt 0.145414 0.544520
vt 0.159209 0.507176
vt 0.272150 0.543874
vt 0.054870 0.435554
vt 0.089409 0.411104
vt 0.385089 0.507175
vt 0.454890 0.411103
vt 0.489428 0.435553
vt 0.422010 0.533313
vt 0.385089 0.292351
vt 0.272149 0.292351
vt 0.385089 0.411104
vt 0.272149 0.411104
vt 0.159209 0.292351
vt 0.159209 0.411104
vt 0.435529 0.761062
vt 0.446140 0.743711
vt 0.601009 0.780743
vt 0.539053 0.882051
vt 0.444527 0.723436
vt 0.591585 0.662367
vt 0.416746 0.768862
vt 0.429382 0.927594
vt 0.431303 0.707981
vt 0.514380 0.572137
vt 0.396964 0.764132
vt 0.313887 0.899977
vt 0.398885 0.544519
vt 0.411522 0.703252
vt 0.392738 0.711052
vt 0.383741 0.748678
vt 0.236683 0.809748
vt 0.382127 0.728403
vt 0.227259 0.691371
vt 0.851896 0.173644
vt 0.844317 0.186474
vt 0.845900 0.201388
vt 0.884526 0.210323
vt 0.891721 0.197259
vt 0.871061 0.216376
vt 0.889988 0.182457
vt 0.979062 0.145018
vt 0.986911 0.213651
vt 0.752005 0.236925
vt 0.747705 0.166742
vt 0.721720 0.077957
vt 0.721719 0.494323
vt 0.047247 0.411104
vt 0.047247 0.292351
vt 0.497052 0.292351
vt 0.497052 0.411104
vt 0.660702 0.077957
vt 0.681041 0.077957
vt 0.579344 0.077957
vt 0.948544 0.285328
vt 0.859241 0.070870
vt 0.790225 0.097331
vt 0.800454 0.299244
vt 0.878648 0.316398
vt 0.930885 0.089083
vt 0.422009 0.170142
vt 0.255084 0.590064
vt 0.122289 0.533314
vt 0.145413 0.158935
vt 0.289214 0.113392
vn 0.809018 0.000000 -0.587784
vn 0.309016 0.000001 -0.951057
vn 0.199032 0.764960 -0.612554
vn 0.521071 0.764959 -0.378579
vn -0.309016 0.000001 -0.951057
vn -0.199032 0.764960 -0.612554
vn -0.521071 0.764960 -0.378579
vn -0.809018 0.000001 -0.587784
vn -1.000000 0.000000 0.000000
vn -0.809018 -0.000001 0.587784
vn -0.521071 0.764959 0.378579
vn -0.644078 0.764960 -0.000000
vn -0.309016 -0.000001 0.951057
vn -0.199032 0.764960 0.612554
vn 0.309016 0.000001 0.951057
vn 0.199032 0.764960 0.612554
vn 0.809018 0.000001 0.587784
vn 0.521071 0.764960 0.378579
vn 1.000000 0.000000 0.000000
vn 0.644078 0.764960 -0.000000
vn 0.000000 1.000000 0.000000
vn 0.398100 0.870550 -0.289237
vn 0.209780 0.734265 -0.645638
vn 0.537400 -0.843327 0.000000
vn 0.434786 -0.843311 -0.315891
vn 0.398047 -0.870588 -0.289198
vn 0.492013 -0.870588 -0.000000
vn 0.434786 -0.843311 0.315891
vn 0.398047 -0.870588 0.289198
vn 0.166078 -0.843319 0.511107
vn 0.152040 -0.870588 0.467931
vn -0.166078 -0.843319 0.511107
vn -0.152040 -0.870588 0.467931
vn -0.434786 -0.843311 0.315891
vn -0.398047 -0.870588 0.289198
vn -0.537400 -0.843327 -0.000000
vn -0.492013 -0.870588 0.000000
vn -0.398047 -0.870588 -0.289198
vn -0.434786 -0.843311 -0.315891
vn 0.166078 -0.843319 -0.511107
vn -0.166078 -0.843319 -0.511107
vn -0.152040 -0.870588 -0.467932
vn 0.152040 -0.870588 -0.467931
vn 0.916012 0.401152 -0.000000
vn 0.741074 0.401138 -0.538422
vn 0.741074 0.401139 0.538422
vn 0.283075 0.401146 0.871177
vn -0.283075 0.401146 0.871177
vn -0.741074 0.401139 0.538422
vn -0.916012 0.401152 -0.000000
vn -0.741074 0.401139 -0.538422
vn 0.283075 0.401146 -0.871177
vn -0.283075 0.401146 -0.871177
vn 0.418358 0.908282 0.000000
vn 0.398100 0.870551 0.289237
vn 0.209780 0.734264 0.645639
vn -0.209780 0.734263 0.645639
vn -0.398100 0.870551 0.289237
vn -0.418358 0.908282 0.000000
vn -0.398100 0.870551 -0.289237
vn -0.209781 0.734264 -0.645638
vn 0.000000 1.000000 0.000000
vn 0.000000 1.000000 0.000000
vn 0.000000 1.000000 0.000000
vn 0.000000 1.000000 -0.000000
vn 0.000000 1.000000 -0.000000
s 1
g chair
usemtl initialShadingGroup
f 1/111/1 2/31/2 50/32/3 41/26/4
f 2/93/2 3/94/5 49/10/6 50/32/3
f 48/9/7 49/10/6 3/11/5 4/12/8
f 5/110/9 6/2/10 46/3/11 47/4/12
f 6/109/10 7/5/13 45/6/14 46/3/11
f 7/95/13 8/96/15 44/30/16 45/6/14
f 8/29/15 9/21/17 43/24/18 44/30/16
f 9/108/17 10/22/19 42/23/20 43/24/18
f 10/107/19 1/25/1 41/26/4 42/23/20
f 62/61/21 11/43/22 12/46/23
f 22/67/24 21/68/25 51/69/26 52/70/27
f 23/73/28 22/67/24 52/70/27 53/74/29
f 24/77/30 23/73/28 53/74/29 54/78/31
f 25/82/32 24/77/30 54/78/31 55/83/33
f 26/84/34 25/82/32 55/83/33 56/85/35
f 27/81/36 26/84/34 56/85/35 57/51/37
f 58/79/38 28/80/39 27/81/36 57/51/37
f 30/71/40 29/75/41 59/76/42 60/72/43
f 21/68/25 30/71/40 60/72/43 51/69/26
f 32/103/44 31/104/45 21/36/25 22/34/24
f 33/28/46 32/103/44 22/34/24 23/35/28
f 34/37/47 33/28/46 23/35/28 24/38/30
f 35/15/48 34/37/47 24/38/30 25/16/32
f 36/105/49 35/15/48 25/16/32 26/13/34
f 37/8/50 36/105/49 26/13/34 27/14/36
f 28/17/39 38/20/51 37/8/50 27/14/36
f 40/39/52 39/97/53 29/98/41 30/40/40
f 31/104/45 40/39/52 30/40/40 21/36/25
f 42/23/20 41/26/4 31/33/45 32/27/44
f 43/24/18 42/23/20 32/27/44 33/86/46
f 44/30/16 43/24/18 33/86/46 34/87/47
f 45/6/14 44/30/16 34/87/47 35/88/48
f 46/3/11 45/6/14 35/88/48 36/7/49
f 47/4/12 46/3/11 36/7/49 37/91/50
f 38/89/51 48/9/7 47/4/12 37/91/50
f 50/32/3 49/10/6 39/90/53 40/92/52
f 41/26/4 50/32/3 40/92/52 31/33/45
f 52/116/27 51/42/26 11/43/22 20/44/54
f 53/115/29 52/41/27 20/44/54 19/48/55
f 54/49/31 53/47/29 19/48/55 18/50/56
f 55/99/33 54/100/31 18/50/56 17/56/57
f 56/114/35 55/55/33 17/56/57 16/53/58
f 57/113/37 56/52/35 16/53/58 15/54/59
f 14/57/60 58/79/38 57/51/37 15/54/59
f 60/101/43 59/102/42 13/58/61 12/46/23
f 51/112/26 60/45/43 12/46/23 11/43/22
f 14/57/60 61/63/62 13/58/61
f 61/63/62 62/61/21 12/46/23 13/58/61
f 15/54/59 63/64/63 61/63/62 14/57/60
f 63/64/63 64/62/64 62/61/21 61/63/62
f 20/44/54 11/43/22 62/61/21 64/62/64
f 16/53/58 65/66/65 63/64/63 15/54/59
f 65/66/65 66/65/66 64/62/64 63/64/63
f 20/44/54 64/62/64 66/65/66 19/48/55
f 17/56/57 65/66/65 16/53/58
f 18/50/56 66/65/66 65/66/65 17/56/57
f 19/48/55 66/65/66 18/50/56
f 48/9/7 4/106/8 5/1/9 47/4/12
f 14/57/60 13/58/61 59/59/42 58/60/38
f 58/79/38 59/76/42 29/75/41 28/80/39
f 28/17/39 29/18/41 39/19/53 38/20/51
f 38/89/51 39/90/53 49/10/6 48/9/7
