# This file uses centimeters as units for non-parametric coordinates.

mtllib Floor_bar.mtl
g default
v 4.172163 0.000000 -3.031258
v 1.593625 0.000000 -4.904684
v -1.593626 0.000000 -4.904684
v -4.172163 0.000000 -3.031258
v -5.157080 0.000000 0.000001
v -4.172163 0.000000 3.031260
v -1.593625 0.000000 4.904684
v 1.593626 0.000000 4.904684
v 4.172163 0.000000 3.031258
v 5.157080 0.000000 0.000000
v 4.172163 0.372970 -3.031258
v 1.593625 0.372970 -4.904684
v -1.593626 0.372970 -4.904684
v -4.172163 0.372970 -3.031258
v -5.157080 0.372970 0.000001
v -4.172163 0.372970 3.031260
v -1.593625 0.372970 4.904684
v 1.593626 0.372970 4.904684
v 4.172163 0.372970 3.031258
v 5.157080 0.372970 0.000000
v 1.593626 0.372970 0.000000
v -1.593626 0.372970 0.000000
v -1.593626 0.372970 -3.031256
v 1.593626 0.372970 -3.031257
v -1.593625 0.372970 3.031257
v 1.593626 0.372970 3.031257
vt 0.779164 0.765764
vt 0.779164 0.586027
vt 0.801279 0.586027
vt 0.801279 0.765764
vt 0.779164 0.406289
vt 0.801279 0.406289
vt 0.779164 0.876848
vt 0.801279 0.876848
vt 0.779164 0.295205
vt 0.801279 0.295205
vt 0.734767 0.765764
vt 0.734767 0.586027
vt 0.756882 0.586027
vt 0.756882 0.765764
vt 0.734767 0.406289
vt 0.756882 0.406289
vt 0.734767 0.876848
vt 0.756882 0.876848
vt 0.734767 0.295205
vt 0.756882 0.295205
vt 0.380331 0.150541
vt 0.380331 0.361835
vt 0.200594 0.361835
vt 0.200594 0.208942
vt 0.560069 0.208942
vt 0.560069 0.361835
vt 0.200594 0.550822
vt 0.380331 0.550822
vt 0.089510 0.361835
vt 0.671153 0.361835
vt 0.560068 0.550822
vt 0.089510 0.550822
vt 0.200594 0.703715
vt 0.380331 0.762115
vt 0.671153 0.550822
vt 0.560069 0.703715
vt 0.734767 0.106218
vt 0.756882 0.106218
vt 0.779164 0.106218
vt 0.801279 0.106218
vn 0.587787 0.000000 -0.809016
vn 0.587787 0.000000 -0.809016
vn 0.587787 0.000000 -0.809016
vn 0.587787 0.000000 -0.809016
vn -0.000000 0.000000 -1.000000
vn -0.000000 0.000000 -1.000000
vn -0.000000 0.000000 -1.000000
vn -0.000000 0.000000 -1.000000
vn -0.587787 0.000000 -0.809016
vn -0.587787 0.000000 -0.809016
vn -0.587787 0.000000 -0.809016
vn -0.587787 0.000000 -0.809016
vn -0.951056 0.000000 -0.309017
vn -0.951056 0.000000 -0.309017
vn -0.951056 0.000000 -0.309017
vn -0.951056 0.000000 -0.309017
vn -0.951056 0.000000 0.309017
vn -0.951056 0.000000 0.309017
vn -0.951056 0.000000 0.309017
vn -0.951056 0.000000 0.309017
vn -0.587787 0.000000 0.809016
vn -0.587787 0.000000 0.809016
vn -0.587787 0.000000 0.809016
vn -0.587787 0.000000 0.809016
vn 0.000000 0.000000 1.000000
vn 0.000000 0.000000 1.000000
vn 0.000000 0.000000 1.000000
vn 0.000000 0.000000 1.000000
vn 0.587787 0.000000 0.809016
vn 0.587787 0.000000 0.809016
vn 0.587787 0.000000 0.809016
vn 0.587787 0.000000 0.809016
vn 0.951056 0.000000 0.309018
vn 0.951056 0.000000 0.309018
vn 0.951056 0.000000 0.309018
vn 0.951056 0.000000 0.309018
vn 0.951056 0.000000 -0.309017
vn 0.951056 0.000000 -0.309017
vn 0.951056 0.000000 -0.309017
vn 0.951056 0.000000 -0.309017
vn 0.000000 1.000000 0.000000
vn 0.000000 1.000000 -0.000000
vn 0.000000 1.000000 -0.000000
vn 0.000000 1.000000 0.000000
vn 0.000000 1.000000 -0.000000
vn 0.000000 1.000000 -0.000000
vn 0.000000 1.000000 -0.000000
vn 0.000000 1.000000 0.000000
vn 0.000000 1.000000 -0.000000
vn 0.000000 1.000000 -0.000000
vn 0.000000 1.000000 -0.000000
vn 0.000000 1.000000 -0.000000
vn 0.000000 1.000000 -0.000000
vn 0.000000 1.000000 0.000000
vn 0.000000 1.000000 0.000000
vn 0.000000 1.000000 0.000000
s off
g Floor_Bar
usemtl initialShadingGroup
f 1/15/1 2/19/2 12/20/3 11/16/4
f 2/19/5 3/37/6 13/38/7 12/20/8
f 3/7/9 4/1/10 14/4/11 13/8/12
f 4/1/13 5/2/14 15/3/15 14/4/16
f 5/2/17 6/5/18 16/6/19 15/3/20
f 6/5/21 7/9/22 17/10/23 16/6/24
f 7/9/25 8/39/26 18/40/27 17/10/28
f 8/17/29 9/11/30 19/14/31 18/18/32
f 9/11/33 10/12/34 20/13/35 19/14/36
f 10/12/37 1/15/38 11/16/39 20/13/40
s 1
f 20/21/41 21/22/42 26/23/43 19/24/44
f 16/33/45 25/27/46 22/28/47 15/34/48
f 25/27/46 26/23/43 21/22/42 22/28/47
f 24/26/49 11/25/50 12/30/51
f 23/31/52 24/26/49 12/30/51 13/35/53
f 14/36/54 23/31/52 13/35/53
f 15/34/48 22/28/47 23/31/52 14/36/54
f 22/28/47 21/22/42 24/26/49 23/31/52
f 20/21/41 11/25/50 24/26/49 21/22/42
f 17/32/55 25/27/46 16/33/45
f 18/29/56 26/23/43 25/27/46 17/32/55
f 19/24/44 26/23/43 18/29/56
