# This file uses centimeters as units for non-parametric coordinates.

mtllib sand01.mtl
g default
v -5.515679 0.577569 3.000000
v 5.515679 0.577569 3.000000
v -5.515679 3.557363 -3.687554
v 5.515679 3.557363 -3.687554
v -5.515679 2.920695 -1.570409
v 5.515679 2.920695 -1.570409
v -5.515679 1.783105 0.714795
v 5.515679 1.783105 0.714795
v -5.515679 3.626809 -7.798375
v 5.515679 3.626809 -7.798375
v -5.515678 0.780170 2.314439
v 5.515678 0.780170 2.314439
vt 0.115523 0.431669
vt 0.884476 0.431669
vt 0.884477 0.579247
vt 0.115523 0.579247
vt 0.115523 0.272377
vt 0.884477 0.272377
vt 0.884476 0.865796
vt 0.115523 0.865796
vt 0.115523 0.160872
vt 0.884476 0.160872
vt 0.115523 0.113084
vt 0.884477 0.113084
vn 0.000000 0.927506 0.373808
vn 0.000000 0.927506 0.373808
vn 0.000000 0.957636 0.287981
vn 0.000000 0.957636 0.287981
vn 0.000000 0.875848 0.482586
vn 0.000000 0.875848 0.482586
vn 0.000000 0.884472 0.466594
vn 0.000000 0.884472 0.466594
vn 0.000000 0.999857 0.016891
vn 0.000000 0.999857 0.016891
vn 0.000000 0.999857 0.016891
vn 0.000000 0.999857 0.016891
vn 0.000000 0.958999 0.283409
vn 0.000000 0.958999 0.283409
s 1
g sand01
usemtl initialShadingGroup
f 5/1/1 6/2/2 4/3/3 3/4/4
f 7/5/5 8/6/6 6/2/2 5/1/1
f 11/9/7 12/10/8 8/6/6 7/5/5
s off
f 3/4/9 4/3/10 10/7/11 9/8/12
s 1
f 1/11/13 2/12/14 12/10/8 11/9/7
