# This file uses centimeters as units for non-parametric coordinates.

mtllib Volleyball_net.mtl
g default
v 9.660603 0.000000 3.993705
v 9.545263 0.000000 3.909905
v 9.402697 0.000000 3.909905
v 9.287357 0.000000 3.993705
v 9.243301 0.000000 4.129294
v 9.287357 0.000000 4.264884
v 9.402697 0.000000 4.348683
v 9.545263 0.000000 4.348682
v 9.660604 0.000000 4.264883
v 9.704659 0.000000 4.129294
v 9.660603 8.000000 3.993705
v 9.545263 8.000000 3.909905
v 9.402697 8.000000 3.909905
v 9.287357 8.000000 3.993705
v 9.243301 8.000000 4.129294
v 9.287357 8.000000 4.264884
v 9.402697 8.000000 4.348683
v 9.545263 8.000000 4.348682
v 9.660604 8.000000 4.264883
v 9.704659 8.000000 4.129294
v 9.660603 4.000000 3.993705
v 9.704659 4.000000 4.129294
v 9.660604 4.000000 4.264883
v 9.545263 4.000000 4.348682
v 9.402697 4.000000 4.348683
v 9.287357 4.000000 4.264884
v 9.243301 4.000000 4.129294
v 9.287357 4.000000 3.993705
v 9.402697 4.000000 3.909905
v 9.545263 4.000000 3.909905
v -9.660603 0.000000 3.993705
v -9.545263 0.000000 3.909905
v -9.402697 0.000000 3.909905
v -9.287357 0.000000 3.993705
v -9.243301 0.000000 4.129294
v -9.287357 0.000000 4.264884
v -9.402697 0.000000 4.348683
v -9.545263 0.000000 4.348682
v -9.660603 0.000000 4.264883
v -9.704659 0.000000 4.129294
v -9.660603 8.000000 3.993705
v -9.545263 8.000000 3.909905
v -9.402697 8.000000 3.909905
v -9.287357 8.000000 3.993705
v -9.243301 8.000000 4.129294
v -9.287357 8.000000 4.264884
v -9.402697 8.000000 4.348683
v -9.545263 8.000000 4.348682
v -9.660603 8.000000 4.264883
v -9.704659 8.000000 4.129294
v -9.660603 4.000000 3.993705
v -9.704659 4.000000 4.129294
v -9.660603 4.000000 4.264883
v -9.545263 4.000000 4.348682
v -9.402697 4.000000 4.348683
v -9.287357 4.000000 4.264884
v -9.243301 4.000000 4.129294
v -9.287357 4.000000 3.993705
v -9.402697 4.000000 3.909905
v -9.545263 4.000000 3.909905
v -9.545265 8.000000 3.993705
v -9.402697 8.000000 3.993705
v -9.545265 8.000000 4.129294
v -9.402695 8.000000 4.129294
v -9.545265 8.000000 4.264883
v -9.402695 8.000000 4.264883
v 9.402697 8.000000 3.993705
v 9.545263 8.000000 3.993705
v 9.402697 8.000000 4.129294
v 9.545263 8.000000 4.129294
v 9.402697 8.000000 4.264883
v 9.545263 8.000000 4.264883
v -9.243301 4.000000 4.129294
v 9.243301 4.000000 4.129294
v -9.243301 8.000000 4.129294
v 9.243301 8.000000 4.129294
vt 0.675801 0.000000
vt 0.683087 0.000000
vt 0.683087 0.214945
vt 0.675801 0.214945
vt 0.690373 0.000000
vt 0.690373 0.214945
vt 0.683087 0.429889
vt 0.675801 0.429889
vt 0.671298 0.000000
vt 0.671298 0.214945
vt 0.694876 0.000000
vt 0.694876 0.214945
vt 0.690373 0.429889
vt 0.671298 0.429888
vt 0.694876 0.429889
vt 0.644562 0.000000
vt 0.651848 0.000000
vt 0.651848 0.214945
vt 0.644562 0.214945
vt 0.659134 0.000000
vt 0.659134 0.214945
vt 0.651848 0.429889
vt 0.644562 0.429889
vt 0.640059 0.000000
vt 0.640059 0.214945
vt 0.663637 0.000000
vt 0.663637 0.214945
vt 0.659134 0.429889
vt 0.640059 0.429889
vt 0.663637 0.429891
vt 0.824846 0.000000
vt 0.824846 0.214945
vt 0.817560 0.214945
vt 0.817560 0.000000
vt 0.829349 0.000000
vt 0.829349 0.214945
vt 0.824846 0.429889
vt 0.817560 0.429889
vt 0.810274 0.214945
vt 0.810274 0.000000
vt 0.805750 0.453472
vt 0.810274 0.429889
vt 0.805771 0.214945
vt 0.805771 0.000000
vt 0.805771 0.429891
vt 0.793607 0.000000
vt 0.793607 0.214945
vt 0.786321 0.214945
vt 0.786321 0.000000
vt 0.798110 0.000000
vt 0.798110 0.214945
vt 0.793607 0.429889
vt 0.786321 0.429889
vt 0.779034 0.214945
vt 0.779034 0.000000
vt 0.798110 0.429888
vt 0.779034 0.429889
vt 0.774531 0.214945
vt 0.774531 0.000000
vt 0.774531 0.429889
vt 0.663640 0.434395
vt 0.657442 0.434400
vt 0.655080 0.441688
vt 0.663646 0.441682
vt 0.671301 0.434390
vt 0.671307 0.441676
vt 0.663651 0.448968
vt 0.657453 0.448972
vt 0.677500 0.434385
vt 0.671312 0.448962
vt 0.679872 0.441670
vt 0.663655 0.453471
vt 0.671315 0.453465
vt 0.677510 0.448957
vt 0.805754 0.448968
vt 0.811952 0.448973
vt 0.798089 0.453463
vt 0.798093 0.448961
vt 0.805760 0.441682
vt 0.814325 0.441689
vt 0.791895 0.448956
vt 0.798099 0.441675
vt 0.805767 0.434396
vt 0.811964 0.434401
vt 0.789534 0.441667
vt 0.798105 0.434389
vt 0.791908 0.434384
vt 0.333053 0.034462
vt 0.333053 0.965538
vt 0.702537 0.000000
vt 0.702537 0.214945
vt 0.702537 0.429889
vt 0.837010 0.000000
vt 0.837010 0.214945
vt 0.534512 0.034462
vt 0.534512 0.965538
vt 0.837010 0.429888
vt 0.829349 0.429891
vn 0.587789 0.000000 -0.809015
vn 0.587789 0.000000 -0.809015
vn 0.587789 0.000000 -0.809015
vn 0.587789 0.000000 -0.809015
vn 0.000000 0.000000 -1.000000
vn 0.000000 0.000000 -1.000000
vn 0.000000 0.000000 -1.000000
vn 0.000000 0.000000 -1.000000
vn -0.587789 0.000000 -0.809015
vn -0.587789 0.000000 -0.809015
vn -0.587789 0.000000 -0.809015
vn -0.587789 0.000000 -0.809015
vn -0.951056 0.000000 -0.309019
vn -0.951056 0.000000 -0.309019
vn -0.951056 0.000000 -0.309019
vn -0.951056 0.000000 -0.309019
vn -0.951056 0.000000 0.309018
vn -0.951056 0.000000 0.309018
vn -0.951056 0.000000 0.309018
vn -0.951056 0.000000 0.309018
vn -0.587787 0.000000 0.809015
vn -0.587787 0.000000 0.809015
vn -0.587787 0.000000 0.809015
vn -0.587787 0.000000 0.809015
vn 0.000007 0.000000 1.000000
vn 0.000007 0.000000 1.000000
vn 0.000007 0.000000 1.000000
vn 0.000007 0.000000 1.000000
vn 0.587782 0.000000 0.809019
vn 0.587782 0.000000 0.809019
vn 0.587782 0.000000 0.809019
vn 0.587782 0.000000 0.809019
vn 0.951058 0.000000 0.309013
vn 0.951058 0.000000 0.309013
vn 0.951058 0.000000 0.309013
vn 0.951058 0.000000 0.309013
vn 0.951056 0.000000 -0.309019
vn 0.951056 0.000000 -0.309019
vn 0.951056 0.000000 -0.309019
vn 0.951056 0.000000 -0.309019
vn -0.000002 1.000000 0.000000
vn 0.000000 1.000000 0.000000
vn -0.000001 1.000000 0.000000
vn 0.951056 0.000000 -0.309019
vn 0.951056 0.000000 -0.309019
vn 0.951058 0.000000 0.309013
vn 0.951058 0.000000 0.309013
vn 0.587782 0.000000 0.809019
vn 0.587782 0.000000 0.809019
vn 0.000007 0.000000 1.000000
vn 0.000007 0.000000 1.000000
vn -0.587787 0.000000 0.809015
vn -0.587787 0.000000 0.809015
vn -0.951056 0.000000 0.309018
vn -0.951056 0.000000 0.309018
vn -0.951056 0.000000 -0.309019
vn -0.951056 0.000000 -0.309019
vn -0.587789 0.000000 -0.809015
vn -0.587789 0.000000 -0.809015
vn 0.000000 0.000000 -1.000000
vn 0.000000 0.000000 -1.000000
vn 0.587789 0.000000 -0.809015
vn 0.587789 0.000000 -0.809015
vn -0.587789 0.000000 -0.809015
vn -0.587789 0.000000 -0.809015
vn -0.587789 0.000000 -0.809015
vn -0.587789 0.000000 -0.809015
vn 0.000000 0.000000 -1.000000
vn 0.000000 0.000000 -1.000000
vn 0.000000 0.000000 -1.000000
vn 0.000000 0.000000 -1.000000
vn 0.587789 0.000000 -0.809015
vn 0.587789 0.000000 -0.809015
vn 0.587789 0.000000 -0.809015
vn 0.587789 0.000000 -0.809015
vn 0.951056 0.000000 -0.309019
vn 0.951056 0.000000 -0.309019
vn 0.951056 0.000000 -0.309019
vn 0.951056 0.000000 -0.309019
vn 0.951056 0.000000 0.309018
vn 0.951056 0.000000 0.309018
vn 0.951056 0.000000 0.309018
vn 0.951056 0.000000 0.309018
vn 0.587787 0.000000 0.809015
vn 0.587787 0.000000 0.809015
vn 0.587787 0.000000 0.809015
vn 0.587787 0.000000 0.809015
vn -0.000007 0.000000 1.000000
vn -0.000007 0.000000 1.000000
vn -0.000007 0.000000 1.000000
vn -0.000007 0.000000 1.000000
vn -0.587785 0.000000 0.809017
vn -0.587785 0.000000 0.809017
vn -0.587785 0.000000 0.809017
vn -0.587785 0.000000 0.809017
vn -0.951056 0.000000 0.309019
vn -0.951056 0.000000 0.309019
vn -0.951056 0.000000 0.309019
vn -0.951056 0.000000 0.309019
vn -0.951056 0.000000 -0.309019
vn -0.951056 0.000000 -0.309019
vn -0.951056 0.000000 -0.309019
vn -0.951056 0.000000 -0.309019
vn 0.000001 1.000000 0.000000
vn 0.000000 1.000000 -0.000000
vn -0.000004 1.000000 0.000000
vn -0.951056 0.000000 -0.309019
vn -0.951056 0.000000 -0.309019
vn -0.951056 0.000000 0.309019
vn -0.951056 0.000000 0.309019
vn -0.587785 0.000000 0.809017
vn -0.587785 0.000000 0.809017
vn -0.000007 0.000000 1.000000
vn -0.000007 0.000000 1.000000
vn 0.587787 0.000000 0.809015
vn 0.587787 0.000000 0.809015
vn 0.951056 0.000000 0.309018
vn 0.951056 0.000000 0.309018
vn 0.951056 0.000000 -0.309019
vn 0.951056 0.000000 -0.309019
vn 0.587789 0.000000 -0.809015
vn 0.587789 0.000000 -0.809015
vn 0.000000 0.000000 -1.000000
vn 0.000000 0.000000 -1.000000
vn -0.587789 0.000000 -0.809015
vn -0.587789 0.000000 -0.809015
vn 0.000000 1.000000 0.000000
vn 0.000002 1.000000 -0.000000
vn 0.000001 1.000000 0.000000
vn 0.000000 1.000000 0.000000
vn 0.000002 1.000000 -0.000000
vn -0.000000 1.000000 -0.000000
vn -0.000003 1.000000 0.000000
vn 0.000000 1.000000 0.000000
vn 0.000002 1.000000 0.000000
vn -0.000000 1.000000 0.000000
vn -0.000004 1.000000 0.000000
vn 0.000001 1.000000 0.000000
vn 0.000001 1.000000 0.000000
vn 0.000004 1.000000 0.000000
vn 0.000000 1.000000 0.000000
vn -0.000001 1.000000 0.000000
vn 0.000003 1.000000 0.000000
vn 0.000000 1.000000 0.000000
vn -0.000002 1.000000 0.000000
vn 0.000000 1.000000 0.000000
vn 0.000004 1.000000 0.000000
vn 0.000000 1.000000 0.000000
vn -0.000002 1.000000 0.000000
vn 0.000000 1.000000 0.000000
vn -0.000001 1.000000 0.000000
vn -0.000001 1.000000 0.000000
vn 0.000000 0.000000 1.000000
vn 0.000000 0.000000 1.000000
vn 0.000000 0.000000 1.000000
vn 0.000000 0.000000 1.000000
s 1
g Volleyball_net
usemtl initialShadingGroup
f 1/20/1 2/26/2 30/27/3 21/21/4
s 2
f 2/26/5 3/9/6 29/10/7 30/27/8
s 3
f 3/9/9 4/1/10 28/4/11 29/10/12
s 4
f 4/1/13 5/2/14 27/3/15 28/4/16
s 5
f 5/2/17 6/5/18 26/6/19 27/3/20
s 6
f 6/5/21 7/11/22 25/12/23 26/6/24
s 7
f 7/11/25 8/90/26 24/91/27 25/12/28
s 8
f 8/24/29 9/16/30 23/19/31 24/25/32
s 9
f 9/16/33 10/17/34 22/18/35 23/19/36
s 10
f 10/17/37 1/20/38 21/21/39 22/18/40
s 11
f 68/61/41 11/62/42 12/30/43
s 10
f 22/18/40 21/21/39 11/28/44 20/22/45
s 9
f 23/19/36 22/18/35 20/22/46 19/23/47
s 8
f 24/25/32 23/19/31 19/23/48 18/29/49
s 7
f 25/12/28 24/91/27 18/92/50 17/15/51
s 6
f 26/6/24 25/12/23 17/15/52 16/13/53
s 5
f 27/3/20 26/6/19 16/13/54 15/7/55
s 4
f 28/4/16 27/3/15 15/7/56 14/8/57
s 3
f 29/10/12 28/4/11 14/8/58 13/14/59
s 2
f 30/27/8 29/10/7 13/14/60 12/30/61
s 1
f 21/21/4 30/27/3 12/30/62 11/28/63
s 12
f 31/55/64 51/54/65 60/58/66 32/59/67
s 13
f 32/93/68 60/94/69 59/36/70 33/35/71
s 14
f 33/35/72 59/36/73 58/32/74 34/31/75
s 15
f 34/31/76 58/32/77 57/33/78 35/34/79
s 16
f 35/34/80 57/33/81 56/39/82 36/40/83
s 17
f 36/40/84 56/39/85 55/43/86 37/44/87
s 18
f 37/44/88 55/43/89 54/51/90 38/50/91
s 19
f 38/50/92 54/51/93 53/47/94 39/46/95
s 20
f 39/46/96 53/47/97 52/48/98 40/49/99
s 21
f 40/49/100 52/48/101 51/54/102 31/55/103
s 22
f 43/41/104 62/75/105 44/76/106
s 21
f 52/48/101 50/53/107 41/57/108 51/54/102
s 20
f 53/47/97 49/52/109 50/53/110 52/48/98
s 19
f 54/51/93 48/56/111 49/52/112 53/47/94
s 18
f 55/43/89 47/45/113 48/56/114 54/51/90
s 17
f 56/39/85 46/42/115 47/45/116 55/43/86
s 16
f 57/33/81 45/38/117 46/42/118 56/39/82
s 15
f 58/32/77 44/37/119 45/38/120 57/33/78
s 14
f 59/36/73 43/98/121 44/37/122 58/32/74
s 13
f 60/94/69 42/97/123 43/98/124 59/36/70
s 12
f 51/54/65 41/57/125 42/60/126 60/58/66
s 22
f 41/81/127 61/78/128 42/77/129
f 42/77/129 61/78/128 62/75/105 43/41/104
f 50/85/130 63/82/131 61/78/128 41/81/127
f 62/75/105 61/78/128 63/82/131 64/79/132
f 44/76/106 62/75/105 64/79/132 45/80/133
f 50/85/130 49/87/134 65/86/135 63/82/131
f 64/79/132 63/82/131 65/86/135 66/83/136
f 45/80/133 64/79/132 66/83/136 46/84/137
f 65/86/135 49/87/134 48/56/138
f 66/83/136 65/86/135 48/56/138 47/45/139
f 46/84/137 66/83/136 47/45/139
s 11
f 14/69/140 67/65/141 13/14/142
f 67/65/141 68/61/41 12/30/43 13/14/142
f 15/71/143 69/66/144 67/65/141 14/69/140
f 69/66/144 70/64/145 68/61/41 67/65/141
f 20/63/146 11/62/42 68/61/41 70/64/145
f 16/74/147 71/70/148 69/66/144 15/71/143
f 71/70/148 72/67/149 70/64/145 69/66/144
f 20/63/146 70/64/145 72/67/149 19/68/150
f 17/73/151 71/70/148 16/74/147
f 18/72/152 72/67/149 71/70/148 17/73/151
f 19/68/150 72/67/149 18/72/152
s off
f 73/89/153 74/88/154 76/95/155 75/96/156
