# This file uses centimeters as units for non-parametric coordinates.

mtllib Parking lot_04.mtl
g default
v -37.090826 0.000000 16.742294
v 35.909174 0.000000 16.742294
v -37.090826 1.000000 16.742294
v 35.909174 1.000000 16.742294
v -37.090826 1.000000 -17.257706
v 35.909174 1.000000 -17.257706
v -37.090826 0.000000 -17.257706
v 35.909174 0.000000 -17.257706
vt 0.982740 0.290334
vt 0.969867 0.290334
vt 0.982740 0.728018
vt 0.969867 0.728018
vt 0.017260 0.290334
vt 0.030133 0.290334
vt 0.017260 0.728018
vt 0.030133 0.728018
vt 0.030133 0.740891
vt 0.969867 0.740891
vt 0.030133 0.277461
vt 0.969867 0.277461
vn 0.000000 1.000000 0.000000
vn 0.000000 1.000000 0.000000
vn 0.000000 1.000000 0.000000
vn 0.000000 1.000000 0.000000
vn 0.000000 0.000000 -1.000000
vn 0.000000 0.000000 -1.000000
vn 0.000000 0.000000 -1.000000
vn 0.000000 0.000000 -1.000000
vn 1.000000 0.000000 0.000000
vn 1.000000 0.000000 0.000000
vn 1.000000 0.000000 0.000000
vn 1.000000 0.000000 0.000000
vn -1.000000 0.000000 0.000000
vn -1.000000 0.000000 0.000000
vn -1.000000 0.000000 0.000000
vn -1.000000 0.000000 0.000000
vn 0.000000 0.000000 1.000000
vn 0.000000 0.000000 1.000000
vn 0.000000 0.000000 1.000000
vn 0.000000 0.000000 1.000000
s off
g Floor_mall15
usemtl initialShadingGroup
f 5/8/1 3/6/2 4/2/3 6/4/4
f 8/10/5 7/9/6 5/8/7 6/4/8
f 4/2/9 2/1/10 8/3/11 6/4/12
f 7/7/13 1/5/14 3/6/15 5/8/16
f 1/11/17 2/12/18 4/2/19 3/6/20
