# This file uses centimeters as units for non-parametric coordinates.

mtllib home06obj.mtl
g default
v -6.999999 0.000000 2.512060
v 1.246405 0.000000 -2.243969
v -6.999999 5.000000 2.512060
v 1.246405 5.000000 -2.243969
v -6.999999 5.000000 -7.000000
v 6.999999 5.000000 -7.000000
v -6.999999 0.000000 -7.000000
v 6.999999 0.000000 -7.000000
v 6.999999 5.000000 -2.243970
v 6.999999 0.000000 -2.243970
v 1.400000 0.000000 2.512060
v 1.400000 5.000000 2.512060
vt 0.389514 0.873583
vt 0.389514 0.628950
vt 0.622211 0.628950
vt 0.622211 0.873583
vt 0.592427 0.396050
vt 0.984220 0.396049
vt 0.984220 0.601995
vt 0.592427 0.601995
vt 0.451324 0.345344
vt 0.451324 0.130996
vt 0.655214 0.130996
vt 0.655214 0.345344
vt 0.091218 0.130996
vt 0.091218 0.345345
vt 0.015780 0.601995
vt 0.015780 0.396050
vt 0.901869 0.130996
vt 0.901869 0.345344
vn 0.000000 0.000000 1.000000
vn 0.499603 0.000000 0.866254
vn 0.499603 0.000000 0.866254
vn 0.000000 0.000000 1.000000
vn 0.000000 0.000000 -1.000000
vn 0.000000 0.000000 -1.000000
vn 0.000000 0.000000 -1.000000
vn 0.000000 0.000000 -1.000000
vn 0.637125 0.000000 0.770760
vn 0.637125 0.000000 0.770760
vn 1.000000 0.000000 0.000000
vn 1.000000 0.000000 0.000000
vn -1.000000 0.000000 0.000000
vn -1.000000 0.000000 0.000000
vn -1.000000 0.000000 0.000000
vn -1.000000 0.000000 0.000000
vn 0.000000 0.000000 1.000000
vn 0.000000 0.000000 1.000000
vn 0.999479 0.000000 -0.032278
vn 0.999479 0.000000 -0.032278
s 1
g HomeF1_01 home_06
usemtl aiStandardSurface8SG
f 1/13/1 11/10/2 12/9/3 3/14/4
s off
f 5/8/5 6/15/6 8/16/7 7/5/8
s 2
f 9/1/9 10/2/10 8/3/11 6/4/12
s off
f 7/5/13 1/6/14 3/7/15 5/8/16
s 2
f 2/11/17 10/17/10 9/18/9 4/12/18
s 1
f 12/9/3 11/10/2 2/11/19 4/12/20
g default
v -9.000000 5.000000 4.262061
v 9.000000 5.000000 4.262061
v -7.000000 7.500000 1.262061
v 7.000000 7.500000 1.262061
v -7.000000 7.500000 -5.625000
v 7.000000 7.500000 -5.625000
v -8.999999 5.000000 -8.375001
v 8.999999 5.000000 -8.375001
v -6.999999 5.000000 -7.000000
v -6.999999 5.000000 2.512060
v 6.999999 5.000000 2.512060
v 6.999999 5.000000 -7.000000
vt 0.757682 0.821635
vt 0.291161 0.821635
vt 0.291161 0.592138
vt 0.757682 0.592137
vt 0.824328 0.921605
vt 0.224515 0.921605
vt 0.224515 0.500500
vt 0.824328 0.500500
vt 0.757683 0.454681
vt 0.757683 0.137711
vt 0.824328 0.079396
vt 0.291161 0.454681
vt 0.224515 0.079395
vt 0.291161 0.137711
vn 0.000000 0.768221 0.640184
vn 0.000000 0.768221 0.640184
vn 0.000000 0.768221 0.640184
vn 0.000000 0.768221 0.640184
vn 0.000000 1.000000 0.000000
vn 0.000000 1.000000 0.000000
vn 0.000000 1.000000 0.000000
vn 0.000000 1.000000 0.000000
vn 0.000000 0.739940 -0.672673
vn 0.000000 0.739940 -0.672673
vn 0.000000 0.739940 -0.672673
vn 0.000000 0.739940 -0.672673
vn 0.000000 -1.000000 -0.000000
vn 0.000000 -1.000000 -0.000000
vn 0.000000 -1.000000 0.000000
vn 0.000000 -1.000000 0.000000
vn 0.780869 0.624695 -0.000000
vn 0.780869 0.624695 -0.000000
vn 0.780869 0.624695 -0.000000
vn 0.780869 0.624695 -0.000000
vn -0.780869 0.624695 -0.000000
vn -0.780869 0.624695 -0.000000
vn -0.780869 0.624695 -0.000000
vn -0.780869 0.624695 -0.000000
vn 0.000000 -1.000000 0.000000
vn 0.000000 -1.000000 0.000000
vn 0.000000 -1.000000 -0.000000
vn 0.000000 -1.000000 -0.000000
s off
g home_06 Low_roof
usemtl aiStandardSurface4SG
f 13/23/21 14/24/22 16/20/23 15/19/24
f 15/19/25 16/20/26 18/21/27 17/22/28
f 17/22/29 18/21/30 20/25/31 19/26/32
s 1
f 19/26/33 21/27/34 22/28/35 13/29/36
s off
f 14/24/37 20/25/38 18/21/39 16/20/40
f 19/26/41 13/23/42 15/19/43 17/22/44
s 1
f 14/31/45 13/29/36 22/28/35 23/32/46
f 20/25/47 24/30/48 21/27/34 19/26/33
f 14/31/45 23/32/46 24/30/48 20/25/47
g default
v -5.246405 7.500000 7.000000
v 1.246405 7.500000 7.000000
v -5.246405 13.000001 7.000000
v 1.246405 13.000001 7.000000
v -5.246405 13.000001 -5.625000
v 1.246405 13.000001 -5.625000
v -5.246405 7.500000 -5.625000
v 1.246405 7.500000 -5.625000
v -2.000000 7.500000 7.000000
v -2.000000 13.000001 7.000000
v -2.000000 13.000001 -5.625000
v -2.000000 7.500000 -5.625000
v -4.272484 7.500000 7.000000
v -4.272484 13.000001 7.000000
v -4.272484 13.000001 -5.625000
v -4.272484 7.500000 -5.625000
v 0.272484 7.500000 7.000000
v 0.272484 13.000001 7.000000
v 0.272484 13.000001 -5.625000
v 0.272484 7.500000 -5.625000
v -5.246405 13.000001 5.850000
v -5.246405 7.500000 5.850000
v -4.272484 7.500000 5.850000
v 0.272484 7.500000 5.850000
v 1.246405 7.500000 5.850000
v 1.246405 13.000001 5.850000
v -5.246405 -0.000000 5.850000
v -4.272484 -0.000000 5.850000
v -4.272484 -0.000000 7.000000
v -5.246405 -0.000000 7.000000
v 0.272484 -0.000000 5.850000
v 0.272484 -0.000000 7.000000
v 1.246405 -0.000000 5.850000
v 1.246405 -0.000000 7.000000
v -5.246405 7.500000 1.262061
v -5.246405 13.000001 1.262061
v 1.246405 13.000001 1.262061
v 1.246405 7.500000 1.262061
v 0.272484 7.500000 1.262061
v -4.272484 7.500000 1.262061
v 7.000000 13.000001 1.262061
v 7.000000 7.500000 1.262061
v 7.000000 7.500000 -5.625000
v 7.000000 13.000001 -5.625000
vt 0.086307 0.878893
vt 0.136234 0.878899
vt 0.539239 0.458353
vt 0.493438 0.458344
vt 0.086343 0.553285
vt 0.136270 0.553291
vt 0.722048 0.239202
vt 0.973393 0.544409
vt 0.188903 0.458377
vt 0.189016 0.239168
vt 0.922331 0.368960
vt 0.234761 0.458364
vt 0.006034 0.458305
vt 0.479490 0.968495
vt 0.872440 0.043346
vt 0.922366 0.043352
vt 0.734318 0.968494
vt 0.734318 0.764988
vt 0.759311 0.544409
vt 0.759311 0.749055
vt 0.503055 0.749055
vt 0.503055 0.544409
vt 0.830122 0.368950
vt 0.780195 0.368945
vt 0.780231 0.043336
vt 0.830157 0.043342
vt 0.228443 0.878909
vt 0.178516 0.878904
vt 0.178552 0.553295
vt 0.228479 0.553301
vt 0.273716 0.239151
vt 0.273818 0.193306
vt 0.454927 0.193474
vt 0.454760 0.239257
vt 0.364276 0.239203
vt 0.273996 0.010503
vt 0.455233 0.010567
vt 0.235186 0.010502
vt 0.235047 0.193289
vt 0.493783 0.193525
vt 0.494094 0.010615
vt 0.364111 0.458321
vt 0.454639 0.458332
vt 0.273552 0.458347
vt 0.964613 0.368965
vt 0.044061 0.553280
vt 0.964649 0.043357
vt 0.854438 0.968494
vt 0.854438 0.764988
vt 0.938523 0.764988
vt 0.938523 0.968494
vt 0.770355 0.968494
vt 0.770355 0.764988
vt 0.974559 0.764988
vt 0.288975 0.749055
vt 0.722048 0.458353
vt 0.973393 0.749055
vt 0.006140 0.239109
vt 0.479490 0.764989
vt 0.539239 0.239202
vt 0.493478 0.239246
vt 0.872404 0.368955
vt 0.234852 0.239162
vt 0.044025 0.878889
vt 0.288975 0.544409
vt 0.974559 0.968494
vn 0.000000 0.000000 1.000000
vn 0.000000 0.000000 1.000000
vn 0.000000 0.000000 1.000000
vn 0.000000 0.000000 1.000000
vn 0.000000 0.000000 -1.000000
vn 0.000000 0.000000 -1.000000
vn 0.000000 0.000000 -1.000000
vn 0.000000 0.000000 -1.000000
vn 1.000000 0.000000 0.000000
vn 1.000000 0.000000 0.000000
vn 1.000000 0.000000 0.000000
vn 1.000000 0.000000 0.000000
vn -1.000000 0.000000 0.000000
vn -1.000000 0.000000 0.000000
vn -1.000000 0.000000 0.000000
vn -1.000000 0.000000 0.000000
vn 0.000000 0.000000 -1.000000
vn 0.000000 0.000000 -1.000000
vn 0.000000 0.000000 -1.000000
vn 0.000000 0.000000 -1.000000
vn 0.000000 0.000000 1.000000
vn 0.000000 0.000000 1.000000
vn 0.000000 0.000000 1.000000
vn 0.000000 0.000000 1.000000
vn 0.000000 -1.000000 0.000000
vn 0.000000 -1.000000 0.000000
vn 0.000000 -1.000000 -0.000000
vn 0.000000 -1.000000 0.000000
vn 0.000000 -1.000000 0.000000
vn 0.000000 0.000000 1.000000
vn 0.000000 0.000000 1.000000
vn 0.000000 0.000000 -1.000000
vn 0.000000 0.000000 -1.000000
vn -1.000000 0.000000 0.000000
vn -1.000000 0.000000 0.000000
vn -1.000000 0.000000 0.000000
vn -1.000000 0.000000 0.000000
vn 1.000000 0.000000 0.000000
vn 1.000000 0.000000 0.000000
vn 1.000000 0.000000 0.000000
vn 1.000000 0.000000 0.000000
vn 0.000000 0.000000 -1.000000
vn 0.000000 0.000000 -1.000000
vn 0.000000 0.000000 -1.000000
vn 0.000000 0.000000 -1.000000
vn 1.000000 0.000000 0.000000
vn 1.000000 0.000000 0.000000
vn 1.000000 0.000000 0.000000
vn 1.000000 0.000000 0.000000
vn 0.000000 0.000000 1.000000
vn 0.000000 0.000000 1.000000
vn -1.000000 0.000000 0.000000
vn -1.000000 0.000000 0.000000
vn -1.000000 0.000000 0.000000
vn -1.000000 0.000000 0.000000
vn -1.000000 0.000000 0.000000
vn -1.000000 0.000000 0.000000
vn 0.000000 0.000000 -1.000000
vn 0.000000 0.000000 -1.000000
vn 0.000000 0.000000 -1.000000
vn 0.000000 0.000000 -1.000000
vn 1.000000 0.000000 0.000000
vn 1.000000 0.000000 0.000000
vn 0.000000 0.000000 1.000000
vn 0.000000 0.000000 1.000000
vn 1.000000 0.000000 0.000000
vn 1.000000 0.000000 0.000000
vn 0.000000 -1.000000 -0.000000
vn 0.000000 -1.000000 -0.000000
vn 0.000000 -1.000000 -0.000000
vn 0.000000 -1.000000 0.000000
vn 0.000000 -1.000000 0.000000
vn 0.000000 -1.000000 0.000000
vn 0.000000 0.000000 1.000000
vn 0.000000 0.000000 1.000000
vn 0.000000 0.000000 1.000000
vn 0.000000 0.000000 1.000000
vn 0.000000 0.000000 -1.000000
vn 0.000000 0.000000 -1.000000
vn 0.000000 0.000000 -1.000000
vn 0.000000 0.000000 -1.000000
s 1
g home_06 homeF2_01
usemtl aiStandardSurface2SG
f 34/74/49 33/67/50 41/66/51 42/75/52
s 2
f 36/80/53 35/81/54 43/82/55 44/83/56
s 3
f 26/93/57 49/92/58 50/35/59 28/36/60
s 4
f 45/41/61 46/42/62 25/95/63 27/44/64
s 2
f 29/50/65 39/85/66 40/84/67 31/49/68
s 1
f 25/95/69 37/63/70 38/76/71 27/44/72
f 38/76/71 37/63/70 33/67/50 34/74/49
s 2
f 40/84/67 39/85/66 35/81/54 36/80/53
s 6
f 37/63/73 47/64/74 48/65/75 41/66/76 33/67/77
s 1
f 42/75/52 41/66/51 26/93/78 28/36/79
s 2
f 44/83/56 43/82/55 30/86/80 32/98/81
s 4
f 31/49/82 59/46/83 60/91/84 29/50/85
s off
f 65/51/86 66/52/87 67/53/88 68/54/89
f 46/94/90 47/55/91 52/58/92 51/47/93
f 47/55/94 37/56/95 53/57/96 52/58/97
s 1
f 37/77/70 25/43/69 54/48/98 53/79/99
s 4
f 25/43/63 46/94/62 51/47/100 54/48/101
s off
f 41/59/102 48/60/103 55/61/104 56/62/105
f 48/60/106 49/34/107 57/38/108 55/61/109
s 3
f 49/34/58 26/33/57 58/37/110 57/38/111
s 1
f 26/33/78 41/96/51 56/78/112 58/37/113
s 4
f 60/45/84 59/90/83 46/42/62 45/41/61
s 3
f 50/35/59 49/92/58 62/39/114 61/88/115
s 6
f 49/72/116 48/65/75 63/69/117 62/73/118
f 48/65/75 47/64/74 64/68/119 63/69/117
f 59/70/120 64/68/119 47/64/74 46/71/121
s off
f 61/40/122 62/89/123 66/52/124 65/51/125
f 32/87/126 30/97/127 68/54/128 67/53/129
g default
v -7.000000 13.000000 8.729087
v 3.000000 13.000000 8.729087
v -3.000000 15.528085 5.922800
v -1.000000 15.528085 5.922800
v -3.000000 15.528086 -4.000000
v -1.000000 15.528086 -4.000000
v -7.000000 13.000000 -6.812500
v 1.079752 13.000000 -6.812500
v -3.000000 15.528085 -2.000000
v -7.000000 13.000000 -2.000000
v 3.000000 13.000000 1.475719
v -1.000000 15.528085 -2.000000
v 9.000000 13.000000 1.475719
v 7.000000 15.528086 -2.000000
v 9.000000 13.000000 -6.812500
v 7.000000 15.528086 -4.000000
vt 0.390642 0.523934
vt 0.336034 0.524483
vt 0.336034 0.308434
vt 0.390642 0.308434
vt 0.499856 0.599458
vt 0.227956 0.599458
vt 0.227956 0.401413
vt 0.336034 0.254376
vt 0.390642 0.254376
vt 0.499856 0.308434
vt 0.061999 0.401413
vt 0.116516 0.308434
vt 0.116516 0.254376
vt 0.277114 0.175113
vt 0.499856 0.175113
vt 0.061999 0.175113
vt 0.774033 0.401413
vt 0.774033 0.599458
vt 0.718331 0.175113
vt 0.935722 0.175113
vt 0.935722 0.401413
vn 0.000000 0.742975 0.669320
vn 0.000000 0.742975 0.669320
vn 0.000000 0.742975 0.669320
vn 0.000000 0.742975 0.669320
vn 0.000000 1.000000 0.000000
vn 0.000000 1.000000 0.000000
vn 0.000000 1.000000 0.000000
vn 0.000000 1.000000 0.000000
vn 0.000000 0.743710 -0.668502
vn 0.000000 0.743710 -0.668502
vn 0.000000 0.743710 -0.668502
vn 0.000000 0.743710 -0.668502
vn 0.000000 -1.000000 0.000000
vn 0.000000 -1.000000 -0.000000
vn 0.000000 -1.000000 -0.000000
vn 0.000000 -1.000000 -0.000000
vn 0.534260 0.845320 0.000000
vn 0.534260 0.845320 0.000000
vn 0.534260 0.845320 0.000000
vn 0.534260 0.845320 0.000000
vn -0.534260 0.845320 0.000000
vn -0.534260 0.845320 0.000000
vn -0.534260 0.845320 0.000000
vn -0.534260 0.845320 0.000000
vn -0.534260 0.845320 0.000000
vn -0.534260 0.845320 0.000000
vn 0.000000 -1.000000 0.000000
vn 0.000000 -1.000000 0.000000
vn 0.784257 0.620436 0.000000
vn 0.784257 0.620436 0.000000
vn 0.784257 0.620436 0.000000
vn 0.784257 0.620436 0.000000
vn 0.000000 1.000000 0.000000
vn 0.000000 1.000000 0.000000
vn -0.000000 0.808704 0.588216
vn -0.000000 0.808704 0.588216
vn -0.000000 0.808704 0.588216
vn -0.000000 0.808704 0.588216
vn -0.000000 -1.000000 0.000000
vn -0.000000 -1.000000 0.000000
vn -0.000000 -1.000000 0.000000
vn -0.000000 -1.000000 0.000000
vn 0.000000 0.743710 -0.668502
vn 0.000000 0.743710 -0.668502
vn 0.000000 0.743710 -0.668502
vn 0.000000 0.743710 -0.668502
vn -0.000000 1.000000 0.000000
vn -0.000000 1.000000 0.000000
vn -0.000000 1.000000 0.000000
vn -0.000000 1.000000 0.000000
s off
g home_06 Top_roof
usemtl aiStandardSurface1SG
f 69/103/130 70/104/131 72/100/132 71/99/133
s 1
f 71/99/134 72/100/135 80/101/136 77/102/137
s off
f 73/107/138 74/106/139 76/112/140 75/113/141
s 2
f 78/108/142 79/115/143 70/116/144 69/103/145
s off
f 70/104/146 79/105/147 80/101/148 72/100/149
s 3
f 77/102/150 78/108/151 69/103/152 71/99/153
f 75/113/154 78/108/151 77/102/150 73/107/155
s 2
f 75/113/156 76/117/157 79/115/143 78/108/142
s off
f 82/110/158 81/109/159 83/114/160 84/111/161
s 1
f 77/102/137 80/101/136 74/106/162 73/107/163
s off
f 80/101/164 79/105/165 81/109/166 82/110/167
f 79/115/168 76/117/169 83/118/170 81/119/171
f 76/112/172 74/106/173 84/111/174 83/114/175
f 74/106/176 80/101/177 82/110/178 84/111/179
g default
v 5.999999 0.000000 2.512060
v 6.999999 0.000000 2.512060
v 5.999999 5.000000 2.512060
v 6.999999 5.000000 2.512060
v 5.999999 5.000000 1.512060
v 6.999999 5.000000 1.512060
v 5.999999 0.000000 1.512060
v 6.999999 0.000000 1.512060
v 5.999999 4.447295 2.512060
v 5.999999 4.447295 1.512060
v 6.999999 4.447295 1.512060
v 6.999999 4.447295 2.512060
v 1.400001 4.447295 2.512060
v 1.400001 4.447295 1.512060
v 1.400001 5.000000 2.512060
v 1.400001 5.000000 1.512060
v 5.999999 5.000000 -2.243970
v 6.999999 5.000000 -2.243970
v 6.999999 4.447295 -2.243970
v 5.999999 4.447295 -2.243970
vt 0.459252 0.928231
vt 0.362690 0.928231
vt 0.362690 0.498791
vt 0.459252 0.299865
vt 0.362690 0.246495
vt 0.459252 0.246495
vt 0.000000 0.299865
vt -0.000000 0.246495
vt 0.652377 0.928231
vt 0.555814 0.928231
vt 0.555815 0.299865
vt 0.652377 0.498791
vt 0.362690 0.096562
vt 0.362690 0.149932
vt -0.000000 0.149932
vt 0.000000 0.096562
vt 0.555815 0.096562
vt 0.555814 0.000000
vt 1.000000 0.000000
vt 1.000000 0.096562
vt 0.555815 0.246495
vt 0.555815 0.149933
vt 1.000000 0.149932
vt 1.000000 0.246495
vt 0.362690 0.000000
vt -0.000000 0.000000
vt 1.000000 0.299865
vt 0.266128 0.498791
vt 0.266128 0.928231
vt 0.459252 0.498791
vt 0.555815 0.498791
vt 0.362690 0.299865
vn 0.000000 0.000000 1.000000
vn 0.000000 0.000000 1.000000
vn 0.000000 0.000000 1.000000
vn 0.000000 0.000000 1.000000
vn 0.000000 0.000000 -1.000000
vn 0.000000 0.000000 -1.000000
vn 0.000000 0.000000 -1.000000
vn 0.000000 0.000000 -1.000000
vn 1.000000 0.000000 0.000000
vn 1.000000 0.000000 0.000000
vn 1.000000 0.000000 0.000000
vn 1.000000 0.000000 0.000000
vn -1.000000 0.000000 0.000000
vn -1.000000 0.000000 0.000000
vn -1.000000 0.000000 0.000000
vn -1.000000 0.000000 0.000000
vn 1.000000 0.000000 0.000000
vn 1.000000 0.000000 0.000000
vn 0.000000 0.000000 1.000000
vn 0.000000 0.000000 1.000000
vn 0.000000 -1.000000 0.000000
vn 0.000000 -1.000000 0.000000
vn 0.000000 -1.000000 0.000000
vn 0.000000 -1.000000 0.000000
vn 0.000000 0.000000 1.000000
vn 0.000000 0.000000 1.000000
vn 0.000000 0.000000 1.000000
vn 0.000000 0.000000 1.000000
vn 0.000000 1.000000 0.000000
vn 0.000000 1.000000 0.000000
vn 0.000000 1.000000 0.000000
vn 0.000000 1.000000 0.000000
vn 0.000000 0.000000 -1.000000
vn 0.000000 0.000000 -1.000000
vn 0.000000 0.000000 -1.000000
vn 0.000000 0.000000 -1.000000
vn 0.000000 1.000000 0.000000
vn 0.000000 1.000000 0.000000
vn 0.000000 1.000000 0.000000
vn 0.000000 1.000000 0.000000
vn 1.000000 0.000000 0.000000
vn 1.000000 0.000000 0.000000
vn 1.000000 0.000000 0.000000
vn 1.000000 0.000000 0.000000
vn 0.000000 -1.000000 0.000000
vn 0.000000 -1.000000 0.000000
vn 0.000000 -1.000000 0.000000
vn 0.000000 -1.000000 0.000000
vn -1.000000 0.000000 0.000000
vn -1.000000 0.000000 0.000000
vn -1.000000 0.000000 0.000000
vn -1.000000 0.000000 0.000000
s 1
g home_06 House_pillars
usemtl aiStandardSurface6SG
f 85/129/180 86/120/181 96/149/182 93/150/183
s off
f 94/147/184 95/122/185 92/121/186 91/148/187
s 2
f 86/120/188 92/121/189 95/122/190 96/149/191
s off
f 91/128/192 85/129/193 93/150/194 94/131/195
s 2
f 96/123/191 95/151/190 90/124/196 88/125/197
s 1
f 93/130/183 96/123/182 88/125/198 87/140/199
s off
f 94/136/200 93/137/201 97/138/202 98/139/203
f 93/130/204 87/140/205 99/143/206 97/146/207
f 87/140/208 89/141/209 100/142/210 99/143/211
f 89/141/212 94/136/213 98/139/214 100/142/215
f 89/133/216 90/124/217 102/127/218 101/134/219
f 90/124/220 95/151/221 103/126/222 102/127/223
f 95/144/224 94/132/225 104/135/226 103/145/227
f 94/132/228 89/133/229 101/134/230 104/135/231
g default
v -4.272484 7.500000 8.729087
v 0.272484 7.500000 8.729087
v -4.272484 8.039960 8.729087
v 0.272484 8.039960 8.729087
v -4.272484 8.039960 7.000000
v 0.272484 8.039960 7.000000
v -4.272484 7.500000 7.000000
v 0.272484 7.500000 7.000000
v -4.272484 8.039960 8.468464
v -4.272484 7.500000 8.468464
v 0.272484 7.500000 8.468464
v 0.272484 8.039960 8.468464
v -3.983458 7.500000 7.000000
v -0.016542 7.500000 7.000000
v -3.983458 7.500000 8.468464
v -0.016542 7.500000 8.468464
v -3.983458 7.500000 8.729087
v -0.016542 7.500000 8.729087
v -3.983458 8.039960 8.729087
v -0.016542 8.039960 8.729087
v -0.016542 8.039960 8.468464
v -3.983458 8.039960 8.468464
v -3.983458 10.248450 8.468464
v -3.983458 10.248450 8.729087
v -0.016542 10.248450 8.729087
v -0.016542 10.248450 8.468464
v 0.272484 10.248450 8.729087
v 0.272484 10.248450 8.468464
v -4.272484 10.248450 8.468464
v -3.983458 10.248450 7.000000
v -4.272484 10.248450 7.000000
v -4.272484 10.248450 8.729087
v -0.016541 10.248450 7.000000
v 0.272484 10.248450 7.000000
vt 0.748105 0.312321
vt 0.776560 0.312321
vt 0.776560 0.371273
vt 0.748105 0.371273
vt 0.936884 0.312321
vt 0.936884 0.371273
vt 0.776560 0.612392
vt 0.748105 0.612392
vt 0.936884 0.612392
vt 0.223440 0.371273
vt 0.223440 0.312321
vt 0.251895 0.312321
vt 0.251895 0.371273
vt 0.063116 0.312321
vt 0.063116 0.371273
vt 0.251895 0.612392
vt 0.223440 0.612392
vt 0.063116 0.612392
vt 0.283450 0.640846
vt 0.283450 0.612392
vt 0.716550 0.612392
vt 0.716550 0.640846
vt 0.251895 0.640846
vt 0.748105 0.640846
vt 0.283450 0.801170
vt 0.251895 0.801170
vt 0.716550 0.801170
vt 0.748105 0.801170
vt 0.283450 0.312321
vt 0.283450 0.283867
vt 0.716550 0.283867
vt 0.716550 0.312321
vt 0.251895 0.283867
vt 0.283450 0.123543
vt 0.716550 0.123543
vt 0.748105 0.283867
vt 0.251895 0.123543
vt 0.748105 0.123543
vt 0.283450 0.371273
vt 0.716550 0.371273
vt 0.716550 0.881965
vt 0.283450 0.881965
vn 0.000000 0.000000 1.000000
vn 0.000000 0.000000 1.000000
vn 0.000000 0.000000 1.000000
vn 0.000000 0.000000 1.000000
vn 0.000000 1.000000 0.000000
vn 0.000000 1.000000 0.000000
vn 0.000000 1.000000 -0.000000
vn 0.000000 1.000000 -0.000000
vn 0.000000 -1.000000 0.000000
vn 0.000000 -1.000000 0.000000
vn 0.000000 -1.000000 0.000000
vn 0.000000 -1.000000 0.000000
vn 1.000000 0.000000 0.000000
vn 1.000000 0.000000 0.000000
vn 1.000000 0.000000 0.000000
vn 1.000000 0.000000 0.000000
vn -1.000000 0.000000 0.000000
vn -1.000000 0.000000 0.000000
vn -1.000000 0.000000 0.000000
vn -1.000000 0.000000 0.000000
vn -1.000000 0.000000 0.000000
vn -1.000000 0.000000 0.000000
vn 0.000000 -1.000000 0.000000
vn 0.000000 -1.000000 0.000000
vn 1.000000 0.000000 0.000000
vn 1.000000 0.000000 0.000000
vn 0.000000 -1.000000 0.000000
vn 0.000000 -1.000000 0.000000
vn 0.000000 -1.000000 0.000000
vn 0.000000 0.000000 1.000000
vn 0.000000 0.000000 1.000000
vn 0.000000 1.000000 -0.000001
vn 0.000000 1.000000 -0.000000
vn 0.000000 1.000000 0.000000
vn 0.000000 1.000000 0.000000
vn 0.000000 1.000000 0.000000
vn 0.000000 1.000000 0.000000
vn 0.000000 0.000000 1.000000
vn 0.000000 0.000000 1.000000
vn 0.000000 -1.000000 0.000000
vn 0.000000 -1.000000 0.000000
vn 0.000000 -1.000000 0.000000
vn 0.000000 1.000000 0.000000
vn 0.000000 1.000000 0.000000
vn 0.000000 0.000000 1.000000
vn 0.000000 0.000000 1.000000
vn 0.000000 0.000000 -1.000000
vn 0.000000 0.000000 -1.000000
vn 0.000000 0.000000 -1.000000
vn 0.000000 0.000000 -1.000000
vn 0.000000 0.000000 1.000000
vn 1.000000 0.000000 0.000000
vn 1.000000 0.000000 0.000000
vn -1.000000 0.000000 0.000000
vn -1.000000 0.000000 0.000000
vn 0.000000 0.000000 1.000000
vn -1.000000 0.000000 0.000000
vn 1.000000 0.000000 0.000000
s 1
g home_06 Balcony
usemtl aiStandardSurface3SG
f 123/190/232 121/180/233 122/183/234 124/191/235
s 2
f 127/170/236 128/171/237 129/172/238 130/173/239
s 3
f 121/180/240 119/181/241 120/182/242 122/183/243
s 4
f 106/152/244 115/153/245 116/154/246 108/155/247
s 5
f 113/161/248 114/162/249 105/163/250 107/164/251
f 111/165/252 114/162/249 113/161/248 109/166/253
s 3
f 119/181/241 117/185/254 118/186/255 120/182/242
s 4
f 116/154/246 115/153/245 112/156/256 110/157/257
s 3
f 120/182/242 118/186/255 112/189/258 115/187/259
f 122/183/243 120/182/242 115/187/259 106/152/260
s 1
f 124/191/235 122/183/234 106/152/261 108/155/262
s 2
f 130/173/239 129/172/238 131/159/263 132/175/264
f 133/174/265 127/170/236 134/176/266 135/177/267
f 136/167/268 128/171/237 127/170/236 133/174/265
s 1
f 105/163/269 121/180/233 123/190/232 107/164/270
s 3
f 114/184/271 119/181/241 121/180/240 105/163/272
f 111/188/273 117/185/254 119/181/241 114/184/271
s 2
f 137/178/274 130/173/239 132/175/264 138/179/275
s 1
f 123/190/232 124/191/235 129/172/276 128/171/277
s off
f 125/192/278 126/193/279 127/170/280 130/173/281
s 1
f 124/191/235 108/155/262 131/159/282 129/172/276
s 4
f 108/155/247 116/154/246 132/158/283 131/159/284
s 5
f 109/166/253 113/161/248 133/168/285 135/169/286
s 1
f 107/164/270 123/190/232 128/171/277 136/167/287
s 5
f 113/161/248 107/164/251 136/167/288 133/168/285
s 4
f 116/154/246 110/157/257 138/160/289 132/158/283
