# This file uses centimeters as units for non-parametric coordinates.

mtllib commercial building_02.mtl
g default
v -1.683100 3.511518 0.000000
v 1.683100 3.511518 -0.000000
v -1.683100 6.146009 -0.000000
v 1.683100 6.146009 -0.000000
v -1.214880 3.511518 -0.000000
v 1.214880 3.511518 -0.000000
v -1.214880 6.146009 -0.000000
v 1.214880 6.146009 -0.000000
v 0.000000 3.511518 -0.000000
v 0.000000 6.146009 -0.000000
v 1.214880 6.146009 0.466163
v 1.214880 3.511518 0.466163
v -1.214880 3.511518 0.466163
v -1.214880 6.146009 0.466163
v 0.000000 3.511518 0.466163
v 0.000000 6.146009 0.466163
vt 0.277031 0.715197
vt 0.277031 0.264081
vt 0.485060 0.264081
vt 0.485060 0.715197
vt 0.196855 0.264081
vt 0.196855 0.715197
vt 0.693089 0.264080
vt 0.693089 0.715197
vt 0.773563 0.264081
vt 0.772967 0.715197
vt 0.693089 0.184258
vt 0.773668 0.184258
vt 0.485060 0.184258
vt 0.277030 0.184258
vt 0.197258 0.184258
vt 0.772862 0.795020
vt 0.693089 0.795020
vt 0.485060 0.795020
vt 0.277031 0.795020
vt 0.196451 0.795020
vn 0.266918 0.000000 0.963719
vn 0.266918 0.000000 0.963719
vn 0.705548 0.000000 0.708662
vn 0.705548 0.000000 0.708662
vn -0.705548 0.000000 0.708663
vn -0.266918 0.000000 0.963719
vn -0.266918 0.000000 0.963719
vn -0.705548 0.000000 0.708663
vn 0.000000 0.000000 1.000000
vn 0.000000 0.000000 1.000000
vn 0.000000 -1.000000 0.000000
vn 0.000000 -1.000000 0.000000
vn 0.000000 -1.000000 0.000000
vn -0.000001 1.000000 0.000000
vn -0.000000 1.000000 0.000000
vn -0.000000 1.000000 0.000000
vn 0.000000 -1.000000 0.000000
vn 0.000000 -1.000000 0.000000
vn 0.000000 -1.000000 0.000000
vn 0.000000 1.000000 0.000000
vn 0.000001 1.000000 0.000000
vn 0.000000 1.000000 0.000000
vn 0.000000 -1.000000 0.000000
vn 0.000000 -1.000000 0.000000
vn 0.000000 1.000000 0.000000
vn 0.000000 1.000000 0.000000
s 1
g BD_F3
usemtl aiStandardSurface3SG
f 11/8/1 12/7/2 2/9/3 4/10/4
f 1/5/5 13/2/6 14/1/7 3/6/8
f 14/1/7 13/2/6 15/3/9 16/4/10
f 16/4/10 15/3/9 12/7/2 11/8/1
s 3
f 6/11/11 2/12/12 12/7/13
s 4
f 4/16/14 8/17/15 11/8/16
s 3
f 1/15/17 5/14/18 13/2/19
s 4
f 7/19/20 3/20/21 14/1/22
s 3
f 5/14/18 9/13/23 15/3/24 13/2/19
s 4
f 10/18/25 7/19/20 14/1/22 16/4/26
s 3
f 9/13/23 6/11/11 12/7/13 15/3/24
s 4
f 8/17/15 10/18/25 16/4/26 11/8/16
g default
v -1.683100 8.780501 -3.366202
v -1.683100 0.000000 -3.366202
v -1.683100 8.780501 -0.000001
v -1.683100 0.000000 -0.000001
vt 0.280839 0.966988
vt 0.280839 0.033012
vt 0.638900 0.033012
vt 0.638900 0.966988
vn -1.000000 -0.000000 -0.000000
vn -1.000000 -0.000000 -0.000000
vn -1.000000 -0.000000 -0.000000
vn -1.000000 -0.000000 -0.000000
s off
g BD_W
usemtl aiStandardSurface1SG
f 17/21/27 18/22/28 20/23/29 19/24/30
g default
v -1.683100 0.000000 0.000000
v 1.683100 0.000000 0.000000
v -1.683100 2.634492 0.000000
v 1.683100 2.634492 0.000000
v -1.459570 2.634492 0.000000
v 1.459570 2.634492 0.000000
v -1.683100 0.113470 0.000000
v -1.459570 0.113470 0.000000
v 1.459570 0.113470 0.000000
v 1.683100 0.113470 0.000000
v -1.683100 2.190728 0.000000
v -1.459570 2.190728 0.000000
v 1.459570 2.190728 0.000000
v 1.683100 2.190728 0.000000
v -1.459570 2.190728 -0.155834
v 1.459570 2.190728 -0.155834
v -1.459570 0.113470 -0.155834
v 1.459570 0.113470 -0.155834
v -1.683100 0.000000 2.800814
v -1.459570 0.000000 2.800814
v -1.459570 0.021349 2.800814
v -1.683100 0.021349 2.800814
v 1.459570 0.021349 2.800814
v 1.459570 0.000000 2.800814
v 1.683100 0.021349 2.800814
v 1.683100 0.000000 2.800814
vt 0.200953 0.447690
vt 0.200953 0.057853
vt 0.222887 0.066150
vt 0.222887 0.433067
vt 0.748784 0.057853
vt 0.748784 0.447690
vt 0.726851 0.433067
vt 0.726851 0.066150
vt 0.225352 0.941238
vt 0.210404 0.941238
vt 0.210404 0.572275
vt 0.225352 0.572275
vt 0.683743 0.941238
vt 0.668795 0.941238
vt 0.668795 0.572275
vt 0.683743 0.572275
vt 0.748784 0.530970
vt 0.790734 0.447690
vt 0.790734 0.530970
vt 0.200953 0.530970
vt 0.790734 0.057853
vt 0.159003 0.447690
vt 0.159003 0.530970
vt 0.159003 0.057853
vt 0.225352 0.557327
vt 0.254798 0.557327
vt 0.254798 0.572275
vt 0.639349 0.572275
vt 0.639349 0.557327
vt 0.668795 0.557327
vt 0.254799 0.941238
vt 0.639349 0.941238
vt 0.639349 0.961766
vt 0.254798 0.961766
vn 0.000000 0.000000 1.000000
vn 0.000000 0.000000 1.000000
vn 0.000000 0.000000 1.000000
vn 0.000000 0.000000 1.000000
vn 0.000000 0.000000 1.000000
vn 0.000000 0.000000 1.000000
vn 0.000000 0.000000 1.000000
vn 0.000000 0.000000 1.000000
vn 0.000000 0.000000 1.000000
vn 0.000000 0.000010 1.000000
vn 0.000000 0.000010 1.000000
vn 0.000000 0.000000 1.000000
vn -0.000000 0.000009 1.000000
vn -0.000000 0.000009 1.000000
vn -0.000001 -0.000008 1.000000
vn -0.000001 -0.000008 1.000000
vn 0.000000 0.000000 1.000000
vn 0.000000 0.000000 1.000000
vn 0.000000 -0.000000 1.000000
vn 0.000000 -0.000000 1.000000
vn 0.000000 -0.000000 1.000000
vn 0.000000 -0.000000 1.000000
vn 0.000000 0.000000 1.000000
vn 0.000000 0.000000 1.000000
vn 0.000000 -1.000000 0.000000
vn 0.000000 -1.000000 0.000000
vn 0.000000 -1.000000 0.000000
vn 0.000000 -1.000000 0.000000
vn 1.000000 0.000000 0.000000
vn 1.000000 0.000000 0.000000
vn 1.000000 0.000000 0.000000
vn 1.000000 0.000000 0.000000
vn -0.000000 0.999511 0.031259
vn 0.000000 0.999511 0.031259
vn 0.000000 1.000000 0.000000
vn 0.000000 1.000000 0.000000
vn -1.000000 0.000000 0.000000
vn -1.000000 0.000000 0.000000
vn -1.000000 0.000000 0.000000
vn -1.000000 0.000000 0.000000
vn -0.000000 0.999460 0.032873
vn -0.000000 0.999460 0.032873
vn -0.000000 0.999460 0.032873
vn -1.000000 0.000000 0.000000
vn -1.000000 0.000000 0.000000
vn -1.000000 0.000000 0.000000
vn -1.000000 0.000000 0.000000
vn 0.000000 0.999460 0.032873
vn 0.000000 0.999460 0.032873
vn 0.000000 0.999460 0.032873
vn 1.000000 0.000002 0.000000
vn 1.000000 0.000002 0.000000
vn 1.000000 0.000002 0.000000
vn 1.000000 0.000002 0.000000
s 1
g BD_F1
usemtl aiStandardSurface5SG
f 26/41/31 33/30/32 34/42/33 24/43/34
f 31/46/35 32/25/36 25/44/37 23/47/38
f 25/44/37 32/25/36 33/30/32 26/41/31
s 3
f 39/49/39 40/50/40 41/51/41 42/36/42
f 43/52/43 41/51/41 40/50/40 44/53/44
f 45/39/45 43/52/43 44/53/44 46/54/46
s 1
f 27/48/47 28/26/48 32/25/36 31/46/35
s off
f 36/31/49 35/28/50 37/27/51 38/32/52
s 1
f 34/42/33 33/30/32 29/29/53 30/45/54
s off
f 33/30/55 32/25/56 35/28/57 36/31/58
f 32/25/59 28/26/60 37/27/61 35/28/62
s 4
f 28/55/63 29/56/64 38/57/65 37/58/66
s off
f 29/29/67 33/30/68 36/31/69 38/32/70
s 4
f 28/55/63 27/33/71 42/36/72 41/51/73
s off
f 27/33/74 21/34/75 39/35/76 42/36/77
s 4
f 29/56/64 28/55/63 41/51/73 43/52/78
f 30/38/79 29/56/64 43/52/78 45/39/80
s off
f 22/37/81 30/38/82 45/39/83 46/40/84
g default
v -1.683100 8.780501 -3.366202
v 1.683101 8.780501 -3.366202
v 1.683101 8.780501 -0.000000
v -1.683100 8.780501 -0.000000
v 0.000000 8.780501 -3.366202
v 0.000000 8.780501 -0.000000
v -1.520213 8.780501 -3.366202
v -1.520213 8.780501 -0.000000
v 1.520213 8.780501 -3.366202
v 1.520213 8.780501 -0.000000
v 1.683100 8.780501 -3.183635
v 1.520213 8.780501 -3.183635
v 0.000000 8.780501 -3.183635
v -1.520213 8.780501 -3.183635
v -1.683100 8.780501 -3.183635
v 1.683100 9.601933 -3.183633
v 1.520213 9.601933 -3.183635
v 1.520213 9.601932 -0.000000
v 1.683101 9.601933 -0.000000
v -1.683100 9.601933 0.000000
v -1.520213 9.601932 0.000000
v -1.520213 9.601933 -3.183634
v -1.683100 9.601933 -3.183636
v 1.520213 9.601933 -3.366201
v 1.683101 9.601933 -3.366200
v 0.000000 9.601933 -3.366202
v 0.000000 9.601933 -3.183635
v -1.520213 9.601933 -3.366204
v -1.683100 9.601933 -3.366205
v 1.683101 8.780501 -0.237900
v 1.683101 9.601933 -0.237900
v 1.520213 9.601933 -0.237900
v 1.520213 8.780501 -0.237900
v 0.000000 8.780501 -0.237900
v -1.520213 8.780501 -0.237900
v -1.520213 9.601933 -0.237900
v -1.683100 9.601933 -0.237900
v -1.683100 8.780501 -0.237900
v 0.000000 9.113039 -0.237900
v -1.520213 9.113039 -0.237900
v -1.520213 9.113039 -0.000000
v 0.000000 9.113039 -0.000000
v 1.520213 9.113039 -0.237900
v 1.520213 9.113039 -0.000000
v 1.520213 9.113039 -3.183635
v 0.000000 9.113039 -3.183635
v -1.520213 9.113039 -3.183634
vt 0.229831 0.454596
vt 0.229831 0.432051
vt 0.307677 0.432051
vt 0.307677 0.454596
vt 0.229831 0.152888
vt 0.307677 0.152888
vt 0.229831 0.135586
vt 0.307677 0.135587
vt 0.626687 0.432051
vt 0.704532 0.432051
vt 0.704532 0.454596
vt 0.626687 0.454596
vt 0.704533 0.152888
vt 0.626687 0.152888
vt 0.704533 0.135586
vt 0.626687 0.135586
vt 0.618464 0.846680
vt 0.618464 0.567517
vt 0.649978 0.567517
vt 0.649978 0.846680
vt 0.696310 0.567517
vt 0.696310 0.846680
vt 0.649978 0.544972
vt 0.696310 0.544972
vt 0.298813 0.846680
vt 0.298813 0.567517
vt 0.330328 0.567517
vt 0.330328 0.846680
vt 0.252482 0.567517
vt 0.252482 0.846680
vt 0.298813 0.544972
vt 0.252482 0.544972
vt 0.229831 0.470033
vt 0.307677 0.470033
vt 0.704532 0.470033
vt 0.626687 0.470033
vt 0.307676 0.057741
vt 0.323113 0.057741
vt 0.323113 0.135586
vt 0.307677 0.135586
vt 0.467182 0.057740
vt 0.467182 0.135586
vt 0.611250 0.057740
vt 0.611250 0.135586
vt 0.626687 0.057740
vt 0.626687 0.135586
vt 0.474396 0.846680
vt 0.618464 0.878194
vt 0.474396 0.878194
vt 0.618464 0.924526
vt 0.474396 0.924526
vt 0.330328 0.878194
vt 0.330328 0.924526
vt 0.474396 0.567517
vt 0.330328 0.536003
vt 0.474396 0.536003
vt 0.618464 0.536003
vt 0.330328 0.481943
vt 0.474396 0.481943
vt 0.474396 0.513458
vt 0.330328 0.513458
vt 0.618464 0.481943
vt 0.618464 0.513458
vt 0.323113 0.432051
vt 0.323113 0.454596
vt 0.323113 0.152888
vt 0.323113 0.135586
vt 0.467182 0.152888
vt 0.611250 0.152888
vt 0.626687 0.135586
vt 0.611250 0.432051
vt 0.611250 0.454596
vn -0.000000 1.000000 0.000000
vn -0.000000 1.000000 0.000000
vn -0.000000 1.000000 0.000000
vn -0.000000 1.000000 0.000000
vn 0.000000 1.000000 0.000000
vn 0.000000 1.000000 0.000000
vn 0.000000 1.000000 0.000000
vn 0.000000 1.000000 0.000000
vn 0.000000 1.000000 0.000000
vn 0.000000 1.000000 0.000000
vn 0.000000 1.000000 0.000000
vn 0.000000 1.000000 0.000000
vn 0.000000 1.000000 0.000000
vn 0.000000 1.000000 0.000000
vn -0.000000 1.000000 0.000000
vn -0.000000 1.000000 0.000000
vn -0.000000 1.000000 0.000000
vn -0.000000 1.000000 0.000000
vn -0.000000 1.000000 0.000000
vn -0.000000 1.000000 0.000000
vn -0.000000 1.000000 0.000000
vn -0.000000 1.000000 0.000000
vn 0.000000 1.000000 0.000000
vn 0.000000 1.000000 0.000000
vn 0.000000 0.000000 1.000000
vn 0.000000 0.000000 1.000000
vn 0.000000 0.000000 1.000000
vn 0.000000 0.000000 1.000000
vn 1.000000 0.000000 0.000000
vn 1.000000 0.000000 0.000000
vn 1.000000 0.000000 0.000000
vn 1.000000 0.000000 0.000000
vn 0.000000 -0.000000 1.000000
vn 0.000000 -0.000000 1.000000
vn 0.000000 -0.000000 1.000000
vn 0.000000 -0.000000 1.000000
vn -1.000000 0.000000 0.000000
vn -1.000000 0.000000 0.000000
vn -1.000000 0.000000 0.000000
vn -1.000000 0.000000 0.000000
vn 1.000000 -0.000000 0.000000
vn 1.000000 -0.000000 0.000000
vn 1.000000 -0.000000 0.000000
vn 1.000000 -0.000000 0.000000
vn 0.000004 0.000003 -1.000000
vn 0.000001 0.000001 -1.000000
vn 0.000001 0.000001 -1.000000
vn 0.000004 0.000003 -1.000000
vn 0.000000 0.000000 1.000000
vn 0.000000 0.000000 1.000000
vn 0.000000 0.000000 1.000000
vn 0.000000 -0.000000 1.000000
vn 0.000000 -0.000000 -1.000000
vn 0.000000 -0.000000 -1.000000
vn 0.000000 0.000000 1.000000
vn 0.000000 -0.000000 1.000000
vn 0.000001 -0.000001 -1.000000
vn 0.000001 -0.000001 -1.000000
vn 0.000004 -0.000003 -1.000000
vn 0.000004 -0.000003 -1.000000
vn -1.000000 0.000000 0.000000
vn -1.000000 0.000000 0.000000
vn -1.000000 0.000000 0.000000
vn -1.000000 0.000000 0.000000
vn -1.000000 -0.000000 0.000000
vn -1.000000 -0.000000 0.000000
vn -1.000000 -0.000000 0.000000
vn -1.000000 -0.000000 0.000000
vn 0.000000 1.000000 0.000000
vn 0.000000 1.000000 0.000000
vn 0.000000 1.000000 0.000000
vn 0.000000 1.000000 0.000000
vn 0.000000 1.000000 0.000000
vn 0.000000 1.000000 0.000000
vn 1.000000 -0.000000 0.000000
vn 1.000000 0.000000 0.000000
vn 1.000000 -0.000000 0.000000
vn 1.000000 -0.000000 0.000000
vn 0.000000 -0.000000 -1.000000
vn 0.000000 -0.000000 -1.000000
vn 0.000000 -0.000000 -1.000000
vn 0.000000 -0.000000 -1.000000
vn 0.000000 0.000000 1.000000
vn 0.000000 0.000000 1.000000
vn 0.000000 0.000000 1.000000
vn 0.000000 0.000000 1.000000
vn -0.000000 -0.000000 -1.000000
vn -0.000000 -0.000000 -1.000000
vn -0.000000 -0.000000 -1.000000
vn -0.000000 -0.000000 -1.000000
vn 0.000000 0.000000 1.000000
vn 0.000000 0.000000 1.000000
vn 0.000000 0.000000 1.000000
vn 0.000000 0.000000 1.000000
vn 1.000000 0.000000 0.000000
vn 1.000000 0.000000 0.000000
vn 1.000000 0.000000 0.000000
vn 1.000000 0.000000 0.000000
vn -1.000000 0.000000 0.000000
vn -1.000000 0.000000 0.000000
vn -1.000000 0.000000 0.000000
vn -1.000000 0.000000 0.000000
vn -1.000000 0.000000 0.000000
vn -1.000000 0.000000 0.000000
vn 0.000000 0.000000 1.000000
vn 0.000000 -0.000000 1.000000
vn 0.000000 -0.000000 1.000000
vn 1.000000 0.000000 0.000000
vn 1.000000 0.000000 0.000000
s 1
g BD_F4
usemtl aiStandardSurface6SG
f 77/61/85 78/122/86 64/123/87 65/62/88
s 2
f 85/114/89 86/113/90 87/119/91 88/118/92
s 1
f 66/70/93 67/130/94 82/129/95 83/67/96
s 2
f 89/115/97 85/114/89 88/118/92 90/121/98
s 1
f 70/125/99 63/124/100 62/64/101 71/66/102
f 72/100/103 73/126/104 63/124/100 70/125/99
f 74/102/105 68/127/106 73/126/104 72/100/103
f 69/72/107 68/127/106 74/102/105 75/128/108
s off
f 56/91/109 49/59/110 65/62/111 64/92/112
s 5
f 49/59/113 76/60/114 77/61/115 65/62/116
s off
f 50/69/117 54/93/118 67/94/119 66/70/120
s 6
f 83/67/121 84/68/122 50/69/123 66/70/124
s 5
f 57/63/125 48/65/126 71/66/127 62/64/128
s 7
f 48/95/129 55/96/130 70/97/131 71/98/132
s 8
f 59/105/133 58/75/134 91/106/135 92/107/136
s 7
f 55/96/130 51/99/137 72/100/138 70/97/131
s 8
f 60/86/139 59/105/133 92/107/136 93/110/140
s 7
f 51/99/137 53/101/141 74/102/142 72/100/138
f 53/101/141 47/103/143 75/104/144 74/102/142
s 6
f 47/73/145 61/71/146 69/72/147 75/74/148
s 5
f 77/61/115 76/60/114 57/63/125 62/64/128
s 1
f 62/64/101 63/124/100 78/122/86 77/61/85
s 9
f 58/75/149 79/76/150 89/77/151 91/78/152
s 10
f 58/75/153 59/105/154 80/112/155 79/76/156
f 59/105/154 60/86/157 81/85/158 80/112/155
s 11
f 93/83/159 86/84/160 81/85/161 60/86/162
s 1
f 83/67/96 82/129/95 68/127/106 69/72/107
s 6
f 61/71/146 84/68/122 83/67/121 69/72/147
s off
f 80/112/163 81/85/164 86/113/165 85/114/166
f 54/116/167 52/117/168 88/118/169 87/119/170
f 79/76/171 80/112/172 85/114/173 89/115/174
f 52/117/175 56/120/176 90/121/177 88/118/178
f 87/89/179 86/84/180 82/87/181 67/90/182
f 89/77/183 90/81/184 64/82/185 78/79/186
s 9
f 91/78/152 89/77/151 78/79/187 63/80/188
s 8
f 92/107/136 91/106/135 63/108/189 73/109/190
f 93/110/140 92/107/136 73/109/190 68/111/191
s 11
f 82/87/192 86/84/160 93/83/159 68/88/193
g default
v 1.683101 8.780501 -3.366202
v 1.683101 0.000000 -3.366202
v -1.683100 8.780501 -3.366202
v -1.683100 0.000000 -3.366202
vt 0.280839 0.966988
vt 0.280839 0.033012
vt 0.638900 0.033012
vt 0.638900 0.966988
vn 0.000000 0.000000 -1.000000
vn 0.000000 0.000000 -1.000000
vn 0.000000 0.000000 -1.000000
vn 0.000000 0.000000 -1.000000
s off
g BD_W2
usemtl aiStandardSurface1SG
f 94/131/194 95/132/195 97/133/196 96/134/197
g default
v -1.683100 6.146009 0.000000
v 1.683100 6.146009 -0.000000
v -1.683100 8.780501 -0.000000
v 1.683100 8.780501 -0.000000
v -1.214880 6.146009 -0.000000
v 1.214880 6.146009 -0.000000
v -1.214880 8.780501 -0.000000
v 1.214880 8.780501 -0.000000
v 0.000000 6.146009 -0.000000
v 0.000000 8.780501 -0.000000
v 1.214880 8.780501 0.466163
v 1.214880 6.146009 0.466163
v -1.214880 6.146009 0.466163
v -1.214880 8.780501 0.466163
v 0.000000 6.146009 0.466163
v 0.000000 8.780501 0.466163
vt 0.277031 0.715197
vt 0.277031 0.264081
vt 0.485060 0.264081
vt 0.485060 0.715197
vt 0.196855 0.264081
vt 0.196855 0.715197
vt 0.693089 0.264080
vt 0.693089 0.715197
vt 0.773563 0.264081
vt 0.772967 0.715197
vt 0.693089 0.184258
vt 0.773668 0.184258
vt 0.485060 0.184258
vt 0.277031 0.184258
vt 0.197258 0.184258
vt 0.772862 0.795020
vt 0.693089 0.795020
vt 0.485060 0.795020
vt 0.277031 0.795020
vt 0.196451 0.795020
vn 0.266918 0.000000 0.963719
vn 0.266918 0.000000 0.963719
vn 0.705548 0.000000 0.708662
vn 0.705548 0.000000 0.708662
vn -0.705548 0.000000 0.708663
vn -0.266918 0.000000 0.963719
vn -0.266918 0.000000 0.963719
vn -0.705548 0.000000 0.708663
vn 0.000000 0.000000 1.000000
vn 0.000000 0.000000 1.000000
vn 0.000000 -1.000000 0.000000
vn 0.000000 -1.000000 0.000000
vn 0.000000 -1.000000 0.000000
vn -0.000001 1.000000 0.000000
vn -0.000000 1.000000 0.000000
vn -0.000000 1.000000 0.000000
vn 0.000000 -1.000000 0.000000
vn 0.000000 -1.000000 0.000000
vn 0.000000 -1.000000 0.000000
vn 0.000000 1.000000 0.000000
vn 0.000001 1.000000 0.000000
vn 0.000000 1.000000 0.000000
vn 0.000000 -1.000000 0.000000
vn 0.000000 -1.000000 0.000000
vn 0.000000 1.000000 0.000000
vn 0.000000 1.000000 0.000000
s 1
g BD_F5
usemtl aiStandardSurface2SG
f 108/142/198 109/141/199 99/143/200 101/144/201
f 98/139/202 110/136/203 111/135/204 100/140/205
f 111/135/204 110/136/203 112/137/206 113/138/207
f 113/138/207 112/137/206 109/141/199 108/142/198
s 3
f 103/145/208 99/146/209 109/141/210
s 4
f 101/150/211 105/151/212 108/142/213
s 3
f 98/149/214 102/148/215 110/136/216
s 4
f 104/153/217 100/154/218 111/135/219
s 3
f 102/148/215 106/147/220 112/137/221 110/136/216
s 4
f 107/152/222 104/153/217 111/135/219 113/138/223
s 3
f 106/147/220 103/145/208 109/141/210 112/137/221
s 4
f 105/151/212 107/152/222 113/138/223 108/142/213
g default
v 1.683100 2.634492 -0.000000
v 1.683100 3.511518 -0.000000
v -1.683100 2.634492 -0.000000
v -1.683100 3.511518 -0.000000
vt 0.817890 0.269387
vt 0.817890 0.103742
vt 0.182110 0.103742
vt 0.182110 0.269387
vn 0.000000 0.000000 1.000000
vn 0.000000 0.000000 1.000000
vn 0.000000 0.000000 1.000000
vn 0.000000 0.000000 1.000000
s off
g BD_F2
usemtl aiStandardSurface4SG
f 116/157/224 114/156/225 115/155/226 117/158/227
g default
v 1.683100 8.780501 -0.000001
v 1.683100 0.000000 -0.000001
v 1.683100 8.780501 -3.366202
v 1.683100 0.000000 -3.366202
vt 0.280839 0.966988
vt 0.280839 0.033012
vt 0.638900 0.033012
vt 0.638900 0.966988
vn 1.000000 0.000000 0.000000
vn 1.000000 0.000000 0.000000
vn 1.000000 0.000000 0.000000
vn 1.000000 0.000000 0.000000
s off
g BD_W1
usemtl aiStandardSurface1SG
f 118/159/228 119/160/229 121/161/230 120/162/231
