# This file uses centimeters as units for non-parametric coordinates.

mtllib Storefront sign.mtl
g default
v 2.597596 0.349085 7.041811
v 3.402404 0.349085 7.041811
v 2.597596 1.368925 7.041811
v 3.402404 1.368925 7.041811
v 2.597596 1.368925 6.958189
v 3.402404 1.368925 6.958189
v 2.597596 0.349085 6.958189
v 3.402404 0.349085 6.958189
v 3.000000 0.349085 7.041811
v 3.000000 1.368925 7.041811
v 3.000000 1.368925 6.958189
v 3.000000 0.349085 6.958189
v 2.678077 0.349085 7.041811
v 2.678077 1.368925 7.041811
v 2.678077 1.368925 6.958189
v 2.678077 0.349085 6.958189
v 3.321923 0.349085 7.041811
v 3.321923 1.368925 7.041811
v 3.321923 1.368925 6.958189
v 3.321923 0.349085 6.958189
v 2.597596 0.000000 6.958189
v 2.678077 0.000000 6.958189
v 2.678077 0.000000 7.041811
v 2.597596 0.000000 7.041811
v 3.321923 0.000000 6.958189
v 3.321923 0.000000 7.041811
v 3.402404 0.000000 6.958189
v 3.402404 0.000000 7.041811
v 2.597596 0.069817 6.958189
v 2.597596 0.069817 7.041811
v 2.678077 0.069817 7.041811
v 2.678077 0.069817 6.958189
v 3.402404 0.069817 6.958189
v 3.402404 0.069817 7.041811
v 3.321923 0.069817 7.041811
v 3.321923 0.069817 6.958189
v 3.321923 0.069817 6.637820
v 3.402404 0.069817 6.637820
v 3.402404 0.000000 6.637820
v 3.321923 0.000000 6.637820
v 3.402404 0.069817 7.362180
v 3.321923 0.069817 7.362180
v 3.321923 0.000000 7.362180
v 3.402404 0.000000 7.362180
v 2.597596 0.069817 7.362180
v 2.678077 0.069817 7.362180
v 2.597596 0.000000 7.362180
v 2.678077 0.000000 7.362180
v 2.678077 0.069817 6.637820
v 2.597596 0.069817 6.637820
v 2.678077 0.000000 6.637820
v 2.597596 0.000000 6.637820
vt 0.659922 0.220660
vt 0.684556 0.220660
vt 0.684556 0.521091
vt 0.659922 0.521091
vt 0.659922 0.138392
vt 0.684556 0.138392
vt 0.659922 0.117825
vt 0.684556 0.117825
vt 0.565546 0.138392
vt 0.565546 0.117825
vt 0.778932 0.117825
vt 0.778932 0.138392
vt 0.398203 0.220660
vt 0.422837 0.220660
vt 0.422837 0.521091
vt 0.398203 0.521091
vt 0.398203 0.049841
vt 0.422837 0.138392
vt 0.398203 0.117825
vt 0.422837 0.117825
vt 0.303827 0.138392
vt 0.303827 0.117825
vt 0.517213 0.117825
vt 0.517213 0.138392
vt 0.446546 0.846155
vt 0.471180 0.846155
vt 0.471180 0.928423
vt 0.398203 0.073549
vt 0.422837 0.094116
vt 0.398203 0.094116
vt 0.517213 0.073549
vt 0.517213 0.094116
vt 0.303827 0.094117
vt 0.303827 0.073549
vt 0.659922 0.073549
vt 0.636213 0.928423
vt 0.684556 0.094116
vt 0.659922 0.094116
vt 0.611579 0.846155
vt 0.636213 0.846155
vt 0.778932 0.073549
vt 0.778932 0.094116
vt 0.565546 0.094117
vt 0.565546 0.073550
vt 0.541379 0.545725
vt 0.541379 0.521091
vt 0.636213 0.521091
vt 0.636213 0.545725
vt 0.446546 0.545725
vt 0.446545 0.521091
vt 0.659922 0.545725
vt 0.422837 0.545725
vt 0.541379 0.220660
vt 0.541379 0.196026
vt 0.636213 0.196026
vt 0.636213 0.220660
vt 0.446545 0.220660
vt 0.446545 0.196026
vt 0.684556 0.073549
vt 0.659922 0.049841
vt 0.565545 0.049841
vt 0.422837 0.073549
vt 0.422837 0.049841
vt 0.517213 0.049841
vt 0.636213 0.138392
vt 0.446545 0.138392
vt 0.541379 0.846155
vt 0.659922 0.846155
vt 0.422837 0.846155
vt 0.659922 0.928423
vt 0.446546 0.928423
vt 0.422837 0.928423
vt 0.802641 0.138392
vt 0.802641 0.117825
vt 0.544979 0.117825
vt 0.544979 0.094117
vt 0.537780 0.094116
vt 0.537780 0.117825
vt 0.280118 0.138392
vt 0.280118 0.117825
vt 0.611579 0.928423
vt 0.398203 0.138392
vt 0.303827 0.049841
vt 0.684556 0.049841
vt 0.778932 0.049840
vn -0.000000 0.000000 1.000000
vn -0.000000 0.000000 1.000000
vn 0.000000 0.000000 1.000000
vn 0.000000 0.000000 1.000000
vn 0.000000 1.000000 0.000000
vn 0.000000 1.000000 0.000000
vn 0.000000 1.000000 0.000000
vn 0.000000 1.000000 0.000000
vn 0.000000 0.000000 -1.000000
vn 0.000000 0.000000 -1.000000
vn 0.000000 0.000000 -1.000000
vn 0.000000 0.000000 -1.000000
vn 0.000000 -1.000000 0.000000
vn 0.000000 -1.000000 0.000000
vn 0.000000 -1.000000 0.000000
vn 0.000000 -1.000000 0.000000
vn 1.000000 0.000000 0.000000
vn 1.000000 0.000000 0.000000
vn 1.000000 0.000000 0.000000
vn 1.000000 0.000000 0.000000
vn -1.000000 0.000000 0.000000
vn -1.000000 0.000000 0.000000
vn -1.000000 0.000000 0.000000
vn -1.000000 0.000000 0.000000
vn 0.000000 0.000000 -1.000000
vn 0.000000 0.000000 -1.000000
vn 0.000000 0.000000 -1.000000
vn 0.000000 0.000000 -1.000000
vn -0.000001 1.000000 0.000000
vn 0.000000 1.000000 0.000000
vn 0.000000 1.000000 0.000000
vn -0.000001 1.000000 0.000000
vn 0.000000 0.000000 1.000000
vn 0.000000 0.000000 1.000000
vn 0.000000 0.000000 1.000000
vn 0.000000 0.000000 1.000000
vn 0.000000 -1.000000 0.000000
vn 0.000000 -1.000000 0.000000
vn 0.000000 -1.000000 0.000000
vn 0.000000 -1.000000 0.000000
vn 0.000000 0.000000 1.000000
vn 0.000000 0.000000 1.000000
vn 0.000000 1.000000 0.000000
vn 0.000000 1.000000 0.000000
vn 0.000000 0.000000 -1.000000
vn 0.000000 0.000000 -1.000000
vn 0.000000 -1.000000 0.000000
vn 0.000000 -1.000000 0.000000
vn 0.000000 -1.000000 0.000000
vn 0.000000 -1.000000 0.000000
vn 0.000000 -1.000000 0.000000
vn 0.000000 -1.000000 0.000000
vn 0.000000 0.000000 -1.000000
vn 0.000000 0.000000 -1.000000
vn 1.000000 0.000000 0.000000
vn 1.000000 0.000000 0.000000
vn 1.000000 0.000000 0.000000
vn 1.000000 0.000000 0.000000
vn 0.000000 0.000000 1.000000
vn 0.000000 0.000000 1.000000
vn -1.000000 0.000000 0.000000
vn -1.000000 0.000000 0.000000
vn -1.000000 0.000000 0.000000
vn -1.000000 0.000000 0.000000
vn -1.000000 0.000000 0.000000
vn -1.000000 0.000000 0.000000
vn 0.000000 0.000000 -1.000000
vn 0.000000 0.000000 -1.000000
vn 0.000000 0.000000 -1.000000
vn 0.000000 0.000000 -1.000000
vn 1.000000 0.000000 0.000000
vn 1.000000 0.000000 0.000000
vn 1.000000 0.000000 0.000000
vn 1.000000 0.000000 0.000000
vn 0.000000 0.000000 1.000000
vn 0.000000 0.000000 1.000000
vn 0.000000 0.000000 1.000000
vn 0.000000 0.000000 1.000000
vn -1.000000 0.000000 0.000000
vn -1.000000 0.000000 0.000000
vn 0.000000 0.000000 1.000000
vn 0.000000 0.000000 1.000000
vn 0.000000 0.000000 1.000000
vn 0.000000 0.000000 1.000000
vn 1.000000 0.000000 0.000000
vn 1.000000 0.000000 0.000000
vn 0.000000 0.000000 -1.000000
vn 0.000000 0.000000 -1.000000
vn 0.000000 0.000000 -1.000000
vn 0.000000 0.000000 -1.000000
vn 0.000000 0.000000 1.000000
vn 0.000000 0.000000 1.000000
vn -1.000000 0.000000 0.000000
vn -1.000000 0.000000 0.000000
vn 0.000000 0.000000 -1.000000
vn 0.000000 0.000000 -1.000000
vn 0.000000 1.000000 0.000000
vn 0.000000 1.000000 0.000000
vn 0.000000 1.000000 0.000000
vn 0.000000 1.000000 0.000000
vn 1.000000 0.000000 0.000000
vn 1.000000 0.000000 0.000000
vn 0.000000 -1.000000 0.000000
vn 0.000000 -1.000000 0.000000
vn -1.000000 0.000000 0.000000
vn -1.000000 0.000000 0.000000
vn 0.000000 1.000000 0.000000
vn 0.000000 1.000000 0.000000
vn 0.000000 1.000000 0.000000
vn 0.000000 1.000000 0.000000
vn -1.000000 0.000000 0.000000
vn -1.000000 0.000000 0.000000
vn 0.000000 -1.000000 0.000000
vn 0.000000 -1.000000 0.000000
vn 1.000000 0.000000 0.000000
vn 1.000000 0.000000 0.000000
vn 0.000000 1.000000 0.000000
vn 0.000000 1.000000 0.000000
vn 0.000000 1.000000 0.000000
vn 0.000000 1.000000 0.000000
vn -1.000000 0.000000 0.000000
vn -1.000000 0.000000 0.000000
vn 0.000000 -1.000000 0.000000
vn 0.000000 -1.000000 0.000000
vn 1.000000 0.000000 0.000000
vn 1.000000 0.000000 0.000000
vn 0.000000 1.000000 0.000000
vn 0.000000 1.000000 0.000000
vn 0.000000 1.000000 0.000000
vn 0.000000 1.000000 0.000000
vn 1.000000 0.000000 0.000000
vn 1.000000 0.000000 0.000000
vn 0.000000 -1.000000 0.000000
vn 0.000000 -1.000000 0.000000
vn -1.000000 0.000000 0.000000
vn -1.000000 0.000000 0.000000
s 1
g Storefront_sign
usemtl initialShadingGroup
f 10/46/1 9/53/2 17/56/3 18/47/4
s 2
f 11/45/5 10/46/6 18/47/7 19/48/8
s 3
f 12/67/9 11/45/10 19/48/11 20/40/12
s 4
f 21/19/13 22/30/14 23/29/15 24/20/16
s 5
f 2/1/17 8/2/18 6/3/19 4/4/20
s 6
f 7/13/21 1/14/22 3/15/23 5/16/24
s 3
f 5/52/25 15/49/26 16/25/27 7/69/28
s 2
f 3/15/29 14/50/30 15/49/31 5/52/32
s 1
f 1/14/33 13/57/34 14/50/35 3/15/36
f 14/50/35 13/57/34 9/53/2 10/46/1
s 2
f 15/49/31 14/50/30 10/46/6 11/45/5
s 3
f 16/25/27 15/49/26 11/45/10 12/67/9
s 8
f 9/53/37 12/54/38 20/55/39 17/56/40
s 1
f 18/47/4 17/56/3 2/1/41 4/4/42
s 2
f 19/48/8 18/47/7 4/4/43 6/51/44
s 3
f 20/40/12 19/48/11 6/51/45 8/68/46
s 9
f 26/38/47 25/37/48 27/8/49 28/7/50
s 8
f 13/57/51 16/58/52 12/54/38 9/53/37
s 3
f 7/69/28 16/25/27 32/71/53 29/72/54
s 10
f 16/25/55 13/26/56 31/27/57 32/71/58
s 1
f 13/57/34 1/14/33 30/18/59 31/66/60
s 6
f 1/14/22 7/13/21 29/82/61 30/18/62
s 11
f 35/35/63 36/59/64 25/37/65 26/38/66
s off
f 37/73/67 38/12/68 39/11/69 40/74/70
s 5
f 33/6/71 34/5/72 28/7/73 27/8/74
s off
f 41/75/75 42/76/76 43/43/77 44/10/78
s 6
f 30/18/62 29/82/61 21/19/79 24/20/80
s off
f 46/77/81 45/78/82 47/23/83 48/32/84
s 10
f 32/28/58 31/62/57 23/29/85 22/30/86
s off
f 50/21/87 49/79/88 51/80/89 52/22/90
s 5
f 8/2/18 2/1/17 34/5/72 33/6/71
s 1
f 2/1/41 17/56/3 35/65/91 34/5/92
s 11
f 17/39/93 20/40/94 36/36/64 35/81/63
s 3
f 20/40/12 8/68/46 33/70/95 36/36/96
s off
f 36/59/97 33/84/98 38/85/99 37/41/100
s 5
f 33/6/71 27/8/74 39/11/101 38/12/102
s 9
f 27/8/49 25/37/48 40/42/103 39/11/104
s 11
f 25/37/65 36/59/64 37/41/105 40/42/106
s off
f 34/60/107 35/35/108 42/44/109 41/61/110
s 11
f 35/35/63 26/38/66 43/43/111 42/44/112
s 9
f 26/38/47 28/7/50 44/10/113 43/43/114
s 5
f 28/7/73 34/5/72 41/9/115 44/10/116
s off
f 31/62/117 30/63/118 45/64/119 46/31/120
s 6
f 30/18/62 24/20/80 47/23/121 45/24/122
s 4
f 24/20/16 23/29/15 48/32/123 47/23/124
s 10
f 23/29/85 31/62/57 46/31/125 48/32/126
s off
f 29/17/127 32/28/128 49/34/129 50/83/130
s 10
f 32/28/58 22/30/86 51/33/131 49/34/132
s 4
f 22/30/14 21/19/13 52/22/133 51/33/134
s 6
f 21/19/79 29/82/61 50/21/135 52/22/136
