# This file uses centimeters as units for non-parametric coordinates.

mtllib F2_V2.mtl
g default
v -3.723238 5.026493 0.486288
v 1.519597 5.026493 0.486288
v -3.723238 9.855135 0.486288
v 1.519597 9.855135 0.486288
v -3.723238 5.026493 0.156059
v 1.519597 5.026493 0.156059
v -3.723238 9.855135 0.156059
v 1.519597 9.855135 0.156059
vt 0.089120 0.134795
vt 0.089120 0.891635
vt 0.063241 0.917515
vt 0.063241 0.108916
vt 0.910877 0.891635
vt 0.910878 0.134795
vt 0.936758 0.108916
vt 0.936758 0.917515
vn 0.000000 0.000000 1.000000
vn 0.000000 0.000000 1.000000
vn 0.000000 0.000000 1.000000
vn 0.000000 0.000000 1.000000
vn 0.000000 -1.000000 0.000000
vn 0.000000 -1.000000 0.000000
vn 0.000000 -1.000000 0.000000
vn 0.000000 -1.000000 0.000000
vn -1.000000 0.000000 0.000000
vn -1.000000 0.000000 0.000000
vn -1.000000 0.000000 0.000000
vn -1.000000 0.000000 0.000000
vn 1.000000 0.000000 0.000000
vn 1.000000 0.000000 0.000000
vn 1.000000 0.000000 0.000000
vn 1.000000 0.000000 0.000000
vn 0.000000 1.000000 0.000000
vn 0.000000 1.000000 0.000000
vn 0.000000 1.000000 0.000000
vn 0.000000 1.000000 0.000000
s off
g pPlane14
usemtl initialShadingGroup
f 1/1/1 2/6/2 4/5/3 3/2/4
f 2/6/5 1/1/6 5/4/7 6/7/8
f 1/1/9 3/2/10 7/3/11 5/4/12
f 4/5/13 2/6/14 6/7/15 8/8/16
f 3/2/17 4/5/18 8/8/19 7/3/20
