# This file uses centimeters as units for non-parametric coordinates.

mtllib House pillars_v2.mtl
g default
v -3.703279 0.376743 -2.309372
v -3.189422 0.376743 -2.309372
v -3.703279 5.015732 -2.309372
v -3.189422 5.015732 -2.309372
v -3.703279 5.015732 -2.823250
v -3.189422 5.015732 -2.823250
v -3.703279 0.376743 -2.823250
v -3.189422 0.376743 -2.823250
vt 0.357432 0.001992
vt 0.467761 0.001992
vt 0.467761 0.998008
vt 0.357432 0.998008
vt 0.578091 0.001992
vt 0.688420 0.001992
vt 0.688420 0.998008
vt 0.578091 0.998008
vt 0.247102 0.001992
vt 0.247102 0.998008
vn 0.000000 0.000000 1.000000
vn 0.000000 0.000000 1.000000
vn 0.000000 0.000000 1.000000
vn 0.000000 0.000000 1.000000
vn 0.000000 0.000000 -1.000000
vn 0.000000 0.000000 -1.000000
vn 0.000000 0.000000 -1.000000
vn 0.000000 0.000000 -1.000000
vn 1.000000 0.000000 0.000000
vn 1.000000 0.000000 0.000000
vn 1.000000 0.000000 0.000000
vn 1.000000 0.000000 0.000000
vn -1.000000 0.000000 0.000000
vn -1.000000 0.000000 0.000000
vn -1.000000 0.000000 0.000000
vn -1.000000 0.000000 0.000000
s off
g pCube3
usemtl initialShadingGroup
f 1/9/1 2/1/2 4/4/3 3/10/4
f 5/8/5 6/3/6 8/2/7 7/5/8
f 2/1/9 8/2/10 6/3/11 4/4/12
f 7/5/13 1/6/14 3/7/15 5/8/16
