# This file uses centimeters as units for non-parametric coordinates.

mtllib Ice.mtl
g default
v 2.000000 -0.000000 5.474189
v 3.000000 -0.000000 5.474189
v 2.000000 3.000000 5.474189
v 3.000000 3.000000 5.474189
v 2.000000 2.210177 5.474189
v 3.000000 2.210177 5.474189
v 2.000000 0.550929 5.474189
v 3.000000 0.550929 5.474189
v 2.817753 -0.000000 5.474189
v 2.817753 0.550929 5.474189
v 2.817753 2.210177 5.474189
v 2.817753 3.000000 5.474189
v 2.186551 -0.000000 5.474189
v 2.186551 0.550929 5.474189
v 2.186551 2.210177 5.474189
v 2.186551 3.000000 5.474189
v 2.186551 0.550929 5.374996
v 2.186551 2.210177 5.374996
v 2.817753 0.550929 5.374996
v 2.817753 2.210177 5.374996
vt 0.373328 0.721160
vt 0.373328 0.204444
vt 0.383625 0.214741
vt 0.383625 0.710863
vt 0.569895 0.204444
vt 0.569895 0.721160
vt 0.559598 0.710863
vt 0.559598 0.214741
vt 0.315234 0.721160
vt 0.373328 0.967124
vt 0.315234 0.967124
vt 0.315234 0.204444
vt 0.569895 0.967124
vt 0.315234 0.032876
vt 0.373328 0.032876
vt 0.626649 0.721160
vt 0.626649 0.967124
vt 0.569895 0.032876
vt 0.626649 0.204444
vt 0.626649 0.032876
vn 0.000000 0.000000 1.000000
vn 0.000000 0.000000 1.000000
vn 0.000000 0.000000 1.000000
vn 0.000000 0.000000 1.000000
vn 0.000000 0.000000 1.000000
vn 0.000000 0.000000 1.000000
vn 0.000000 0.000000 1.000000
vn 0.000000 0.000000 1.000000
vn 0.000000 0.000000 1.000000
vn 0.000000 0.000000 1.000000
vn 0.000000 0.000000 1.000000
vn 0.000000 0.000000 1.000000
vn 0.000000 0.000000 1.000000
vn 0.000000 0.000000 1.000000
vn 0.000000 0.000000 1.000000
vn 0.000000 0.000000 1.000000
vn 0.000000 0.000000 1.000000
vn 0.000000 0.000000 1.000000
vn 0.000000 0.000000 1.000000
vn 0.000000 0.000000 1.000000
vn 1.000000 0.000000 0.000000
vn 1.000000 0.000000 0.000000
vn 1.000000 0.000000 0.000000
vn 1.000000 0.000000 0.000000
vn 0.000000 1.000000 0.000000
vn 0.000000 1.000000 0.000000
vn 0.000000 1.000000 0.000000
vn 0.000000 1.000000 0.000000
vn -1.000000 0.000000 0.000000
vn -1.000000 0.000000 0.000000
vn -1.000000 0.000000 0.000000
vn -1.000000 0.000000 0.000000
vn 0.000000 -1.000000 0.000000
vn 0.000000 -1.000000 0.000000
vn 0.000000 -1.000000 0.000000
vn 0.000000 -1.000000 0.000000
s 1
g Win_01
usemtl initialShadingGroup
f 5/9/1 15/1/2 16/10/3 3/11/4
f 7/12/5 14/2/6 15/1/2 5/9/1
f 1/14/7 13/15/8 14/2/6 7/12/5
f 10/5/9 9/18/10 2/20/11 8/19/12
f 11/6/13 10/5/9 8/19/12 6/16/14
f 12/13/15 11/6/13 6/16/14 4/17/16
f 14/2/6 13/15/8 9/18/10 10/5/9
s off
f 18/4/17 17/3/18 19/8/19 20/7/20
s 1
f 16/10/3 15/1/2 11/6/13 12/13/15
s off
f 15/1/21 14/2/22 17/3/23 18/4/24
f 14/2/25 10/5/26 19/8/27 17/3/28
f 10/5/29 11/6/30 20/7/31 19/8/32
f 11/6/33 15/1/34 18/4/35 20/7/36
g default
v -6.408701 -0.000000 5.474189
v -4.204350 -0.000000 5.474189
v -6.408701 3.000000 5.474189
v -4.204350 3.000000 5.474189
v -6.408701 2.210177 5.474189
v -4.204350 2.210177 5.474189
v -6.408701 0.550929 5.474189
v -4.204350 0.550929 5.474189
v -4.386598 -0.000000 5.474189
v -4.386598 0.550929 5.474189
v -4.386598 2.210177 5.474189
v -4.386598 3.000000 5.474189
v -6.222150 -0.000000 5.474189
v -6.222150 0.550929 5.474189
v -6.222150 2.210177 5.474189
v -6.222150 3.000000 5.474189
v -6.222150 0.550929 5.374996
v -6.222150 2.210177 5.374996
v -4.386598 0.550929 5.374996
v -4.386598 2.210177 5.374996
vt 0.178366 0.728535
vt 0.178366 0.206035
vt 0.188778 0.216447
vt 0.188778 0.718123
vt 0.756386 0.206035
vt 0.756386 0.728535
vt 0.745974 0.718123
vt 0.745974 0.216447
vt 0.119621 0.728535
vt 0.178366 0.977252
vt 0.119621 0.977252
vt 0.119621 0.206035
vt 0.756386 0.977252
vt 0.119621 0.032546
vt 0.178366 0.032546
vt 0.813776 0.728535
vt 0.813776 0.977252
vt 0.756386 0.032546
vt 0.813776 0.206035
vt 0.813776 0.032546
vn 0.000000 0.000000 1.000000
vn 0.000000 0.000000 1.000000
vn 0.000000 0.000000 1.000000
vn 0.000000 0.000000 1.000000
vn 0.000000 0.000000 1.000000
vn 0.000000 0.000000 1.000000
vn 0.000000 0.000000 1.000000
vn 0.000000 0.000000 1.000000
vn 0.000000 0.000000 1.000000
vn 0.000000 0.000000 1.000000
vn 0.000000 0.000000 1.000000
vn 0.000000 0.000000 1.000000
vn 0.000000 0.000000 1.000000
vn 0.000000 0.000000 1.000000
vn 0.000000 0.000000 1.000000
vn 0.000000 0.000000 1.000000
vn 0.000000 0.000000 1.000000
vn 0.000000 0.000000 1.000000
vn 0.000000 0.000000 1.000000
vn 0.000000 0.000000 1.000000
vn 1.000000 0.000000 0.000000
vn 1.000000 0.000000 0.000000
vn 1.000000 0.000000 0.000000
vn 1.000000 0.000000 0.000000
vn 0.000000 1.000000 0.000000
vn 0.000000 1.000000 0.000000
vn 0.000000 1.000000 0.000000
vn 0.000000 1.000000 0.000000
vn -1.000000 0.000000 0.000000
vn -1.000000 0.000000 0.000000
vn -1.000000 0.000000 0.000000
vn -1.000000 0.000000 0.000000
vn 0.000000 -1.000000 0.000000
vn 0.000000 -1.000000 0.000000
vn 0.000000 -1.000000 0.000000
vn 0.000000 -1.000000 0.000000
s 1
g WinV2_02
usemtl initialShadingGroup
f 25/29/37 35/21/38 36/30/39 23/31/40
f 27/32/41 34/22/42 35/21/38 25/29/37
f 21/34/43 33/35/44 34/22/42 27/32/41
f 30/25/45 29/38/46 22/40/47 28/39/48
f 31/26/49 30/25/45 28/39/48 26/36/50
f 32/33/51 31/26/49 26/36/50 24/37/52
f 34/22/42 33/35/44 29/38/46 30/25/45
s off
f 38/24/53 37/23/54 39/28/55 40/27/56
s 1
f 36/30/39 35/21/38 31/26/49 32/33/51
s off
f 35/21/57 34/22/58 37/23/59 38/24/60
f 34/22/61 30/25/62 39/28/63 37/23/64
f 30/25/65 31/26/66 40/27/67 39/28/68
f 31/26/69 35/21/70 38/24/71 40/27/72
g default
v -4.204350 -0.000000 5.474189
v -2.000000 -0.000000 5.474189
v -4.204350 3.000000 5.474189
v -2.000000 3.000000 5.474189
v -4.204350 2.210177 5.474189
v -2.000000 2.210177 5.474189
v -4.204350 0.550929 5.474189
v -2.000000 0.550929 5.474189
v -2.182247 -0.000000 5.474189
v -2.182247 0.550929 5.474189
v -2.182247 2.210177 5.474189
v -2.182247 3.000000 5.474189
v -4.017800 -0.000000 5.474189
v -4.017800 0.550929 5.474189
v -4.017800 2.210177 5.474189
v -4.017800 3.000000 5.474189
v -4.017800 0.550929 5.374996
v -4.017800 2.210177 5.374996
v -2.182247 0.550929 5.374996
v -2.182247 2.210177 5.374996
vt 0.178366 0.728535
vt 0.178366 0.206035
vt 0.188778 0.216447
vt 0.188778 0.718123
vt 0.756386 0.206035
vt 0.756386 0.728535
vt 0.745974 0.718123
vt 0.745974 0.216447
vt 0.119621 0.728535
vt 0.178366 0.977252
vt 0.119621 0.977252
vt 0.119621 0.206035
vt 0.756386 0.977252
vt 0.119621 0.032546
vt 0.178366 0.032546
vt 0.813776 0.728535
vt 0.813776 0.977252
vt 0.756386 0.032546
vt 0.813776 0.206035
vt 0.813776 0.032546
vn 0.000000 0.000000 1.000000
vn 0.000000 0.000000 1.000000
vn 0.000000 0.000000 1.000000
vn 0.000000 0.000000 1.000000
vn 0.000000 0.000000 1.000000
vn 0.000000 0.000000 1.000000
vn 0.000000 0.000000 1.000000
vn 0.000000 0.000000 1.000000
vn 0.000000 0.000000 1.000000
vn 0.000000 0.000000 1.000000
vn 0.000000 0.000000 1.000000
vn 0.000000 0.000000 1.000000
vn 0.000000 0.000000 1.000000
vn 0.000000 0.000000 1.000000
vn 0.000000 0.000000 1.000000
vn 0.000000 0.000000 1.000000
vn 0.000000 0.000000 1.000000
vn 0.000000 0.000000 1.000000
vn 0.000000 0.000000 1.000000
vn 0.000000 0.000000 1.000000
vn 1.000000 0.000000 0.000000
vn 1.000000 0.000000 0.000000
vn 1.000000 0.000000 0.000000
vn 1.000000 0.000000 0.000000
vn 0.000000 1.000000 0.000000
vn 0.000000 1.000000 0.000000
vn 0.000000 1.000000 0.000000
vn 0.000000 1.000000 0.000000
vn -1.000000 0.000000 0.000000
vn -1.000000 0.000000 0.000000
vn -1.000000 0.000000 0.000000
vn -1.000000 0.000000 0.000000
vn 0.000000 -1.000000 0.000000
vn 0.000000 -1.000000 0.000000
vn 0.000000 -1.000000 0.000000
vn 0.000000 -1.000000 0.000000
s 1
g WinV2_01
usemtl initialShadingGroup
f 45/49/73 55/41/74 56/50/75 43/51/76
f 47/52/77 54/42/78 55/41/74 45/49/73
f 41/54/79 53/55/80 54/42/78 47/52/77
f 50/45/81 49/58/82 42/60/83 48/59/84
f 51/46/85 50/45/81 48/59/84 46/56/86
f 52/53/87 51/46/85 46/56/86 44/57/88
f 54/42/78 53/55/80 49/58/82 50/45/81
s off
f 58/44/89 57/43/90 59/48/91 60/47/92
s 1
f 56/50/75 55/41/74 51/46/85 52/53/87
s off
f 55/41/93 54/42/94 57/43/95 58/44/96
f 54/42/97 50/45/98 59/48/99 57/43/100
f 50/45/101 51/46/102 60/47/103 59/48/104
f 51/46/105 55/41/106 58/44/107 60/47/108
g default
v -6.408701 3.000000 5.474189
v 4.000000 3.000000 5.474189
v -6.408701 4.000000 5.474189
v 4.000000 3.920340 5.474189
v -6.408701 4.000000 -5.485228
v 4.000000 3.920340 -5.485228
v -6.408701 3.000000 -5.485228
v 4.000000 3.000000 -5.485228
v -3.000000 3.000000 5.474189
v -3.000000 4.000000 5.474189
v -3.000000 4.000000 -5.485228
v -3.000000 3.000000 -5.485228
v -0.000000 3.000000 5.474189
v 0.000000 6.159197 5.474189
v -0.000000 6.159197 -5.485228
v -0.000000 3.000000 -5.485228
vt 0.665456 0.055377
vt 0.665456 0.468797
vt 0.630738 0.468797
vt 0.630738 0.055377
vt 0.200371 0.468797
vt 0.200371 0.055377
vt 0.238093 0.055377
vt 0.238093 0.468797
vt 0.366679 0.055377
vt 0.366679 0.468797
vt 0.479847 0.055377
vt 0.479847 0.468797
vt 0.816347 0.055377
vt 0.816347 0.468797
vt 0.477425 0.934602
vt 0.477425 0.806016
vt 0.515148 0.806016
vt 0.515148 0.934602
vt 0.477425 0.692848
vt 0.596599 0.692848
vt 0.477425 0.541957
vt 0.512143 0.541957
vt 0.384963 0.934602
vt 0.384963 0.806016
vt 0.422686 0.806016
vt 0.422686 0.934602
vt 0.303512 0.692848
vt 0.422686 0.692848
vt 0.387968 0.541957
vt 0.422686 0.541957
vn 0.000000 0.000000 1.000000
vn 0.000000 0.000000 1.000000
vn 0.000000 0.000000 1.000000
vn 0.000000 0.000000 1.000000
vn 0.000000 1.000000 0.000000
vn -0.319282 0.947660 0.000000
vn -0.319282 0.947660 0.000000
vn 0.000000 1.000000 0.000000
vn 0.000000 0.000000 -1.000000
vn 0.000000 0.000000 -1.000000
vn 0.000000 0.000000 -1.000000
vn 0.000000 0.000000 -1.000000
vn 1.000000 0.000000 0.000000
vn 1.000000 0.000000 0.000000
vn 1.000000 0.000000 0.000000
vn 1.000000 0.000000 0.000000
vn -1.000000 0.000000 0.000000
vn -1.000000 0.000000 0.000000
vn -1.000000 0.000000 0.000000
vn -1.000000 0.000000 0.000000
vn 0.000000 0.000000 1.000000
vn 0.000000 0.000000 1.000000
vn 0.011379 0.999935 -0.000000
vn 0.011379 0.999935 -0.000000
vn -0.000000 0.000000 -1.000000
vn -0.000000 0.000000 -1.000000
vn 0.000000 0.000000 1.000000
vn 0.000000 0.000000 1.000000
vn 0.488414 0.872612 -0.000000
vn 0.488414 0.872612 -0.000000
vn -0.000000 0.000000 -1.000000
vn -0.000000 0.000000 -1.000000
vn 0.000000 -1.000000 0.000000
vn 0.000000 -1.000000 0.000000
vn 0.000000 -1.000000 0.000000
vn 0.000000 -1.000000 0.000000
s 1
g Top
usemtl initialShadingGroup
f 61/75/109 69/76/110 70/77/111 63/78/112
s 2
f 63/67/113 70/69/114 71/70/115 65/68/116
s 3
f 65/83/117 71/84/118 72/85/119 67/86/120
s off
f 62/61/121 68/62/122 66/63/123 64/64/124
f 67/65/125 61/66/126 63/67/127 65/68/128
s 1
f 70/77/111 69/76/110 73/79/129 74/80/130
s 2
f 71/70/115 70/69/114 74/71/131 75/72/132
s 3
f 72/85/119 71/84/118 75/87/133 76/88/134
s 1
f 74/80/130 73/79/129 62/81/135 64/82/136
s 2
f 75/72/132 74/71/131 64/64/137 66/63/138
s 3
f 76/88/134 75/87/133 66/89/139 68/90/140
s off
f 73/73/141 76/74/142 68/62/143 62/61/144
g default
v -6.408701 -0.000000 -5.485228
v -6.408701 3.000000 -5.485228
v 3.000000 -0.000000 -5.485228
v 3.000000 3.000000 -5.485228
vt 0.968992 0.151717
vt 0.968992 0.450797
vt 0.031008 0.450797
vt 0.031008 0.151717
vn 0.000000 0.000000 -1.000000
vn 0.000000 0.000000 -1.000000
vn 0.000000 0.000000 -1.000000
vn 0.000000 0.000000 -1.000000
s off
g Wall_02
usemtl initialShadingGroup
f 77/91/145 78/92/146 80/93/147 79/94/148
g default
v 3.000000 3.000000 5.474189
v 3.000000 -0.000000 5.474189
v 4.000000 -0.000000 5.474189
v 4.000000 3.000000 5.474189
v 4.000000 -0.000000 5.374996
v 4.000000 3.000000 5.374996
v 3.563524 -0.000000 5.374996
v 3.563524 3.000000 5.374996
v 3.563524 0.000000 -5.386035
v 3.563524 3.000000 -5.386035
v 4.000000 -0.000000 -5.386034
v 4.000000 3.000000 -5.386034
v 4.000000 -0.000000 -5.485228
v 4.000000 3.000000 -5.485228
v 3.000000 -0.000000 -5.485228
v 3.000000 3.000000 -5.485228
vt 0.420040 0.363647
vt 0.420040 0.101107
vt 0.428721 0.101107
vt 0.428721 0.363647
vt 0.027249 0.696600
vt 0.027249 0.433010
vt 0.972751 0.433010
vt 0.972751 0.696600
vt 0.643234 0.101107
vt 0.643234 0.363647
vt 0.634554 0.363647
vt 0.634554 0.101107
vt 0.332527 0.101107
vt 0.332527 0.363647
vt 0.466918 0.101107
vt 0.466918 0.363647
vt 0.681432 0.363647
vt 0.681432 0.101107
vt 0.547041 0.363647
vt 0.547041 0.101107
vn 0.000000 0.000000 1.000000
vn 0.000000 0.000000 1.000000
vn 0.000000 0.000000 1.000000
vn 0.000000 0.000000 1.000000
vn 1.000000 0.000000 0.000000
vn 1.000000 0.000000 0.000000
vn 1.000000 0.000000 0.000000
vn 1.000000 0.000000 0.000000
vn 0.000000 0.000000 -1.000000
vn 0.000000 0.000000 -1.000000
vn 0.000000 0.000000 -1.000000
vn 0.000000 0.000000 -1.000000
vn 1.000000 0.000000 0.000000
vn 1.000000 0.000000 0.000000
vn 1.000000 0.000000 0.000000
vn 1.000000 0.000000 0.000000
vn -0.000001 0.000000 1.000000
vn -0.000001 0.000000 1.000000
vn -0.000001 0.000000 1.000000
vn -0.000001 0.000000 1.000000
vn 1.000000 0.000000 0.000000
vn 1.000000 0.000000 0.000000
vn 1.000000 0.000000 0.000000
vn 1.000000 0.000000 0.000000
vn 0.000000 0.000000 -1.000000
vn 0.000000 0.000000 -1.000000
vn 0.000000 0.000000 -1.000000
vn 0.000000 0.000000 -1.000000
s off
g Wall_win
usemtl initialShadingGroup
f 82/107/149 83/96/150 84/95/151 81/108/152
f 84/95/153 83/96/154 85/97/155 86/98/156
f 86/98/157 85/97/158 87/109/159 88/110/160
f 88/99/161 87/100/162 89/101/163 90/102/164
f 89/111/165 91/104/166 92/103/167 90/112/168
f 92/103/169 91/104/170 93/105/171 94/106/172
f 94/106/173 93/105/174 95/113/175 96/114/176
g default
v -1.129681 0.000000 6.000000
v 1.129681 0.000000 6.000000
v -1.129681 2.210177 6.000000
v 1.129681 2.210177 6.000000
v -1.129681 3.841663 6.000000
v 1.129681 3.540830 6.000000
v -2.000000 0.000000 6.000000
v -2.000000 2.210177 6.000000
v 2.000000 0.000000 6.000000
v 2.000000 2.210177 6.000000
v -2.000000 3.841663 6.000000
v 2.000000 4.206688 6.000000
v 0.000000 2.210177 6.000000
v 0.000000 5.000000 6.000000
v -1.129681 3.841663 5.474189
v -0.000000 5.000000 5.474189
v -2.000000 0.000000 5.474189
v -2.000000 2.210177 5.474189
v 2.000000 0.000000 5.474189
v 2.000000 2.210177 5.474189
v -2.000000 3.841663 5.474189
v 1.129681 3.540830 5.474189
v 2.000000 4.206688 5.474189
v 0.000000 2.210177 5.602572
v 0.000000 0.000000 5.602572
v 1.129681 0.000000 5.602572
v 1.129681 2.210177 5.602572
v -1.129681 0.000000 5.602572
v -1.129681 2.210177 5.602572
vt 0.194279 0.093999
vt 0.194279 0.436541
vt 0.112787 0.436541
vt 0.112787 0.093999
vt 0.194279 0.689396
vt 0.112787 0.689396
vt 0.814216 0.436541
vt 0.814216 0.093999
vt 0.895708 0.093999
vt 0.895709 0.436541
vt 0.814216 0.745969
vt 0.895709 0.745969
vt 0.679330 0.093999
vt 0.679330 0.436541
vt 0.655359 0.405590
vt 0.655359 0.093999
vt 0.329165 0.436541
vt 0.329165 0.093999
vt 0.353137 0.093999
vt 0.353137 0.405590
vt 0.504248 0.405590
vt 0.504247 0.093999
vt 0.504248 0.436541
vt 0.504248 0.868920
vt 0.329165 0.689396
vt 0.679330 0.642771
vt 0.245605 0.770888
vt 0.609508 0.950412
vt 0.814216 0.880855
vt 0.895709 0.880855
vt 0.784591 0.724264
vt 0.194279 0.824282
vt 0.112787 0.824282
vt 0.420688 0.950412
vn 0.000000 0.000000 1.000000
vn 0.000000 0.000000 1.000000
vn 0.000000 0.000000 1.000000
vn 0.000000 0.000000 1.000000
vn 0.000000 0.000000 1.000000
vn 0.000000 0.000000 1.000000
vn 0.000000 0.000000 1.000000
vn 0.000000 0.000000 1.000000
vn 0.000000 0.000000 1.000000
vn 0.000000 0.000000 1.000000
vn 0.000000 0.000000 1.000000
vn 0.000000 0.000000 1.000000
vn 0.000000 0.000000 1.000000
vn 0.000000 0.000000 1.000000
vn 0.000000 0.000000 1.000000
vn 0.000000 0.000000 1.000000
vn 0.000000 0.000000 1.000000
vn 0.000000 0.000000 1.000000
vn 0.000000 0.000000 1.000000
vn 0.000000 0.000000 1.000000
vn 0.000000 0.000000 1.000000
vn 0.000000 0.000000 1.000000
vn 0.000000 0.000000 1.000000
vn 0.000000 0.000000 1.000000
vn 0.000000 0.000000 1.000000
vn 0.000000 0.000000 1.000000
vn 0.000000 0.000000 1.000000
vn 0.000000 0.000000 1.000000
vn -0.501180 0.865343 0.000000
vn -0.715907 0.698196 0.000000
vn -0.715907 0.698196 0.000000
vn -0.501180 0.865343 0.000000
vn -1.000000 0.000000 -0.000000
vn -1.000000 0.000000 -0.000000
vn -1.000000 0.000000 -0.000000
vn -1.000000 0.000000 -0.000000
vn 1.000000 0.000000 0.000000
vn 1.000000 0.000000 0.000000
vn 1.000000 0.000000 0.000000
vn 1.000000 0.000000 0.000000
vn 0.000000 1.000000 0.000000
vn 0.000000 1.000000 0.000000
vn -1.000000 0.000000 -0.000000
vn -1.000000 0.000000 -0.000000
vn -0.607634 0.794217 0.000000
vn -0.607634 0.794217 0.000000
vn -0.607634 0.794217 0.000000
vn -0.607634 0.794217 0.000000
vn 1.000000 0.000000 0.000000
vn 1.000000 0.000000 0.000000
vn 0.790724 0.612173 0.000000
vn 0.790724 0.612173 0.000000
vn 0.790724 0.612173 0.000000
vn 0.790724 0.612173 0.000000
vn -1.000000 0.000000 0.000000
vn -1.000000 0.000000 0.000000
vn -1.000000 0.000000 0.000000
vn -1.000000 0.000000 0.000000
vn 0.000000 -1.000000 0.000000
vn 0.000000 -1.000000 0.000000
vn 0.000000 -1.000000 0.000000
vn 0.000000 -1.000000 0.000000
vn 0.000000 -1.000000 0.000000
vn 0.000000 -1.000000 0.000000
vn 0.000000 -1.000000 0.000000
vn 0.000000 -1.000000 0.000000
vn 1.000000 0.000000 0.000000
vn 1.000000 0.000000 0.000000
vn 1.000000 0.000000 0.000000
vn 1.000000 0.000000 0.000000
s 1
g Door
usemtl initialShadingGroup
f 120/135/177 121/136/178 122/130/179 123/129/180
s 2
f 99/131/181 109/137/182 110/138/183 101/139/184
s off
f 97/132/185 99/131/186 104/116/187 103/115/188
f 100/128/189 98/127/190 105/122/191 106/121/192
f 99/131/193 101/139/194 107/119/195 104/116/196
f 102/140/197 100/128/198 106/121/199 108/125/200
s 2
f 110/138/183 109/137/182 100/128/201 102/140/202
s 1
f 124/133/203 121/136/178 120/135/177 125/134/204
s 3
f 101/139/205 110/138/206 112/148/207 111/141/208
s 4
f 103/115/209 104/116/210 114/117/211 113/118/212
s 5
f 106/121/213 105/122/214 115/123/215 116/124/216
s 3
f 107/119/217 101/146/205 111/147/208 117/120/218
s 4
f 104/116/210 107/119/219 117/120/220 114/117/211
s off
f 102/143/221 108/125/222 119/126/223 118/144/224
s 5
f 108/125/225 106/121/213 116/124/216 119/126/226
s off
f 110/138/227 102/140/228 118/145/229 112/142/230
f 98/127/231 100/128/232 123/129/233 122/130/234
f 100/128/235 109/137/236 120/135/237 123/129/238
f 109/137/239 99/131/240 125/134/241 120/135/242
f 99/131/243 97/132/244 124/133/245 125/134/246
g default
v -6.408701 -0.000000 5.474189
v -6.408701 3.000000 5.474189
v -6.408701 -0.000000 -5.485228
v -6.408701 3.000000 -5.485228
vt 0.968992 0.501904
vt 0.968992 0.758665
vt 0.031008 0.758665
vt 0.031008 0.501904
vn -1.000000 0.000000 0.000000
vn -1.000000 0.000000 0.000000
vn -1.000000 0.000000 0.000000
vn -1.000000 0.000000 0.000000
s off
g Wall_01
usemtl initialShadingGroup
f 126/149/247 127/150/248 129/151/249 128/152/250
