# This file uses centimeters as units for non-parametric coordinates.

mtllib roof02.mtl
g default
v -12.857802 4.000758 3.764194
v -4.286800 4.000758 3.764194
v -12.857802 7.000758 3.764194
v -4.286800 7.000758 3.764194
v -12.857802 7.000758 0.011329
v -4.286800 7.000758 0.011329
v -12.857802 4.000758 0.011329
v -4.286800 4.000758 0.011329
vt 0.897793 0.537127
vt 0.897793 0.742036
vt 0.733991 0.742036
vt 0.733991 0.537127
vt 0.102207 0.742036
vt 0.102207 0.537127
vt 0.266009 0.537127
vt 0.266009 0.742036
vt 0.266009 0.168416
vt 0.733991 0.168416
vt 0.733991 0.373325
vt 0.266009 0.373325
vn 0.000000 0.000000 1.000000
vn 0.000000 0.000000 1.000000
vn 0.000000 0.000000 1.000000
vn 0.000000 0.000000 1.000000
vn 0.000000 1.000000 0.000000
vn 0.000000 1.000000 0.000000
vn 0.000000 1.000000 0.000000
vn 0.000000 1.000000 0.000000
vn 0.000000 -1.000000 0.000000
vn 0.000000 -1.000000 0.000000
vn 0.000000 -1.000000 0.000000
vn 0.000000 -1.000000 0.000000
vn 1.000000 0.000000 0.000000
vn 1.000000 0.000000 0.000000
vn 1.000000 0.000000 0.000000
vn 1.000000 0.000000 0.000000
vn -1.000000 0.000000 0.000000
vn -1.000000 0.000000 0.000000
vn -1.000000 0.000000 0.000000
vn -1.000000 0.000000 0.000000
s off
g pCube8
usemtl initialShadingGroup
f 1/12/1 2/11/2 4/4/3 3/7/4
f 3/7/5 4/4/6 6/3/7 5/8/8
f 7/9/9 8/10/10 2/11/11 1/12/12
f 2/1/13 8/2/14 6/3/15 4/4/16
f 7/5/17 1/6/18 3/7/19 5/8/20
