# This file uses centimeters as units for non-parametric coordinates.

mtllib Shop signs_F4.mtl
g default
v -12.857802 18.902744 0.584650
v 12.850811 18.902744 0.584650
v -12.857802 22.000000 0.584650
v 12.850811 22.000000 0.584650
v -12.857802 18.902744 0.000000
v 12.850811 18.902744 0.000000
v 12.850811 22.000000 -0.000000
v -12.857802 22.000000 -0.000000
vt 0.951586 0.547142
vt 0.951586 0.438332
vt 0.972125 0.438332
vt 0.972125 0.547142
vt 0.048414 0.438332
vt 0.048414 0.547142
vt 0.027875 0.547142
vt 0.027875 0.438332
vt 0.048414 0.417793
vt 0.951586 0.417793
vt 0.951586 0.567682
vt 0.048414 0.567681
vn 0.000000 0.000000 1.000000
vn 0.000000 0.000000 1.000000
vn 0.000000 0.000000 1.000000
vn 0.000000 0.000000 1.000000
vn 0.000000 -1.000000 0.000000
vn 0.000000 -1.000000 0.000000
vn 0.000000 -1.000000 0.000000
vn 0.000000 -1.000000 0.000000
vn 1.000000 0.000000 0.000000
vn 1.000000 0.000000 0.000000
vn 1.000000 0.000000 0.000000
vn 1.000000 0.000000 0.000000
vn -1.000000 0.000000 0.000000
vn -1.000000 0.000000 0.000000
vn -1.000000 0.000000 0.000000
vn -1.000000 0.000000 0.000000
vn 0.000000 1.000000 0.000000
vn 0.000000 1.000000 0.000000
vn 0.000000 1.000000 0.000000
vn 0.000000 1.000000 0.000000
s off
g pPlane37
usemtl initialShadingGroup
f 4/1/1 3/6/2 1/5/3 2/2/4
f 2/2/5 1/5/6 5/9/7 6/10/8
f 4/1/9 2/2/10 6/3/11 7/4/12
f 1/5/13 3/6/14 8/7/15 5/8/16
f 3/6/17 4/1/18 7/11/19 8/12/20
