# This file uses centimeters as units for non-parametric coordinates.

mtllib Tall_building_07.mtl
g default
v 1.208478 0.746489 0.000000
v 3.625433 0.746489 0.000000
v 1.208478 3.380982 0.000000
v 3.625433 3.380982 0.000000
v 1.208478 2.590634 0.000000
v 3.625433 2.590634 0.000000
v 2.416955 0.746489 0.000000
v 2.416955 2.590634 0.000000
v 2.416955 3.380982 0.000000
v 1.589229 0.746489 0.000000
v 1.589229 2.590634 0.000000
v 1.589229 3.380982 0.000000
v 3.244682 0.746489 0.000000
v 3.244682 2.590634 0.000000
v 3.244682 3.380982 0.000000
v 2.416955 2.590634 -0.141846
v 2.416955 0.746489 -0.141846
v 3.244682 0.746489 -0.141846
v 3.244682 2.590634 -0.141846
v 1.589229 0.746489 -0.141846
v 1.589229 2.590634 -0.141846
vt 0.842513 0.078651
vt 0.842513 0.343356
vt 0.833247 0.330799
vt 0.833247 0.089867
vt 0.607701 0.343356
vt 0.607701 0.078651
vt 0.616967 0.089867
vt 0.616967 0.330799
vt 0.553695 0.343356
vt 0.607701 0.455014
vt 0.553695 0.455014
vt 0.553695 0.078651
vt 0.725107 0.343356
vt 0.725107 0.455014
vt 0.842513 0.455014
vt 0.896520 0.343356
vt 0.896520 0.455014
vt 0.896520 0.078651
vt 0.725107 0.330799
vt 0.725107 0.089867
vt 0.725107 0.078651
vn 0.000000 0.000000 1.000000
vn 0.000000 0.000000 1.000000
vn 0.000000 0.000000 1.000000
vn 0.000000 0.000000 1.000000
vn 0.000000 0.000000 1.000000
vn 0.000000 0.000000 1.000000
vn 0.000000 0.000000 1.000000
vn 0.000000 0.000000 1.000000
vn 0.000000 0.000000 1.000000
vn 0.000000 0.000000 1.000000
vn 0.000000 0.000000 1.000000
vn 0.000000 0.000000 1.000000
vn 0.000000 0.000000 1.000000
vn 0.000000 0.000000 1.000000
vn 0.000000 0.000000 1.000000
vn 0.000000 0.000000 1.000000
vn 0.000000 0.000000 1.000000
vn 0.000000 0.000000 1.000000
vn 0.000000 0.000000 1.000000
vn 0.000000 0.000000 1.000000
vn 0.000000 1.000000 0.000000
vn 0.000000 1.000000 0.000000
vn 0.000000 1.000000 0.000000
vn 0.000000 1.000000 0.000000
vn -1.000000 0.000000 0.000000
vn -1.000000 0.000000 0.000000
vn -1.000000 0.000000 0.000000
vn -1.000000 0.000000 0.000000
vn 0.000000 -1.000000 0.000000
vn 0.000000 -1.000000 0.000000
vn 0.000000 -1.000000 0.000000
vn 0.000000 -1.000000 0.000000
vn 1.000000 0.000000 0.000000
vn 1.000000 0.000000 0.000000
vn 1.000000 0.000000 0.000000
vn 1.000000 0.000000 0.000000
vn 0.000000 1.000000 0.000000
vn 0.000000 1.000000 0.000000
vn 0.000000 1.000000 0.000000
vn 0.000000 1.000000 0.000000
vn 0.000000 -1.000000 0.000000
vn 0.000000 -1.000000 0.000000
vn 0.000000 -1.000000 0.000000
vn 0.000000 -1.000000 0.000000
s 1
g Leaf
usemtl aiStandardSurface1SG
f 5/9/1 11/5/2 12/10/3 3/11/4
s 2
f 16/19/5 17/20/6 18/4/7 19/3/8
s 1
f 9/14/9 8/13/10 14/2/11 15/15/12
f 1/12/13 10/6/14 11/5/2 5/9/1
s 2
f 21/8/15 20/7/16 17/20/6 16/19/5
s 1
f 12/10/3 11/5/2 8/13/10 9/14/9
f 14/2/11 13/1/17 2/18/18 6/16/19
f 15/15/12 14/2/11 6/16/19 4/17/20
s off
f 7/21/21 13/1/22 18/4/23 17/20/24
f 13/1/25 14/2/26 19/3/27 18/4/28
f 14/2/29 8/13/30 16/19/31 19/3/32
f 11/5/33 10/6/34 20/7/35 21/8/36
f 10/6/37 7/21/38 17/20/39 20/7/40
f 8/13/41 11/5/42 21/8/43 16/19/44
g default
v -1.208478 0.746489 4.860033
v -1.208478 0.746489 0.000000
v -1.208478 3.380982 4.860033
v -1.208478 3.380982 0.000000
v -1.208478 2.590634 4.860033
v -1.208478 2.590634 0.000000
v -1.208478 0.746489 2.430017
v -1.208478 2.590634 2.430017
v -1.208478 3.380982 2.430017
v -1.208478 0.746489 4.255794
v -1.208478 2.590634 4.255794
v -1.208478 3.380982 4.255794
v -1.208478 0.746489 0.604239
v -1.208478 2.590634 0.604239
v -1.208478 3.380982 0.604239
vt 0.168342 0.802377
vt 0.260101 0.802378
vt 0.260101 0.922399
vt 0.168342 0.922399
vt 0.168342 0.522328
vt 0.260101 0.522328
vt 0.537362 0.802378
vt 0.537362 0.922399
vt 0.537362 0.522328
vt 0.814622 0.802378
vt 0.814622 0.922399
vt 0.814622 0.522328
vt 0.906381 0.802378
vt 0.906381 0.922399
vt 0.906381 0.522328
vn 1.000000 -0.000000 0.000000
vn 1.000000 -0.000000 0.000000
vn 1.000000 -0.000000 0.000000
vn 1.000000 -0.000000 0.000000
vn 1.000000 -0.000000 0.000000
vn 1.000000 -0.000000 0.000000
vn 1.000000 -0.000000 0.000000
vn 1.000000 -0.000000 0.000000
vn 1.000000 -0.000000 0.000000
vn 1.000000 -0.000000 0.000000
vn 1.000000 -0.000000 0.000000
vn 1.000000 -0.000000 0.000000
vn 1.000000 -0.000000 0.000000
vn 1.000000 -0.000000 0.000000
vn 1.000000 -0.000000 0.000000
s 1
g win_02
usemtl aiStandardSurface1SG
f 26/22/45 32/23/46 33/24/47 24/25/48
f 29/28/49 28/30/50 34/33/51 35/31/52
f 30/29/53 29/28/49 35/31/52 36/32/54
f 22/26/55 31/27/56 32/23/46 26/22/45
f 32/23/46 31/27/56 28/30/50 29/28/49
f 33/24/47 32/23/46 29/28/49 30/29/53
f 35/31/52 34/33/51 23/36/57 27/34/58
f 36/32/54 35/31/52 27/34/58 25/35/59
g default
v -1.208478 0.746489 0.000000
v 1.208478 0.746489 0.000000
v -1.208478 3.380982 0.000000
v 1.208478 3.380982 0.000000
v -1.208478 2.590634 0.000000
v 1.208478 2.590634 0.000000
v 0.000000 0.746489 0.000000
v 0.000000 2.590634 0.000000
v 0.000000 3.380982 0.000000
vt 0.258876 0.459636
vt 0.075143 0.459636
vt 0.075143 0.339474
vt 0.258876 0.339474
vt 0.075143 0.059097
vt 0.258876 0.059097
vt 0.442608 0.459636
vt 0.442608 0.339474
vt 0.442608 0.059097
vn 0.000000 0.000000 1.000000
vn 0.000000 0.000000 1.000000
vn 0.000000 0.000000 1.000000
vn 0.000000 0.000000 1.000000
vn 0.000000 0.000000 1.000000
vn 0.000000 0.000000 1.000000
vn 0.000000 0.000000 1.000000
vn 0.000000 0.000000 1.000000
vn 0.000000 0.000000 1.000000
s 1
g win_01
usemtl aiStandardSurface1SG
f 45/37/60 39/38/61 41/39/62 44/40/63
f 44/40/63 43/42/64 38/45/65 42/44/66
f 40/43/67 45/37/60 44/40/63 42/44/66
f 41/39/62 37/41/68 43/42/64 44/40/63
g default
v 3.625433 0.746489 0.000000
v 3.625433 0.746489 -2.416955
v 3.625433 3.380982 0.000000
v 3.625433 3.380982 -2.416955
vt 0.412685 0.138364
vt 0.412685 0.516696
vt 0.065594 0.516696
vt 0.065594 0.138364
vn 1.000000 -0.000000 0.000000
vn 1.000000 -0.000000 0.000000
vn 1.000000 -0.000000 0.000000
vn 1.000000 -0.000000 0.000000
s off
g wall_02
usemtl aiStandardSurface2SG
f 47/46/69 49/47/70 48/48/71 46/49/72
g default
v -3.625433 0.746489 4.860033
v -1.208478 0.746489 4.860033
v -3.625433 3.380982 4.860033
v -1.208478 3.380982 4.860033
vt 0.412685 0.138364
vt 0.412685 0.516696
vt 0.065594 0.516696
vt 0.065594 0.138364
vn 0.000000 0.000000 1.000000
vn 0.000000 0.000000 1.000000
vn 0.000000 0.000000 1.000000
vn 0.000000 0.000000 1.000000
s off
g wall_01
usemtl aiStandardSurface2SG
f 51/50/73 53/51/74 52/52/75 50/53/76
g default
v -3.625433 3.380982 4.860033
v 3.625433 3.380982 4.860033
v -3.625433 19.150383 4.860033
v 3.625433 19.150383 4.860033
v 3.625433 19.150383 -2.416955
v -3.625433 3.380982 -2.416955
v 3.625433 3.380982 -2.416955
v -3.625433 6.012475 4.860033
v 3.625433 6.012475 -2.416955
v 3.625433 6.012474 4.860033
v -3.625433 8.639274 4.860033
v 3.625433 8.639274 4.860033
v 3.625433 8.639274 -2.416955
v -3.625433 11.269064 4.860033
v 3.625433 11.269064 4.860033
v 3.625433 11.269064 -2.416955
v -3.625433 13.898800 4.860033
v 3.625433 13.898800 4.860033
v 3.625433 13.898800 -2.416955
v -3.625433 16.518893 4.860033
v 3.625433 16.518893 4.860033
v 3.625433 16.518893 -2.416955
v -1.191876 3.380982 -2.416955
v -1.191876 3.380982 4.860033
v -1.191875 6.012474 4.860033
v -1.191876 8.639273 4.860033
v -1.191876 11.269064 4.860033
v -1.191876 13.898800 4.860033
v -1.191876 16.518893 4.860033
v -1.191876 19.150383 4.860033
v 3.625433 19.150383 0.000002
v 3.625433 16.518893 0.000002
v 3.625433 13.898800 0.000002
v 3.625433 11.269064 0.000002
v 3.625433 8.639274 0.000002
v 3.625433 6.012475 0.000002
v 3.625433 3.380982 0.000002
v -1.191876 3.380982 0.000002
v -3.625433 3.380982 0.000002
vt 0.651843 0.444146
vt 0.651843 0.367098
vt 0.722610 0.367098
vt 0.722610 0.444146
vt 0.509544 0.367098
vt 0.509544 0.444146
vt 0.651843 0.521057
vt 0.722610 0.521057
vt 0.509544 0.521057
vt 0.651843 0.598056
vt 0.722610 0.598056
vt 0.509544 0.598056
vt 0.651843 0.675053
vt 0.722610 0.675053
vt 0.509544 0.675053
vt 0.651843 0.751768
vt 0.722610 0.751768
vt 0.509544 0.751768
vt 0.651843 0.828817
vt 0.722610 0.828817
vt 0.509544 0.828817
vt 0.722610 0.154796
vt 0.722610 0.226049
vt 0.651843 0.226049
vt 0.651843 0.154796
vt 0.722610 0.367098
vt 0.509544 0.226049
vt 0.509544 0.154796
vt 0.297243 0.367097
vt 0.368496 0.367097
vt 0.368496 0.444146
vt 0.297243 0.444146
vt 0.368496 0.521057
vt 0.297243 0.521057
vt 0.368496 0.598056
vt 0.297243 0.598056
vt 0.368496 0.675053
vt 0.297243 0.675053
vt 0.368496 0.751768
vt 0.297243 0.751768
vt 0.368496 0.828817
vt 0.297243 0.828817
vn 0.000000 0.000000 1.000000
vn 0.000000 0.000000 1.000000
vn 0.000000 0.000000 1.000000
vn 0.000000 0.000000 1.000000
vn 0.000000 -1.000000 0.000000
vn 0.000000 -1.000000 0.000000
vn 0.000000 -1.000000 0.000000
vn 0.000000 -1.000000 0.000000
vn 1.000000 0.000000 0.000000
vn 1.000000 0.000000 0.000000
vn 1.000000 0.000000 0.000000
vn 1.000000 0.000000 0.000000
vn 1.000000 -0.000000 -0.000000
vn 1.000000 -0.000000 -0.000000
vn 1.000000 -0.000000 0.000000
vn 1.000000 -0.000000 0.000000
vn 0.000000 0.000000 1.000000
vn 0.000000 0.000000 1.000000
vn 0.000000 0.000000 1.000000
vn 0.000000 0.000000 1.000000
vn -0.000000 0.000000 1.000000
vn 0.000000 0.000000 1.000000
vn 1.000000 0.000000 0.000000
vn 1.000000 0.000000 0.000000
vn 0.000000 0.000000 1.000000
vn -0.000000 0.000000 1.000000
vn 1.000000 0.000000 -0.000000
vn 1.000000 0.000000 0.000000
vn -0.000000 0.000000 1.000000
vn -0.000000 0.000000 1.000000
vn 1.000000 0.000000 -0.000000
vn 1.000000 0.000000 0.000000
vn 0.000000 -1.000000 0.000000
vn 0.000000 -1.000000 0.000000
vn -0.000000 0.000000 1.000000
vn -0.000000 0.000000 1.000000
vn -0.000000 0.000000 1.000000
vn 0.000000 0.000000 1.000000
vn 0.000000 0.000000 1.000000
vn 0.000000 0.000000 1.000000
vn 0.000000 0.000000 1.000000
vn 1.000000 -0.000000 -0.000000
vn 1.000000 -0.000000 -0.000000
vn 1.000000 0.000000 -0.000000
vn 1.000000 0.000000 -0.000000
vn 1.000000 0.000000 0.000000
vn 1.000000 0.000000 0.000000
vn 1.000000 0.000000 0.000000
vn 0.000000 -1.000000 0.000000
vn 0.000000 -1.000000 0.000000
vn 0.000000 -1.000000 0.000000
s 1
g F2
usemtl aiStandardSurface3SG
f 54/82/77 77/83/78 78/84/79 61/85/80
s 2
f 59/75/81 76/76/82 91/77/83 92/78/84
s 3
f 89/54/85 90/55/86 60/56/87 62/57/88
f 84/72/89 85/69/90 75/70/91 58/73/92
s 1
f 73/93/93 82/92/94 83/94/95 56/95/96
f 61/85/80 78/84/79 79/86/97 64/87/98
s 3
f 88/60/99 89/54/85 62/57/88 66/61/100
s 1
f 64/87/98 79/86/97 80/88/101 67/89/102
s 3
f 87/63/103 88/60/99 66/61/100 69/64/104
s 1
f 67/89/102 80/88/101 81/90/105 70/91/106
s 3
f 86/66/107 87/63/103 69/64/104 72/67/108
s 1
f 70/91/106 81/90/105 82/92/94 73/93/93
s 3
f 85/69/90 86/66/107 72/67/108 75/70/91
s 2
f 90/55/109 91/77/83 76/76/82 60/79/110
s 1
f 78/84/79 77/83/78 55/58/111 63/59/112
f 79/86/97 78/84/79 63/59/112 65/62/113
f 80/88/101 79/86/97 65/62/113 68/65/114
f 81/90/105 80/88/101 68/65/114 71/68/115
f 82/92/94 81/90/105 71/68/115 74/71/116
f 83/94/95 82/92/94 74/71/116 57/74/117
s 3
f 74/71/118 85/69/90 84/72/89 57/74/119
f 71/68/120 86/66/107 85/69/90 74/71/118
f 68/65/121 87/63/103 86/66/107 71/68/120
f 65/62/122 88/60/99 87/63/103 68/65/121
f 63/59/123 89/54/85 88/60/99 65/62/122
f 55/58/124 90/55/86 89/54/85 63/59/123
s 2
f 77/80/125 91/77/83 90/55/109 55/58/126
f 92/78/84 91/77/83 77/80/125 54/81/127
g default
v 3.625433 0.746489 -2.416955
v -3.625433 0.746489 -2.416955
v 3.625433 19.150385 -2.416955
v -3.625433 19.150385 -2.416955
v -3.625433 0.746489 4.860033
v -3.625433 19.150385 4.860033
vt 0.741594 0.120844
vt 0.741594 0.642823
vt 0.535201 0.642823
vt 0.535201 0.120844
vt 0.947246 0.120844
vt 0.947246 0.642823
vn 0.000000 0.000000 -1.000000
vn 0.000000 0.000000 -1.000000
vn 0.000000 0.000000 -1.000000
vn 0.000000 0.000000 -1.000000
vn -1.000000 0.000000 -0.000000
vn -1.000000 0.000000 -0.000000
vn -1.000000 0.000000 -0.000000
vn -1.000000 0.000000 -0.000000
s off
g wall_03
usemtl aiStandardSurface2SG
f 94/97/128 96/96/129 95/100/130 93/101/131
f 96/96/132 94/97/133 97/98/134 98/99/135
g default
v 2.468455 0.746489 4.615143
v 3.468455 0.746489 4.615143
v 2.468455 3.380982 4.615143
v 3.468455 3.380982 4.615143
v 2.468455 3.380982 3.615143
v 3.468455 3.380982 3.615143
v 2.468455 0.746489 3.615143
v 3.468455 0.746489 3.615143
vt 0.760948 0.768265
vt 0.823307 0.768265
vt 0.823307 0.932549
vt 0.760948 0.932549
vt 0.636231 0.768265
vt 0.698589 0.768265
vt 0.698589 0.932549
vt 0.636231 0.932549
vt 0.885665 0.932549
vt 0.885665 0.768265
vn 0.000000 0.000000 1.000000
vn 0.000000 0.000000 1.000000
vn 0.000000 0.000000 1.000000
vn 0.000000 0.000000 1.000000
vn 0.000000 0.000000 -1.000000
vn 0.000000 0.000000 -1.000000
vn 0.000000 0.000000 -1.000000
vn 0.000000 0.000000 -1.000000
vn 1.000000 0.000000 0.000000
vn 1.000000 0.000000 0.000000
vn 1.000000 0.000000 0.000000
vn 1.000000 0.000000 0.000000
vn -1.000000 0.000000 0.000000
vn -1.000000 0.000000 0.000000
vn -1.000000 0.000000 0.000000
vn -1.000000 0.000000 0.000000
s off
g Building_pillars
usemtl aiStandardSurface2SG
f 99/107/136 100/102/137 102/105/138 101/108/139
f 103/110/140 104/104/141 106/103/142 105/111/143
f 100/102/144 106/103/145 104/104/146 102/105/147
f 105/106/148 99/107/149 101/108/150 103/109/151
g default
v -3.625433 19.150383 4.860033
v 3.625433 19.150383 4.860033
v -3.625433 20.742423 4.860033
v 3.625433 20.742423 4.860033
v -3.625433 20.742423 -2.416955
v 3.625433 20.742423 -2.416955
v -3.625433 19.150383 -2.416955
v 3.625433 19.150383 -2.416955
v -3.625433 20.321829 4.860033
v -3.625433 20.321829 -2.416955
v 3.625433 20.321829 -2.416955
v 3.625433 20.321829 4.860033
v 4.105964 20.321829 -2.416955
v 4.105964 20.321829 5.342295
v 4.105964 20.742423 -2.416955
v 4.105964 20.742423 5.342295
v -3.625433 20.321829 5.342295
v -3.625433 20.742423 5.342295
vt 0.600710 0.390829
vt 0.601026 0.682370
vt 0.545118 0.682370
vt 0.545118 0.335070
vt 0.101565 0.663663
vt 0.101565 0.342609
vt 0.157887 0.342609
vt 0.157887 0.663663
vt 0.171804 0.342609
vt 0.171804 0.663663
vt 0.157887 0.312054
vt 0.171804 0.321332
vt 0.522184 0.312054
vt 0.522184 0.682370
vt 0.512906 0.663663
vt 0.512906 0.321332
vt 0.491705 0.342609
vt 0.491705 0.663663
vt 0.891170 0.335070
vt 0.891170 0.312054
vt 0.891170 0.390978
vt 0.171804 0.682370
vt 0.491705 0.682370
vt 0.491705 0.733903
vt 0.171804 0.733903
vn 0.000000 0.000000 1.000000
vn 0.000000 0.000000 1.000000
vn 0.000000 0.000000 1.000000
vn 0.000000 0.000000 1.000000
vn 0.000000 1.000000 0.000000
vn 0.000000 1.000000 0.000000
vn 0.000000 1.000000 0.000000
vn 0.000000 1.000000 0.000000
vn 0.000000 0.000000 -1.000000
vn 0.000000 0.000000 -1.000000
vn 0.000000 0.000000 -1.000000
vn 0.000000 0.000000 -1.000000
vn 1.000000 0.000000 0.000000
vn 1.000000 0.000000 0.000000
vn 1.000000 0.000000 0.000000
vn 1.000000 0.000000 0.000000
vn -1.000000 0.000000 0.000000
vn -1.000000 0.000000 0.000000
vn -1.000000 0.000000 0.000000
vn -1.000000 0.000000 0.000000
vn -1.000000 0.000000 0.000000
vn -1.000000 0.000000 0.000000
vn 0.000000 0.000000 -1.000000
vn 0.000000 0.000000 -1.000000
vn 1.000000 0.000000 0.000000
vn 1.000000 0.000000 0.000000
vn 1.000000 0.000000 0.000000
vn 1.000000 0.000000 0.000000
vn 0.000000 0.000000 1.000000
vn 0.000000 0.000000 1.000000
vn 0.000000 0.000000 1.000000
vn 0.000000 0.000000 1.000000
vn 0.000000 -1.000000 0.000000
vn 0.000000 -1.000000 0.000000
vn 0.000000 -1.000000 0.000000
vn 0.000000 -1.000000 0.000000
vn 0.000000 0.000000 -1.000000
vn 0.000000 0.000000 -1.000000
vn 0.000000 0.000000 -1.000000
vn 0.000000 0.000000 -1.000000
vn 0.000000 1.000000 0.000000
vn 0.000000 1.000000 0.000000
vn 0.000000 1.000000 0.000000
vn 0.000000 1.000000 0.000000
vn 0.000000 -1.000000 -0.000000
vn 0.000000 -1.000000 -0.000000
vn 0.000000 -1.000000 -0.000000
vn 0.000000 -1.000000 -0.000000
vn 0.000000 1.000000 0.000000
vn 0.000000 1.000000 0.000000
vn 0.000000 1.000000 0.000000
vn 0.000000 1.000000 0.000000
vn -1.000000 0.000000 0.000000
vn -1.000000 0.000000 0.000000
vn -1.000000 0.000000 0.000000
vn -1.000000 0.000000 0.000000
s off
g Top
usemtl aiStandardSurface4SG
f 107/132/152 108/112/153 118/115/154 115/130/155
f 109/120/156 110/128/157 112/129/158 111/121/159
s 1
f 116/133/160 117/134/161 114/135/162 113/136/163
s off
f 108/112/164 114/113/165 117/114/166 118/115/167
s 2
f 113/116/168 107/117/169 115/118/170 116/119/171
f 116/119/171 115/118/170 109/120/172 111/121/173
s 1
f 111/121/174 112/129/175 117/134/161 116/133/160
s off
f 120/124/176 119/125/177 121/126/178 122/127/179
f 123/122/180 120/124/181 122/127/182 124/123/183
f 118/115/184 117/114/185 119/125/186 120/124/187
f 117/134/188 112/129/189 121/126/190 119/125/191
f 112/129/192 110/128/193 122/127/194 121/126/195
f 115/130/196 118/115/197 120/124/198 123/131/199
f 110/128/200 109/120/201 124/123/202 122/127/203
f 109/120/204 115/118/205 123/122/206 124/123/207
g default
v -3.625433 -0.025147 4.860033
v -3.625433 0.746490 4.860033
v 3.625433 0.746490 4.860033
v -3.625433 0.746490 -2.416955
v 3.625433 0.746490 -2.416955
v -3.625433 -0.025147 -2.416955
v 3.625433 -0.025147 -2.416955
v -3.625433 0.300145 4.860033
v -3.625433 0.300145 -2.416955
v 3.625433 0.300145 -2.416955
v 3.625433 0.300145 4.860033
v -3.625433 -0.045820 5.322504
v 4.086244 -0.045820 5.322504
v 4.086244 0.320818 5.322504
v -3.625433 0.320818 5.322504
v 4.086244 -0.045820 -2.416955
v 4.086244 0.320818 -2.416955
vt 0.405220 0.587002
vt 0.405198 0.906415
vt 0.387315 0.906415
vt 0.387315 0.604493
vt 0.057191 0.906415
vt 0.057191 0.634304
vt 0.070128 0.634304
vt 0.070128 0.906415
vt 0.057191 0.617011
vt 0.070127 0.617010
vt 0.086432 0.634304
vt 0.086432 0.906415
vt 0.370084 0.621786
vt 0.370084 0.906415
vt 0.357566 0.906415
vt 0.357566 0.634304
vt 0.086432 0.621786
vt 0.086432 0.604493
vt 0.086432 0.586610
vt 0.086432 0.922719
vt 0.357566 0.922719
vt 0.357566 0.935656
vt 0.086432 0.935656
vt 0.374798 0.922719
vt 0.374798 0.935656
vn 0.000000 0.000000 1.000000
vn 0.000000 0.000000 1.000000
vn 0.000000 0.000000 1.000000
vn 0.000000 0.000000 1.000000
vn 0.000000 1.000000 0.000000
vn 0.000000 1.000000 0.000000
vn 0.000000 1.000000 0.000000
vn 0.000000 1.000000 0.000000
vn 0.000000 0.000000 -1.000000
vn 0.000000 0.000000 -1.000000
vn 0.000000 0.000000 -1.000000
vn 0.000000 0.000000 -1.000000
vn 1.000000 0.000000 0.000000
vn 1.000000 0.000000 0.000000
vn 1.000000 0.000000 0.000000
vn 1.000000 0.000000 0.000000
vn -1.000000 0.000000 0.000000
vn -1.000000 0.000000 0.000000
vn -1.000000 0.000000 0.000000
vn -1.000000 0.000000 0.000000
vn -1.000000 0.000000 0.000000
vn -1.000000 0.000000 0.000000
vn 0.000000 0.000000 -1.000000
vn 0.000000 0.000000 -1.000000
vn 1.000000 0.000000 0.000000
vn 1.000000 0.000000 0.000000
vn 1.000000 0.000000 0.000000
vn 1.000000 0.000000 0.000000
vn 0.000000 0.000000 1.000000
vn 0.000000 0.000000 1.000000
vn 0.000000 0.000000 1.000000
vn 0.000000 0.000000 1.000000
vn 0.000000 0.999002 -0.044657
vn 0.000000 0.999002 -0.044657
vn 0.000000 0.999002 -0.044657
vn 0.000000 0.999002 -0.044657
vn -1.000000 0.000000 0.000000
vn -1.000000 0.000000 0.000000
vn -1.000000 0.000000 0.000000
vn -1.000000 0.000000 0.000000
vn 0.000000 0.000000 -1.000000
vn 0.000000 0.000000 -1.000000
vn 0.000000 0.000000 -1.000000
vn 0.000000 0.000000 -1.000000
vn -0.044817 0.998995 0.000000
vn -0.044817 0.998995 0.000000
vn -0.044817 0.998995 0.000000
vn -0.044817 0.998995 0.000000
s off
g stairs
usemtl aiStandardSurface2SG
f 136/155/208 137/137/209 138/140/210 139/154/211
f 126/147/212 127/152/213 129/151/214 128/148/215
s 1
f 133/156/216 134/157/217 131/158/218 130/159/219
s off
f 137/137/220 140/138/221 141/139/222 138/140/223
s 2
f 130/141/224 125/142/225 132/143/226 133/144/227
f 133/144/227 132/143/226 126/147/228 128/148/229
s 1
f 128/148/230 129/151/231 134/157/217 133/156/216
s off
f 135/149/232 134/150/233 129/151/234 127/152/235
f 132/153/236 135/149/237 127/152/238 126/147/239
f 135/149/240 132/153/241 139/154/242 138/140/243
f 132/143/244 125/142/245 136/145/246 139/146/247
f 131/158/248 134/157/249 141/160/250 140/161/251
f 134/150/252 135/149/253 138/140/254 141/139/255
