# This file uses centimeters as units for non-parametric coordinates.

mtllib WTBV2.mtl
g default
v 12.850810 0.284553 -0.000000
v 12.850810 0.284553 -25.701619
v 12.850810 7.000670 -0.000000
v 12.850810 7.000670 -25.701619
vt 0.953542 0.693967
vt 0.046458 0.693967
vt 0.046458 0.456936
vt 0.953542 0.456936
vn 1.000000 0.000000 -0.000000
vn 1.000000 0.000000 -0.000000
vn 1.000000 0.000000 -0.000000
vn 1.000000 0.000000 -0.000000
s off
g pPlane35
usemtl initialShadingGroup
f 4/1/1 3/2/2 1/3/3 2/4/4
