# This file uses centimeters as units for non-parametric coordinates.

mtllib Light_p.mtl
g default
v 6.144610 0.000000 -0.111192
v 6.033418 0.000000 -0.157249
v 5.922225 0.000000 -0.111192
v 5.876169 0.000000 0.000000
v 5.922225 0.000000 0.111192
v 6.033418 0.000000 0.157249
v 6.144610 0.000000 0.111192
v 6.190667 0.000000 0.000000
v 6.462850 10.403666 -0.429432
v 6.033417 10.403666 -0.607306
v 5.603985 10.403666 -0.429432
v 5.426112 10.403666 0.000000
v 5.603985 10.403666 0.429432
v 6.033417 10.403666 0.607306
v 6.462850 10.403666 0.429432
v 6.640724 10.403666 0.000000
v 6.033417 10.403666 0.000000
v 6.144610 9.608416 -0.111192
v 6.190667 9.608416 0.000000
v 6.144610 9.608416 0.111192
v 6.033418 9.608416 0.157249
v 5.922225 9.608416 0.111192
v 5.876169 9.608416 0.000000
v 5.922225 9.608416 -0.111192
v 6.033418 9.608416 -0.157249
v 6.273072 9.608415 -0.239654
v 6.372338 9.608415 0.000000
v 6.466489 10.087755 -0.433071
v 6.645871 10.087755 0.000000
v 6.273072 9.608415 0.239654
v 6.466489 10.087755 0.433071
v 6.033417 9.608415 0.338921
v 6.033417 10.087755 0.612454
v 5.793763 9.608415 0.239654
v 5.600345 10.087755 0.433071
v 5.694497 9.608415 0.000000
v 5.420965 10.087755 0.000000
v 5.793763 9.608415 -0.239654
v 5.600345 10.087755 -0.433071
v 6.033417 9.608415 -0.338921
v 6.033417 10.087755 -0.612454
vt 0.031465 0.375346
vt 0.031465 0.364502
vt 0.968535 0.364502
vt 0.968535 0.375346
vt 0.031465 0.353658
vt 0.968535 0.353658
vt 0.031465 0.331970
vt 0.031465 0.321125
vt 0.968535 0.321125
vt 0.968535 0.331970
vt 0.031465 0.310281
vt 0.968535 0.310281
vt 0.730126 0.781631
vt 0.642503 0.771950
vt 0.643003 0.717388
vt 0.710762 0.734883
vt 0.656120 0.686726
vt 0.698000 0.704073
vt 0.753498 0.771950
vt 0.752998 0.717388
vt 0.739881 0.686726
vt 0.665876 0.508060
vt 0.753498 0.517741
vt 0.752997 0.572302
vt 0.685239 0.554808
vt 0.739881 0.602964
vt 0.698000 0.585617
vt 0.642503 0.517741
vt 0.643003 0.572302
vt 0.656120 0.602964
vt 0.638772 0.644845
vt 0.698000 0.644845
vt 0.757229 0.644845
vt 0.869003 0.600192
vt 0.873495 0.589348
vt 0.891213 0.589348
vt 0.881531 0.612720
vt 0.869003 0.578504
vt 0.881531 0.565975
vt 0.858159 0.604684
vt 0.858159 0.622401
vt 0.858159 0.574012
vt 0.858159 0.556294
vt 0.847315 0.600192
vt 0.834786 0.612720
vt 0.847315 0.578504
vt 0.834787 0.565975
vt 0.842823 0.589348
vt 0.825105 0.589347
vt 0.031465 0.397034
vt 0.031465 0.386190
vt 0.968535 0.386190
vt 0.968535 0.397034
vt 0.031465 0.342814
vt 0.968535 0.342814
vt 0.825105 0.700343
vt 0.770544 0.699843
vt 0.788038 0.632084
vt 0.770544 0.589848
vt 0.561214 0.676971
vt 0.570896 0.589348
vt 0.625457 0.589848
vt 0.607963 0.657607
vt 0.570896 0.700343
vt 0.625457 0.699843
vt 0.561215 0.612720
vt 0.607963 0.632084
vt 0.730125 0.508060
vt 0.710762 0.554808
vt 0.834787 0.676970
vt 0.788038 0.657607
vt 0.665875 0.781631
vt 0.685239 0.734883
vn 0.382679 0.000000 -0.923881
vn 0.382679 0.000000 -0.923881
vn 0.382679 0.000000 -0.923881
vn 0.382679 0.000000 -0.923881
vn -0.382679 0.000000 -0.923881
vn -0.382679 0.000000 -0.923881
vn -0.382679 0.000000 -0.923881
vn -0.382679 0.000000 -0.923881
vn -0.923882 0.000000 -0.382676
vn -0.923882 0.000000 -0.382676
vn -0.923882 0.000000 -0.382676
vn -0.923882 0.000000 -0.382676
vn -0.923883 0.000000 0.382676
vn -0.923883 0.000000 0.382676
vn -0.923883 0.000000 0.382676
vn -0.923883 0.000000 0.382676
vn -0.382679 0.000000 0.923881
vn -0.382679 0.000000 0.923881
vn -0.382679 0.000000 0.923881
vn -0.382679 0.000000 0.923881
vn 0.382679 0.000000 0.923881
vn 0.382679 0.000000 0.923881
vn 0.382679 0.000000 0.923881
vn 0.382679 0.000000 0.923881
vn 0.923881 0.000000 0.382680
vn 0.923881 0.000000 0.382680
vn 0.923881 0.000000 0.382680
vn 0.923881 0.000000 0.382680
vn 0.923881 0.000000 -0.382680
vn 0.923881 0.000000 -0.382680
vn 0.923881 0.000000 -0.382680
vn 0.923881 0.000000 -0.382680
vn 0.000000 1.000000 0.000000
vn 0.000000 1.000000 0.000000
vn 0.000000 1.000000 0.000000
vn 0.000000 1.000000 -0.000002
vn 0.000000 1.000000 0.000000
vn 0.000000 1.000000 0.000002
vn 0.000000 1.000000 0.000000
vn 0.000000 1.000000 0.000000
vn 0.000000 1.000000 0.000000
vn 0.817259 -0.466363 -0.338515
vn 0.817259 -0.466363 -0.338515
vn 0.817259 -0.466363 -0.338515
vn 0.817259 -0.466363 -0.338515
vn 0.817259 -0.466363 0.338515
vn 0.817259 -0.466363 0.338515
vn 0.817259 -0.466363 0.338515
vn 0.817259 -0.466363 0.338515
vn 0.338517 -0.466364 0.817258
vn 0.338517 -0.466364 0.817258
vn 0.338517 -0.466364 0.817258
vn 0.338517 -0.466364 0.817258
vn -0.338517 -0.466365 0.817258
vn -0.338517 -0.466365 0.817258
vn -0.338517 -0.466365 0.817258
vn -0.338517 -0.466365 0.817258
vn -0.817260 -0.466364 0.338512
vn -0.817260 -0.466364 0.338512
vn -0.817260 -0.466364 0.338512
vn -0.817260 -0.466364 0.338512
vn -0.817260 -0.466364 -0.338512
vn -0.817260 -0.466364 -0.338512
vn -0.817260 -0.466364 -0.338512
vn -0.817260 -0.466364 -0.338512
vn -0.338517 -0.466365 -0.817258
vn -0.338517 -0.466365 -0.817258
vn -0.338517 -0.466365 -0.817258
vn -0.338517 -0.466365 -0.817258
vn 0.338517 -0.466364 -0.817258
vn 0.338517 -0.466364 -0.817258
vn 0.338517 -0.466364 -0.817258
vn 0.338517 -0.466364 -0.817258
vn -0.000005 -1.000000 0.000004
vn -0.000005 -1.000000 0.000004
vn -0.000005 -1.000000 0.000004
vn -0.000005 -1.000000 0.000004
vn 0.923776 0.015050 -0.382637
vn 0.923776 0.015050 -0.382637
vn 0.923776 0.015050 -0.382637
vn 0.923776 0.015050 -0.382637
vn -0.000005 -1.000000 0.000000
vn -0.000005 -1.000000 0.000000
vn -0.000005 -1.000000 0.000000
vn -0.000005 -1.000000 0.000000
vn 0.923776 0.015050 0.382637
vn 0.923776 0.015050 0.382637
vn 0.923776 0.015050 0.382637
vn 0.923776 0.015050 0.382637
vn -0.000002 -1.000000 -0.000008
vn -0.000002 -1.000000 -0.000008
vn -0.000002 -1.000000 -0.000008
vn -0.000002 -1.000000 -0.000008
vn 0.382637 0.015051 0.923776
vn 0.382637 0.015051 0.923776
vn 0.382637 0.015051 0.923776
vn 0.382637 0.015051 0.923776
vn 0.000002 -1.000000 -0.000004
vn 0.000002 -1.000000 -0.000004
vn 0.000002 -1.000000 -0.000004
vn 0.000002 -1.000000 -0.000004
vn -0.382638 0.015051 0.923776
vn -0.382638 0.015051 0.923776
vn -0.382638 0.015051 0.923776
vn -0.382638 0.015051 0.923776
vn 0.000005 -1.000000 -0.000004
vn 0.000005 -1.000000 -0.000004
vn 0.000005 -1.000000 -0.000004
vn 0.000005 -1.000000 -0.000004
vn -0.923778 0.015050 0.382633
vn -0.923778 0.015050 0.382633
vn -0.923778 0.015050 0.382633
vn -0.923778 0.015050 0.382633
vn 0.000005 -1.000000 0.000004
vn 0.000005 -1.000000 0.000004
vn 0.000005 -1.000000 0.000004
vn 0.000005 -1.000000 0.000004
vn -0.923778 0.015050 -0.382633
vn -0.923778 0.015050 -0.382633
vn -0.923778 0.015050 -0.382633
vn -0.923778 0.015050 -0.382633
vn 0.000002 -1.000000 -0.000001
vn 0.000002 -1.000000 -0.000001
vn 0.000002 -1.000000 -0.000001
vn 0.000002 -1.000000 -0.000001
vn -0.382637 0.015051 -0.923776
vn -0.382637 0.015051 -0.923776
vn -0.382637 0.015051 -0.923776
vn -0.382637 0.015051 -0.923776
vn -0.000002 -1.000000 0.000007
vn -0.000002 -1.000000 0.000007
vn -0.000002 -1.000000 0.000007
vn -0.000002 -1.000000 0.000007
vn 0.382636 0.015051 -0.923777
vn 0.382636 0.015051 -0.923777
vn 0.382636 0.015051 -0.923777
vn 0.382636 0.015051 -0.923777
s off
g Light_p
usemtl initialShadingGroup
f 1/50/1 2/51/2 25/52/3 18/53/4
f 2/51/5 3/1/6 24/4/7 25/52/8
f 3/1/9 4/2/10 23/3/11 24/4/12
f 4/2/13 5/5/14 22/6/15 23/3/16
f 5/5/17 6/54/18 21/55/19 22/6/20
f 6/54/21 7/7/22 20/10/23 21/55/24
f 7/7/25 8/8/26 19/9/27 20/10/28
f 8/8/29 1/11/30 18/12/31 19/9/32
s 1
f 9/17/33 10/31/34 17/32/35
f 10/31/34 11/30/36 17/32/35
f 11/30/36 12/27/37 17/32/35
f 12/27/37 13/26/38 17/32/35
f 13/26/38 14/33/39 17/32/35
f 14/33/39 15/21/40 17/32/35
f 15/21/40 16/18/41 17/32/35
f 16/18/41 9/17/33 17/32/35
s off
f 27/72/42 26/14/43 28/15/44 29/73/45
f 30/19/46 27/13/47 29/16/48 31/20/49
f 32/70/50 30/56/51 31/57/52 33/71/53
f 34/49/54 32/45/55 33/58/56 35/59/57
f 36/68/58 34/23/59 35/24/60 37/69/61
f 38/28/62 36/22/63 37/25/64 39/29/65
f 40/66/66 38/61/67 39/62/68 41/67/69
f 26/64/70 40/60/71 41/63/72 28/65/73
f 19/34/74 18/35/75 26/36/76 27/37/77
f 9/17/78 16/18/79 29/73/80 28/15/81
f 20/40/82 19/34/83 27/37/84 30/41/85
f 16/18/86 15/21/87 31/20/88 29/16/89
f 21/44/90 20/40/91 30/41/92 32/45/93
f 15/21/94 14/33/95 33/71/96 31/57/97
f 22/48/98 21/44/99 32/45/100 34/49/101
f 14/33/102 13/26/103 35/59/104 33/58/105
f 23/46/106 22/48/107 34/49/108 36/47/109
f 13/26/110 12/27/111 37/69/112 35/24/113
f 24/42/114 23/46/115 36/47/116 38/43/117
f 12/27/118 11/30/119 39/29/120 37/25/121
f 25/38/122 24/42/123 38/43/124 40/39/125
f 11/30/126 10/31/127 41/67/128 39/62/129
f 18/35/130 25/38/131 40/39/132 26/36/133
f 10/31/134 9/17/135 28/65/136 41/63/137
