# This file uses centimeters as units for non-parametric coordinates.

mtllib pond.mtl
g default
v -11.500000 0.206902 12.484828
v -7.732187 0.206902 12.484828
v -2.208072 0.206902 12.484828
v 2.208072 0.206902 12.484828
v 7.509804 0.206902 12.484828
v 11.500000 0.206902 12.484828
v -11.500000 0.206902 8.625000
v -7.732188 0.206902 8.625000
v -2.208072 0.206902 10.950063
v 2.208072 0.206902 10.950063
v 7.509804 0.206902 8.625000
v 11.500000 0.206902 8.625000
v -11.500000 0.206902 6.060331
v -8.265761 0.206905 6.060331
v 8.154772 0.206905 6.060331
v 11.500000 0.206902 6.060331
v -11.500000 0.206902 3.185336
v -9.396964 0.206905 3.185336
v 9.285975 0.206905 3.185336
v 11.500000 0.206902 3.185336
v -11.500000 0.206902 0.000000
v -9.396964 0.206905 0.000000
v 9.285975 0.206905 0.000000
v 11.500000 0.206902 0.000000
v -11.500000 0.206902 -2.875000
v -9.225515 0.206905 -2.875000
v 7.613474 0.206905 -2.875000
v 11.500000 0.206902 -2.875000
v -11.500000 0.206902 -6.341940
v -9.378169 0.206905 -7.165851
v 9.267180 0.206905 -7.165851
v 11.500000 0.206902 -6.341940
v -11.500000 0.206902 -8.759295
v -6.862408 0.206902 -9.583206
v -2.208072 0.206902 -10.077477
v 2.208072 0.206902 -10.077477
v 6.862408 0.206902 -9.583206
v 11.500000 0.206902 -8.759295
v -11.500000 0.206902 -11.500000
v -5.750000 0.206902 -11.500000
v -2.208072 0.206902 -11.500000
v 2.208072 0.206902 -11.500000
v 5.750000 0.206902 -11.500000
v 11.500000 0.206902 -11.500000
v -7.732188 -6.875286 8.624994
v -2.208072 -7.524824 10.950061
v -2.208072 -7.175117 6.060330
v -8.265768 -6.525579 6.060330
v 2.208072 -7.524824 10.950061
v 2.208071 -7.175117 6.060330
v 7.509805 -6.875286 8.624994
v 8.154778 -6.525579 6.060330
v -2.208072 -7.550914 3.185336
v -9.396970 -6.525579 3.185336
v 2.208072 -7.550914 3.185336
v 9.285981 -6.525579 3.185336
v -2.208072 -7.755142 -0.000000
v -9.396970 -6.729806 0.000000
v 2.208072 -7.755142 -0.000000
v 9.285981 -6.729806 0.000000
v -2.208072 -6.054047 -2.874997
v -9.225522 -6.729806 -2.874997
v 2.208072 -6.054047 -2.874997
v 7.613480 -6.729806 -2.874997
v -2.208071 -6.199527 -6.341941
v -9.378167 -6.875286 -7.165851
v 2.208071 -6.199527 -6.341941
v 9.267178 -6.875286 -7.165851
v -2.208071 -6.875286 -10.077469
v -6.862405 -6.875286 -9.583206
v 2.208071 -6.875286 -10.077469
v 6.862405 -6.875286 -9.583206
vt 0.293561 0.279195
vt 0.299924 0.193985
vt 0.365817 0.267401
vt 0.387364 0.282933
vt 0.277436 0.359841
vt 0.371401 0.363959
vt 0.276961 0.449190
vt 0.374121 0.453642
vt 0.278913 0.529834
vt 0.376359 0.534544
vt 0.276155 0.650196
vt 0.376052 0.655350
vt 0.319901 0.720126
vt 0.386810 0.657670
vt 0.753464 0.192799
vt 0.760933 0.278346
vt 0.664545 0.279030
vt 0.685848 0.264200
vt 0.776414 0.359381
vt 0.680404 0.360232
vt 0.776175 0.449161
vt 0.677542 0.450301
vt 0.752749 0.530195
vt 0.654228 0.531766
vt 0.775375 0.651137
vt 0.675333 0.652950
vt 0.734998 0.720971
vt 0.668303 0.656596
vt 0.210650 0.209875
vt 0.210650 0.102749
vt 0.315221 0.102749
vt 0.468538 0.102749
vt 0.465979 0.156183
vt 0.210650 0.281054
vt 0.591104 0.102749
vt 0.593750 0.156014
vt 0.210650 0.360848
vt 0.738248 0.102749
vt 0.210650 0.449253
vt 0.848991 0.102749
vt 0.848991 0.209875
vt 0.210650 0.529045
vt 0.848991 0.281054
vt 0.210650 0.625267
vt 0.848991 0.360848
vt 0.210650 0.692358
vt 0.848991 0.449253
vt 0.370235 0.768423
vt 0.210650 0.768423
vt 0.848991 0.529045
vt 0.468365 0.726657
vt 0.468538 0.768423
vt 0.848991 0.625267
vt 0.591104 0.768423
vt 0.591276 0.726657
vt 0.848991 0.692358
vt 0.689406 0.768423
vt 0.848991 0.768423
vt 0.464773 0.274291
vt 0.466453 0.285384
vt 0.592964 0.273707
vt 0.589860 0.284553
vt 0.466995 0.365726
vt 0.590402 0.364895
vt 0.467594 0.454738
vt 0.591002 0.453907
vt 0.468135 0.535078
vt 0.591542 0.534247
vt 0.468787 0.631961
vt 0.592194 0.631130
vt 0.468842 0.631528
vt 0.592172 0.631112
vn -0.000000 1.000000 0.000000
vn 0.000000 1.000000 0.000000
vn 0.000000 1.000000 0.000000
vn -0.000000 1.000000 0.000000
vn 0.000000 1.000000 0.000000
vn 0.000000 1.000000 0.000000
vn 0.000000 1.000000 0.000000
vn 0.000000 1.000000 0.000000
vn 0.000000 1.000000 0.000000
vn 0.000000 1.000000 0.000000
vn 0.000000 1.000000 0.000000
vn 0.000000 1.000000 0.000000
vn -0.000001 1.000000 0.000001
vn -0.000001 1.000000 0.000001
vn 0.093917 0.991829 0.086337
vn 0.039875 0.996172 0.077784
vn 0.059366 0.998236 0.000164
vn 0.111826 0.993649 -0.012550
vn -0.040125 0.996229 0.076925
vn -0.060180 0.998187 -0.000834
vn -0.097031 0.991675 0.084649
vn -0.114708 0.993278 -0.015510
vn 0.000001 1.000000 0.000001
vn 0.000001 1.000000 0.000001
vn -0.000001 1.000000 0.000000
vn -0.000001 1.000000 0.000000
vn 0.081990 0.993168 -0.083030
vn 0.134703 0.988163 -0.073416
vn -0.082793 0.993087 -0.083208
vn -0.136844 0.987858 -0.073549
vn 0.000001 1.000000 0.000000
vn 0.000001 1.000000 0.000000
vn -0.000002 1.000000 -0.000000
vn -0.000002 1.000000 -0.000000
vn 0.053257 0.986290 0.156193
vn 0.087492 0.991026 0.101053
vn -0.055450 0.986453 0.154389
vn -0.103668 0.992630 0.062760
vn 0.000001 1.000000 -0.000000
vn 0.000001 1.000000 -0.000000
vn -0.000002 1.000000 -0.000000
vn -0.000002 1.000000 -0.000000
vn -0.027155 0.987630 0.154435
vn -0.042327 0.993433 0.106295
vn 0.029574 0.985351 0.167955
vn 0.046308 0.990816 0.127039
vn 0.000001 1.000000 0.000000
vn 0.000001 1.000000 -0.000000
vn -0.000001 1.000000 -0.000000
vn -0.000001 1.000000 -0.000001
vn -0.046502 0.995051 -0.087813
vn -0.081071 0.994678 -0.063584
vn 0.049101 0.995335 -0.083054
vn 0.086149 0.994497 -0.059618
vn 0.000001 1.000000 -0.000000
vn 0.000001 1.000000 -0.000000
vn -0.000000 1.000000 -0.000000
vn -0.000000 1.000000 -0.000000
vn -0.026944 0.987721 -0.153887
vn -0.052946 0.990049 -0.130383
vn 0.027080 0.987757 -0.153632
vn 0.053472 0.990118 -0.129641
vn 0.000000 1.000000 -0.000000
vn 0.000000 1.000000 -0.000000
vn 0.000000 1.000000 0.000000
vn 0.000000 1.000000 0.000000
vn 0.000000 1.000000 0.000000
vn 0.000000 1.000000 0.000000
vn 0.000000 1.000000 0.000000
vn 0.000000 1.000000 0.000000
vn 0.000000 1.000000 0.000000
vn 0.000000 1.000000 0.000000
vn 0.387932 0.000000 -0.921688
vn 0.223624 0.000000 -0.974676
vn 0.216708 0.000000 -0.976237
vn 0.387932 0.000000 -0.921688
vn 0.956538 -0.000001 -0.291609
vn 0.979036 -0.000000 -0.203688
vn 0.979036 -0.000000 -0.203688
vn 0.957535 -0.000001 -0.288316
vn -0.228383 0.000000 -0.973571
vn -0.220918 0.000000 -0.975292
vn -0.401624 0.000000 -0.915805
vn -0.401624 0.000000 -0.915805
vn -0.969803 -0.000000 -0.243889
vn -0.950862 -0.000001 -0.309615
vn -0.951658 -0.000001 -0.307161
vn -0.969803 -0.000000 -0.243889
vn 0.983283 -0.000001 -0.182085
vn 0.983965 -0.000001 -0.178363
vn -0.983283 -0.000001 -0.182085
vn -0.983965 -0.000001 -0.178363
vn 0.999594 -0.000001 0.028499
vn 0.999576 -0.000001 0.029118
vn -0.963431 -0.000001 0.267956
vn -0.961915 -0.000001 0.273349
vn 0.999997 -0.000000 0.002385
vn 0.999998 -0.000000 0.001899
vn -1.000000 -0.000001 0.000202
vn -0.999990 -0.000001 -0.004410
vn 0.942428 0.000000 0.334408
vn 0.940805 0.000000 0.338949
vn -0.993424 -0.000000 0.114494
vn -0.992669 -0.000000 0.120866
vn 0.054411 0.000001 0.998519
vn 0.105601 0.000001 0.994409
vn 0.105601 0.000001 0.994409
vn 0.054411 0.000001 0.998519
vn 0.692864 0.000000 0.721069
vn 0.692864 0.000000 0.721069
vn -0.054411 0.000001 0.998519
vn -0.054411 0.000001 0.998519
vn -0.708950 0.000000 0.705259
vn -0.708950 0.000000 0.705259
vn -0.105601 0.000001 0.994409
vn -0.105601 0.000001 0.994409
s 1
g pond_park
usemtl initialShadingGroup
f 7/29/1 1/30/2 2/31/3 8/2/4
f 2/31/3 3/32/5 9/33/6 8/2/4
f 9/33/6 3/32/5 4/35/7 10/36/8
f 4/35/7 5/38/9 11/15/10 10/36/8
f 11/15/10 5/38/9 6/40/11 12/41/12
f 13/34/13 7/29/1 8/2/4 14/1/14
s 2
f 45/3/15 46/59/16 47/60/17 48/4/18
f 47/60/17 46/59/16 49/61/19 50/62/20
f 49/61/19 51/18/21 52/17/22 50/62/20
s 1
f 15/16/23 11/15/10 12/41/12 16/43/24
f 17/37/25 13/34/13 14/1/14 18/5/26
s 2
f 48/4/18 47/60/17 53/63/27 54/6/28
f 53/63/27 47/60/17 50/62/20 55/64/29
f 50/62/20 52/17/22 56/20/30 55/64/29
s 1
f 19/19/31 15/16/23 16/43/24 20/45/32
f 21/39/33 17/37/25 18/5/26 22/7/34
s 2
f 54/6/28 53/63/27 57/65/35 58/8/36
f 57/65/35 53/63/27 55/64/29 59/66/37
f 55/64/29 56/20/30 60/22/38 59/66/37
s 1
f 23/21/39 19/19/31 20/45/32 24/47/40
f 25/42/41 21/39/33 22/7/34 26/9/42
s 2
f 58/8/36 57/65/35 61/67/43 62/10/44
f 61/67/43 57/65/35 59/66/37 63/68/45
f 59/66/37 60/22/38 64/24/46 63/68/45
s 1
f 27/23/47 23/21/39 24/47/40 28/50/48
f 29/44/49 25/42/41 26/9/42 30/11/50
s 2
f 62/10/44 61/67/43 65/69/51 66/12/52
f 65/69/51 61/67/43 63/68/45 67/70/53
f 63/68/45 64/24/46 68/26/54 67/70/53
s 1
f 31/25/55 27/23/47 28/50/48 32/53/56
f 33/46/57 29/44/49 30/11/50 34/13/58
s 2
f 66/12/52 65/69/51 69/71/59 70/14/60
f 69/71/59 65/69/51 67/70/53 71/72/61
f 67/70/53 68/26/54 72/28/62 71/72/61
s 1
f 37/27/63 31/25/55 32/53/56 38/56/64
f 40/48/65 39/49/66 33/46/57 34/13/58
f 34/13/58 35/51/67 41/52/68 40/48/65
f 42/54/69 41/52/68 35/51/67 36/55/70
f 36/55/70 37/27/63 43/57/71 42/54/69
f 44/58/72 43/57/71 37/27/63 38/56/64
s 3
f 8/2/73 9/33/74 46/59/75 45/3/76
s 4
f 14/1/77 8/2/78 45/3/79 48/4/80
s 3
f 46/59/75 9/33/74 10/36/81 49/61/82
f 10/36/81 11/15/83 51/18/84 49/61/82
s 5
f 11/15/85 15/16/86 52/17/87 51/18/88
s 4
f 18/5/89 14/1/77 48/4/80 54/6/90
s 5
f 15/16/86 19/19/91 56/20/92 52/17/87
s 4
f 22/7/93 18/5/89 54/6/90 58/8/94
s 5
f 19/19/91 23/21/95 60/22/96 56/20/92
s 4
f 26/9/97 22/7/93 58/8/94 62/10/98
s 5
f 23/21/95 27/23/99 64/24/100 60/22/96
s 4
f 30/11/101 26/9/97 62/10/98 66/12/102
s 5
f 27/23/99 31/25/103 68/26/104 64/24/100
s 6
f 35/51/105 34/13/106 70/14/107 69/71/108
s 4
f 34/13/109 30/11/101 66/12/102 70/14/110
s 6
f 69/71/108 71/72/111 36/55/112 35/51/105
s 5
f 31/25/103 37/27/113 72/28/114 68/26/104
s 6
f 37/27/115 36/55/112 71/72/111 72/28/116
