# This file uses centimeters as units for non-parametric coordinates.

mtllib pot.mtl
g default
v 3.931471 -0.000000 -7.537924
v -4.068529 -0.000000 -7.537924
v 3.931471 4.000000 -7.537924
v -4.068529 4.000000 -7.537924
v 3.931471 4.000000 -1.537924
v -4.068529 4.000000 -1.537924
v 3.931471 -0.000000 -1.537924
v -4.068529 -0.000000 -1.537924
v 5.860927 4.000000 -5.137924
v 5.860927 -0.000000 -5.137924
v -5.523382 -0.000000 -5.137924
v -5.523382 4.000000 -5.137924
v -0.068529 -0.000000 -8.966324
v -0.068529 4.000000 -8.966324
v -0.068529 4.000000 -1.537924
v -0.068529 -0.000000 -1.537924
v 3.593086 4.000000 -7.363577
v -0.101819 4.000000 -8.683029
v 5.478156 4.000000 -5.146635
v -0.101819 4.000000 -1.821219
v 3.593086 4.000000 -1.821219
v -3.796724 4.000000 -7.363577
v -5.140610 4.000000 -5.146635
v -3.796724 4.000000 -1.821219
v 3.593086 3.786849 -7.363577
v -0.101819 3.786849 -8.683029
v -0.101819 3.786849 -5.146635
v 5.478156 3.786849 -5.146635
v -0.101819 3.786849 -1.821219
v 3.593086 3.786849 -1.821219
v -3.796724 3.786849 -7.363577
v -5.140610 3.786849 -5.146635
v -3.796724 3.786849 -1.821219
vt 0.310994 0.546516
vt 0.377973 0.469814
vt 0.509045 0.546059
vt 0.509070 0.661686
vt 0.641056 0.663204
vt 0.687392 0.546236
vt 0.640095 0.469134
vt 0.509025 0.422122
vt 0.377085 0.662831
vt 0.216468 0.755105
vt 0.146194 0.623989
vt 0.291879 0.545907
vt 0.362153 0.677023
vt 0.216467 0.341374
vt 0.362152 0.458496
vt 0.706510 0.545907
vt 0.852195 0.457594
vt 0.799208 0.735898
vt 0.653523 0.677023
vt 0.799207 0.370183
vt 0.653523 0.458496
vt 0.374477 0.666705
vt 0.305820 0.545589
vt 0.374477 0.464846
vt 0.692569 0.545589
vt 0.643623 0.666705
vt 0.643623 0.464845
vt 0.507837 0.406471
vt 0.509050 0.416790
vt 0.507838 0.677023
vt 0.509050 0.666705
vt 0.310128 0.312811
vt 0.455813 0.260787
vt 0.705547 0.312810
vt 0.507838 0.822708
vt 0.362153 0.822708
vt 0.653523 0.822708
vt 0.146194 0.428785
vt 0.559861 0.260786
vt 0.852195 0.604782
vn 0.336301 0.000000 -0.941755
vn -0.000000 0.000000 -1.000000
vn -0.000000 0.000000 -1.000000
vn 0.336301 0.000000 -0.941755
vn -0.000000 1.000000 0.000000
vn -0.000000 1.000000 0.000000
vn -0.000000 1.000000 0.000000
vn -0.000000 1.000000 0.000000
vn 0.000000 0.000000 1.000000
vn 0.000000 0.000000 1.000000
vn 0.000000 0.000000 1.000000
vn 0.000000 0.000000 1.000000
vn -0.855149 0.000000 -0.518382
vn -1.000000 0.000000 0.000000
vn -1.000000 0.000000 0.000000
vn -0.855149 0.000000 -0.518382
vn 1.000000 0.000000 -0.000000
vn 1.000000 0.000000 -0.000000
vn 0.779369 0.000000 -0.626566
vn 0.779369 0.000000 -0.626566
vn 0.881390 0.000000 0.472390
vn 0.881390 0.000000 0.472390
vn -0.927152 0.000000 0.374686
vn -0.927152 0.000000 0.374686
vn -0.000000 1.000000 0.000000
vn -0.000000 1.000000 0.000000
vn -0.336301 0.000000 -0.941755
vn -0.336301 0.000000 -0.941755
vn -0.000000 1.000000 0.000000
vn -0.000000 1.000000 0.000000
vn -0.000000 1.000000 0.000000
vn 0.000000 0.000000 1.000000
vn 0.000000 0.000000 1.000000
vn -0.000000 1.000000 -0.000001
vn -0.000000 1.000000 -0.000001
vn -0.000000 1.000000 -0.000001
vn -0.000000 1.000000 -0.000001
vn -0.000000 1.000000 -0.000000
vn -0.000000 1.000000 -0.000000
vn -0.000000 1.000000 -0.000000
vn -0.000000 1.000000 -0.000000
vn 0.000000 1.000000 0.000001
vn 0.000000 1.000000 0.000001
vn 0.000000 1.000000 0.000001
vn 0.000000 1.000000 0.000001
vn 0.000000 1.000000 0.000000
vn 0.000000 1.000000 0.000000
vn 0.000000 1.000000 0.000000
vn 0.000000 1.000000 0.000000
vn -0.000000 1.000000 -0.000000
vn -0.000000 1.000000 -0.000000
vn -0.000000 1.000000 -0.000000
vn -0.000000 1.000000 -0.000000
vn -0.000000 1.000000 -0.000000
vn -0.000000 1.000000 -0.000000
vn -0.000000 1.000000 -0.000000
vn -0.000000 1.000000 -0.000000
vn 0.000000 1.000000 0.000000
vn 0.000000 1.000000 0.000000
vn 0.000000 1.000000 0.000000
vn 0.000000 1.000000 0.000000
vn -0.000000 1.000000 0.000000
vn -0.000000 1.000000 0.000000
vn -0.000000 1.000000 0.000000
vn -0.000000 1.000000 0.000000
vn -0.336301 0.000000 0.941755
vn -0.336301 0.000000 0.941755
vn -0.336301 0.000000 0.941755
vn -0.336301 0.000000 0.941755
vn -0.761826 0.000000 0.647782
vn -0.761826 0.000000 0.647782
vn -0.761826 0.000000 0.647782
vn -0.761826 0.000000 0.647782
vn -0.000000 0.000000 -1.000000
vn -0.000000 0.000000 -1.000000
vn -0.000000 0.000000 -1.000000
vn -0.000000 0.000000 -1.000000
vn -0.869947 0.000000 -0.493145
vn -0.869947 0.000000 -0.493145
vn -0.869947 0.000000 -0.493145
vn -0.869947 0.000000 -0.493145
vn 0.336301 0.000000 0.941755
vn 0.336301 0.000000 0.941755
vn 0.336301 0.000000 0.941755
vn 0.336301 0.000000 0.941755
vn 0.855149 0.000000 0.518382
vn 0.855149 0.000000 0.518382
vn 0.855149 0.000000 0.518382
vn 0.855149 0.000000 0.518382
vn 0.927152 0.000000 -0.374686
vn 0.927152 0.000000 -0.374686
vn 0.927152 0.000000 -0.374686
vn 0.927152 0.000000 -0.374686
vn -0.000000 0.000000 -1.000000
vn -0.000000 0.000000 -1.000000
vn -0.000000 0.000000 -1.000000
vn -0.000000 0.000000 -1.000000
s 1
g pot
usemtl initialShadingGroup
f 1/32/1 13/33/2 14/28/3 3/15/4
s 2
f 25/2/5 26/8/6 27/3/7 28/1/8
s 3
f 5/13/9 15/30/10 16/35/11 7/36/12
s 4
f 2/20/13 11/17/14 12/16/15 4/21/16
s 5
f 9/12/17 10/38/18 1/14/19 3/15/20
f 7/10/21 10/11/18 9/12/17 5/13/22
s 4
f 12/16/15 11/40/14 8/18/23 6/19/24
s 2
f 28/1/8 27/3/7 29/4/25 30/9/26
s 1
f 14/28/3 13/39/2 2/34/27 4/21/28
s 2
f 27/3/7 26/8/6 31/7/29 32/6/30
f 29/4/25 27/3/7 32/6/30 33/5/31
s 3
f 16/35/11 15/30/10 6/19/32 8/37/33
s off
f 3/15/34 14/28/35 18/29/36 17/24/37
f 9/12/38 3/15/39 17/24/40 19/23/41
f 15/30/42 5/13/43 21/22/44 20/31/45
f 5/13/46 9/12/47 19/23/48 21/22/49
f 14/28/50 4/21/51 22/27/52 18/29/53
f 4/21/54 12/16/55 23/25/56 22/27/57
f 12/16/58 6/19/59 24/26/60 23/25/61
f 6/19/62 15/30/63 20/31/64 24/26/65
f 17/24/66 18/29/67 26/8/68 25/2/69
f 19/23/70 17/24/71 25/2/72 28/1/73
f 20/31/74 21/22/75 30/9/76 29/4/77
f 21/22/78 19/23/79 28/1/80 30/9/81
f 18/29/82 22/27/83 31/7/84 26/8/85
f 22/27/86 23/25/87 32/6/88 31/7/89
f 23/25/90 24/26/91 33/5/92 32/6/93
f 24/26/94 20/31/95 29/4/96 33/5/97
