# This file uses centimeters as units for non-parametric coordinates.

mtllib Sandbox_new.mtl
g default
v 2.000000 -0.005472 33.882620
v 9.000000 -0.005472 33.882620
v 2.000000 0.770824 33.882620
v 9.000000 0.770824 33.882620
v 2.000000 0.770824 23.307007
v 9.000000 0.770824 23.307007
v 2.000000 -0.005472 23.307007
v 9.000000 -0.005472 23.307007
v 2.172237 0.770824 33.784198
v 8.827763 0.770824 33.784198
v 8.827763 0.770824 23.405428
v 2.172237 0.770824 23.405428
v 2.172237 0.591676 33.784198
v 8.827763 0.591676 33.784198
v 8.827763 0.591676 23.405428
v 2.172237 0.591676 23.405428
vt 0.499723 0.354809
vt 0.859467 0.354809
vt 0.858141 0.384946
vt 0.499723 0.384946
vt 0.853691 0.642294
vt 0.499723 0.642290
vt 0.499723 0.620122
vt 0.853691 0.620122
vt 0.501344 0.387125
vt 0.854616 0.387145
vt 0.852138 0.390754
vt 0.503822 0.390734
vt 0.850458 0.610704
vt 0.505518 0.610703
vt 0.507809 0.607093
vt 0.848167 0.607094
vt 0.118675 0.620122
vt 0.118675 0.384946
vt 0.473966 0.384946
vt 0.473966 0.620122
vt 0.884213 0.384946
vt 0.879772 0.620122
vn 0.000000 0.000000 1.000000
vn 0.000000 0.000000 1.000000
vn 0.000000 0.000000 1.000000
vn 0.000000 0.000000 1.000000
vn 0.000000 1.000000 0.000000
vn 0.000000 1.000000 0.000000
vn 0.000000 1.000000 0.000000
vn 0.000000 1.000000 0.000000
vn 0.000000 0.000000 -1.000000
vn 0.000000 0.000000 -1.000000
vn 0.000000 0.000000 -1.000000
vn 0.000000 0.000000 -1.000000
vn 0.000000 -1.000000 0.000000
vn 0.000000 -1.000000 0.000000
vn 0.000000 -1.000000 0.000000
vn 0.000000 -1.000000 0.000000
vn 1.000000 0.000000 0.000000
vn 1.000000 0.000000 0.000000
vn 1.000000 0.000000 0.000000
vn 1.000000 0.000000 0.000000
vn -1.000000 0.000000 0.000000
vn -1.000000 0.000000 0.000000
vn -1.000000 0.000000 0.000000
vn -1.000000 0.000000 0.000000
vn 0.000000 1.000000 -0.000000
vn 0.000000 1.000000 -0.000000
vn 0.000000 1.000000 -0.000000
vn 0.000000 1.000000 -0.000000
vn 0.000000 1.000000 0.000000
vn 0.000000 1.000000 0.000000
vn 0.000000 1.000000 0.000000
vn 0.000000 1.000000 0.000000
vn 0.000000 1.000000 0.000000
vn 0.000000 1.000000 0.000000
vn 0.000000 1.000000 0.000000
vn 0.000000 1.000000 0.000000
vn 0.000000 1.000000 0.000000
vn 0.000000 1.000000 0.000000
vn 0.000000 1.000000 0.000000
vn 0.000000 1.000000 0.000000
vn 0.000000 0.000000 -1.000000
vn 0.000000 0.000000 -1.000000
vn 0.000000 0.000000 -1.000000
vn 0.000000 0.000000 -1.000000
vn -1.000000 0.000000 0.000000
vn -1.000000 0.000000 0.000000
vn -1.000000 0.000000 0.000000
vn -1.000000 0.000000 0.000000
vn 0.000000 0.000000 1.000000
vn 0.000000 0.000000 1.000000
vn 0.000000 0.000000 1.000000
vn 0.000000 0.000000 1.000000
vn 1.000000 0.000000 0.000000
vn 1.000000 0.000000 0.000000
vn 1.000000 0.000000 0.000000
vn 1.000000 0.000000 0.000000
s off
g Sandbox
usemtl initialShadingGroup
f 1/20/1 2/19/2 4/4/3 3/7/4
f 13/15/5 14/12/6 15/11/7 16/16/8
f 5/8/9 6/3/10 8/21/11 7/22/12
f 7/17/13 8/18/14 2/19/15 1/20/16
f 2/1/17 8/2/18 6/3/19 4/4/20
f 7/5/21 1/6/22 3/7/23 5/8/24
f 3/7/25 4/4/26 10/9/27 9/14/28
f 4/4/29 6/3/30 11/10/31 10/9/32
f 6/3/33 5/8/34 12/13/35 11/10/36
f 5/8/37 3/7/38 9/14/39 12/13/40
f 9/14/41 10/9/42 14/12/43 13/15/44
f 10/9/45 11/10/46 15/11/47 14/12/48
f 11/10/49 12/13/50 16/16/51 15/11/52
f 12/13/53 9/14/54 13/15/55 16/16/56
