# This file uses centimeters as units for non-parametric coordinates.

mtllib Stone table_new.mtl
g default
v -1.156518 -0.005472 23.166813
v 1.156518 -0.005472 23.166813
v -1.314601 2.677659 23.696851
v 1.314601 2.677659 23.696851
v -1.314601 2.677659 20.935637
v 1.314601 2.677659 20.935637
v -1.156518 -0.005472 21.465676
v 1.156518 -0.005472 21.465676
v -1.314601 2.242677 23.696851
v -1.314601 2.242677 20.935637
v 1.314601 2.242677 20.935637
v 1.314601 2.242677 23.696851
v -1.156518 0.409471 23.166814
v -1.156518 0.409471 21.465675
v 1.156518 0.409471 21.465675
v 1.156518 0.409471 23.166814
v -0.338228 0.770825 22.076729
v -0.338228 0.770825 22.555758
v 0.338228 0.770825 22.555758
v 0.338228 0.770825 22.076729
v -0.837101 2.242677 21.410252
v -0.837101 2.242677 23.222236
v 0.837101 2.242677 23.222236
v 0.837101 2.242677 21.410252
vt 0.196260 0.612832
vt 0.348047 0.612832
vt 0.348047 0.649856
vt 0.196260 0.649856
vt 0.348047 0.893265
vt 0.196260 0.893264
vt 0.196260 0.856240
vt 0.348047 0.856240
vt 0.377346 0.170576
vt 0.130972 0.170576
vt 0.130972 0.131764
vt 0.377346 0.131764
vt 0.130972 0.405171
vt 0.377346 0.405171
vt 0.377346 0.443983
vt 0.130972 0.443983
vt 0.752059 0.516647
vt 0.789521 0.499711
vt 0.893678 0.591252
vt 0.751975 0.655313
vt 0.675508 0.460990
vt 0.694907 0.497237
vt 0.610527 0.607275
vt 0.537145 0.470166
vt 0.662531 0.170576
vt 0.662531 0.405171
vt 0.416157 0.405171
vt 0.416157 0.170576
vt 0.385071 0.856241
vt 0.385071 0.649856
vt 0.536857 0.649856
vt 0.536857 0.856240
vt 0.334997 0.213182
vt 0.173320 0.213182
vt 0.173320 0.362565
vt 0.334997 0.362565
vt 0.250782 0.783227
vt 0.293524 0.783227
vt 0.250782 0.722869
vt 0.293525 0.722869
vt 0.159236 0.856240
vt 0.159236 0.649856
vt 0.092160 0.405171
vt 0.092160 0.170576
vt 0.812704 0.443983
vt 0.951056 0.453327
vn 0.000000 -0.000001 1.000000
vn 0.000000 -0.000001 1.000000
vn 0.000000 0.325868 0.945415
vn 0.000000 0.325868 0.945415
vn 0.000000 1.000000 0.000000
vn 0.000000 1.000000 0.000000
vn 0.000000 1.000000 0.000000
vn 0.000000 1.000000 0.000000
vn 0.000000 0.325867 -0.945416
vn 0.000000 0.325867 -0.945416
vn 0.000000 -0.000001 -1.000000
vn 0.000000 -0.000001 -1.000000
vn 0.000000 -1.000000 -0.000000
vn 0.000000 -1.000000 -0.000000
vn 0.000000 -1.000000 -0.000000
vn 0.000000 -1.000000 -0.000000
vn 1.000000 -0.000000 0.000000
vn 1.000000 -0.000000 0.000000
vn 0.864645 0.502383 0.000000
vn 0.864646 0.502382 0.000000
vn -1.000000 -0.000000 0.000000
vn -1.000000 -0.000000 0.000000
vn -0.864646 0.502382 0.000000
vn -0.864645 0.502383 0.000000
vn -0.909770 -0.415113 0.000000
vn -0.909770 -0.415113 0.000000
vn -1.000000 0.000000 0.000000
vn -1.000000 0.000000 0.000000
vn 0.000000 0.000000 -1.000000
vn 0.000000 0.000000 -1.000000
vn 0.000000 -0.406374 -0.913707
vn 0.000000 -0.406374 -0.913707
vn 0.909770 -0.415113 0.000000
vn 0.909770 -0.415113 0.000000
vn 1.000000 0.000000 0.000000
vn 1.000000 0.000000 0.000000
vn 0.000000 -0.406375 0.913706
vn 0.000000 -0.406375 0.913706
vn 0.000000 0.000000 1.000000
vn 0.000000 0.000000 1.000000
vn -0.519163 -0.854675 0.000000
vn -0.519163 -0.854675 0.000000
vn 0.000000 -0.840029 -0.542542
vn 0.000000 -0.840029 -0.542542
vn 0.519163 -0.854675 0.000000
vn 0.519163 -0.854675 0.000000
vn 0.000000 -0.840029 0.542542
vn 0.000000 -0.840029 0.542542
vn -0.981940 0.189192 0.000000
vn -0.981940 0.189191 0.000000
vn 0.000000 0.163132 0.986604
vn 0.000000 0.163132 0.986604
vn 0.981940 0.189191 0.000000
vn 0.981940 0.189191 0.000000
vn 0.000000 0.163131 -0.986604
vn 0.000000 0.163131 -0.986604
s 1
g Stone_table
usemtl initialShadingGroup
f 1/41/1 2/42/2 16/4/3 13/7/4
s off
f 3/25/5 4/26/6 6/27/7 5/28/8
s 2
f 14/8/9 15/3/10 8/30/11 7/29/12
s off
f 7/29/13 8/30/14 2/31/15 1/32/16
s 3
f 2/1/17 8/2/18 15/3/19 16/4/20
s 4
f 7/5/21 1/6/22 13/7/23 14/8/24
f 10/9/25 9/10/26 3/11/27 5/12/28
s 2
f 5/28/29 6/27/30 11/14/31 10/9/32
s 3
f 12/13/33 11/14/34 6/15/35 4/16/36
s 1
f 9/10/37 12/13/38 4/43/39 3/44/40
s 4
f 21/33/41 22/34/42 9/10/26 10/9/25
s 2
f 10/9/32 11/14/31 24/36/43 21/33/44
s 3
f 23/35/45 24/36/46 11/14/34 12/13/33
s 1
f 22/34/47 23/35/48 12/13/38 9/10/37
s 4
f 14/8/24 13/7/23 18/37/49 17/38/50
s 1
f 13/7/4 16/4/3 19/39/51 18/37/52
s 3
f 16/4/20 15/3/19 20/40/53 19/39/54
s 2
f 17/38/55 20/40/56 15/3/10 14/8/9
s 4
f 17/17/50 18/18/49 22/19/42 21/20/41
s 1
f 18/18/52 19/45/51 23/46/48 22/19/47
s 3
f 19/21/54 20/22/53 24/23/46 23/24/45
s 2
f 21/20/44 24/23/43 20/22/56 17/17/55
