# This file uses centimeters as units for non-parametric coordinates.

mtllib sign08.mtl
g default
v 2.265342 3.291202 -0.385876
v 0.938335 4.618211 -0.385876
v -0.938337 4.618209 -0.385876
v -2.265346 3.291204 -0.385876
v -2.265343 1.414533 -0.385876
v -0.938337 0.087524 -0.385876
v 0.938335 0.087524 -0.385876
v 2.265346 1.414530 -0.385876
v 2.265342 3.291202 0.326369
v 0.938335 4.618211 0.326369
v -0.938337 4.618209 0.326369
v -2.265346 3.291204 0.326369
v -2.265343 1.414533 0.326369
v -0.938337 0.087524 0.326369
v 0.938335 0.087524 0.326369
v 2.265346 1.414530 0.326369
v 0.938335 3.291204 -0.385876
v -0.938337 3.291203 -0.385876
v 0.938335 1.414530 -0.385876
v -0.938337 1.414533 -0.385876
v -0.938337 1.414530 0.326369
v -0.938337 3.291203 0.326369
v 0.938337 3.291203 0.326369
v 0.938336 1.414530 0.326369
vt 0.562485 0.691027
vt 0.457454 0.586781
vt 0.500278 0.543635
vt 0.604638 0.647603
vt 0.438933 0.395653
vt 0.499723 0.395653
vt 0.794773 0.246921
vt 0.899804 0.351166
vt 0.857258 0.395653
vt 0.752619 0.290067
vt 0.918326 0.543635
vt 0.857258 0.543635
vt 0.334572 0.648894
vt 0.334572 0.543635
vt 0.439488 0.543635
vt 0.186591 0.543635
vt 0.186591 0.649449
vt 0.334572 0.395653
vt 0.186591 0.395653
vt 0.082230 0.543635
vt 0.334572 0.291636
vt 0.186591 0.292191
vt 0.081674 0.395653
vt 0.752619 0.647603
vt 0.752619 0.543635
vt 0.604638 0.543635
vt 0.752619 0.395653
vt 0.604638 0.395653
vt 0.604638 0.290623
vt 0.900682 0.585117
vt 0.796436 0.690149
vt 0.604638 0.708393
vt 0.456576 0.352830
vt 0.560822 0.247799
vt 0.752619 0.229277
vt 0.917771 0.395653
vt 0.604638 0.229833
vt 0.752619 0.708393
vn 0.707107 0.707106 0.000000
vn 0.707107 0.707106 0.000000
vn 0.707107 0.707106 0.000000
vn 0.707107 0.707106 0.000000
vn -0.000001 1.000000 0.000000
vn -0.000001 1.000000 0.000000
vn -0.000001 1.000000 0.000000
vn -0.000001 1.000000 0.000000
vn -0.707106 0.707108 0.000000
vn -0.707106 0.707108 0.000000
vn -0.707106 0.707108 0.000000
vn -0.707106 0.707108 0.000000
vn -1.000000 -0.000001 0.000000
vn -1.000000 -0.000001 0.000000
vn -1.000000 -0.000001 0.000000
vn -1.000000 -0.000001 0.000000
vn -0.707107 -0.707106 0.000000
vn -0.707107 -0.707106 0.000000
vn -0.707107 -0.707106 0.000000
vn -0.707107 -0.707106 0.000000
vn 0.000000 -1.000000 0.000000
vn 0.000000 -1.000000 0.000000
vn 0.000000 -1.000000 0.000000
vn 0.000000 -1.000000 0.000000
vn 0.707105 -0.707108 0.000000
vn 0.707105 -0.707108 0.000000
vn 0.707105 -0.707108 0.000000
vn 0.707105 -0.707108 0.000000
vn 1.000000 0.000002 0.000000
vn 1.000000 0.000002 0.000000
vn 1.000000 0.000002 0.000000
vn 1.000000 0.000002 0.000000
vn 0.000000 0.000000 -1.000000
vn -0.000000 -0.000000 -1.000000
vn 0.000000 -0.000000 -1.000000
vn -0.000000 -0.000000 1.000000
vn -0.000000 -0.000000 1.000000
vn 0.000000 0.000000 1.000000
vn 0.000000 0.000000 1.000000
vn -0.000000 -0.000000 1.000000
vn -0.000000 -0.000000 1.000000
vn 0.000000 0.000000 -1.000000
vn 0.000000 0.000000 -1.000000
vn 0.000000 0.000000 -1.000000
vn 0.000000 0.000000 -1.000000
vn -0.000000 -0.000000 -1.000000
vn -0.000000 -0.000000 -1.000000
vn 0.000000 -0.000000 -1.000000
vn 0.000000 0.000000 -1.000000
vn -0.000000 -0.000000 -1.000000
vn 0.000000 0.000000 1.000000
vn 0.000000 0.000000 1.000000
vn 0.000000 0.000000 1.000000
vn -0.000000 -0.000000 1.000000
vn -0.000000 -0.000000 1.000000
vn -0.000000 -0.000000 1.000000
s off
g sign08
usemtl initialShadingGroup
f 1/30/1 2/31/2 10/24/3 9/12/4
f 2/38/5 3/32/6 11/4/7 10/24/8
f 3/1/9 4/2/10 12/3/11 11/4/12
f 4/15/13 5/5/14 13/6/15 12/3/16
f 5/33/17 6/34/18 14/29/19 13/6/20
f 6/37/21 7/35/22 15/10/23 14/29/24
f 7/7/25 8/8/26 16/9/27 15/10/28
f 8/36/29 1/11/30 9/12/31 16/9/32
s 1
f 3/13/33 18/14/34 4/15/35
s 2
f 10/24/36 23/25/37 9/12/38
f 12/3/39 22/26/40 11/4/41
s 1
f 17/16/42 18/14/34 3/13/33 2/17/43
f 1/20/44 17/16/42 2/17/43
f 8/23/45 19/19/46 17/16/42 1/20/44
f 19/19/46 20/18/47 18/14/34 17/16/42
f 4/15/35 18/14/34 20/18/47 5/5/48
f 7/22/49 19/19/46 8/23/45
f 7/22/49 6/21/50 20/18/47 19/19/46
f 5/5/48 20/18/47 6/21/50
s 2
f 14/29/51 21/28/52 13/6/53
f 16/9/54 24/27/55 15/10/56
f 13/6/53 21/28/52 22/26/40 12/3/39
f 16/9/54 9/12/38 23/25/37 24/27/55
f 22/26/40 23/25/37 10/24/36 11/4/41
f 24/27/55 23/25/37 22/26/40 21/28/52
f 15/10/56 24/27/55 21/28/52 14/29/51
