# This file uses centimeters as units for non-parametric coordinates.

mtllib sign05.mtl
g default
v -1.585995 -0.000000 1.622027
v 1.585995 -0.000000 1.622027
v -1.585995 4.865745 0.166042
v 1.585995 4.865745 0.166042
v -1.585995 4.865745 -0.166042
v 1.585995 4.865745 -0.166042
v -1.585995 -0.000000 -1.622027
v 1.585995 -0.000000 -1.622027
v -1.585995 4.134255 0.412825
v -1.585995 4.134255 -0.405623
v 1.585995 4.134255 -0.405623
v 1.585995 4.134255 0.412825
v -1.585995 4.865745 0.000000
v -1.585995 4.181940 -0.000000
v 1.585995 4.181940 -0.000000
v 1.585995 4.865745 0.000000
v -1.585995 -0.000000 -1.284873
v -1.585995 4.134255 -0.101110
v -1.585995 4.865745 -0.101111
v 1.585995 4.865745 -0.101111
v 1.585995 4.134255 -0.101111
v 1.585995 -0.000000 -1.284873
v -1.585995 4.865745 0.101110
v -1.585995 4.134255 0.101110
v -1.585995 -0.000000 1.310173
v 1.585995 -0.000000 1.310173
v 1.585995 4.134255 0.101110
v 1.585995 4.865745 0.101110
vt 0.665543 0.694969
vt 0.651663 0.698676
vt 0.544283 0.531732
vt 0.558159 0.528027
vt 0.534898 0.499627
vt 0.537773 0.498859
vt 0.539189 0.530837
vt 0.530430 0.500820
vt 0.536068 0.534117
vt 0.525965 0.502012
vt 0.522139 0.537683
vt 0.522139 0.502758
vt 0.536068 0.731331
vt 0.522139 0.731331
vt 0.355711 0.531731
vt 0.248336 0.698679
vt 0.234457 0.694973
vt 0.341836 0.528026
vt 0.365096 0.499625
vt 0.362220 0.498857
vt 0.369565 0.500819
vt 0.360809 0.530836
vt 0.374029 0.502011
vt 0.363927 0.534114
vt 0.377723 0.537683
vt 0.377723 0.502757
vt 0.377723 0.731331
vt 0.363927 0.731331
vt 0.378001 0.257052
vt 0.522001 0.257052
vt 0.522001 0.452616
vt 0.378001 0.452616
vt 0.522001 0.487668
vt 0.378001 0.487668
vt 0.522001 0.490616
vt 0.378001 0.490616
vt 0.522001 0.495204
vt 0.378001 0.495204
vt 0.522001 0.499793
vt 0.378001 0.499793
vt 0.378001 0.242891
vt 0.522001 0.242891
vt 0.377723 0.952652
vt 0.522001 0.047348
vt 0.377723 0.947561
vt 0.522139 0.947561
vt 0.377723 0.942470
vt 0.522139 0.942470
vt 0.377723 0.746678
vt 0.522139 0.746678
vt 0.522139 0.952652
vt 0.378001 0.047348
vn 0.000000 0.280722 0.959789
vn 0.000000 0.280722 0.959789
vn 0.000000 0.286673 0.958029
vn 0.000000 0.286673 0.958029
vn 0.000000 1.000000 0.000000
vn 0.000000 1.000000 0.000000
vn 0.000000 1.000000 0.000000
vn 0.000000 1.000000 0.000000
vn 0.000000 0.286673 -0.958029
vn 0.000000 0.286673 -0.958029
vn 0.000000 0.282262 -0.959337
vn 0.000000 0.282262 -0.959337
vn 0.000000 -1.000000 0.000000
vn 0.000000 -1.000000 0.000000
vn 0.000000 -1.000000 0.000000
vn 0.000000 -1.000000 0.000000
vn 1.000000 0.000000 0.000000
vn 1.000000 0.000000 0.000000
vn 1.000000 0.000000 0.000000
vn 1.000000 0.000000 0.000000
vn -1.000000 0.000000 0.000000
vn -1.000000 0.000000 0.000000
vn -1.000000 0.000000 0.000000
vn -1.000000 0.000000 0.000000
vn -1.000000 -0.000000 0.000000
vn -1.000000 -0.000000 0.000000
vn 0.000000 0.311255 -0.950326
vn 0.000000 0.311255 -0.950326
vn 1.000000 -0.000000 0.000000
vn 1.000000 -0.000000 0.000000
vn 0.000000 0.319669 0.947529
vn 0.000000 0.319669 0.947529
vn -1.000000 -0.000000 0.000000
vn -1.000000 -0.000000 0.000000
vn -1.000000 -0.000000 0.000000
vn -1.000000 -0.000000 0.000000
vn -1.000000 0.000000 0.000000
vn -1.000000 0.000000 0.000000
vn 0.000000 -1.000000 0.000000
vn 0.000000 -1.000000 0.000000
vn 0.000000 -1.000000 0.000000
vn 0.000000 -1.000000 0.000000
vn 1.000000 -0.000000 0.000000
vn 1.000000 0.000000 0.000000
vn 1.000000 0.000000 0.000000
vn 1.000000 -0.000000 0.000000
vn 1.000000 -0.000000 0.000000
vn 1.000000 -0.000000 0.000000
vn 0.000000 1.000000 0.000000
vn 0.000000 1.000000 0.000000
vn 0.000000 1.000000 0.000000
vn 0.000000 1.000000 0.000000
vn -1.000000 -0.000000 0.000000
vn -1.000000 0.000000 0.000000
vn 0.000000 1.000000 0.000000
vn 0.000000 1.000000 0.000000
vn 1.000000 0.000000 0.000000
vn 1.000000 0.000000 0.000000
vn 0.000000 -0.293694 0.955900
vn 0.000000 -0.275269 0.961367
vn 0.000000 -0.275269 0.961367
vn 0.000000 -0.293694 0.955900
vn 0.000000 -0.298964 -0.954264
vn 0.000000 -0.298964 -0.954264
vn 0.000000 -0.280693 -0.959798
vn 0.000000 -0.280693 -0.959798
vn 0.000000 -1.000000 0.000000
vn 0.000000 -1.000000 0.000000
s 1
g sign05
usemtl initialShadingGroup
f 1/29/1 2/30/2 12/31/3 9/32/4
s 2
f 3/34/5 4/33/6 28/35/7 23/36/8
s 3
f 10/25/9 11/11/10 8/14/11 7/27/12
s off
f 25/41/13 26/42/14 2/30/15 1/29/16
s 4
f 2/1/17 26/2/18 27/3/19 12/4/20
s 5
f 24/15/21 25/16/22 1/17/23 9/18/24
f 23/19/25 24/15/21 9/18/24 3/20/26
s 3
f 5/26/27 6/12/28 11/11/10 10/25/9
s 4
f 12/4/20 27/3/19 28/5/29 4/6/30
s 1
f 9/32/4 12/31/3 4/33/31 3/34/32
s 5
f 10/25/33 18/24/34 19/23/35 5/26/36
f 7/27/37 17/28/38 18/24/34 10/25/33
s off
f 7/27/39 8/14/40 22/50/41 17/49/42
s 4
f 21/9/43 22/13/44 8/14/45 11/11/46
f 20/10/47 21/9/43 11/11/46 6/12/48
s 2
f 19/40/49 20/39/50 6/12/51 5/26/52
s 5
f 19/23/35 18/24/34 14/22/53 13/21/54
s 2
f 13/38/55 16/37/56 20/39/50 19/40/49
s 4
f 16/8/57 15/7/58 21/9/43 20/10/47
s 5
f 13/21/54 14/22/53 24/15/21 23/19/25
s 4
f 28/5/29 27/3/19 15/7/58 16/8/57
s 2
f 23/36/8 28/35/7 16/37/56 13/38/55
s 9
f 18/47/59 17/49/60 22/50/61 21/48/62
f 24/52/63 27/44/64 26/42/65 25/41/66
f 18/47/59 21/48/62 15/46/67 14/45/68
f 14/45/68 15/46/67 27/51/64 24/43/63
