# This file uses centimeters as units for non-parametric coordinates.

mtllib sign06.3.mtl
g default
v -1.008119 3.688063 0.209289
v 2.218935 3.688063 0.209289
v -1.008119 6.915117 0.209289
v 2.218935 6.915117 0.209289
v -1.008119 6.915115 -0.209289
v 2.218935 6.915115 -0.209289
v -1.008119 3.688061 -0.209289
v 2.218935 3.688061 -0.209289
v -1.008121 11.064182 0.209290
v 2.218941 11.064182 0.209290
v -1.008121 14.291237 0.209290
v 2.218941 14.291237 0.209290
v -1.008119 14.291237 -0.209289
v 2.218935 14.291237 -0.209289
v -1.008119 11.064182 -0.209289
v 2.218935 11.064182 -0.209289
v -1.008119 0.000000 0.209289
v 2.218935 0.000000 0.209289
v -1.008119 3.227053 0.209289
v 2.218935 3.227053 0.209289
v -1.008119 3.227053 -0.209289
v 2.218935 3.227053 -0.209289
v -1.008119 0.000000 -0.209289
v 2.218935 0.000000 -0.209289
v 1.296920 3.227053 0.000000
v 1.757927 3.227053 0.000000
v 1.296920 3.688061 0.000000
v 1.757927 3.688061 0.000000
v -0.547111 3.227053 0.000000
v -0.086103 3.227053 0.000000
v -0.547111 3.688061 0.000000
v -0.086103 3.688061 0.000000
v -0.547111 6.915115 0.000000
v -0.086103 6.915115 0.000000
v -0.547111 7.376122 0.000000
v -0.086103 7.376122 0.000000
v 1.296920 6.915115 0.000000
v 1.757927 6.915115 0.000000
v 1.296920 7.376122 0.000000
v 1.757927 7.376122 0.000000
v -0.547111 10.603176 0.000000
v -0.086103 10.603176 0.000000
v -0.547111 11.064182 0.000000
v -0.086103 11.064182 0.000000
v 1.296920 10.603176 0.000000
v 1.757927 10.603176 0.000000
v 1.296920 11.064182 0.000000
v 1.757927 11.064182 0.000000
v -1.469126 13.369226 0.000000
v -1.008119 13.369226 0.000000
v -1.469126 13.830233 0.000000
v -1.008119 13.830233 0.000000
v -1.469126 11.525192 0.000000
v -1.008119 11.525192 0.000000
v -1.469126 11.986200 0.000000
v -1.008119 11.986200 0.000000
v -1.469126 0.461005 0.000000
v -1.008119 0.461005 0.000000
v -1.469126 0.922015 0.000000
v -1.008119 0.922015 0.000000
v -1.469126 2.305038 0.000000
v -1.008119 2.305038 0.000000
v -1.469126 2.766045 0.000000
v -1.008119 2.766045 0.000000
v -0.938287 14.792210 0.177526
v 7.469126 14.792210 0.177526
v -0.938287 18.507113 0.177526
v 7.469126 18.507113 0.177526
v -0.938287 18.507113 -0.177526
v 7.469126 18.507113 -0.177526
v -0.938287 14.792210 -0.177526
v 7.469126 14.792210 -0.177526
v 1.296920 14.291237 0.000000
v 1.757927 14.291237 0.000000
v 1.296920 14.792210 0.000000
v 1.757927 14.792210 0.000000
v -0.086104 14.291237 0.000000
v -0.547112 14.291237 0.000000
v -0.086104 14.792210 0.000000
v -0.547112 14.792210 0.000000
v -1.008119 7.376122 0.209289
v 2.218935 7.376122 0.209289
v -1.008119 10.603176 0.209289
v 2.218935 10.603176 0.209289
v -1.008119 10.603168 -0.209289
v 2.218935 10.603168 -0.209289
v -1.008119 7.376114 -0.209289
v 2.218935 7.376114 -0.209289
vt 0.600000 0.211612
vt 0.613887 0.211612
vt 0.613886 0.318672
vt 0.600000 0.318672
vt 0.479053 0.211612
vt 0.492939 0.211612
vt 0.492940 0.318672
vt 0.479053 0.318672
vt 0.600000 0.511612
vt 0.613887 0.511612
vt 0.613887 0.618672
vt 0.600000 0.618672
vt 0.720948 0.511612
vt 0.492939 0.511612
vt 0.492939 0.618672
vt 0.720947 0.618672
vt 0.600000 0.061612
vt 0.613887 0.061612
vt 0.613887 0.168672
vt 0.600000 0.168672
vt 0.479053 0.061612
vt 0.492940 0.061612
vt 0.492940 0.168672
vt 0.479053 0.168672
vt 0.753603 0.815142
vt 0.741640 0.815142
vt 0.741640 0.689972
vt 0.753603 0.689972
vt 0.458360 0.815142
vt 0.446397 0.815142
vt 0.446397 0.689972
vt 0.458360 0.689972
vt 0.600000 0.332559
vt 0.492939 0.332559
vt 0.492939 0.197725
vt 0.600000 0.197725
vt 0.600000 0.632559
vt 0.492940 0.632559
vt 0.492940 0.497725
vt 0.600000 0.497725
vt 0.600000 0.182559
vt 0.492940 0.182559
vt 0.492940 0.047725
vt 0.600000 0.047725
vt 0.458360 0.678009
vt 0.741640 0.678009
vt 0.741640 0.827105
vt 0.458360 0.827105
vt 0.720947 0.318672
vt 0.720947 0.211612
vt 0.720947 0.168672
vt 0.720947 0.061612
vt 0.167058 0.300584
vt 0.167058 0.337938
vt 0.129704 0.337938
vt 0.129704 0.300584
vt 0.167058 0.337938
vt 0.167058 0.375292
vt 0.129704 0.375292
vt 0.129704 0.337938
vt 0.167058 0.375292
vt 0.167058 0.412646
vt 0.129704 0.412646
vt 0.129704 0.375292
vt 0.167058 0.412646
vt 0.167058 0.450000
vt 0.129704 0.450000
vt 0.129704 0.412646
vt 0.129704 0.450000
vt 0.167058 0.450000
vt 0.167058 0.487354
vt 0.129704 0.487354
vt 0.129704 0.487354
vt 0.167058 0.487354
vt 0.167058 0.524708
vt 0.129704 0.524708
vt 0.129704 0.524708
vt 0.167058 0.524708
vt 0.167058 0.562062
vt 0.129704 0.562062
vt 0.167058 0.562062
vt 0.167058 0.599416
vt 0.129704 0.599416
vt 0.129704 0.562062
vt 0.167058 0.599417
vt 0.167058 0.636771
vt 0.129704 0.636771
vt 0.129704 0.599417
vt 0.167058 0.636771
vt 0.167058 0.674125
vt 0.129704 0.674125
vt 0.129704 0.636771
vt 0.741640 0.952275
vt 0.458360 0.952275
vt 0.170296 0.225875
vt 0.170296 0.263230
vt 0.129704 0.263230
vt 0.129704 0.225875
vt 0.170296 0.300584
vt 0.129704 0.300584
vt 0.129704 0.263230
vt 0.170296 0.263230
vt 0.479053 0.618672
vt 0.479053 0.511612
vt 0.492939 0.361612
vt 0.600000 0.361612
vt 0.600000 0.468672
vt 0.492939 0.468672
vt 0.600000 0.482559
vt 0.492939 0.482559
vt 0.720947 0.468672
vt 0.613886 0.468672
vt 0.613887 0.361612
vt 0.720947 0.361612
vt 0.492939 0.347725
vt 0.600000 0.347725
vt 0.479053 0.361612
vt 0.479053 0.468672
vn 0.000000 0.000000 1.000000
vn 0.000000 0.000000 1.000000
vn 0.000000 0.000000 1.000000
vn 0.000000 0.000000 1.000000
vn 0.000000 1.000000 -0.000004
vn 0.000000 1.000000 -0.000004
vn 0.000000 1.000000 -0.000004
vn 0.000000 1.000000 -0.000004
vn 0.000000 0.000000 -1.000000
vn 0.000000 0.000000 -1.000000
vn 0.000000 0.000000 -1.000000
vn 0.000000 0.000000 -1.000000
vn 0.000000 -1.000000 0.000004
vn 0.000000 -1.000000 0.000004
vn 0.000000 -1.000000 0.000004
vn 0.000000 -1.000000 0.000004
vn 1.000000 0.000000 0.000000
vn 1.000000 0.000000 0.000000
vn 1.000000 0.000000 0.000000
vn 1.000000 0.000000 0.000000
vn -1.000000 0.000000 0.000000
vn -1.000000 0.000000 0.000000
vn -1.000000 0.000000 0.000000
vn -1.000000 0.000000 0.000000
vn 0.000000 0.000000 1.000000
vn 0.000000 0.000000 1.000000
vn 0.000000 0.000000 1.000000
vn 0.000000 0.000000 1.000000
vn 0.000000 1.000000 0.000000
vn 0.000000 1.000000 0.000000
vn 0.000000 1.000000 0.000000
vn 0.000000 1.000000 0.000000
vn 0.000000 0.000000 -1.000000
vn 0.000000 0.000000 -1.000000
vn 0.000000 0.000000 -1.000000
vn 0.000000 0.000000 -1.000000
vn 0.000000 -1.000000 0.000001
vn 0.000000 -1.000000 0.000001
vn 0.000000 -1.000000 0.000001
vn 0.000000 -1.000000 0.000001
vn 1.000000 0.000000 -0.000014
vn 1.000000 0.000000 -0.000014
vn 1.000000 0.000000 -0.000014
vn 1.000000 0.000000 -0.000014
vn -1.000000 0.000000 -0.000007
vn -1.000000 0.000000 -0.000007
vn -1.000000 0.000000 -0.000007
vn -1.000000 0.000000 -0.000007
vn 0.000000 0.000000 1.000000
vn 0.000000 0.000000 1.000000
vn 0.000000 0.000000 1.000000
vn 0.000000 0.000000 1.000000
vn 0.000000 1.000000 0.000000
vn 0.000000 1.000000 0.000000
vn 0.000000 1.000000 0.000000
vn 0.000000 1.000000 0.000000
vn 0.000000 0.000000 -1.000000
vn 0.000000 0.000000 -1.000000
vn 0.000000 0.000000 -1.000000
vn 0.000000 0.000000 -1.000000
vn 0.000000 -1.000000 0.000000
vn 0.000000 -1.000000 0.000000
vn 0.000000 -1.000000 0.000000
vn 0.000000 -1.000000 0.000000
vn 1.000000 0.000000 0.000000
vn 1.000000 0.000000 0.000000
vn 1.000000 0.000000 0.000000
vn 1.000000 0.000000 0.000000
vn -1.000000 0.000000 0.000000
vn -1.000000 0.000000 0.000000
vn -1.000000 0.000000 0.000000
vn -1.000000 0.000000 0.000000
vn 0.000000 0.000000 1.000000
vn 0.000000 0.000000 1.000000
vn 0.000000 0.000000 1.000000
vn 0.000000 0.000000 1.000000
vn 0.000000 0.000000 1.000000
vn 0.000000 0.000000 1.000000
vn 0.000000 0.000000 1.000000
vn 0.000000 0.000000 1.000000
vn 0.000000 0.000000 1.000000
vn 0.000000 0.000000 1.000000
vn 0.000000 0.000000 1.000000
vn 0.000000 0.000000 1.000000
vn 0.000000 0.000000 1.000000
vn 0.000000 0.000000 1.000000
vn 0.000000 0.000000 1.000000
vn 0.000000 0.000000 1.000000
vn 0.000000 0.000000 1.000000
vn 0.000000 0.000000 1.000000
vn 0.000000 0.000000 1.000000
vn 0.000000 0.000000 1.000000
vn 0.000000 0.000000 1.000000
vn 0.000000 0.000000 1.000000
vn 0.000000 0.000000 1.000000
vn 0.000000 0.000000 1.000000
vn 0.000000 0.000000 1.000000
vn 0.000000 0.000000 1.000000
vn 0.000000 0.000000 1.000000
vn 0.000000 0.000000 1.000000
vn 0.000000 0.000000 1.000000
vn 0.000000 0.000000 1.000000
vn 0.000000 0.000000 1.000000
vn 0.000000 0.000000 1.000000
vn 0.000000 0.000000 1.000000
vn 0.000000 0.000000 1.000000
vn 0.000000 0.000000 1.000000
vn 0.000000 0.000000 1.000000
vn 0.000000 0.000000 1.000000
vn 0.000000 0.000000 1.000000
vn 0.000000 0.000000 1.000000
vn 0.000000 0.000000 1.000000
vn 0.000000 0.000000 1.000000
vn 0.000000 0.000000 1.000000
vn 0.000000 0.000000 1.000000
vn 0.000000 0.000000 1.000000
vn 0.000000 1.000000 0.000000
vn 0.000000 1.000000 0.000000
vn 0.000000 1.000000 0.000000
vn 0.000000 1.000000 0.000000
vn 0.000000 0.000000 -1.000000
vn 0.000000 0.000000 -1.000000
vn 0.000000 0.000000 -1.000000
vn 0.000000 0.000000 -1.000000
vn 0.000000 -1.000000 0.000000
vn 0.000000 -1.000000 0.000000
vn 0.000000 -1.000000 0.000000
vn 0.000000 -1.000000 0.000000
vn 1.000000 0.000000 0.000000
vn 1.000000 0.000000 0.000000
vn 1.000000 0.000000 0.000000
vn 1.000000 0.000000 0.000000
vn -1.000000 0.000000 0.000000
vn -1.000000 0.000000 0.000000
vn -1.000000 0.000000 0.000000
vn -1.000000 0.000000 0.000000
vn 0.000000 0.000000 1.000000
vn 0.000000 0.000000 1.000000
vn 0.000000 0.000000 1.000000
vn 0.000000 0.000000 1.000000
vn 0.000000 0.000000 1.000000
vn 0.000000 0.000000 1.000000
vn 0.000000 0.000000 1.000000
vn 0.000000 0.000000 1.000000
vn 0.000000 0.000000 1.000000
vn 0.000000 0.000000 1.000000
vn 0.000000 0.000000 1.000000
vn 0.000000 0.000000 1.000000
vn 0.000000 1.000000 -0.000017
vn 0.000000 1.000000 -0.000017
vn 0.000000 1.000000 -0.000017
vn 0.000000 1.000000 -0.000017
vn 0.000000 0.000000 -1.000000
vn 0.000000 0.000000 -1.000000
vn 0.000000 0.000000 -1.000000
vn 0.000000 0.000000 -1.000000
vn 0.000000 -1.000000 0.000018
vn 0.000000 -1.000000 0.000018
vn 0.000000 -1.000000 0.000018
vn 0.000000 -1.000000 0.000018
vn 1.000000 0.000000 0.000000
vn 1.000000 0.000000 0.000000
vn 1.000000 0.000000 0.000000
vn 1.000000 0.000000 0.000000
vn -1.000000 0.000000 0.000000
vn -1.000000 0.000000 0.000000
vn -1.000000 0.000000 0.000000
vn -1.000000 0.000000 0.000000
s off
g sign07
usemtl initialShadingGroup
f 1/6/1 2/1/2 4/4/3 3/7/4
f 3/7/5 4/4/6 6/33/7 5/34/8
f 5/49/9 6/3/10 8/2/11 7/50/12
f 7/35/13 8/36/14 2/1/15 1/6/16
f 2/1/17 8/2/18 6/3/19 4/4/20
f 7/5/21 1/6/22 3/7/23 5/8/24
f 9/14/25 10/9/26 12/12/27 11/15/28
f 11/15/29 12/12/30 14/37/31 13/38/32
f 13/16/33 14/11/34 16/10/35 15/13/36
f 15/39/37 16/40/38 10/9/39 9/14/40
f 10/9/41 16/10/42 14/11/43 12/12/44
f 15/104/45 9/14/46 11/15/47 13/103/48
f 17/22/49 18/17/50 20/20/51 19/23/52
f 19/23/53 20/20/54 22/41/55 21/42/56
f 21/51/57 22/19/58 24/18/59 23/52/60
f 23/43/61 24/44/62 18/17/63 17/22/64
f 18/17/65 24/18/66 22/19/67 20/20/68
f 23/21/69 17/22/70 19/23/71 21/24/72
f 25/53/73 26/54/74 28/55/75 27/56/76
f 29/57/77 30/58/78 32/59/79 31/60/80
f 33/61/81 34/62/82 36/63/83 35/64/84
f 37/65/85 38/66/86 40/67/87 39/68/88
f 41/69/89 42/70/90 44/71/91 43/72/92
f 45/73/93 46/74/94 48/75/95 47/76/96
f 49/77/97 50/78/98 52/79/99 51/80/100
f 53/81/101 54/82/102 56/83/103 55/84/104
f 57/85/105 58/86/106 60/87/107 59/88/108
f 61/89/109 62/90/110 64/91/111 63/92/112
f 65/48/113 66/47/114 68/93/115 67/94/116
f 67/45/117 68/46/118 70/27/119 69/32/120
f 69/32/121 70/27/122 72/26/123 71/29/124
f 71/29/125 72/26/126 66/47/127 65/48/128
f 66/25/129 72/26/130 70/27/131 68/28/132
f 71/29/133 65/30/134 67/31/135 69/32/136
f 73/95/137 74/96/138 76/97/139 75/98/140
f 77/99/141 79/100/142 80/101/143 78/102/144
f 81/105/145 82/106/146 84/107/147 83/108/148
f 83/108/149 84/107/150 86/109/151 85/110/152
f 85/111/153 86/112/154 88/113/155 87/114/156
f 87/115/157 88/116/158 82/106/159 81/105/160
f 82/106/161 88/113/162 86/112/163 84/107/164
f 87/117/165 81/105/166 83/108/167 85/118/168
