# This file uses centimeters as units for non-parametric coordinates.

mtllib sign07.mtl
g default
v -1.500000 0.056195 0.226991
v 1.500000 0.056195 0.226991
v -1.500000 9.851934 0.226991
v 1.500000 9.851934 0.226991
v -1.500000 9.851934 -0.226991
v 1.500000 9.851934 -0.226991
v -1.500000 0.056195 -0.226991
v 1.500000 0.056195 -0.226991
v -1.500000 6.913213 0.226991
v -1.500000 6.913213 -0.226991
v 1.500000 6.913213 -0.226991
v 1.500000 6.913213 0.226991
v -4.847527 6.913213 0.226991
v -4.847527 6.913213 -0.226991
v -4.847527 9.851934 0.226991
v -4.847527 9.851934 -0.226991
v 4.847527 6.913213 -0.226991
v 4.847527 6.913213 0.226991
v 4.847527 9.851934 -0.226991
v 4.847527 9.851934 0.226991
v -1.500000 10.849251 0.226991
v 1.500000 10.849251 0.226991
v 1.500000 10.849251 -0.226991
v -1.500000 10.849251 -0.226991
v -2.526844 10.849251 -0.226991
v -2.526844 10.849251 0.226991
v 2.526844 10.849251 0.226991
v 2.526844 10.849251 -0.226991
vt 0.807391 0.421205
vt 0.807391 0.434133
vt 0.612161 0.434121
vt 0.612163 0.421194
vt 0.807388 0.519545
vt 0.807388 0.532471
vt 0.612167 0.532471
vt 0.612167 0.519546
vt 0.499994 0.704375
vt 0.487085 0.704373
vt 0.487090 0.620809
vt 0.500012 0.620813
vt 0.487075 0.249263
vt 0.500011 0.249265
vt 0.499995 0.333000
vt 0.487066 0.333005
vt 0.487128 0.519580
vt 0.487128 0.434126
vt 0.500058 0.434126
vt 0.500061 0.519580
vt 0.487134 0.404887
vt 0.500055 0.404881
vt 0.500064 0.548839
vt 0.487125 0.548835
vt 0.820316 0.434134
vt 0.820313 0.519546
vt 0.362081 0.519557
vt 0.375011 0.519562
vt 0.374987 0.614907
vt 0.362056 0.614903
vt 0.375003 0.434105
vt 0.362068 0.434098
vt 0.362111 0.338729
vt 0.375044 0.338735
vt 0.179699 0.519606
vt 0.179684 0.434157
vt 0.458720 0.434124
vt 0.458718 0.519578
vt 0.458756 0.338770
vt 0.458693 0.614932
vt 0.528469 0.519575
vt 0.528463 0.434126
vt 0.528452 0.338783
vt 0.612150 0.338774
vt 0.612211 0.614889
vt 0.528508 0.614928
vn 0.000000 0.000000 1.000000
vn 0.000000 0.000000 1.000000
vn 0.000000 0.000000 1.000000
vn 0.000000 0.000000 1.000000
vn 0.000000 1.000000 0.000000
vn 0.000000 1.000000 0.000000
vn 0.000000 1.000000 0.000000
vn 0.000000 1.000000 0.000000
vn 0.000000 0.000000 -1.000000
vn 0.000000 0.000000 -1.000000
vn 0.000000 0.000000 -1.000000
vn 0.000000 0.000000 -1.000000
vn 0.000000 -1.000000 0.000000
vn 0.000000 -1.000000 0.000000
vn 0.000000 -1.000000 0.000000
vn 0.000000 -1.000000 0.000000
vn 1.000000 0.000000 0.000000
vn 1.000000 0.000000 0.000000
vn 1.000000 0.000000 0.000000
vn 1.000000 0.000000 0.000000
vn -1.000000 0.000000 0.000000
vn -1.000000 0.000000 0.000000
vn -1.000000 0.000000 0.000000
vn -1.000000 0.000000 0.000000
vn -1.000000 0.000000 0.000000
vn -1.000000 0.000000 0.000000
vn -0.861420 0.507892 0.000000
vn -0.861420 0.507892 0.000000
vn 0.000000 0.000000 -1.000000
vn 0.000000 0.000000 -1.000000
vn 1.000000 0.000000 0.000000
vn 1.000000 0.000000 0.000000
vn 0.861420 0.507892 0.000000
vn 0.861420 0.507892 0.000000
vn 0.000000 0.000000 1.000000
vn 0.000000 0.000000 1.000000
vn 0.000000 -1.000000 0.000000
vn 0.000000 -1.000000 0.000000
vn 0.000000 -1.000000 0.000000
vn 0.000000 -1.000000 0.000000
vn 0.000000 0.000000 1.000000
vn 0.000000 0.000000 1.000000
vn 0.000000 1.000000 0.000000
vn 0.000000 1.000000 0.000000
vn 0.000000 0.000000 -1.000000
vn 0.000000 0.000000 -1.000000
vn 0.000000 -1.000000 0.000000
vn 0.000000 -1.000000 0.000000
vn 0.000000 -1.000000 0.000000
vn 0.000000 -1.000000 0.000000
vn 0.000000 0.000000 -1.000000
vn 0.000000 0.000000 -1.000000
vn 0.000000 1.000000 0.000000
vn 0.000000 1.000000 0.000000
vn 0.000000 0.000000 1.000000
vn 0.000000 0.000000 1.000000
vn 0.000000 0.000000 1.000000
vn 0.000000 0.000000 1.000000
vn 0.000000 0.000000 -1.000000
vn 0.000000 0.000000 -1.000000
vn 0.000000 0.000000 -1.000000
vn -0.394835 0.918752 0.000000
vn -0.394835 0.918752 0.000000
vn 0.000000 0.000000 1.000000
vn 0.000000 0.000000 1.000000
vn 0.394835 0.918752 0.000000
vn 0.394835 0.918752 0.000000
vn 0.000000 0.000000 -1.000000
s 1
g sign06
usemtl initialShadingGroup
f 1/35/1 2/36/2 12/31/3 9/28/4
s 2
f 21/17/5 22/18/6 23/19/7 24/20/8
s 3
f 10/8/9 11/3/10 8/2/11 7/5/12
s off
f 7/5/13 8/2/14 2/25/15 1/26/16
f 2/1/17 8/2/18 11/3/19 12/4/20
f 7/5/21 1/6/22 9/7/23 10/8/24
s 4
f 14/9/25 13/10/26 15/11/27 16/12/28
s 3
f 5/41/29 6/42/30 11/3/10 10/8/9
s 5
f 18/13/31 17/14/32 19/15/33 20/16/34
s 1
f 9/28/4 12/31/3 4/37/35 3/38/36
s off
f 10/27/37 9/28/38 13/29/39 14/30/40
s 1
f 9/28/4 3/38/36 15/40/41 13/29/42
s 2
f 21/17/5 24/20/8 25/23/43 26/24/44
s 3
f 5/41/29 10/8/9 14/45/45 16/46/46
s off
f 12/31/47 11/32/48 17/33/49 18/34/50
s 3
f 11/3/10 6/42/30 19/43/51 17/44/52
s 2
f 23/19/7 22/18/6 27/21/53 28/22/54
s 1
f 4/37/35 12/31/3 18/34/55 20/39/56
f 3/38/36 4/37/35 22/18/57 21/17/58
s 3
f 6/42/30 5/41/29 24/20/59 23/19/60
f 5/41/29 16/46/46 25/23/61 24/20/59
s 4
f 16/12/28 15/11/27 26/24/62 25/23/63
s 1
f 15/40/41 3/38/36 21/17/58 26/24/64
f 4/37/35 20/39/56 27/21/65 22/18/57
s 5
f 20/16/34 19/15/33 28/22/66 27/21/67
s 3
f 19/43/51 6/42/30 23/19/60 28/22/68
