# This file uses centimeters as units for non-parametric coordinates.

mtllib sign01.mtl
g default
v -1.500000 0.056195 0.226991
v 1.500000 0.056195 0.226991
v -1.500000 7.056195 0.226991
v 1.500000 7.056195 0.226991
v -1.500000 7.056195 -0.226991
v 1.500000 7.056195 -0.226991
v -1.500000 0.056195 -0.226991
v 1.500000 0.056195 -0.226991
vt 0.440269 0.138771
vt 0.488631 0.138771
vt 0.488630 0.884466
vt 0.440269 0.884466
vt 0.808214 0.138771
vt 0.856576 0.138771
vt 0.856576 0.884467
vt 0.808214 0.884466
vt 0.808214 0.932828
vt 0.488630 0.932828
vt 0.488631 0.090410
vt 0.808214 0.090410
vt 0.120685 0.138771
vt 0.120685 0.884466
vn 0.000000 0.000000 1.000000
vn 0.000000 0.000000 1.000000
vn 0.000000 0.000000 1.000000
vn 0.000000 0.000000 1.000000
vn 0.000000 1.000000 0.000000
vn 0.000000 1.000000 0.000000
vn 0.000000 1.000000 0.000000
vn 0.000000 1.000000 0.000000
vn 0.000000 0.000000 -1.000000
vn 0.000000 0.000000 -1.000000
vn 0.000000 0.000000 -1.000000
vn 0.000000 0.000000 -1.000000
vn 0.000000 -1.000000 0.000000
vn 0.000000 -1.000000 0.000000
vn 0.000000 -1.000000 0.000000
vn 0.000000 -1.000000 0.000000
vn 1.000000 0.000000 0.000000
vn 1.000000 0.000000 0.000000
vn 1.000000 0.000000 0.000000
vn 1.000000 0.000000 0.000000
vn -1.000000 0.000000 0.000000
vn -1.000000 0.000000 0.000000
vn -1.000000 0.000000 0.000000
vn -1.000000 0.000000 0.000000
s off
g sign01
usemtl initialShadingGroup
f 1/13/1 2/1/2 4/4/3 3/14/4
f 3/9/5 4/10/6 6/3/7 5/8/8
f 5/8/9 6/3/10 8/2/11 7/5/12
f 7/5/13 8/2/14 2/11/15 1/12/16
f 2/1/17 8/2/18 6/3/19 4/4/20
f 7/5/21 1/6/22 3/7/23 5/8/24
